<?xml version="1.0" encoding="UTF-8"?>
<svg xmlns="http://www.w3.org/2000/svg" xmlns:xlink="http://www.w3.org/1999/xlink" version="1.2" >
<font id="PFDINMonoPro-Medium">
<font-face  font-family="PF DIN Mono Pro" units-per-em="1000" ascent="750" descent="-250" font-style="normal" font-weight="500" font-stretch="normal" cap-height="696" x-height="495" underline-position="-85" underline-thickness="60" />
<missing-glyph  horiz-adv-x="600" d="M75 700 L525 700 L525 0 L75 0 L75 700 Z M416 72 L300 283 L184 72 L416 72 Z M416 627 L183 627 L300 417 L416 627 Z M147 147 L259 350 L147 554 L147 147 Z M452 147 L452 554 L341 349 L452 147 Z " />
<glyph glyph-name="NULL" d="" />
<glyph glyph-name="nonmarkingreturn" unicode="&#xd;" horiz-adv-x="600" d="" />
<glyph glyph-name="space" unicode="&#x20;" horiz-adv-x="600" d="" />
<glyph glyph-name="ampersand" unicode="&#x26;" horiz-adv-x="600" d="M398 57 Q360 25 316.5 9 Q273 -7 231 -7 Q182 -7 146 8 Q110 23 87 48 Q64 73 52.5 105.5 Q41 138 41 173 Q41 238 69 289 Q97 340 160 385 L139 412 Q115 443 104 474.5 Q93 506 93 535 Q93 569 104.5 599.5 Q116 630 139.5 653 Q163 676 197.5 689 Q232 702 278 702 Q318 702 362 688.5 Q406 675 447 637 L387 555 Q362 580 335 590.5 Q308 601 282 601 Q250 601 226.5 585 Q203 569 203 535 Q203 515 209 501.5 Q215 488 232 465 Q274 406 317 347.5 Q360 289 402 229 Q415 255 423 282 Q431 309 436 337 L538 318 Q529 273 511 224 Q493 175 468 137 L562 0 L440 0 L398 57 Z M337 143 Q307 184 277.5 224 Q248 264 217 305 Q150 259 150 188 Q150 147 175.5 123.5 Q201 100 243 100 Q269 100 294.5 113 Q320 126 337 143 Z " />
<glyph glyph-name="quotesingle" unicode="&#x27;" horiz-adv-x="600" d="M361 696 L348 469 L256 469 L243 696 L361 696 Z " />
<glyph glyph-name="parenleft" unicode="&#x28;" horiz-adv-x="600" d="M376 -131 Q337 -88 301.5 -38 Q266 12 239 67.5 Q212 123 196 182.5 Q180 242 180 305 Q180 369 195.5 428.5 Q211 488 237 543 Q263 598 298.5 647 Q334 696 373 739 L439 697 Q406 653 380 604.5 Q354 556 336 506.5 Q318 457 309 407 Q300 357 300 310 Q300 207 337.5 104.5 Q375 2 439 -83 L376 -131 L376 -131 Z " />
<glyph glyph-name="parenright" unicode="&#x29;" horiz-adv-x="600" d="M424 305 Q424 242 408 182.5 Q392 123 365 67.5 Q338 12 302.5 -38 Q267 -88 228 -131 L165 -84 Q197 -42 222.5 6 Q248 54 266 104.5 Q284 155 293.5 207 Q303 259 303 310 Q303 404 268 506.5 Q233 609 165 697 L231 739 Q270 696 305.5 647 Q341 598 367 543 Q393 488 408.5 428.5 Q424 369 424 305 Z " />
<glyph glyph-name="asterisk" unicode="&#x2a;" horiz-adv-x="600" d="M433 423 L360 369 L299 472 L236 368 L163 422 L243 512 L130 540 L155 624 L266 577 L255 697 L345 697 L333 577 L444 624 L469 540 L354 512 L433 423 Z " />
<glyph glyph-name="plus" unicode="&#x2b;" horiz-adv-x="600" d="M347 251 L347 62 L253 62 L253 251 L66 251 L66 341 L253 341 L253 527 L347 527 L347 341 L533 341 L533 251 L347 251 Z " />
<glyph glyph-name="comma" unicode="&#x2c;" horiz-adv-x="600" d="M350 4 Q330 -38 310 -79.5 Q290 -121 270 -163 L195 -163 L240 0 L206 0 L206 145 L350 145 L350 4 L350 4 Z " />
<glyph glyph-name="hyphen" unicode="&#x2d;" horiz-adv-x="600" d="M141 211 L141 314 L458 314 L458 211 L141 211 Z " />
<glyph glyph-name="period" unicode="&#x2e;" horiz-adv-x="600" d="M205 0 L205 145 L349 145 L349 0 L205 0 Z " />
<glyph glyph-name="slash" unicode="&#x2f;" horiz-adv-x="600" d="M219 -42 L128 -42 L380 725 L472 725 L219 -42 Z " />
<glyph glyph-name="zero" unicode="0" horiz-adv-x="600" d="M504 197 Q504 148 488 110.5 Q472 73 444 47.5 Q416 22 378.5 8.5 Q341 -5 299 -5 Q257 -5 219.5 8.5 Q182 22 154.5 47.5 Q127 73 111 110.5 Q95 148 95 197 L95 498 Q95 547 111 584.5 Q127 622 154.5 648 Q182 674 219 687.5 Q256 701 299 701 Q343 701 380.5 687.5 Q418 674 445.5 648 Q473 622 488.5 584.5 Q504 547 504 498 L504 197 Z M205 251 L384 547 Q373 571 352 585.5 Q331 600 299 600 Q257 600 231 572 Q205 544 205 496 L205 251 Z M394 432 L219 141 Q243 97 299 97 Q341 97 367.5 123.5 Q394 150 394 198 L394 432 Z " />
<glyph glyph-name="one" unicode="1" horiz-adv-x="600" d="M121 500 L121 612 L277 696 L384 696 L384 105 L524 105 L524 0 L120 0 L120 105 L269 105 L269 568 L130 496 L121 500 Z " />
<glyph glyph-name="two" unicode="2" horiz-adv-x="600" d="M87 0 L87 98 Q154 182 221 264.5 Q288 347 356 431 Q387 469 387 513 Q387 547 365 573 Q343 599 298 599 Q255 599 228 570.5 Q201 542 195 494 L87 512 Q93 555 111.5 590 Q130 625 158 649.5 Q186 674 222 687 Q258 700 297 700 Q341 700 379 688.5 Q417 677 445 653.5 Q473 630 489 595 Q505 560 505 513 Q505 477 492 441 Q479 405 455 376 L234 106 L501 106 L501 0 L87 0 Z " />
<glyph glyph-name="three" unicode="3" horiz-adv-x="600" d="M401 363 Q432 353 452.5 334 Q473 315 486 292.5 Q499 270 504.5 246.5 Q510 223 510 204 Q510 163 495 125 Q480 87 451.5 57.5 Q423 28 381.5 10.5 Q340 -7 286 -7 Q252 -7 218.5 1.5 Q185 10 156 29.5 Q127 49 105.5 80.5 Q84 112 75 159 L184 179 Q192 140 221 118 Q250 96 286 96 Q337 96 364.5 128 Q392 160 392 210 Q392 260 362 288 Q332 316 279 316 L226 316 L226 410 L276 410 Q327 410 354.5 437 Q382 464 382 505 Q382 546 356 572.5 Q330 599 288 599 Q259 599 229 579.5 Q199 560 188 513 Q179 514 164.5 517 Q150 520 135 523 Q120 526 105.5 528.5 Q91 531 82 533 Q90 572 110 603.5 Q130 635 158 657 Q186 679 220 690.5 Q254 702 290 702 Q343 702 382.5 686.5 Q422 671 447.5 644.5 Q473 618 485.5 583.5 Q498 549 498 511 Q498 493 493 472.5 Q488 452 476.5 432.5 Q465 413 446.5 395.5 Q428 378 401 367 L401 363 Z " />
<glyph glyph-name="four" unicode="4" horiz-adv-x="600" d="M476 102 L476 0 L362 0 L362 102 L64 102 L64 199 L304 696 L429 696 L191 206 L362 206 L362 395 L476 395 L476 206 L532 206 L532 102 L476 102 Z " />
<glyph glyph-name="five" unicode="5" horiz-adv-x="600" d="M511 261 Q511 206 500 157.5 Q489 109 463.5 73 Q438 37 396.5 16 Q355 -5 295 -5 Q260 -5 226.5 2 Q193 9 164.5 27.5 Q136 46 115.5 78 Q95 110 86 159 L196 178 Q204 133 230.5 114 Q257 95 293 95 Q327 95 347.5 109.5 Q368 124 379 146 Q390 168 393.5 194.5 Q397 221 397 245 Q397 270 393 294 Q389 318 377.5 337 Q366 356 347 367 Q328 378 298 378 Q273 378 249.5 362.5 Q226 347 209 317 L104 317 L104 696 L491 696 L491 591 L210 591 L210 435 Q239 461 269.5 469.5 Q300 478 328 478 Q375 478 409.5 460.5 Q444 443 466.5 413.5 Q489 384 500 344.5 Q511 305 511 261 Z " />
<glyph glyph-name="six" unicode="6" horiz-adv-x="600" d="M511 215 Q511 158 492.5 116.5 Q474 75 444 48 Q414 21 375.5 7.5 Q337 -6 297 -6 Q250 -6 212 8 Q174 22 146 49 Q118 76 103 116 Q88 156 88 208 Q88 240 95.5 275.5 Q103 311 123 348 L307 696 L433 696 L283 409 L285 406 Q295 410 307.5 411.5 Q320 413 331 413 Q372 413 405.5 397.5 Q439 382 462.5 355 Q486 328 498.5 292 Q511 256 511 215 Z M394 208 Q394 263 365.5 290 Q337 317 298 317 Q280 317 262.5 310 Q245 303 231.5 289.5 Q218 276 210 255.5 Q202 235 202 208 Q202 154 228 125 Q254 96 298 96 Q317 96 334.5 103.5 Q352 111 365 125 Q378 139 386 160 Q394 181 394 208 Z " />
<glyph glyph-name="seven" unicode="7" horiz-adv-x="600" d="M262 0 L138 0 L379 589 L206 589 L206 490 L91 490 L91 696 L507 696 L507 592 L262 0 Z " />
<glyph glyph-name="eight" unicode="8" horiz-adv-x="600" d="M523 202 Q523 155 505.5 116.5 Q488 78 458 51 Q428 24 387 9 Q346 -6 300 -6 Q252 -6 211 8.5 Q170 23 140 49.5 Q110 76 93.5 113.5 Q77 151 77 198 Q77 220 83 244 Q89 268 101 290 Q113 312 131.5 330.5 Q150 349 174 360 Q134 381 113.5 419.5 Q93 458 93 506 Q93 548 109 584 Q125 620 152.5 646.5 Q180 673 218 688 Q256 703 301 703 Q350 703 389 688 Q428 673 455 646 Q482 619 496 583 Q510 547 510 505 Q510 464 488.5 425 Q467 386 428 361 Q452 350 470 332.5 Q488 315 500 293.5 Q512 272 517.5 248 Q523 224 523 202 Z M399 504 Q399 550 370.5 577 Q342 604 301 604 Q259 604 231.5 577 Q204 550 204 504 Q204 481 212 463 Q220 445 233.5 432.5 Q247 420 264.5 413.5 Q282 407 301 407 Q320 407 337.5 413.5 Q355 420 368.5 432.5 Q382 445 390.5 463 Q399 481 399 504 Z M411 206 Q411 228 402 247.5 Q393 267 378 281 Q363 295 343 303 Q323 311 300 311 Q277 311 257 303 Q237 295 222 281 Q207 267 198 247.5 Q189 228 189 206 Q189 161 217.5 127.5 Q246 94 300 94 Q355 94 383 127.5 Q411 161 411 206 Z " />
<glyph glyph-name="nine" unicode="9" horiz-adv-x="600" d="M88 476 Q88 536 106.5 578.5 Q125 621 155 648.5 Q185 676 223.5 688.5 Q262 701 301 701 Q344 701 382 687 Q420 673 448.5 646 Q477 619 494 579 Q511 539 511 487 Q511 455 504 423.5 Q497 392 482 363 L290 0 L162 0 L316 291 L313 293 Q304 289 291 287 Q278 285 267 285 Q226 285 192.5 299 Q159 313 136 338.5 Q113 364 100.5 399 Q88 434 88 476 Z M203 488 Q203 433 231 405.5 Q259 378 298 378 Q337 378 365.5 405.5 Q394 433 394 488 Q394 542 368 571 Q342 600 298 600 Q260 600 231.5 571 Q203 542 203 488 Z " />
<glyph glyph-name="colon" unicode="&#x3a;" horiz-adv-x="600" d="M231 0 L231 138 L367 138 L367 0 L231 0 Z M231 281 L231 419 L367 419 L367 281 L231 281 Z " />
<glyph glyph-name="semicolon" unicode="&#x3b;" horiz-adv-x="600" d="M233 281 L233 419 L369 419 L369 281 L233 281 Z M369 4 Q351 -32 333.5 -68.5 Q316 -105 298 -142 L228 -142 L264 0 L234 0 L234 138 L369 138 L369 4 Z " />
<glyph glyph-name="less" unicode="&#x3c;" horiz-adv-x="600" d="M529 40 L70 253 L70 339 L529 552 L529 451 L189 296 L529 141 L529 40 Z " />
<glyph glyph-name="equal" unicode="&#x3d;" horiz-adv-x="600" d="M61 357 L61 446 L538 446 L538 357 L61 357 Z M61 146 L61 235 L538 235 L538 146 L61 146 Z " />
<glyph glyph-name="greater" unicode="&#x3e;" horiz-adv-x="600" d="M80 141 L419 296 L80 451 L80 552 L539 339 L539 253 L80 40 L80 141 Z " />
<glyph glyph-name="question" unicode="&#x3f;" horiz-adv-x="600" d="M517 512 Q517 478 505 451 Q493 424 476 401.5 Q459 379 439.5 358.5 Q420 338 403 317.5 Q386 297 375 274.5 Q364 252 364 225 L364 189 L247 189 L247 226 Q247 267 259.5 299.5 Q272 332 300 365 Q345 417 367 448.5 Q389 480 389 506 Q389 522 384 536.5 Q379 551 368 562.5 Q357 574 340 581 Q323 588 299 588 Q275 588 257 578 Q239 568 226.5 552.5 Q214 537 207 518 Q200 499 198 481 L83 499 Q91 549 112.5 586.5 Q134 624 164.5 649.5 Q195 675 232 687.5 Q269 700 308 700 Q356 700 394.5 686 Q433 672 460.5 646.5 Q488 621 502.5 586.5 Q517 552 517 512 Z M245 0 L245 113 L364 113 L364 0 L245 0 Z " />
<glyph glyph-name="at" unicode="&#x40;" horiz-adv-x="600" d="M358 466 L361 496 L435 496 L412 266 Q411 258 410 247 Q409 236 409 226 Q409 212 413.5 200.5 Q418 189 433 189 Q443 189 453 200.5 Q463 212 471 237 Q479 262 483.5 302.5 Q488 343 488 401 Q488 616 333 616 Q283 616 243 591 Q203 566 174.5 517 Q146 468 130.5 396.5 Q115 325 115 232 Q115 126 157 78.5 Q199 31 277 31 Q309 31 345 37.5 Q381 44 427 64 Q433 47 439.5 31.5 Q446 16 452 0 Q432 -10 409 -17.5 Q386 -25 363.5 -30 Q341 -35 320.5 -37.5 Q300 -40 284 -40 Q218 -40 171.5 -21.5 Q125 -3 95 32.5 Q65 68 51.5 119.5 Q38 171 38 236 Q38 342 60.5 425.5 Q83 509 122.5 567 Q162 625 217 655 Q272 685 338 685 Q391 685 432 665.5 Q473 646 501.5 609 Q530 572 545 519.5 Q560 467 560 401 Q560 258 523 187 Q486 116 418 116 Q392 116 374 131 Q356 146 351 171 L349 171 Q333 140 310 126.5 Q287 113 260 113 Q236 113 215.5 121 Q195 129 180.5 147.5 Q166 166 157.5 197 Q149 228 149 273 Q149 312 157 352.5 Q165 393 182 426 Q199 459 225 480 Q251 501 287 501 Q303 501 322 494 Q341 487 356 464 L358 466 Z M232 263 Q232 252 233.5 239 Q235 226 239 215.5 Q243 205 251 198 Q259 191 271 191 Q289 191 302 204.5 Q315 218 323.5 240 Q332 262 335.5 290.5 Q339 319 339 348 Q339 375 331.5 397.5 Q324 420 301 420 Q281 420 268 405.5 Q255 391 247 368 Q239 345 235.5 317.5 Q232 290 232 263 Z " />
<glyph glyph-name="A" unicode="A" horiz-adv-x="600" d="M401 150 L197 150 L155 0 L29 0 L236 696 L364 696 L569 0 L443 0 L401 150 Z M297 531 Q290 502 282 468 Q274 434 263 395 Q253 359 246.5 335.5 Q240 312 236 296.5 Q232 281 229 270.5 Q226 260 224 251 L374 251 Q369 273 361 300 Q353 327 340 375 Q329 418 319 457 Q309 496 301 531 L297 531 Z " />
<glyph glyph-name="B" unicode="B" horiz-adv-x="600" d="M551 205 Q551 160 535 122 Q519 84 491.5 57 Q464 30 427 15 Q390 0 347 0 L67 0 L67 696 L318 696 Q425 696 480.5 646.5 Q536 597 536 512 Q536 493 531 472.5 Q526 452 514.5 432.5 Q503 413 485 396.5 Q467 380 441 369 L441 365 Q468 357 488.5 340 Q509 323 523 301 Q537 279 544 254 Q551 229 551 205 Z M410 503 Q410 541 383.5 564.5 Q357 588 307 588 L188 588 L188 413 L307 413 Q359 413 384.5 439 Q410 465 410 503 Z M428 212 Q428 231 421.5 249 Q415 267 401.5 280.5 Q388 294 367 302.5 Q346 311 318 311 L188 311 L188 109 L318 109 Q346 109 367 118 Q388 127 401.5 141.5 Q415 156 421.5 174.5 Q428 193 428 212 Z " />
<glyph glyph-name="C" unicode="C" horiz-adv-x="600" d="M558 156 Q532 80 470.5 37 Q409 -6 318 -6 Q250 -6 202 14.5 Q154 35 123.5 70.5 Q93 106 79 154.5 Q65 203 65 259 L65 437 Q65 489 79 537 Q93 585 123 621.5 Q153 658 200.5 679.5 Q248 701 314 701 Q404 701 463 656.5 Q522 612 548 539 L437 494 Q424 535 394.5 561 Q365 587 316 587 Q282 587 257.5 574.5 Q233 562 217 542 Q201 522 193.5 495.5 Q186 469 186 442 L186 257 Q186 228 193.5 201.5 Q201 175 217.5 154 Q234 133 258.5 120.5 Q283 108 318 108 Q369 108 400 134.5 Q431 161 445 203 L558 156 Z " />
<glyph glyph-name="D" unicode="D" horiz-adv-x="600" d="M290 696 Q368 696 431 666 Q494 636 527 567 Q546 529 550 477 Q554 425 554 360 Q554 287 550 233 Q546 179 529 138 Q512 99 485.5 72.5 Q459 46 426 30 Q393 14 354 7 Q315 0 273 0 L59 0 L59 696 L290 696 Z M433 413 Q433 506 392 546.5 Q351 587 275 587 L180 587 L180 109 L277 109 Q321 109 351 121.5 Q381 134 399 156.5 Q417 179 425 211.5 Q433 244 433 283 L433 413 Z " />
<glyph glyph-name="E" unicode="E" horiz-adv-x="600" d="M84 0 L84 696 L523 696 L523 587 L205 587 L205 414 L487 414 L487 309 L205 309 L205 109 L543 109 L543 0 L84 0 Z " />
<glyph glyph-name="F" unicode="F" horiz-adv-x="600" d="M213 587 L213 398 L490 398 L490 293 L213 293 L213 0 L92 0 L92 696 L538 696 L538 587 L213 587 Z " />
<glyph glyph-name="G" unicode="G" horiz-adv-x="600" d="M299 701 Q391 701 451.5 656.5 Q512 612 539 540 L427 494 Q414 534 380 560.5 Q346 587 299 587 Q262 587 237.5 574.5 Q213 562 198 542 Q183 522 176.5 495.5 Q170 469 170 442 L170 254 Q170 225 177 198.5 Q184 172 199 151.5 Q214 131 239 118.5 Q264 106 300 106 Q364 106 398 145 Q432 184 432 247 L432 276 L310 276 L310 380 L552 380 L552 248 Q552 192 534.5 145 Q517 98 484.5 64 Q452 30 405 11.5 Q358 -7 299 -7 Q233 -7 186 13.5 Q139 34 108.5 69 Q78 104 63.5 152 Q49 200 49 254 L49 442 Q49 493 63.5 539.5 Q78 586 109 622 Q140 658 187 679.5 Q234 701 299 701 Z " />
<glyph glyph-name="H" unicode="H" horiz-adv-x="600" d="M426 0 L426 308 L175 308 L175 0 L54 0 L54 696 L175 696 L175 413 L426 413 L426 696 L546 696 L546 0 L426 0 Z " />
<glyph glyph-name="I" unicode="I" horiz-adv-x="600" d="M117 696 L489 696 L489 587 L359 587 L359 109 L489 109 L489 0 L117 0 L117 109 L238 109 L238 587 L117 587 L117 696 Z " />
<glyph glyph-name="J" unicode="J" horiz-adv-x="600" d="M480 223 Q480 158 462 114.5 Q444 71 413.5 44.5 Q383 18 342.5 6.5 Q302 -5 257 -5 Q200 -5 150 13.5 Q100 32 65 77 L143 161 Q166 138 196 122 Q226 106 251 106 Q266 106 284.5 110.5 Q303 115 320 128 Q337 141 348.5 164.5 Q360 188 360 227 L360 588 L117 588 L117 696 L480 696 L480 223 Z " />
<glyph glyph-name="K" unicode="K" horiz-adv-x="600" d="M341 423 L573 0 L432 0 L262 318 L178 208 L178 0 L57 0 L57 696 L179 696 L179 394 L181 394 L409 696 L547 696 L341 423 Z " />
<glyph glyph-name="L" unicode="L" horiz-adv-x="600" d="M114 0 L114 696 L235 696 L235 109 L555 109 L555 0 L114 0 Z " />
<glyph glyph-name="M" unicode="M" horiz-adv-x="600" d="M422 0 L422 434 L419 434 L346 231 L256 231 L183 435 L180 432 L180 0 L61 0 L61 696 L185 696 L300 383 L303 383 L415 696 L541 696 L541 0 L422 0 Z " />
<glyph glyph-name="N" unicode="N" horiz-adv-x="600" d="M409 0 L198 437 L195 436 L195 0 L74 0 L74 696 L193 696 L404 261 L407 262 L407 696 L527 696 L527 0 L409 0 Z " />
<glyph glyph-name="O" unicode="O" horiz-adv-x="600" d="M298 701 Q359 701 406 681.5 Q453 662 484 627.5 Q515 593 531 545.5 Q547 498 547 442 L547 247 Q547 191 531 144.5 Q515 98 483.5 64.5 Q452 31 405.5 12.5 Q359 -6 298 -6 Q231 -6 184 14.5 Q137 35 108 69.5 Q79 104 65.5 150 Q52 196 52 247 L52 442 Q52 494 65.5 541.5 Q79 589 109 624 Q139 659 185.5 680 Q232 701 298 701 Z M298 588 Q262 588 238 575 Q214 562 199.5 541 Q185 520 179 493.5 Q173 467 173 440 L173 256 Q173 227 179 200 Q185 173 199 152 Q213 131 237.5 118.5 Q262 106 298 106 Q332 106 356.5 118 Q381 130 396 150.5 Q411 171 418 198 Q425 225 425 256 L425 440 Q425 470 417.5 496.5 Q410 523 394.5 543.5 Q379 564 355 576 Q331 588 298 588 Z " />
<glyph glyph-name="P" unicode="P" horiz-adv-x="600" d="M557 478 Q557 436 542 398 Q527 360 498 331 Q469 302 426 284.5 Q383 267 327 267 L201 267 L201 0 L80 0 L80 696 L320 696 Q372 696 415.5 682 Q459 668 490.5 641 Q522 614 539.5 573 Q557 532 557 478 Z M433 481 Q433 535 402.5 561 Q372 587 319 587 L201 587 L201 376 L323 376 Q379 376 406 407.5 Q433 439 433 481 Z " />
<glyph glyph-name="Q" unicode="Q" horiz-adv-x="600" d="M298 701 Q359 701 406 681 Q453 661 484 625 Q515 589 531 539.5 Q547 490 547 432 L547 254 Q547 195 531 148 Q515 101 485 67 L534 8 Q515 -7 496.5 -22 Q478 -37 459 -53 L404 13 Q381 4 354.5 -1 Q328 -6 298 -6 Q231 -6 184 14.5 Q137 35 108 70.5 Q79 106 65.5 153.5 Q52 201 52 254 L52 432 Q52 486 65.5 535 Q79 584 109 620.5 Q139 657 185.5 679 Q232 701 298 701 Z M298 588 Q259 588 235 573.5 Q211 559 197 535.5 Q183 512 178 483 Q173 454 173 425 L173 271 Q173 241 178.5 211.5 Q184 182 198 159 Q212 136 236.5 121.5 Q261 107 299 107 Q312 107 326 110 L276 173 L349 236 L404 167 Q415 189 420 215 Q425 241 425 271 L425 440 Q425 470 417.5 496.5 Q410 523 394.5 543.5 Q379 564 355 576 Q331 588 298 588 Z " />
<glyph glyph-name="R" unicode="R" horiz-adv-x="600" d="M419 0 L292 280 L195 280 L195 0 L74 0 L74 696 L343 696 Q388 696 426.5 681.5 Q465 667 492.5 640 Q520 613 535.5 575 Q551 537 551 491 Q551 424 514.5 372 Q478 320 412 298 L554 0 L419 0 Z M427 491 Q427 540 396.5 564 Q366 588 320 588 L195 588 L195 387 L317 387 Q369 387 398 414 Q427 441 427 491 Z " />
<glyph glyph-name="S" unicode="S" horiz-adv-x="600" d="M551 206 Q551 155 531.5 116 Q512 77 478 50 Q444 23 398.5 9.5 Q353 -4 301 -4 Q237 -4 167 16.5 Q97 37 39 91 Q56 114 72.5 137 Q89 160 106 183 Q149 141 198.5 123 Q248 105 303 105 Q328 105 351 110.5 Q374 116 391.5 127.5 Q409 139 419.5 157.5 Q430 176 430 202 Q430 231 417.5 249.5 Q405 268 384.5 280 Q364 292 337 299 Q310 306 280 313 Q244 321 207 331.5 Q170 342 141 362.5 Q112 383 93.5 416.5 Q75 450 75 505 Q75 556 94.5 593 Q114 630 145.5 654.5 Q177 679 217.5 691 Q258 703 300 703 Q363 703 420 688 Q477 673 523 637 L469 541 Q427 570 386.5 581 Q346 592 309 592 Q249 592 221 570 Q193 548 193 513 Q193 492 200.5 476.5 Q208 461 226 449 Q244 437 273.5 427 Q303 417 348 408 Q384 400 420 387.5 Q456 375 485 352.5 Q514 330 532.5 294.5 Q551 259 551 206 Z " />
<glyph glyph-name="T" unicode="T" horiz-adv-x="600" d="M361 588 L361 0 L240 0 L240 588 L56 588 L56 696 L545 696 L545 588 L361 588 Z " />
<glyph glyph-name="U" unicode="U" horiz-adv-x="600" d="M542 696 L542 245 Q542 190 527 144 Q512 98 481.5 65 Q451 32 405.5 13.5 Q360 -5 300 -5 Q237 -5 191 14 Q145 33 115.5 67 Q86 101 72 147.5 Q58 194 58 249 L58 696 L178 696 L178 300 Q178 262 182 227.5 Q186 193 199 166.5 Q212 140 236 124 Q260 108 300 108 Q339 108 363 123 Q387 138 399.5 164.5 Q412 191 416.5 226 Q421 261 421 301 L421 696 L542 696 Z " />
<glyph glyph-name="V" unicode="V" horiz-adv-x="600" d="M305 172 L441 696 L565 696 Q514 521 464 348 Q414 175 363 0 L237 0 L34 696 L159 696 L300 172 L305 172 Z " />
<glyph glyph-name="W" unicode="W" horiz-adv-x="600" d="M297 297 L226 0 L104 0 L35 695 L150 695 L191 235 L194 235 L254 488 L345 488 Q359 425 374 363 Q389 301 404 238 L408 238 L452 695 L565 695 L491 0 L376 0 L301 297 L297 297 Z " />
<glyph glyph-name="X" unicode="X" horiz-adv-x="600" d="M431 0 L299 243 L168 0 L36 0 Q86 91 135.5 180 Q185 269 236 360 L51 696 L182 696 L299 475 L417 696 L547 696 L363 360 Q413 269 463 180 Q513 91 563 0 L431 0 Z " />
<glyph glyph-name="Y" unicode="Y" horiz-adv-x="600" d="M357 280 L357 0 L242 0 L242 280 L41 696 L166 696 Q198 624 231.5 552.5 Q265 481 299 407 L303 409 L434 696 L558 696 L357 280 Z " />
<glyph glyph-name="Z" unicode="Z" horiz-adv-x="600" d="M71 0 L71 104 L380 587 L87 587 L87 696 L523 696 L523 597 L214 109 L528 109 L528 0 L71 0 Z " />
<glyph glyph-name="bracketleft" unicode="&#x5b;" horiz-adv-x="600" d="M215 -100 L215 698 L414 698 L414 617 L320 617 L320 -20 L414 -20 L414 -100 L215 -100 Z " />
<glyph glyph-name="backslash" unicode="&#x5c;" horiz-adv-x="600" d="M127 725 L220 725 L472 -42 L380 -42 L127 725 Z " />
<glyph glyph-name="bracketright" unicode="&#x5d;" horiz-adv-x="600" d="M191 -100 L191 -20 L283 -20 L283 617 L191 617 L191 698 L389 698 L389 -100 L191 -100 Z " />
<glyph glyph-name="asciicircum" unicode="&#x5e;" horiz-adv-x="600" d="M59 281 L257 695 L343 695 L540 282 L439 282 L299 580 L159 281 L59 281 Z " />
<glyph glyph-name="underscore" unicode="&#x5f;" horiz-adv-x="600" d="M50 -145 L50 -69 L550 -69 L550 -145 L50 -145 Z " />
<glyph glyph-name="grave" unicode="&#x60;" horiz-adv-x="600" d="M327 544 L204 723 L310 768 L396 577 L327 544 Z " />
<glyph glyph-name="a" unicode="a" horiz-adv-x="600" d="M283 500 Q325 500 362 492.5 Q399 485 427 466 Q455 447 471.5 415.5 Q488 384 488 336 L488 0 L375 0 L375 44 Q375 44 373 45 Q353 19 317.5 7 Q282 -5 244 -5 Q165 -5 119 33.5 Q73 72 73 144 Q73 174 84 201 Q95 228 116 248.5 Q137 269 168.5 281 Q200 293 241 293 L375 293 L375 329 Q375 343 370.5 356 Q366 369 355 378.5 Q344 388 325 394 Q306 400 277 400 Q236 400 208 389.5 Q180 379 159 359 L99 435 Q135 471 183 485.5 Q231 500 283 500 Z M180 152 Q180 141 184.5 130 Q189 119 199.5 110.5 Q210 102 226.5 96.5 Q243 91 268 91 Q315 91 345 110.5 Q375 130 375 185 L375 207 L260 207 Q217 207 198.5 191 Q180 175 180 152 Z " />
<glyph glyph-name="b" unicode="b" horiz-adv-x="600" d="M329 500 Q385 500 420 477.5 Q455 455 474.5 420 Q494 385 501 341.5 Q508 298 508 256 Q508 212 502 166 Q496 120 477 81.5 Q458 43 422.5 18.5 Q387 -6 329 -6 Q298 -6 264.5 6 Q231 18 208 48 L206 47 L206 0 L93 0 L93 726 L206 726 L206 447 L208 447 Q232 474 265.5 487 Q299 500 329 500 Z M392 248 Q392 271 389.5 297 Q387 323 377.5 344.5 Q368 366 349 380.5 Q330 395 298 395 Q267 395 248.5 380.5 Q230 366 220.5 344 Q211 322 208.5 296 Q206 270 206 248 Q206 226 208.5 199.5 Q211 173 220.5 150 Q230 127 248 111.5 Q266 96 298 96 Q331 96 349.5 111 Q368 126 377.5 148.5 Q387 171 389.5 197.5 Q392 224 392 248 Z " />
<glyph glyph-name="c" unicode="c" horiz-adv-x="600" d="M516 67 Q480 32 434 13 Q388 -6 337 -6 Q289 -6 247.5 8 Q206 22 176 52.5 Q146 83 128.5 130.5 Q111 178 111 246 Q111 312 129.5 360 Q148 408 179 439 Q210 470 251 485 Q292 500 338 500 Q436 500 506 430 L437 351 Q415 374 389.5 385.5 Q364 397 339 397 Q285 397 256 360 Q227 323 227 247 Q227 169 256.5 133.5 Q286 98 343 98 Q372 98 399 112 Q426 126 447 147 L516 67 L516 67 Z " />
<glyph glyph-name="d" unicode="d" horiz-adv-x="600" d="M395 0 L395 43 L392 45 Q365 17 332.5 5.5 Q300 -6 268 -6 Q209 -6 174.5 16.5 Q140 39 121.5 75.5 Q103 112 97.5 158 Q92 204 92 250 Q92 293 100 337.5 Q108 382 129 418.5 Q150 455 186.5 478 Q223 501 280 501 Q313 501 344 490.5 Q375 480 393 457 L395 458 L395 726 L507 726 L507 0 L395 0 Z M395 248 Q395 273 392 299 Q389 325 379.5 346 Q370 367 351.5 380.5 Q333 394 303 394 Q271 394 252 380 Q233 366 223 344 Q213 322 210 295 Q207 268 207 243 Q207 215 210.5 189 Q214 163 223.5 143.5 Q233 124 251 112 Q269 100 299 100 Q330 100 349 114 Q368 128 378 149.5 Q388 171 391.5 197.5 Q395 224 395 248 Z " />
<glyph glyph-name="e" unicode="e" horiz-adv-x="600" d="M208 215 Q208 188 213.5 166.5 Q219 145 231.5 129 Q244 113 265 104.5 Q286 96 317 96 Q339 96 370.5 107 Q402 118 430 143 L495 64 Q453 26 406.5 10 Q360 -6 313 -6 Q271 -6 231 5 Q191 16 160 43.5 Q129 71 110.5 119.5 Q92 168 92 243 Q92 316 111 365.5 Q130 415 160 445 Q190 475 228 488 Q266 501 305 501 Q358 501 396.5 483.5 Q435 466 460.5 433 Q486 400 498.5 353 Q511 306 511 248 L511 215 L208 215 Z M304 400 Q265 400 240 372.5 Q215 345 210 295 L394 295 Q391 349 366.5 374.5 Q342 400 304 400 Z " />
<glyph glyph-name="f" unicode="f" horiz-adv-x="600" d="M520 604 Q502 615 475 623 Q448 631 420 631 Q376 631 359 611 Q342 591 342 554 L342 495 L535 495 L535 398 L342 398 L342 0 L230 0 L230 398 L62 398 L62 495 L230 495 L230 559 Q230 609 245 642.5 Q260 676 285 696 Q310 716 343.5 724.5 Q377 733 414 733 Q449 733 489.5 724.5 Q530 716 562 696 L520 604 Z " />
<glyph glyph-name="g" unicode="g" horiz-adv-x="600" d="M502 11 Q502 -46 484.5 -87.5 Q467 -129 436.5 -155 Q406 -181 365.5 -193.5 Q325 -206 279 -206 Q235 -206 190 -194 Q145 -182 107 -147 Q121 -125 136.5 -103.5 Q152 -82 166 -60 Q191 -79 223 -89.5 Q255 -100 279 -100 Q329 -100 359.5 -74 Q390 -48 390 1 L390 48 L388 48 Q363 19 332 7 Q301 -5 266 -5 Q210 -5 175 16 Q140 37 120.5 71 Q101 105 94 148 Q87 191 87 236 Q87 280 93 326.5 Q99 373 118.5 411.5 Q138 450 174.5 475 Q211 500 272 500 Q301 500 333.5 488 Q366 476 387 449 Q388 449 388 449.5 Q388 450 389 450 L389 495 L502 495 L502 11 Z M202 247 Q202 220 204.5 193.5 Q207 167 216.5 146.5 Q226 126 245 113 Q264 100 296 100 Q327 100 345.5 114 Q364 128 373.5 150 Q383 172 386 197.5 Q389 223 389 247 Q389 268 387 294 Q385 320 376 342.5 Q367 365 348.5 380 Q330 395 297 395 Q265 395 246 381 Q227 367 217.5 345.5 Q208 324 205 297.5 Q202 271 202 247 Z " />
<glyph glyph-name="h" unicode="h" horiz-adv-x="600" d="M393 0 L393 294 Q393 342 372.5 368 Q352 394 304 394 Q260 394 233 365.5 Q206 337 206 287 L206 0 L94 0 L94 726 L206 726 L206 444 L209 444 Q233 470 268.5 485 Q304 500 338 500 Q414 500 459.5 456.5 Q505 413 505 325 L505 0 L393 0 Z " />
<glyph glyph-name="i" unicode="i" horiz-adv-x="600" d="M515 0 L126 0 L126 102 L270 102 L270 398 L126 398 L126 495 L383 495 L383 102 L515 102 L515 0 Z M261 583 L261 696 L383 696 L383 583 L261 583 Z " />
<glyph glyph-name="j" unicode="j" horiz-adv-x="600" d="M160 -198 L160 -91 L215 -91 Q260 -91 275.5 -71.5 Q291 -52 291 -8 L291 398 L131 398 L131 495 L404 495 L404 -26 Q404 -65 395 -96.5 Q386 -128 366 -150.5 Q346 -173 313 -185.5 Q280 -198 232 -198 L160 -198 Z M283 583 L283 696 L404 696 L404 583 L283 583 Z " />
<glyph glyph-name="k" unicode="k" horiz-adv-x="600" d="M428 0 L283 222 L214 146 L214 0 L101 0 L101 726 L214 726 L214 292 L216 291 L400 495 L536 495 L359 303 L562 0 L428 0 Z " />
<glyph glyph-name="l" unicode="l" horiz-adv-x="600" d="M507 0 L118 0 L118 102 L260 102 L260 629 L116 629 L116 726 L373 726 L373 102 L507 102 L507 0 Z " />
<glyph glyph-name="m" unicode="m" horiz-adv-x="600" d="M438 0 L438 329 Q438 357 430 375 Q422 393 399 393 Q376 393 365 371.5 Q354 350 354 311 L354 0 L251 0 L251 326 Q251 357 242 374.5 Q233 392 210 392 Q188 392 175.5 372.5 Q163 353 163 311 L163 0 L56 0 L56 495 L161 495 L161 449 Q162 449 163 448.5 Q164 448 165 448 Q180 473 204 486.5 Q228 500 254 500 Q278 500 300 488.5 Q322 477 333 438 Q355 470 379.5 485 Q404 500 436 500 Q498 500 521.5 461.5 Q545 423 545 354 L545 0 L438 0 Z " />
<glyph glyph-name="n" unicode="n" horiz-adv-x="600" d="M393 0 L393 294 Q393 342 372.5 368 Q352 394 302 394 Q258 394 232 365.5 Q206 337 206 287 L206 0 L94 0 L94 495 L206 495 L206 444 L209 444 Q233 470 269.5 485 Q306 500 340 500 Q416 500 460.5 456.5 Q505 413 505 325 L505 0 L393 0 Z " />
<glyph glyph-name="o" unicode="o" horiz-adv-x="600" d="M303 500 Q357 500 399.5 481.5 Q442 463 470 428 Q515 371 515 259 Q515 202 508 160.5 Q501 119 484 90 Q456 42 408 17.5 Q360 -7 295 -7 Q236 -7 192 13 Q148 33 122 74 Q102 105 93.5 146.5 Q85 188 85 243 Q85 300 96 343 Q107 386 130 418 Q159 457 202.5 478.5 Q246 500 303 500 Z M301 399 Q242 399 216 347 Q206 327 202.5 301.5 Q199 276 199 245 Q199 217 201 193.5 Q203 170 211 152 Q235 96 298 96 Q361 96 387 155 Q395 172 397.5 195 Q400 218 400 255 Q400 314 386 345 Q373 374 350.5 386.5 Q328 399 301 399 Z " />
<glyph glyph-name="p" unicode="p" horiz-adv-x="600" d="M207 495 L207 448 L209 447 Q235 475 268.5 487.5 Q302 500 334 500 Q388 500 422.5 477.5 Q457 455 476.5 419 Q496 383 503 338 Q510 293 510 248 Q510 203 501.5 157.5 Q493 112 472 75.5 Q451 39 414.5 16.5 Q378 -6 321 -6 Q289 -6 260 3 Q231 12 209 34 L207 33 L207 -200 L94 -200 L94 495 L207 495 Z M206 245 Q206 220 209 194 Q212 168 221.5 146.5 Q231 125 249.5 111.5 Q268 98 298 98 Q330 98 349 112 Q368 126 377.5 148 Q387 170 390 196.5 Q393 223 393 249 Q393 274 390 300 Q387 326 377.5 347 Q368 368 349.5 381 Q331 394 301 394 Q270 394 251 380 Q232 366 222 344 Q212 322 209 295.5 Q206 269 206 245 Z " />
<glyph glyph-name="q" unicode="q" horiz-adv-x="600" d="M276 500 Q307 500 337 487 Q367 474 387 448 L389 449 L389 495 L502 495 L502 -200 L389 -200 L389 48 L387 49 Q360 19 328.5 6.5 Q297 -6 262 -6 Q209 -6 175 14.5 Q141 35 121.5 69 Q102 103 94.5 147 Q87 191 87 238 Q87 285 95 331.5 Q103 378 124 415.5 Q145 453 182 476.5 Q219 500 276 500 Z M202 245 Q202 220 204.5 194 Q207 168 217 147 Q227 126 245.5 112.5 Q264 99 296 99 Q327 99 345.5 113.5 Q364 128 373.5 150.5 Q383 173 386 198.5 Q389 224 389 247 Q389 269 386.5 295.5 Q384 322 374.5 345 Q365 368 346.5 383.5 Q328 399 297 399 Q264 399 245.5 384 Q227 369 217 346 Q207 323 204.5 296 Q202 269 202 245 Z " />
<glyph glyph-name="r" unicode="r" horiz-adv-x="600" d="M385 395 Q340 395 312.5 370.5 Q285 346 285 297 L285 0 L173 0 L173 495 L284 495 L284 436 L287 435 Q310 467 345 483.5 Q380 500 417 500 Q445 500 478 491.5 Q511 483 537 463 L487 363 Q456 383 431.5 389 Q407 395 385 395 Z " />
<glyph glyph-name="s" unicode="s" horiz-adv-x="600" d="M508 151 Q508 115 492 85.5 Q476 56 448.5 36 Q421 16 384.5 5 Q348 -6 306 -6 Q251 -6 196.5 9 Q142 24 91 68 L151 150 Q187 117 226.5 104 Q266 91 311 91 Q346 91 371.5 106.5 Q397 122 397 148 Q397 169 383 180.5 Q369 192 347 199 Q325 206 297.5 210 Q270 214 242 220 Q218 225 196.5 233.5 Q175 242 158 257 Q141 272 131 294.5 Q121 317 121 350 Q121 385 136 413 Q151 441 176 460.5 Q201 480 234.5 490 Q268 500 306 500 Q363 500 408.5 487.5 Q454 475 495 444 L441 358 Q406 381 371.5 391 Q337 401 304 401 Q265 401 246.5 385.5 Q228 370 228 353 Q228 327 254.5 314.5 Q281 302 346 294 Q378 290 407 281.5 Q436 273 458.5 256.5 Q481 240 494.5 214.5 Q508 189 508 151 Z " />
<glyph glyph-name="t" unicode="t" horiz-adv-x="600" d="M81 398 L81 495 L212 495 L212 637 L322 637 L322 495 L531 495 L531 398 L323 398 L323 180 Q323 140 340.5 118 Q358 96 400 96 Q427 96 455.5 106 Q484 116 507 134 L553 44 Q533 29 510 19 Q487 9 464.5 3.5 Q442 -2 421 -4.5 Q400 -7 384 -7 Q345 -7 312.5 1.5 Q280 10 257.5 30.5 Q235 51 222.5 84 Q210 117 210 166 L210 398 L81 398 Z " />
<glyph glyph-name="u" unicode="u" horiz-adv-x="600" d="M391 0 L391 48 L388 48 Q363 18 329.5 6 Q296 -6 263 -6 Q99 -6 99 169 L99 495 L211 495 L211 200 Q211 153 227 127.5 Q243 102 288 102 Q333 102 362 129 Q391 156 391 210 L391 495 L503 495 L503 0 L391 0 Z " />
<glyph glyph-name="v" unicode="v" horiz-adv-x="600" d="M302 155 Q317 204 332.5 253 Q348 302 362 342 L413 495 L534 495 L351 0 L249 0 L65 495 L186 495 L255 291 Q265 262 276 228 Q287 194 299 155 L302 155 Z " />
<glyph glyph-name="w" unicode="w" horiz-adv-x="600" d="M298 239 L239 0 L126 0 L35 495 L148 495 L197 172 L201 172 L255 377 L350 377 L404 176 L409 176 L456 495 L566 495 L477 0 L363 0 L303 239 L298 239 Z " />
<glyph glyph-name="x" unicode="x" horiz-adv-x="600" d="M399 0 Q373 42 347.5 82.5 Q322 123 296 165 Q270 123 244.5 82.5 Q219 42 193 0 L61 0 Q103 64 146 127 Q189 190 231 254 L70 495 L202 495 L296 340 Q320 378 343.5 417 Q367 456 391 495 L523 495 L361 253 L532 0 L399 0 Z " />
<glyph glyph-name="y" unicode="y" horiz-adv-x="600" d="M330 -60 Q316 -99 300.5 -125.5 Q285 -152 264.5 -168.5 Q244 -185 216.5 -192 Q189 -199 150 -199 L106 -199 L106 -104 L139 -104 Q161 -104 175.5 -99 Q190 -94 200 -85 Q210 -76 216 -62.5 Q222 -49 228 -32 L246 21 L70 495 L191 495 L254 312 Q264 283 277 247 Q290 211 301 167 L305 167 Q317 208 328 242 Q339 276 350 308 L413 495 L530 495 L330 -60 Z " />
<glyph glyph-name="z" unicode="z" horiz-adv-x="600" d="M106 0 L106 93 L357 398 L124 398 L124 495 L493 495 L493 402 L244 102 L499 102 L499 0 L106 0 Z " />
<glyph glyph-name="braceleft" unicode="&#x7b;" horiz-adv-x="600" d="M349 -98 Q293 -98 268.5 -61.5 Q244 -25 244 35 L244 136 Q244 193 227 225 Q210 257 167 260 L167 337 Q206 341 225 371 Q244 401 244 447 L244 580 Q244 634 272.5 665 Q301 696 349 696 L432 696 L432 618 L391 618 Q379 618 370.5 611 Q362 604 357 593.5 Q352 583 350 570.5 Q348 558 348 546 L348 425 Q348 397 340 375.5 Q332 354 321 339 Q310 324 296.5 314 Q283 304 273 300 L273 298 Q285 293 298.5 283.5 Q312 274 323 258.5 Q334 243 341 222.5 Q348 202 348 175 L348 51 Q348 39 349.5 26 Q351 13 355.5 2.5 Q360 -8 368.5 -14.5 Q377 -21 392 -21 L432 -21 L432 -98 L349 -98 Z " />
<glyph glyph-name="bar" unicode="&#x7c;" horiz-adv-x="600" d="M252 -195 L252 723 L347 723 L347 -195 L252 -195 Z " />
<glyph glyph-name="braceright" unicode="&#x7d;" horiz-adv-x="600" d="M432 260 Q388 257 371.5 225 Q355 193 355 136 L355 35 Q355 -25 330 -61.5 Q305 -98 250 -98 L167 -98 L167 -21 L207 -21 Q221 -21 230 -14.5 Q239 -8 243.5 2.5 Q248 13 249.5 26 Q251 39 251 51 L251 175 Q251 202 258 223.5 Q265 245 276.5 260 Q288 275 301.5 284.5 Q315 294 327 298 L327 300 Q315 305 302 314.5 Q289 324 277.5 339.5 Q266 355 258.5 376 Q251 397 251 425 L251 550 Q251 562 250 574.5 Q249 587 244.5 596.5 Q240 606 231.5 612 Q223 618 208 618 L167 618 L167 694 L249 694 Q306 694 330.5 657 Q355 620 355 563 L355 463 Q355 407 372 374 Q389 341 432 337 L432 260 L432 260 Z " />
<glyph glyph-name="asciitilde" unicode="&#x7e;" horiz-adv-x="600" d="M529 308 Q500 253 467.5 227 Q435 201 391 201 Q369 201 346 210 Q323 219 300.5 230.5 Q278 242 256.5 251 Q235 260 217 260 Q194 260 176.5 248 Q159 236 136 207 Q119 218 103 228.5 Q87 239 70 250 Q99 303 133 329 Q167 355 214 355 Q237 355 259.5 345.5 Q282 336 303.5 325 Q325 314 345 304.5 Q365 295 383 295 Q406 295 423.5 310 Q441 325 462 353 L529 308 L529 308 Z " />
<glyph glyph-name="agrave" unicode="&#xe0;" horiz-adv-x="600" d="M283 500 Q325 500 362 492.5 Q399 485 427 466 Q455 447 471.5 415.5 Q488 384 488 336 L488 0 L375 0 L375 44 Q375 44 373 45 Q353 19 317.5 7 Q282 -5 244 -5 Q165 -5 119 33.5 Q73 72 73 144 Q73 174 84 201 Q95 228 116 248.5 Q137 269 168.5 281 Q200 293 241 293 L375 293 L375 329 Q375 343 370.5 356 Q366 369 355 378.5 Q344 388 325 394 Q306 400 277 400 Q236 400 208 389.5 Q180 379 159 359 L99 435 Q135 471 183 485.5 Q231 500 283 500 Z M180 152 Q180 141 184.5 130 Q189 119 199.5 110.5 Q210 102 226.5 96.5 Q243 91 268 91 Q315 91 345 110.5 Q375 130 375 185 L375 207 L260 207 Q217 207 198.5 191 Q180 175 180 152 Z M285 544 L162 723 L268 768 L354 577 L285 544 Z " />
<glyph glyph-name="acircumflex" unicode="&#xe2;" horiz-adv-x="600" d="M283 500 Q325 500 362 492.5 Q399 485 427 466 Q455 447 471.5 415.5 Q488 384 488 336 L488 0 L375 0 L375 44 Q375 44 373 45 Q353 19 317.5 7 Q282 -5 244 -5 Q165 -5 119 33.5 Q73 72 73 144 Q73 174 84 201 Q95 228 116 248.5 Q137 269 168.5 281 Q200 293 241 293 L375 293 L375 329 Q375 343 370.5 356 Q366 369 355 378.5 Q344 388 325 394 Q306 400 277 400 Q236 400 208 389.5 Q180 379 159 359 L99 435 Q135 471 183 485.5 Q231 500 283 500 Z M180 152 Q180 141 184.5 130 Q189 119 199.5 110.5 Q210 102 226.5 96.5 Q243 91 268 91 Q315 91 345 110.5 Q375 130 375 185 L375 207 L260 207 Q217 207 198.5 191 Q180 175 180 152 Z M292 642 Q283 636 263.5 621 Q244 606 222.5 589.5 Q201 573 181.5 558 Q162 543 153 537 L106 583 L255 735 L333 735 L479 585 L431 537 L292 642 Z " />
<glyph glyph-name="adieresis" unicode="&#xe4;" horiz-adv-x="600" d="M283 500 Q325 500 362 492.5 Q399 485 427 466 Q455 447 471.5 415.5 Q488 384 488 336 L488 0 L375 0 L375 44 Q375 44 373 45 Q353 19 317.5 7 Q282 -5 244 -5 Q165 -5 119 33.5 Q73 72 73 144 Q73 174 84 201 Q95 228 116 248.5 Q137 269 168.5 281 Q200 293 241 293 L375 293 L375 329 Q375 343 370.5 356 Q366 369 355 378.5 Q344 388 325 394 Q306 400 277 400 Q236 400 208 389.5 Q180 379 159 359 L99 435 Q135 471 183 485.5 Q231 500 283 500 Z M180 152 Q180 141 184.5 130 Q189 119 199.5 110.5 Q210 102 226.5 96.5 Q243 91 268 91 Q315 91 345 110.5 Q375 130 375 185 L375 207 L260 207 Q217 207 198.5 191 Q180 175 180 152 Z M326 583 L326 692 L444 692 L444 583 L326 583 Z M137 583 L137 692 L255 692 L255 583 L137 583 Z " />
<glyph glyph-name="dieresis" unicode="&#xa8;" horiz-adv-x="600" d="M335 583 L335 692 L453 692 L453 583 L335 583 Z M146 583 L146 692 L264 692 L264 583 L146 583 Z " />
<glyph glyph-name="ccedilla" unicode="&#xe7;" horiz-adv-x="600" d="M516 67 Q481 33 436.5 14.5 Q392 -4 344 -6 L332 -42 Q362 -44 381 -53 Q400 -62 411 -74.5 Q422 -87 426 -101.5 Q430 -116 430 -129 Q430 -144 423 -160 Q416 -176 402 -189 Q388 -202 366.5 -210 Q345 -218 316 -218 Q290 -218 265 -212.5 Q240 -207 217 -194 L238 -142 Q261 -153 279 -156 Q297 -159 313 -159 Q333 -159 343 -149 Q353 -139 353 -125 Q353 -109 341 -101 Q329 -93 310 -93 Q303 -93 293 -95 L264 -75 L287 -2 Q248 4 216 22 Q184 40 160.5 70 Q137 100 124 143.5 Q111 187 111 246 Q111 312 129.5 360 Q148 408 179 439 Q210 470 251 485 Q292 500 338 500 Q436 500 506 430 L437 351 Q415 374 389.5 385.5 Q364 397 339 397 Q285 397 256 360 Q227 323 227 247 Q227 169 256.5 133.5 Q286 98 343 98 Q372 98 399 112 Q426 126 447 147 L516 67 L516 67 Z " />
<glyph glyph-name="eacute" unicode="&#xe9;" horiz-adv-x="600" d="M208 215 Q208 188 213.5 166.5 Q219 145 231.5 129 Q244 113 265 104.5 Q286 96 317 96 Q339 96 370.5 107 Q402 118 430 143 L495 64 Q453 26 406.5 10 Q360 -6 313 -6 Q271 -6 231 5 Q191 16 160 43.5 Q129 71 110.5 119.5 Q92 168 92 243 Q92 316 111 365.5 Q130 415 160 445 Q190 475 228 488 Q266 501 305 501 Q358 501 396.5 483.5 Q435 466 460.5 433 Q486 400 498.5 353 Q511 306 511 248 L511 215 L208 215 Z M304 400 Q265 400 240 372.5 Q215 345 210 295 L394 295 Q391 349 366.5 374.5 Q342 400 304 400 Z M246 573 L329 765 L434 725 L317 544 L246 573 Z " />
<glyph glyph-name="egrave" unicode="&#xe8;" horiz-adv-x="600" d="M208 215 Q208 188 213.5 166.5 Q219 145 231.5 129 Q244 113 265 104.5 Q286 96 317 96 Q339 96 370.5 107 Q402 118 430 143 L495 64 Q453 26 406.5 10 Q360 -6 313 -6 Q271 -6 231 5 Q191 16 160 43.5 Q129 71 110.5 119.5 Q92 168 92 243 Q92 316 111 365.5 Q130 415 160 445 Q190 475 228 488 Q266 501 305 501 Q358 501 396.5 483.5 Q435 466 460.5 433 Q486 400 498.5 353 Q511 306 511 248 L511 215 L208 215 Z M304 400 Q265 400 240 372.5 Q215 345 210 295 L394 295 Q391 349 366.5 374.5 Q342 400 304 400 Z M299 544 L176 723 L282 768 L368 577 L299 544 Z " />
<glyph glyph-name="ecircumflex" unicode="&#xea;" horiz-adv-x="600" d="M208 215 Q208 188 213.5 166.5 Q219 145 231.5 129 Q244 113 265 104.5 Q286 96 317 96 Q339 96 370.5 107 Q402 118 430 143 L495 64 Q453 26 406.5 10 Q360 -6 313 -6 Q271 -6 231 5 Q191 16 160 43.5 Q129 71 110.5 119.5 Q92 168 92 243 Q92 316 111 365.5 Q130 415 160 445 Q190 475 228 488 Q266 501 305 501 Q358 501 396.5 483.5 Q435 466 460.5 433 Q486 400 498.5 353 Q511 306 511 248 L511 215 L208 215 Z M304 400 Q265 400 240 372.5 Q215 345 210 295 L394 295 Q391 349 366.5 374.5 Q342 400 304 400 Z M308 642 Q299 636 279.5 621 Q260 606 238.5 589.5 Q217 573 197.5 558 Q178 543 169 537 L122 583 L271 735 L349 735 L495 585 L447 537 L308 642 Z " />
<glyph glyph-name="edieresis" unicode="&#xeb;" horiz-adv-x="600" d="M208 215 Q208 188 213.5 166.5 Q219 145 231.5 129 Q244 113 265 104.5 Q286 96 317 96 Q339 96 370.5 107 Q402 118 430 143 L495 64 Q453 26 406.5 10 Q360 -6 313 -6 Q271 -6 231 5 Q191 16 160 43.5 Q129 71 110.5 119.5 Q92 168 92 243 Q92 316 111 365.5 Q130 415 160 445 Q190 475 228 488 Q266 501 305 501 Q358 501 396.5 483.5 Q435 466 460.5 433 Q486 400 498.5 353 Q511 306 511 248 L511 215 L208 215 Z M304 400 Q265 400 240 372.5 Q215 345 210 295 L394 295 Q391 349 366.5 374.5 Q342 400 304 400 Z M342 583 L342 692 L460 692 L460 583 L342 583 Z M153 583 L153 692 L271 692 L271 583 L153 583 Z " />
<glyph glyph-name="sterling" unicode="&#xa3;" horiz-adv-x="600" d="M84 366 L151 366 Q140 404 125.5 442 Q111 480 111 515 Q111 549 123 582.5 Q135 616 160 642 Q185 668 224 684 Q263 700 317 700 Q347 700 375 696 Q403 692 428.5 681.5 Q454 671 478.5 652.5 Q503 634 526 605 L440 530 Q412 569 381.5 582 Q351 595 320 595 Q290 595 264.5 573.5 Q239 552 239 508 Q239 491 243.5 474.5 Q248 458 255 441 Q262 424 268.5 405.5 Q275 387 280 366 L430 366 L430 280 L284 280 Q281 234 270.5 188 Q260 142 234 100 L524 100 L524 0 L86 0 L86 86 Q119 129 139.5 176 Q160 223 164 280 L84 280 L84 366 Z " />
<glyph glyph-name="trademark" unicode="&#x2122;" horiz-adv-x="600" d="M474 389 L474 543 L439 463 L385 463 L351 540 L351 389 L280 389 L280 695 L347 695 L413 550 L478 695 L546 695 L546 389 L474 389 Z M191 633 L191 389 L118 389 L118 633 L44 633 L44 696 L265 696 L265 633 L191 633 Z " />
<glyph glyph-name="icircumflex" unicode="&#xee;" horiz-adv-x="600" d="M515 0 L126 0 L126 102 L270 102 L270 398 L126 398 L126 495 L383 495 L383 102 L515 102 L515 0 Z M299 642 Q290 636 270.5 621 Q251 606 229.5 589.5 Q208 573 188.5 558 Q169 543 160 537 L113 583 L262 735 L340 735 L486 585 L438 537 L299 642 Z " />
<glyph glyph-name="idieresis" unicode="&#xef;" horiz-adv-x="600" d="M335 583 L335 692 L453 692 L453 583 L335 583 Z M146 583 L146 692 L264 692 L264 583 L146 583 Z M515 0 L126 0 L126 102 L270 102 L270 398 L126 398 L126 495 L383 495 L383 102 L515 102 L515 0 Z " />
<glyph glyph-name="bullet" unicode="&#x2022;" horiz-adv-x="600" d="M155 274 Q155 304 166 330 Q177 356 196.5 375.5 Q216 395 242.5 406.5 Q269 418 299 418 Q329 418 355.5 406.5 Q382 395 401.5 375.5 Q421 356 432.5 330 Q444 304 444 274 Q444 244 432.5 217.5 Q421 191 401.5 171.5 Q382 152 355.5 140.5 Q329 129 299 129 Q269 129 242.5 140.5 Q216 152 196.5 171.5 Q177 191 166 217.5 Q155 244 155 274 Z " />
<glyph glyph-name="ocircumflex" unicode="&#xf4;" horiz-adv-x="600" d="M303 500 Q357 500 399.5 481.5 Q442 463 470 428 Q515 371 515 259 Q515 202 508 160.5 Q501 119 484 90 Q456 42 408 17.5 Q360 -7 295 -7 Q236 -7 192 13 Q148 33 122 74 Q102 105 93.5 146.5 Q85 188 85 243 Q85 300 96 343 Q107 386 130 418 Q159 457 202.5 478.5 Q246 500 303 500 Z M301 399 Q242 399 216 347 Q206 327 202.5 301.5 Q199 276 199 245 Q199 217 201 193.5 Q203 170 211 152 Q235 96 298 96 Q361 96 387 155 Q395 172 397.5 195 Q400 218 400 255 Q400 314 386 345 Q373 374 350.5 386.5 Q328 399 301 399 Z M300 642 Q291 636 271.5 621 Q252 606 230.5 589.5 Q209 573 189.5 558 Q170 543 161 537 L114 583 L263 735 L341 735 L487 585 L439 537 L300 642 Z " />
<glyph glyph-name="odieresis" unicode="&#xf6;" horiz-adv-x="600" d="M303 500 Q357 500 399.5 481.5 Q442 463 470 428 Q515 371 515 259 Q515 202 508 160.5 Q501 119 484 90 Q456 42 408 17.5 Q360 -7 295 -7 Q236 -7 192 13 Q148 33 122 74 Q102 105 93.5 146.5 Q85 188 85 243 Q85 300 96 343 Q107 386 130 418 Q159 457 202.5 478.5 Q246 500 303 500 Z M301 399 Q242 399 216 347 Q206 327 202.5 301.5 Q199 276 199 245 Q199 217 201 193.5 Q203 170 211 152 Q235 96 298 96 Q361 96 387 155 Q395 172 397.5 195 Q400 218 400 255 Q400 314 386 345 Q373 374 350.5 386.5 Q328 399 301 399 Z M335 583 L335 692 L453 692 L453 583 L335 583 Z M146 583 L146 692 L264 692 L264 583 L146 583 Z " />
<glyph glyph-name="sfthyphen" unicode="&#xad;" horiz-adv-x="600" d="M141 211 L141 314 L458 314 L458 211 L141 211 Z " />
<glyph glyph-name="ugrave" unicode="&#xf9;" horiz-adv-x="600" d="M391 0 L391 48 L388 48 Q363 18 329.5 6 Q296 -6 263 -6 Q99 -6 99 169 L99 495 L211 495 L211 200 Q211 153 227 127.5 Q243 102 288 102 Q333 102 362 129 Q391 156 391 210 L391 495 L503 495 L503 0 L391 0 Z M290 544 L167 723 L273 768 L359 577 L290 544 Z " />
<glyph glyph-name="ucircumflex" unicode="&#xfb;" horiz-adv-x="600" d="M391 0 L391 48 L388 48 Q363 18 329.5 6 Q296 -6 263 -6 Q99 -6 99 169 L99 495 L211 495 L211 200 Q211 153 227 127.5 Q243 102 288 102 Q333 102 362 129 Q391 156 391 210 L391 495 L503 495 L503 0 L391 0 Z M298 642 Q289 636 269.5 621 Q250 606 228.5 589.5 Q207 573 187.5 558 Q168 543 159 537 L112 583 L261 735 L339 735 L485 585 L437 537 L298 642 Z " />
<glyph glyph-name="udieresis" unicode="&#xfc;" horiz-adv-x="600" d="M391 0 L391 48 L388 48 Q363 18 329.5 6 Q296 -6 263 -6 Q99 -6 99 169 L99 495 L211 495 L211 200 Q211 153 227 127.5 Q243 102 288 102 Q333 102 362 129 Q391 156 391 210 L391 495 L503 495 L503 0 L391 0 Z M331 583 L331 692 L449 692 L449 583 L331 583 Z M142 583 L142 692 L260 692 L260 583 L142 583 Z " />
<glyph glyph-name="dagger" unicode="&#x2020;" horiz-adv-x="600" d="M355 373 L355 -178 L245 -178 L245 373 L82 373 L82 464 L245 464 L245 696 L355 696 L355 464 L518 464 L518 373 L355 373 Z " />
<glyph glyph-name="&amp;#x394;" unicode="&#x394;" horiz-adv-x="600" d="M29 0 L236 696 L364 696 L569 0 L29 0 Z M301 532 L298 532 L185 109 L414 109 L301 532 Z " />
<glyph glyph-name="&amp;#x2206;" unicode="&#x2206;" horiz-adv-x="600" d="M29 0 L236 696 L364 696 L569 0 L29 0 Z M301 532 L298 532 L185 109 L414 109 L301 532 Z " />
<glyph glyph-name="germandbls" unicode="&#xdf;" horiz-adv-x="600" d="M515 236 Q515 196 505.5 154 Q496 112 471.5 77.5 Q447 43 406 21 Q365 -1 302 -1 L268 -1 L268 93 L297 93 Q348 93 372.5 132 Q397 171 397 233 Q397 261 391.5 285 Q386 309 373.5 326 Q361 343 339.5 352.5 Q318 362 286 363 L286 450 Q324 450 350.5 473 Q377 496 377 537 Q377 552 373 569 Q369 586 358.5 599.5 Q348 613 331 622 Q314 631 289 631 Q263 631 245 622 Q227 613 216.5 598.5 Q206 584 201.5 566 Q197 548 197 530 L197 0 L84 0 L84 527 Q84 574 99 611.5 Q114 649 141 674.5 Q168 700 206 713.5 Q244 727 290 727 Q341 727 377.5 711 Q414 695 438 669.5 Q462 644 473.5 612.5 Q485 581 485 549 Q485 532 481 512 Q477 492 468.5 473 Q460 454 445.5 438 Q431 422 410 413 Q440 404 460 384.5 Q480 365 492.5 340 Q505 315 510 288 Q515 261 515 236 Z " />
<glyph glyph-name="registered" unicode="&#xae;" horiz-adv-x="600" d="M301 464 L265 464 L265 367 L219 367 L219 610 L317 610 Q349 610 370.5 591 Q392 572 392 539 Q392 493 349 472 L400 367 L347 367 L301 464 Z M265 567 L265 508 L313 508 Q328 508 337.5 516.5 Q347 525 347 539 Q347 567 314 567 L265 567 Z M299 277 Q254 277 214.5 293 Q175 309 146.5 337 Q118 365 101.5 404 Q85 443 85 488 Q85 534 102 573 Q119 612 148 640.5 Q177 669 216 685 Q255 701 299 701 Q345 701 384 685 Q423 669 452 640.5 Q481 612 497.5 573 Q514 534 514 488 Q514 443 497 404 Q480 365 450.5 337 Q421 309 382 293 Q343 277 299 277 Z M299 657 Q264 657 233.5 644 Q203 631 180.5 608.5 Q158 586 145 555 Q132 524 132 488 Q132 452 145 421.5 Q158 391 180.5 368.5 Q203 346 233.5 333 Q264 320 299 320 Q335 320 365.5 333 Q396 346 418.5 368.5 Q441 391 453.5 421.5 Q466 452 466 488 Q466 524 453.5 555 Q441 586 418.5 608.5 Q396 631 365.5 644 Q335 657 299 657 Z " />
<glyph glyph-name="copyright" unicode="&#xa9;" horiz-adv-x="600" d="M307 687 Q365 687 411 668 Q457 649 489 615.5 Q521 582 538 535 Q555 488 555 432 L555 255 Q555 196 537.5 148.5 Q520 101 487.5 68 Q455 35 409.5 17.5 Q364 0 307 0 Q244 0 197.5 20.5 Q151 41 120.5 75.5 Q90 110 75 156.5 Q60 203 60 255 L60 432 Q60 483 75 529 Q90 575 121 610.5 Q152 646 198.5 666.5 Q245 687 307 687 Z M308 627 Q257 627 222 610.5 Q187 594 165.5 567 Q144 540 134 504.5 Q124 469 124 430 L124 261 Q124 222 134 185.5 Q144 149 166 121 Q188 93 223 76 Q258 59 308 59 Q354 59 388.5 74 Q423 89 445 116 Q467 143 478 180 Q489 217 489 261 L489 430 Q489 472 476.5 508 Q464 544 441 570.5 Q418 597 384.5 612 Q351 627 308 627 Z M450 231 Q434 186 398 161 Q362 136 311 136 Q275 136 247.5 147.5 Q220 159 202 179.5 Q184 200 175 227.5 Q166 255 166 287 L166 388 Q166 418 175 444.5 Q184 471 202 491.5 Q220 512 247.5 524 Q275 536 311 536 Q361 536 396 511 Q431 486 446 444 L383 416 Q375 439 357 454.5 Q339 470 313 470 Q274 470 255 445.5 Q236 421 236 386 L236 289 Q236 254 255 228.5 Q274 203 313 203 Q340 203 359 219 Q378 235 386 260 L450 231 Z " />
<glyph glyph-name="section" unicode="&#xa7;" horiz-adv-x="600" d="M507 292 Q507 260 491.5 229.5 Q476 199 454 183 Q474 163 487 136.5 Q500 110 500 81 Q500 44 485 14 Q470 -16 443 -37 Q416 -58 378 -69 Q340 -80 294 -80 Q236 -80 182.5 -58.5 Q129 -37 92 0 L155 73 Q185 43 222.5 28 Q260 13 295 13 Q312 13 329.5 15.5 Q347 18 361.5 26 Q376 34 385 47.5 Q394 61 394 84 Q394 111 367.5 129 Q341 147 282 165 Q242 177 209.5 191 Q177 205 154 223.5 Q131 242 118.5 267.5 Q106 293 106 329 Q106 361 123 392 Q140 423 166 440 Q118 479 118 539 Q118 575 132 605 Q146 635 171 656 Q196 677 230.5 688.5 Q265 700 305 700 Q355 700 401 687 Q447 674 489 641 L435 563 Q398 589 366 597.5 Q334 606 302 606 Q259 606 240 586.5 Q221 567 221 545 Q221 517 242 501.5 Q263 486 295 475.5 Q327 465 364 454.5 Q401 444 433 425.5 Q465 407 486 375.5 Q507 344 507 292 Z M238 391 Q207 373 207 340 Q207 318 225 303.5 Q243 289 270 278.5 Q297 268 328 258.5 Q359 249 385 238 Q408 255 408 288 Q408 309 398 321 Q388 333 367 342.5 Q346 352 314 362.5 Q282 373 238 391 Z " />
<glyph glyph-name="degree" unicode="&#xb0;" horiz-adv-x="600" d="M448 558 Q448 528 436.5 501.5 Q425 475 404.5 455.5 Q384 436 357 425 Q330 414 299 414 Q268 414 241 425 Q214 436 194 455.5 Q174 475 162.5 501.5 Q151 528 151 558 Q151 588 162 614 Q173 640 192.5 659.5 Q212 679 239.5 690 Q267 701 299 701 Q331 701 358.5 690 Q386 679 406 659.5 Q426 640 437 614 Q448 588 448 558 Z M372 558 Q372 587 351 607.5 Q330 628 299 628 Q270 628 248.5 607.5 Q227 587 227 558 Q227 529 248.5 508 Q270 487 299 487 Q332 487 352 508 Q372 529 372 558 Z " />
<glyph glyph-name="periodcentered" unicode="&#xb7;" horiz-adv-x="600" d="M228 202 L228 348 L372 348 L372 202 L228 202 Z " />
<glyph glyph-name="plusminus" unicode="&#xb1;" horiz-adv-x="600" d="M347 305 L347 132 L253 132 L253 305 L68 305 L68 395 L253 395 L253 573 L347 573 L347 395 L531 395 L531 305 L347 305 Z M66 0 L66 88 L533 88 L533 0 L66 0 Z " />
<glyph glyph-name="yen" unicode="&#xa5;" horiz-adv-x="600" d="M508 246 L508 178 L357 178 L357 0 L244 0 L244 178 L95 178 L95 246 L508 246 Z M95 295 L95 363 L203 363 L50 696 L179 696 L301 401 L306 401 L425 696 L549 696 L398 363 L508 363 L508 295 L95 295 Z " />
<glyph glyph-name="Omega" unicode="&#x3a9;" horiz-adv-x="600" d="M341 120 Q366 127 383 143 Q400 159 410 181 Q420 203 424 229.5 Q428 256 428 286 L428 440 Q428 470 420.5 497 Q413 524 397.5 544.5 Q382 565 358 577 Q334 589 300 589 Q265 589 241 576 Q217 563 202 542 Q187 521 180 494 Q173 467 173 440 L173 286 Q173 260 176.5 234 Q180 208 189.5 185.5 Q199 163 216.5 145.5 Q234 128 262 119 L262 0 L38 0 L38 109 L110 109 Q110 110 110.5 110.5 Q111 111 111 112 Q93 125 81.5 144.5 Q70 164 63.5 186.5 Q57 209 54 234 Q51 259 51 283 L51 441 Q51 492 65.5 539 Q80 586 110.5 622 Q141 658 188 679.5 Q235 701 300 701 Q359 701 405.5 682.5 Q452 664 484 630.5 Q516 597 533 549.5 Q550 502 550 445 L550 283 Q550 230 536.5 186 Q523 142 486 110 Q486 110 487 109 L562 109 L562 0 L341 0 L341 120 L341 120 Z " />
<glyph glyph-name="guillemotleft" unicode="&#xab;" horiz-adv-x="600" d="M408 28 L272 228 L408 428 L517 428 L385 228 L517 28 L408 28 Z M218 28 L82 228 L218 428 L327 428 L194 228 L327 28 L218 28 Z " />
<glyph glyph-name="guillemotright" unicode="&#xbb;" horiz-adv-x="600" d="M272 28 L405 228 L272 428 L381 428 L517 228 L381 28 L272 28 Z M82 28 L214 228 L82 428 L191 428 L327 228 L191 28 L82 28 Z " />
<glyph glyph-name="ellipsis" unicode="&#x2026;" horiz-adv-x="600" d="M68 0 L68 123 L189 123 L189 0 L68 0 Z M246 0 L246 123 L366 123 L366 0 L246 0 Z M421 0 L421 123 L542 123 L542 0 L421 0 Z " />
<glyph glyph-name="oe" unicode="&#x153;" horiz-adv-x="600" d="M508 122 Q522 105 535.5 88.5 Q549 72 563 55 Q534 21 496.5 7.5 Q459 -6 425 -6 Q410 -6 393 -3 Q376 0 360 7.5 Q344 15 330.5 27.5 Q317 40 308 58 Q286 23 254 8.5 Q222 -6 190 -6 Q109 -6 72.5 56.5 Q36 119 36 244 Q36 371 72.5 437 Q109 503 193 503 Q225 503 255.5 488 Q286 473 304 440 Q326 475 358 489 Q390 503 419 503 Q491 503 528 447.5 Q565 392 565 297 L565 215 L356 215 Q356 155 375 122.5 Q394 90 435 90 Q449 90 469 97 Q489 104 508 122 Z M463 299 Q463 321 461 340.5 Q459 360 453 374.5 Q447 389 436.5 397.5 Q426 406 410 406 Q361 406 358 299 L463 299 Z M198 407 Q167 407 154.5 366 Q142 325 142 246 Q142 171 154.5 131 Q167 91 196 91 Q223 91 236 126.5 Q249 162 249 248 Q249 294 245.5 324.5 Q242 355 235.5 373.5 Q229 392 219.5 399.5 Q210 407 198 407 Z " />
<glyph glyph-name="endash" unicode="&#x2013;" horiz-adv-x="600" d="M63 224 L63 324 L536 324 L536 224 L63 224 Z " />
<glyph glyph-name="afii00208" unicode="&#x2015;" horiz-adv-x="600" d="M44 224 L44 325 L555 325 L555 224 L44 224 Z " />
<glyph glyph-name="quotedblleft" unicode="&#x201c;" horiz-adv-x="600" d="M215 731 L282 731 L247 591 L279 591 L279 452 L143 452 L143 586 L215 731 Z M390 731 L457 731 L422 591 L454 591 L454 452 L318 452 L318 586 L390 731 Z " />
<glyph glyph-name="quotedblright" unicode="&#x201d;" horiz-adv-x="600" d="M385 452 L318 452 L353 592 L321 592 L321 731 L457 731 L457 597 L385 452 Z M210 452 L143 452 L178 592 L146 592 L146 731 L282 731 L282 597 L210 452 Z " />
<glyph glyph-name="quoteleft" unicode="&#x2018;" horiz-adv-x="600" d="M302 731 L369 731 L334 590 L366 590 L366 452 L230 452 L230 585 L302 731 Z " />
<glyph glyph-name="quoteright" unicode="&#x2019;" horiz-adv-x="600" d="M297 452 L230 452 L265 592 L233 592 L233 731 L369 731 L369 597 L297 452 Z " />
<glyph glyph-name="divide" unicode="&#xf7;" horiz-adv-x="600" d="M373 489 Q373 460 351.5 439.5 Q330 419 300 419 Q269 419 248 439.5 Q227 460 227 489 Q227 518 248 538.5 Q269 559 300 559 Q330 559 351.5 538.5 Q373 518 373 489 Z M63 251 L63 340 L536 340 L536 251 L63 251 Z M373 98 Q373 69 351.5 48.5 Q330 28 300 28 Q269 28 248 48.5 Q227 69 227 98 Q227 127 248 147.5 Q269 168 300 168 Q330 168 351.5 147.5 Q373 127 373 98 Z " />
<glyph glyph-name="&amp;#xb5;" unicode="&#xb5;" horiz-adv-x="600" d="M395 0 L395 45 Q394 46 391 46 Q369 20 337.5 7.5 Q306 -5 273 -5 Q257 -5 240.5 -1 Q224 3 210 11 Q209 11 209 10.5 Q209 10 208 10 L208 -200 L94 -200 L94 495 L208 495 L208 200 Q208 152 232 126.5 Q256 101 301 101 Q342 101 368.5 126.5 Q395 152 395 200 L395 495 L507 495 L507 0 L395 0 Z " />
<glyph glyph-name="&amp;#x3bc;" unicode="&#x3bc;" horiz-adv-x="600" d="M395 0 L395 45 Q394 46 391 46 Q369 20 337.5 7.5 Q306 -5 273 -5 Q257 -5 240.5 -1 Q224 3 210 11 Q209 11 209 10.5 Q209 10 208 10 L208 -200 L94 -200 L94 495 L208 495 L208 200 Q208 152 232 126.5 Q256 101 301 101 Q342 101 368.5 126.5 Q395 152 395 200 L395 495 L507 495 L507 0 L395 0 Z " />
<glyph glyph-name="pi" unicode="&#x3c0;" horiz-adv-x="600" d="M393 0 L393 398 L206 398 L206 0 L93 0 L93 495 L505 495 L505 0 L393 0 Z " />
<glyph glyph-name="dollar" unicode="&#x24;" horiz-adv-x="600" d="M248 1 Q197 6 146 26.5 Q95 47 50 92 L115 179 Q148 147 183.5 130.5 Q219 114 257 109 L271 313 Q235 321 200.5 333 Q166 345 139 365.5 Q112 386 95.5 417.5 Q79 449 79 497 Q79 546 97.5 582 Q116 618 146.5 642.5 Q177 667 216 679 Q255 691 296 692 L302 777 L363 777 L357 688 Q402 683 441 668 Q480 653 515 627 Q501 604 488.5 581 Q476 558 462 535 Q407 573 350 582 L338 404 Q372 398 408.5 386 Q445 374 475 351.5 Q505 329 524.5 293.5 Q544 258 544 205 Q544 157 526 119 Q508 81 476.5 55 Q445 29 402.5 14.5 Q360 0 311 -1 L306 -85 L242 -85 L248 1 Z M426 201 Q426 272 331 299 L318 106 Q366 110 396 134.5 Q426 159 426 201 Z M194 505 Q194 473 212 454 Q230 435 278 420 L289 583 Q241 579 217.5 557.5 Q194 536 194 505 Z " />
<glyph glyph-name="Euro" unicode="&#x20ac;" horiz-adv-x="600" d="M555 98 Q521 50 470.5 22 Q420 -6 348 -6 Q283 -6 238 14 Q193 34 164 70 Q135 106 122 155 Q109 204 109 262 L65 262 L65 323 L419 323 L419 262 L227 262 Q227 227 233.5 197 Q240 167 254.5 145 Q269 123 292.5 110.5 Q316 98 350 98 Q390 98 422 119 Q454 140 471 167 L555 98 Z M534 613 Q514 595 492 577 Q470 559 450 541 Q432 567 407 582.5 Q382 598 347 598 Q314 598 291 584 Q268 570 253.5 548 Q239 526 233 497.5 Q227 469 227 441 L419 441 L419 380 L65 380 L65 441 L109 441 Q109 493 123.5 540 Q138 587 167 623 Q196 659 240 680.5 Q284 702 343 702 Q471 702 534 613 Z " />
<glyph glyph-name="logicalnot" unicode="&#xac;" horiz-adv-x="600" d="M532 62 L438 62 L438 251 L66 251 L66 341 L532 341 L532 62 Z " />
<glyph glyph-name="brokenbar" unicode="&#xa6;" horiz-adv-x="600" d="M252 294 L252 723 L347 723 L347 294 L252 294 Z M347 232 L347 -195 L252 -195 L252 232 L347 232 Z " />
<glyph glyph-name="exclam" unicode="&#x21;" horiz-adv-x="600" d="M248 184 Q243 312 239 439.5 Q235 567 231 696 L360 696 L343 184 L248 184 Z M234 0 L234 113 L355 113 L355 0 L234 0 Z " />
<glyph glyph-name="ae" unicode="&#xe6;" horiz-adv-x="600" d="M295 59 Q275 28 243.5 11 Q212 -6 167 -6 Q107 -6 70 31.5 Q33 69 33 146 Q33 176 41 204 Q49 232 67 253 Q85 274 114 286.5 Q143 299 185 299 L247 299 L247 336 Q247 369 228.5 384 Q210 399 178 399 Q154 399 131.5 390.5 Q109 382 90 369 L50 452 Q85 479 121 491 Q157 503 193 503 Q224 503 255.5 493 Q287 483 308 452 Q331 481 361.5 492 Q392 503 418 503 Q494 503 529 447.5 Q564 392 564 296 L564 215 L354 215 Q354 151 376.5 120.5 Q399 90 434 90 Q453 90 472.5 99.5 Q492 109 512 130 L569 65 Q540 27 501.5 10.5 Q463 -6 427 -6 Q411 -6 392.5 -2.5 Q374 1 355.5 8.5 Q337 16 321 28.5 Q305 41 295 59 Z M134 154 Q134 131 145 112.5 Q156 94 185 94 Q211 94 229 112.5 Q247 131 247 182 L247 213 L188 213 Q156 213 145 195 Q134 177 134 154 Z M461 298 Q461 321 459 341 Q457 361 451 375.5 Q445 390 435 398 Q425 406 409 406 Q386 406 372 380 Q358 354 356 298 L461 298 Z " />
<glyph glyph-name="eth" unicode="&#xf0;" horiz-adv-x="600" d="M280 476 Q296 476 315 471.5 Q334 467 351 459 Q368 451 383 439.5 Q398 428 407 413 Q408 413 409 413.5 Q410 414 411 414 Q410 431 407.5 451 Q405 471 400 490.5 Q395 510 387.5 527.5 Q380 545 370 557 Q356 546 341.5 535 Q327 524 313 513 L279 555 Q293 566 306 576.5 Q319 587 333 598 Q313 616 281.5 629 Q250 642 199 650 L217 739 Q281 734 330.5 713.5 Q380 693 414 660 Q431 674 448 687.5 Q465 701 482 715 L521 674 L453 620 Q473 591 485.5 556.5 Q498 522 504.5 483.5 Q511 445 513.5 403 Q516 361 516 316 Q516 259 505.5 201.5 Q495 144 468 98 Q441 52 395 23 Q349 -6 279 -6 Q225 -6 185 11 Q145 28 119.5 59.5 Q94 91 81.5 134.5 Q69 178 69 232 Q69 282 81 326.5 Q93 371 119 404 Q145 437 184.5 456.5 Q224 476 280 476 Z M285 373 Q237 373 210.5 338 Q184 303 184 237 Q184 174 206 135 Q228 96 282 96 Q333 96 359 133.5 Q385 171 385 242 Q385 311 357.5 342 Q330 373 285 373 Z " />
<glyph glyph-name="multiply" unicode="&#xd7;" horiz-adv-x="600" d="M365 285 Q444 204 525 125 L459 59 L298 219 L139 60 L73 126 L232 285 L73 444 L139 511 L298 352 L457 510 L523 444 L365 285 Z " />
<glyph glyph-name="cedilla" unicode="&#xb8;" horiz-adv-x="600" d="M276 45 Q290 44 305 43.5 Q320 43 334 43 Q328 23 321.5 3 Q315 -17 308 -37 Q338 -39 357 -48 Q376 -57 387 -69.5 Q398 -82 402 -96.5 Q406 -111 406 -124 Q406 -139 399 -155 Q392 -171 378 -184 Q364 -197 342.5 -205 Q321 -213 292 -213 Q266 -213 241 -207.5 Q216 -202 193 -189 L214 -137 Q237 -148 255 -151 Q273 -154 289 -154 Q309 -154 319 -144 Q329 -134 329 -120 Q329 -104 317 -96 Q305 -88 286 -88 Q279 -88 269 -90 L240 -70 L276 45 L276 45 Z " />
<glyph glyph-name="florin" unicode="&#x192;" horiz-adv-x="600" d="M163 425 L258 425 Q262 461 270 508.5 Q278 556 298 598.5 Q318 641 356 670.5 Q394 700 459 700 Q482 700 510 694 Q538 688 556 681 L529 584 Q511 591 493.5 594 Q476 597 462 597 Q436 597 420 582.5 Q404 568 395 544 Q386 520 381.5 489 Q377 458 373 425 L472 425 L472 328 L361 328 L333 120 Q327 75 315.5 35.5 Q304 -4 284 -33.5 Q264 -63 233 -79.5 Q202 -96 157 -96 Q133 -96 101.5 -90 Q70 -84 44 -73 Q52 -48 59 -26.5 Q66 -5 74 20 Q109 7 135 7 Q168 7 186.5 37 Q205 67 215.5 114 Q226 161 231.5 218 Q237 275 244 328 L163 328 L163 425 Z " />
<glyph glyph-name="circumflex" unicode="&#x2c6;" horiz-adv-x="600" d="M299 642 Q290 636 270.5 621 Q251 606 229.5 589.5 Q208 573 188.5 558 Q169 543 160 537 L113 583 L262 735 L340 735 L486 585 L438 537 L299 642 Z " />
<glyph glyph-name="caron" unicode="&#x2c7;" horiz-adv-x="600" d="M438 755 L486 707 L340 557 L262 557 L113 708 L160 755 L299 650 L438 755 Z " />
<glyph glyph-name="breve" unicode="&#x2d8;" horiz-adv-x="600" d="M298 566 Q254 566 225 581 Q196 596 178 618 Q160 640 151.5 665.5 Q143 691 142 713 L233 713 Q233 703 237.5 691.5 Q242 680 250 670 Q258 660 270 653.5 Q282 647 298 647 Q314 647 326.5 653.5 Q339 660 347.5 670 Q356 680 360 691.5 Q364 703 364 713 L453 713 Q451 691 442.5 665.5 Q434 640 416.5 618 Q399 596 370 581 Q341 566 298 566 Z " />
<glyph glyph-name="tilde" unicode="&#x2dc;" horiz-adv-x="600" d="M231 707 Q250 707 268.5 699.5 Q287 692 304 683 Q321 674 336.5 666.5 Q352 659 364 659 Q381 659 396 670 Q411 681 428 706 L488 669 Q464 617 436 593.5 Q408 570 374 570 Q355 570 336.5 577 Q318 584 301 592 Q284 600 268 607 Q252 614 238 614 Q221 614 205 604.5 Q189 595 169 569 L111 607 Q134 655 163.5 681 Q193 707 231 707 Z " />
<glyph glyph-name="Ntilde" unicode="&#xd1;" horiz-adv-x="600" d="M409 0 L198 437 L195 436 L195 0 L74 0 L74 696 L193 696 L404 261 L407 262 L407 696 L527 696 L527 0 L409 0 Z M232 888 Q251 888 269.5 880.5 Q288 873 305 864 Q322 855 337.5 847.5 Q353 840 365 840 Q382 840 397 851 Q412 862 429 887 L489 850 Q465 798 437 774.5 Q409 751 375 751 Q356 751 337.5 758 Q319 765 302 773 Q285 781 269 788 Q253 795 239 795 Q222 795 206 785.5 Q190 776 170 750 L112 788 Q135 836 164.5 862 Q194 888 232 888 Z " />
<glyph glyph-name="otilde" unicode="&#xf5;" horiz-adv-x="600" d="M303 500 Q357 500 399.5 481.5 Q442 463 470 428 Q515 371 515 259 Q515 202 508 160.5 Q501 119 484 90 Q456 42 408 17.5 Q360 -7 295 -7 Q236 -7 192 13 Q148 33 122 74 Q102 105 93.5 146.5 Q85 188 85 243 Q85 300 96 343 Q107 386 130 418 Q159 457 202.5 478.5 Q246 500 303 500 Z M301 399 Q242 399 216 347 Q206 327 202.5 301.5 Q199 276 199 245 Q199 217 201 193.5 Q203 170 211 152 Q235 96 298 96 Q361 96 387 155 Q395 172 397.5 195 Q400 218 400 255 Q400 314 386 345 Q373 374 350.5 386.5 Q328 399 301 399 Z M234 707 Q253 707 271.5 699.5 Q290 692 307 683 Q324 674 339.5 666.5 Q355 659 367 659 Q384 659 399 670 Q414 681 431 706 L491 669 Q467 617 439 593.5 Q411 570 377 570 Q358 570 339.5 577 Q321 584 304 592 Q287 600 271 607 Q255 614 241 614 Q224 614 208 604.5 Q192 595 172 569 L114 607 Q137 655 166.5 681 Q196 707 234 707 Z " />
<glyph glyph-name="Ccedilla" unicode="&#xc7;" horiz-adv-x="600" d="M558 156 Q532 81 473 38.5 Q414 -4 326 -6 Q324 -14 321 -22.5 Q318 -31 315 -40 Q345 -42 364 -51 Q383 -60 394 -72.5 Q405 -85 409 -99.5 Q413 -114 413 -127 Q413 -142 406 -158 Q399 -174 385 -187 Q371 -200 349.5 -208 Q328 -216 299 -216 Q273 -216 248 -210.5 Q223 -205 200 -192 L221 -140 Q244 -151 262 -154 Q280 -157 296 -157 Q316 -157 326 -147 Q336 -137 336 -123 Q336 -107 324 -99 Q312 -91 293 -91 Q286 -91 276 -93 L247 -73 L269 -2 Q215 5 176 27.5 Q137 50 112.5 84.5 Q88 119 76.5 163.5 Q65 208 65 259 L65 437 Q65 489 79 537 Q93 585 123 621.5 Q153 658 200.5 679.5 Q248 701 314 701 Q404 701 463 656.5 Q522 612 548 539 L437 494 Q424 535 394.5 561 Q365 587 316 587 Q282 587 257.5 574.5 Q233 562 217 542 Q201 522 193.5 495.5 Q186 469 186 442 L186 257 Q186 228 193.5 201.5 Q201 175 217.5 154 Q234 133 258.5 120.5 Q283 108 318 108 Q369 108 400 134.5 Q431 161 445 203 L558 156 Z " />
<glyph glyph-name="acute" unicode="&#xb4;" horiz-adv-x="600" d="M204 573 L287 765 L392 725 L275 544 L204 573 Z " />
<glyph glyph-name="AE" unicode="&#xc6;" horiz-adv-x="600" d="M306 0 L306 186 L197 186 Q185 139 172 93 Q159 47 147 0 L27 0 Q78 175 128 348 Q178 521 229 696 L558 696 L558 586 L428 586 L428 414 L547 414 L547 309 L428 309 L428 109 L571 109 L571 0 L306 0 Z M302 578 L223 288 L306 288 L306 578 L302 578 Z " />
<glyph glyph-name="quotesinglbase" unicode="&#x201a;" horiz-adv-x="600" d="M294 -140 L227 -140 L262 0 L230 0 L230 138 L366 138 L366 5 L294 -140 Z " />
<glyph glyph-name="quotedblbase" unicode="&#x201e;" horiz-adv-x="600" d="M385 -140 L318 -140 L353 0 L321 0 L321 138 L457 138 L457 5 L385 -140 Z M210 -140 L143 -140 L178 0 L146 0 L146 138 L282 138 L282 5 L210 -140 Z " />
<glyph glyph-name="daggerdbl" unicode="&#x2021;" horiz-adv-x="600" d="M245 373 L82 373 L82 464 L245 464 L245 696 L355 696 L355 464 L518 464 L518 373 L355 373 L355 206 L518 206 L518 115 L355 115 L355 -178 L245 -178 L245 115 L82 115 L82 206 L245 206 L245 373 Z " />
<glyph glyph-name="guilsinglleft" unicode="&#x2039;" horiz-adv-x="600" d="M313 28 L177 228 L313 428 L422 428 L289 228 L422 28 L313 28 Z " />
<glyph glyph-name="emdash" unicode="&#x2014;" horiz-adv-x="600" d="M45 224 L45 325 L555 325 L555 224 L45 224 Z " />
<glyph glyph-name="guilsinglright" unicode="&#x203a;" horiz-adv-x="600" d="M177 28 L310 228 L177 428 L286 428 L422 228 L286 28 L177 28 Z " />
<glyph glyph-name="exclamdown" unicode="&#xa1;" horiz-adv-x="600" d="M236 -204 Q240 -75 244 52 Q248 179 253 308 L348 308 L365 -204 L236 -204 Z M360 492 L360 379 L239 379 L239 492 L360 492 Z " />
<glyph glyph-name="currency" unicode="&#xa4;" horiz-adv-x="600" d="M57 500 Q60 503 68.5 512 Q77 521 87 531 Q97 541 106 550 Q115 559 118 562 L186 494 Q214 511 241.5 520 Q269 529 300 529 Q331 529 358.5 520.5 Q386 512 414 495 Q417 498 426.5 508 Q436 518 447 528.5 Q458 539 467.5 549 Q477 559 481 562 L542 500 L474 433 Q491 405 500 377 Q509 349 509 320 Q509 261 474 206 Q489 192 508.5 174 Q528 156 542 141 L481 79 L414 146 Q361 111 300 111 Q269 111 240 120 Q211 129 185 146 L118 79 L57 140 L125 206 Q91 262 91 320 Q91 376 125 433 L57 500 Z M179 320 Q179 295 188.5 273.5 Q198 252 214 235.5 Q230 219 252 209.5 Q274 200 299 200 Q324 200 346 209.5 Q368 219 384.5 235.5 Q401 252 410.5 273.5 Q420 295 420 320 Q420 345 410.5 367 Q401 389 384.5 405.5 Q368 422 346 431 Q324 440 299 440 Q274 440 252.5 430.5 Q231 421 214.5 405 Q198 389 188.5 367 Q179 345 179 320 Z " />
<glyph glyph-name="paragraph" unicode="&#xb6;" horiz-adv-x="600" d="M256 317 L225 317 Q186 317 156.5 333 Q127 349 107 375.5 Q87 402 77 435.5 Q67 469 67 505 Q67 541 78.5 577 Q90 613 112.5 641.5 Q135 670 169.5 687.5 Q204 705 250 705 L547 705 L547 629 L504 629 L504 -81 L418 -81 L418 629 L345 629 L345 -81 L256 -81 L256 317 Z " />
<glyph glyph-name="questiondown" unicode="&#xbf;" horiz-adv-x="600" d="M84 -19 Q84 14 96 41 Q108 68 125 90.5 Q142 113 161.5 133.5 Q181 154 198 174.5 Q215 195 226 217.5 Q237 240 237 267 L237 303 L354 303 L354 266 Q354 225 341.5 192.5 Q329 160 301 127 Q256 74 234 43.5 Q212 13 212 -13 Q212 -45 233 -70.5 Q254 -96 302 -96 Q326 -96 344 -86 Q362 -76 374.5 -60.5 Q387 -45 394 -26 Q401 -7 403 11 L518 -7 Q510 -57 488.5 -94.5 Q467 -132 436.5 -157.5 Q406 -183 369 -195.5 Q332 -208 293 -208 Q245 -208 206.5 -194 Q168 -180 140.5 -154.5 Q113 -129 98.5 -94.5 Q84 -60 84 -19 Z M356 492 L356 379 L237 379 L237 492 L356 492 Z " />
<glyph glyph-name="oslash" unicode="&#xf8;" horiz-adv-x="600" d="M303 500 Q384 500 438 458 L481 513 L516 485 L470 427 Q515 370 515 259 Q515 202 508 160.5 Q501 119 484 90 Q456 42 408 17.5 Q360 -7 295 -7 Q253 -7 219 3 Q185 13 159 33 L120 -16 L86 11 L128 65 L122 74 Q102 105 93.5 146.5 Q85 188 85 243 Q85 300 96 343 Q107 386 130 418 Q159 457 202.5 478.5 Q246 500 303 500 Z M301 399 Q242 399 216 347 Q206 327 202.5 301.5 Q199 276 199 245 Q199 222 200.5 201.5 Q202 181 207 164 L369 371 Q356 385 338.5 392 Q321 399 301 399 Z M400 255 Q400 298 392 328 L229 123 Q254 96 298 96 Q361 96 387 155 Q395 172 397.5 195 Q400 218 400 255 Z " />
<glyph glyph-name="Thorn" unicode="&#xde;" horiz-adv-x="600" d="M555 354 Q555 312 539 273.5 Q523 235 493.5 206 Q464 177 421.5 159.5 Q379 142 326 142 L187 142 L187 0 L66 0 L66 694 L187 694 L187 571 L318 571 Q369 571 412 557.5 Q455 544 487 516.5 Q519 489 537 448.5 Q555 408 555 354 Z M431 357 Q431 410 399 436 Q367 462 317 462 L187 462 L187 252 L321 252 Q374 252 402.5 283.5 Q431 315 431 357 Z " />
<glyph glyph-name="Eth" unicode="&#xd0;" horiz-adv-x="600" d="M30 399 L59 399 L59 696 L290 696 Q368 696 431 666 Q494 636 527 567 Q546 529 550 477 Q554 425 554 360 Q554 287 550 233 Q546 179 529 138 Q512 99 485.5 72.5 Q459 46 426 30 Q393 14 354 7 Q315 0 273 0 L59 0 L59 314 L30 314 L30 399 Z M433 413 Q433 506 392 546.5 Q351 587 275 587 L180 587 L180 399 L311 399 L311 314 L180 314 L180 109 L277 109 Q321 109 351 121.5 Q381 134 399 156.5 Q417 179 425 211.5 Q433 244 433 283 L433 413 Z " />
<glyph glyph-name="Oslash" unicode="&#xd8;" horiz-adv-x="600" d="M298 701 Q353 701 396 685.5 Q439 670 470 641 L512 701 L559 668 L508 596 Q547 533 547 442 L547 247 Q547 191 531 144.5 Q515 98 483.5 64.5 Q452 31 405.5 12.5 Q359 -6 298 -6 Q238 -6 194.5 10 Q151 26 122 54 L82 -3 Q71 5 59.5 12.5 Q48 20 37 28 Q49 46 61.5 63.5 Q74 81 87 99 Q68 131 60 168 Q52 205 52 247 L52 442 Q52 494 65.5 541.5 Q79 589 109 624 Q139 659 185.5 680 Q232 701 298 701 Z M425 440 Q425 458 422 475 L196 157 Q210 134 234.5 120 Q259 106 298 106 Q332 106 356.5 118 Q381 130 396 150.5 Q411 171 418 198 Q425 225 425 256 L425 440 Z M298 588 Q262 588 238 575 Q214 562 199.5 541 Q185 520 179 493.5 Q173 467 173 440 L173 256 Q173 248 173.5 240 Q174 232 175 224 L398 539 Q382 562 357.5 575 Q333 588 298 588 Z " />
<glyph glyph-name="macron" unicode="&#xaf;" horiz-adv-x="600" d="M149 594 L149 688 L450 688 L450 594 L149 594 Z " />
<glyph glyph-name="ring" unicode="&#x2da;" horiz-adv-x="600" d="M347 648 Q347 668 333.5 681 Q320 694 300 694 Q280 694 266 681 Q252 668 252 648 Q252 628 266 615 Q280 602 300 602 Q320 602 333.5 615 Q347 628 347 648 Z M188 648 Q188 670 197 689.5 Q206 709 221 723.5 Q236 738 256.5 746.5 Q277 755 300 755 Q323 755 343 746.5 Q363 738 378 723.5 Q393 709 402 689.5 Q411 670 411 648 Q411 626 402 606.5 Q393 587 378 572.5 Q363 558 342.5 549.5 Q322 541 299 541 Q276 541 256 549.5 Q236 558 221 572.5 Q206 587 197 606.5 Q188 626 188 648 Z " />
<glyph glyph-name="dotaccent" unicode="&#x2d9;" horiz-adv-x="600" d="M241 590 L241 699 L359 699 L359 590 L241 590 Z " />
<glyph glyph-name="ogonek" unicode="&#x2db;" horiz-adv-x="600" d="M196 -111 Q196 -88 207 -59 Q218 -30 244 5 L326 5 Q326 4 327 4 Q303 -26 293 -51 Q283 -76 283 -94 Q283 -136 332 -136 Q346 -136 364 -133 Q382 -130 406 -122 L432 -183 Q409 -196 380 -203.5 Q351 -211 321 -211 Q267 -211 231.5 -185 Q196 -159 196 -111 Z " />
<glyph glyph-name="hungarumlaut" unicode="&#x2dd;" horiz-adv-x="600" d="M127 574 L208 768 L313 730 L195 549 L127 574 Z M286 574 L366 768 L471 730 L354 549 L286 574 Z " />
<glyph glyph-name="Atilde" unicode="&#xc3;" horiz-adv-x="600" d="M401 150 L197 150 L155 0 L29 0 L236 696 L364 696 L569 0 L443 0 L401 150 Z M297 531 Q290 502 282 468 Q274 434 263 395 Q253 359 246.5 335.5 Q240 312 236 296.5 Q232 281 229 270.5 Q226 260 224 251 L374 251 Q369 273 361 300 Q353 327 340 375 Q329 418 319 457 Q309 496 301 531 L297 531 Z M230 887 Q249 887 267.5 879.5 Q286 872 303 863 Q320 854 335.5 846.5 Q351 839 363 839 Q380 839 395 850 Q410 861 427 886 L487 849 Q463 797 435 773.5 Q407 750 373 750 Q354 750 335.5 757 Q317 764 300 772 Q283 780 267 787 Q251 794 237 794 Q220 794 204 784.5 Q188 775 168 749 L110 787 Q133 835 162.5 861 Q192 887 230 887 Z " />
<glyph glyph-name="Aring" unicode="&#xc5;" horiz-adv-x="600" d="M401 150 L197 150 L155 0 L29 0 L236 696 L364 696 L569 0 L443 0 L401 150 Z M297 531 Q290 502 282 468 Q274 434 263 395 Q253 359 246.5 335.5 Q240 312 236 296.5 Q232 281 229 270.5 Q226 260 224 251 L374 251 Q369 273 361 300 Q353 327 340 375 Q329 418 319 457 Q309 496 301 531 L297 531 Z M347 826 Q347 846 333.5 859 Q320 872 300 872 Q280 872 266 859 Q252 846 252 826 Q252 806 266 793 Q280 780 300 780 Q320 780 333.5 793 Q347 806 347 826 Z M188 826 Q188 848 197 867.5 Q206 887 221 901.5 Q236 916 256.5 924.5 Q277 933 300 933 Q323 933 343 924.5 Q363 916 378 901.5 Q393 887 402 867.5 Q411 848 411 826 Q411 804 402 784.5 Q393 765 378 750.5 Q363 736 342.5 727.5 Q322 719 299 719 Q276 719 256 727.5 Q236 736 221 750.5 Q206 765 197 784.5 Q188 804 188 826 Z " />
<glyph glyph-name="Otilde" unicode="&#xd5;" horiz-adv-x="600" d="M298 701 Q359 701 406 681.5 Q453 662 484 627.5 Q515 593 531 545.5 Q547 498 547 442 L547 247 Q547 191 531 144.5 Q515 98 483.5 64.5 Q452 31 405.5 12.5 Q359 -6 298 -6 Q231 -6 184 14.5 Q137 35 108 69.5 Q79 104 65.5 150 Q52 196 52 247 L52 442 Q52 494 65.5 541.5 Q79 589 109 624 Q139 659 185.5 680 Q232 701 298 701 Z M298 588 Q262 588 238 575 Q214 562 199.5 541 Q185 520 179 493.5 Q173 467 173 440 L173 256 Q173 227 179 200 Q185 173 199 152 Q213 131 237.5 118.5 Q262 106 298 106 Q332 106 356.5 118 Q381 130 396 150.5 Q411 171 418 198 Q425 225 425 256 L425 440 Q425 470 417.5 496.5 Q410 523 394.5 543.5 Q379 564 355 576 Q331 588 298 588 Z M227 893 Q246 893 264.5 885.5 Q283 878 300 869 Q317 860 332.5 852.5 Q348 845 360 845 Q377 845 392 856 Q407 867 424 892 L484 855 Q460 803 432 779.5 Q404 756 370 756 Q351 756 332.5 763 Q314 770 297 778 Q280 786 264 793 Q248 800 234 800 Q217 800 201 790.5 Q185 781 165 755 L107 793 Q130 841 159.5 867 Q189 893 227 893 Z " />
<glyph glyph-name="aacute" unicode="&#xe1;" horiz-adv-x="600" d="M283 500 Q325 500 362 492.5 Q399 485 427 466 Q455 447 471.5 415.5 Q488 384 488 336 L488 0 L375 0 L375 44 Q375 44 373 45 Q353 19 317.5 7 Q282 -5 244 -5 Q165 -5 119 33.5 Q73 72 73 144 Q73 174 84 201 Q95 228 116 248.5 Q137 269 168.5 281 Q200 293 241 293 L375 293 L375 329 Q375 343 370.5 356 Q366 369 355 378.5 Q344 388 325 394 Q306 400 277 400 Q236 400 208 389.5 Q180 379 159 359 L99 435 Q135 471 183 485.5 Q231 500 283 500 Z M180 152 Q180 141 184.5 130 Q189 119 199.5 110.5 Q210 102 226.5 96.5 Q243 91 268 91 Q315 91 345 110.5 Q375 130 375 185 L375 207 L260 207 Q217 207 198.5 191 Q180 175 180 152 Z M241 573 L324 765 L429 725 L312 544 L241 573 Z " />
<glyph glyph-name="atilde" unicode="&#xe3;" horiz-adv-x="600" d="M283 500 Q325 500 362 492.5 Q399 485 427 466 Q455 447 471.5 415.5 Q488 384 488 336 L488 0 L375 0 L375 44 Q375 44 373 45 Q353 19 317.5 7 Q282 -5 244 -5 Q165 -5 119 33.5 Q73 72 73 144 Q73 174 84 201 Q95 228 116 248.5 Q137 269 168.5 281 Q200 293 241 293 L375 293 L375 329 Q375 343 370.5 356 Q366 369 355 378.5 Q344 388 325 394 Q306 400 277 400 Q236 400 208 389.5 Q180 379 159 359 L99 435 Q135 471 183 485.5 Q231 500 283 500 Z M180 152 Q180 141 184.5 130 Q189 119 199.5 110.5 Q210 102 226.5 96.5 Q243 91 268 91 Q315 91 345 110.5 Q375 130 375 185 L375 207 L260 207 Q217 207 198.5 191 Q180 175 180 152 Z M225 707 Q244 707 262.5 699.5 Q281 692 298 683 Q315 674 330.5 666.5 Q346 659 358 659 Q375 659 390 670 Q405 681 422 706 L482 669 Q458 617 430 593.5 Q402 570 368 570 Q349 570 330.5 577 Q312 584 295 592 Q278 600 262 607 Q246 614 232 614 Q215 614 199 604.5 Q183 595 163 569 L105 607 Q128 655 157.5 681 Q187 707 225 707 Z " />
<glyph glyph-name="igrave" unicode="&#xec;" horiz-adv-x="600" d="M287 544 L164 723 L270 768 L356 577 L287 544 Z M515 0 L126 0 L126 102 L270 102 L270 398 L126 398 L126 495 L383 495 L383 102 L515 102 L515 0 Z " />
<glyph glyph-name="iacute" unicode="&#xed;" horiz-adv-x="600" d="M251 573 L334 765 L439 725 L322 544 L251 573 Z M515 0 L126 0 L126 102 L270 102 L270 398 L126 398 L126 495 L383 495 L383 102 L515 102 L515 0 Z " />
<glyph glyph-name="ntilde" unicode="&#xf1;" horiz-adv-x="600" d="M393 0 L393 294 Q393 342 372.5 368 Q352 394 302 394 Q258 394 232 365.5 Q206 337 206 287 L206 0 L94 0 L94 495 L206 495 L206 444 L209 444 Q233 470 269.5 485 Q306 500 340 500 Q416 500 460.5 456.5 Q505 413 505 325 L505 0 L393 0 Z M222 707 Q241 707 259.5 699.5 Q278 692 295 683 Q312 674 327.5 666.5 Q343 659 355 659 Q372 659 387 670 Q402 681 419 706 L479 669 Q455 617 427 593.5 Q399 570 365 570 Q346 570 327.5 577 Q309 584 292 592 Q275 600 259 607 Q243 614 229 614 Q212 614 196 604.5 Q180 595 160 569 L102 607 Q125 655 154.5 681 Q184 707 222 707 Z " />
<glyph glyph-name="ograve" unicode="&#xf2;" horiz-adv-x="600" d="M303 500 Q357 500 399.5 481.5 Q442 463 470 428 Q515 371 515 259 Q515 202 508 160.5 Q501 119 484 90 Q456 42 408 17.5 Q360 -7 295 -7 Q236 -7 192 13 Q148 33 122 74 Q102 105 93.5 146.5 Q85 188 85 243 Q85 300 96 343 Q107 386 130 418 Q159 457 202.5 478.5 Q246 500 303 500 Z M301 399 Q242 399 216 347 Q206 327 202.5 301.5 Q199 276 199 245 Q199 217 201 193.5 Q203 170 211 152 Q235 96 298 96 Q361 96 387 155 Q395 172 397.5 195 Q400 218 400 255 Q400 314 386 345 Q373 374 350.5 386.5 Q328 399 301 399 Z M298 544 L175 723 L281 768 L367 577 L298 544 Z " />
<glyph glyph-name="oacute" unicode="&#xf3;" horiz-adv-x="600" d="M303 500 Q357 500 399.5 481.5 Q442 463 470 428 Q515 371 515 259 Q515 202 508 160.5 Q501 119 484 90 Q456 42 408 17.5 Q360 -7 295 -7 Q236 -7 192 13 Q148 33 122 74 Q102 105 93.5 146.5 Q85 188 85 243 Q85 300 96 343 Q107 386 130 418 Q159 457 202.5 478.5 Q246 500 303 500 Z M301 399 Q242 399 216 347 Q206 327 202.5 301.5 Q199 276 199 245 Q199 217 201 193.5 Q203 170 211 152 Q235 96 298 96 Q361 96 387 155 Q395 172 397.5 195 Q400 218 400 255 Q400 314 386 345 Q373 374 350.5 386.5 Q328 399 301 399 Z M257 573 L340 765 L445 725 L328 544 L257 573 Z " />
<glyph glyph-name="uacute" unicode="&#xfa;" horiz-adv-x="600" d="M391 0 L391 48 L388 48 Q363 18 329.5 6 Q296 -6 263 -6 Q99 -6 99 169 L99 495 L211 495 L211 200 Q211 153 227 127.5 Q243 102 288 102 Q333 102 362 129 Q391 156 391 210 L391 495 L503 495 L503 0 L391 0 Z M247 573 L330 765 L435 725 L318 544 L247 573 Z " />
<glyph glyph-name="yacute" unicode="&#xfd;" horiz-adv-x="600" d="M330 -60 Q316 -99 300.5 -125.5 Q285 -152 264.5 -168.5 Q244 -185 216.5 -192 Q189 -199 150 -199 L106 -199 L106 -104 L139 -104 Q161 -104 175.5 -99 Q190 -94 200 -85 Q210 -76 216 -62.5 Q222 -49 228 -32 L246 21 L70 495 L191 495 L254 312 Q264 283 277 247 Q290 211 301 167 L305 167 Q317 208 328 242 Q339 276 350 308 L413 495 L530 495 L330 -60 Z M258 573 L341 765 L446 725 L329 544 L258 573 Z " />
<glyph glyph-name="ydieresis" unicode="&#xff;" horiz-adv-x="600" d="M330 -60 Q316 -99 300.5 -125.5 Q285 -152 264.5 -168.5 Q244 -185 216.5 -192 Q189 -199 150 -199 L106 -199 L106 -104 L139 -104 Q161 -104 175.5 -99 Q190 -94 200 -85 Q210 -76 216 -62.5 Q222 -49 228 -32 L246 21 L70 495 L191 495 L254 312 Q264 283 277 247 Q290 211 301 167 L305 167 Q317 208 328 242 Q339 276 350 308 L413 495 L530 495 L330 -60 Z M341 583 L341 692 L459 692 L459 583 L341 583 Z M152 583 L152 692 L270 692 L270 583 L152 583 Z " />
<glyph glyph-name="aring" unicode="&#xe5;" horiz-adv-x="600" d="M283 500 Q325 500 362 492.5 Q399 485 427 466 Q455 447 471.5 415.5 Q488 384 488 336 L488 0 L375 0 L375 44 Q375 44 373 45 Q353 19 317.5 7 Q282 -5 244 -5 Q165 -5 119 33.5 Q73 72 73 144 Q73 174 84 201 Q95 228 116 248.5 Q137 269 168.5 281 Q200 293 241 293 L375 293 L375 329 Q375 343 370.5 356 Q366 369 355 378.5 Q344 388 325 394 Q306 400 277 400 Q236 400 208 389.5 Q180 379 159 359 L99 435 Q135 471 183 485.5 Q231 500 283 500 Z M180 152 Q180 141 184.5 130 Q189 119 199.5 110.5 Q210 102 226.5 96.5 Q243 91 268 91 Q315 91 345 110.5 Q375 130 375 185 L375 207 L260 207 Q217 207 198.5 191 Q180 175 180 152 Z M346 648 Q346 668 332.5 681 Q319 694 299 694 Q279 694 265 681 Q251 668 251 648 Q251 628 265 615 Q279 602 299 602 Q319 602 332.5 615 Q346 628 346 648 Z M187 648 Q187 670 196 689.5 Q205 709 220 723.5 Q235 738 255.5 746.5 Q276 755 299 755 Q322 755 342 746.5 Q362 738 377 723.5 Q392 709 401 689.5 Q410 670 410 648 Q410 626 401 606.5 Q392 587 377 572.5 Q362 558 341.5 549.5 Q321 541 298 541 Q275 541 255 549.5 Q235 558 220 572.5 Q205 587 196 606.5 Q187 626 187 648 Z " />
<glyph glyph-name="thorn" unicode="&#xfe;" horiz-adv-x="600" d="M211 711 L211 450 L214 449 Q239 477 268.5 488.5 Q298 500 330 500 Q389 500 425 476 Q461 452 481 415 Q501 378 507.5 332.5 Q514 287 514 244 Q514 201 506 156.5 Q498 112 477 76 Q456 40 418.5 17 Q381 -6 322 -6 Q291 -6 265 3.5 Q239 13 213 37 L211 36 L211 -200 L99 -200 L99 711 L211 711 Z M211 246 Q211 223 214 197 Q217 171 226.5 149.5 Q236 128 254.5 114 Q273 100 304 100 Q335 100 354 113.5 Q373 127 382.5 148 Q392 169 395 195 Q398 221 398 246 Q398 270 395.5 296 Q393 322 383.5 344 Q374 366 355.5 380 Q337 394 304 394 Q272 394 253.5 379.5 Q235 365 225.5 343 Q216 321 213.5 295 Q211 269 211 246 Z " />
<glyph glyph-name="OE" unicode="&#x152;" horiz-adv-x="600" d="M361 0 Q331 -6 297 -6 Q226 -6 179 14.5 Q132 35 103.5 69.5 Q75 104 63.5 150 Q52 196 52 247 L52 442 Q52 494 64.5 541.5 Q77 589 106 624 Q135 659 181.5 680 Q228 701 297 701 Q327 701 355 696 L549 696 L549 586 L390 586 L390 414 L535 414 L535 309 L390 309 L390 109 L565 109 L565 0 L361 0 Z M168 252 Q168 226 172.5 201 Q177 176 189 156 Q201 136 222 122 Q243 108 275 104 L275 589 Q245 587 224.5 573.5 Q204 560 191.5 539.5 Q179 519 173.5 493.5 Q168 468 168 443 L168 252 Z " />
<glyph glyph-name="Ydieresis" unicode="&#x178;" horiz-adv-x="600" d="M357 280 L357 0 L242 0 L242 280 L41 696 L166 696 Q198 624 231.5 552.5 Q265 481 299 407 L303 409 L434 696 L558 696 L357 280 Z M338 755 L338 865 L458 865 L458 755 L338 755 Z M141 755 L141 865 L261 865 L261 755 L141 755 Z " />
<glyph glyph-name="amacron" unicode="&#x101;" horiz-adv-x="600" d="M283 500 Q325 500 362 492.5 Q399 485 427 466 Q455 447 471.5 415.5 Q488 384 488 336 L488 0 L375 0 L375 44 Q375 44 373 45 Q353 19 317.5 7 Q282 -5 244 -5 Q165 -5 119 33.5 Q73 72 73 144 Q73 174 84 201 Q95 228 116 248.5 Q137 269 168.5 281 Q200 293 241 293 L375 293 L375 329 Q375 343 370.5 356 Q366 369 355 378.5 Q344 388 325 394 Q306 400 277 400 Q236 400 208 389.5 Q180 379 159 359 L99 435 Q135 471 183 485.5 Q231 500 283 500 Z M180 152 Q180 141 184.5 130 Q189 119 199.5 110.5 Q210 102 226.5 96.5 Q243 91 268 91 Q315 91 345 110.5 Q375 130 375 185 L375 207 L260 207 Q217 207 198.5 191 Q180 175 180 152 Z M147 594 L147 688 L448 688 L448 594 L147 594 Z " />
<glyph glyph-name="abreve" unicode="&#x103;" horiz-adv-x="600" d="M283 500 Q325 500 362 492.5 Q399 485 427 466 Q455 447 471.5 415.5 Q488 384 488 336 L488 0 L375 0 L375 44 Q375 44 373 45 Q353 19 317.5 7 Q282 -5 244 -5 Q165 -5 119 33.5 Q73 72 73 144 Q73 174 84 201 Q95 228 116 248.5 Q137 269 168.5 281 Q200 293 241 293 L375 293 L375 329 Q375 343 370.5 356 Q366 369 355 378.5 Q344 388 325 394 Q306 400 277 400 Q236 400 208 389.5 Q180 379 159 359 L99 435 Q135 471 183 485.5 Q231 500 283 500 Z M180 152 Q180 141 184.5 130 Q189 119 199.5 110.5 Q210 102 226.5 96.5 Q243 91 268 91 Q315 91 345 110.5 Q375 130 375 185 L375 207 L260 207 Q217 207 198.5 191 Q180 175 180 152 Z M294 566 Q250 566 221 581 Q192 596 174 618 Q156 640 147.5 665.5 Q139 691 138 713 L229 713 Q229 703 233.5 691.5 Q238 680 246 670 Q254 660 266 653.5 Q278 647 294 647 Q310 647 322.5 653.5 Q335 660 343.5 670 Q352 680 356 691.5 Q360 703 360 713 L449 713 Q447 691 438.5 665.5 Q430 640 412.5 618 Q395 596 366 581 Q337 566 294 566 Z " />
<glyph glyph-name="Aogonek" unicode="&#x104;" horiz-adv-x="600" d="M397 -111 Q397 -89 407 -61 Q417 -33 442 1 L401 150 L197 150 L155 0 L29 0 L236 696 L364 696 L569 0 L524 0 Q502 -29 493 -53 Q484 -77 484 -94 Q484 -136 533 -136 Q547 -136 565 -133 Q583 -130 607 -122 L633 -183 Q610 -196 581 -203.5 Q552 -211 522 -211 Q468 -211 432.5 -185 Q397 -159 397 -111 Z M297 531 Q290 502 282 468 Q274 434 263 395 Q253 359 246.5 335.5 Q240 312 236 296.5 Q232 281 229 270.5 Q226 260 224 251 L374 251 Q369 273 361 300 Q353 327 340 375 Q329 418 319 457 Q309 496 301 531 L297 531 Z " />
<glyph glyph-name="aogonek" unicode="&#x105;" horiz-adv-x="600" d="M331 -111 Q331 -89 341 -61.5 Q351 -34 375 0 L375 44 Q375 44 373 45 Q353 19 317.5 7 Q282 -5 244 -5 Q165 -5 119 33.5 Q73 72 73 144 Q73 174 84 201 Q95 228 116 248.5 Q137 269 168.5 281 Q200 293 241 293 L375 293 L375 329 Q375 343 370.5 356 Q366 369 355 378.5 Q344 388 325 394 Q306 400 277 400 Q236 400 208 389.5 Q180 379 159 359 L99 435 Q135 471 183 485.5 Q231 500 283 500 Q325 500 362 492.5 Q399 485 427 466 Q455 447 471.5 415.5 Q488 384 488 336 L488 0 L458 0 Q436 -29 427 -53 Q418 -77 418 -94 Q418 -136 467 -136 Q481 -136 499 -133 Q517 -130 541 -122 L567 -183 Q544 -196 515 -203.5 Q486 -211 456 -211 Q402 -211 366.5 -185 Q331 -159 331 -111 Z M180 152 Q180 141 184.5 130 Q189 119 199.5 110.5 Q210 102 226.5 96.5 Q243 91 268 91 Q315 91 345 110.5 Q375 130 375 185 L375 207 L260 207 Q217 207 198.5 191 Q180 175 180 152 Z " />
<glyph glyph-name="cacute" unicode="&#x107;" horiz-adv-x="600" d="M516 67 Q480 32 434 13 Q388 -6 337 -6 Q289 -6 247.5 8 Q206 22 176 52.5 Q146 83 128.5 130.5 Q111 178 111 246 Q111 312 129.5 360 Q148 408 179 439 Q210 470 251 485 Q292 500 338 500 Q436 500 506 430 L437 351 Q415 374 389.5 385.5 Q364 397 339 397 Q285 397 256 360 Q227 323 227 247 Q227 169 256.5 133.5 Q286 98 343 98 Q372 98 399 112 Q426 126 447 147 L516 67 Z M266 573 L349 765 L454 725 L337 544 L266 573 Z " />
<glyph glyph-name="ccircumflex" unicode="&#x109;" horiz-adv-x="600" d="M516 67 Q480 32 434 13 Q388 -6 337 -6 Q289 -6 247.5 8 Q206 22 176 52.5 Q146 83 128.5 130.5 Q111 178 111 246 Q111 312 129.5 360 Q148 408 179 439 Q210 470 251 485 Q292 500 338 500 Q436 500 506 430 L437 351 Q415 374 389.5 385.5 Q364 397 339 397 Q285 397 256 360 Q227 323 227 247 Q227 169 256.5 133.5 Q286 98 343 98 Q372 98 399 112 Q426 126 447 147 L516 67 Z M325 642 Q316 636 296.5 621 Q277 606 255.5 589.5 Q234 573 214.5 558 Q195 543 186 537 L139 583 L288 735 L366 735 L512 585 L464 537 L325 642 Z " />
<glyph glyph-name="Cdotaccent" unicode="&#x10a;" horiz-adv-x="600" d="M558 156 Q532 80 470.5 37 Q409 -6 318 -6 Q250 -6 202 14.5 Q154 35 123.5 70.5 Q93 106 79 154.5 Q65 203 65 259 L65 437 Q65 489 79 537 Q93 585 123 621.5 Q153 658 200.5 679.5 Q248 701 314 701 Q404 701 463 656.5 Q522 612 548 539 L437 494 Q424 535 394.5 561 Q365 587 316 587 Q282 587 257.5 574.5 Q233 562 217 542 Q201 522 193.5 495.5 Q186 469 186 442 L186 257 Q186 228 193.5 201.5 Q201 175 217.5 154 Q234 133 258.5 120.5 Q283 108 318 108 Q369 108 400 134.5 Q431 161 445 203 L558 156 Z M248 765 L248 874 L366 874 L366 765 L248 765 Z " />
<glyph glyph-name="cdotaccent" unicode="&#x10b;" horiz-adv-x="600" d="M516 67 Q480 32 434 13 Q388 -6 337 -6 Q289 -6 247.5 8 Q206 22 176 52.5 Q146 83 128.5 130.5 Q111 178 111 246 Q111 312 129.5 360 Q148 408 179 439 Q210 470 251 485 Q292 500 338 500 Q436 500 506 430 L437 351 Q415 374 389.5 385.5 Q364 397 339 397 Q285 397 256 360 Q227 323 227 247 Q227 169 256.5 133.5 Q286 98 343 98 Q372 98 399 112 Q426 126 447 147 L516 67 Z M267 590 L267 699 L385 699 L385 590 L267 590 Z " />
<glyph glyph-name="ccaron" unicode="&#x10d;" horiz-adv-x="600" d="M516 67 Q480 32 434 13 Q388 -6 337 -6 Q289 -6 247.5 8 Q206 22 176 52.5 Q146 83 128.5 130.5 Q111 178 111 246 Q111 312 129.5 360 Q148 408 179 439 Q210 470 251 485 Q292 500 338 500 Q436 500 506 430 L437 351 Q415 374 389.5 385.5 Q364 397 339 397 Q285 397 256 360 Q227 323 227 247 Q227 169 256.5 133.5 Q286 98 343 98 Q372 98 399 112 Q426 126 447 147 L516 67 Z M462 755 L510 707 L364 557 L286 557 L137 708 L184 755 L323 650 L462 755 Z " />
<glyph glyph-name="dcaron" unicode="&#x10f;" horiz-adv-x="600" d="M349 0 L349 43 L346 45 Q319 17 286.5 5.5 Q254 -6 222 -6 Q163 -6 128.5 16.5 Q94 39 75.5 75.5 Q57 112 51.5 158 Q46 204 46 250 Q46 293 54 337.5 Q62 382 83 418.5 Q104 455 140.5 478 Q177 501 234 501 Q267 501 298 490.5 Q329 480 347 457 L349 458 L349 726 L461 726 L461 0 L349 0 Z M349 248 Q349 273 346 299 Q343 325 333.5 346 Q324 367 305.5 380.5 Q287 394 257 394 Q225 394 206 380 Q187 366 177 344 Q167 322 164 295 Q161 268 161 243 Q161 215 164.5 189 Q168 163 177.5 143.5 Q187 124 205 112 Q223 100 253 100 Q284 100 303 114 Q322 128 332 149.5 Q342 171 345.5 197.5 Q349 224 349 248 Z M624 604 Q607 574 590.5 544 Q574 514 557 484 L493 484 Q503 513 511.5 541.5 Q520 570 530 599 L499 599 L499 727 L624 727 L624 604 Z " />
<glyph glyph-name="Dcroat" unicode="&#x110;" horiz-adv-x="600" d="M29 399 L59 399 L59 696 L290 696 Q368 696 431 666 Q494 636 527 567 Q546 529 550 477 Q554 425 554 360 Q554 287 550 233 Q546 179 529 138 Q512 99 485.5 72.5 Q459 46 426 30 Q393 14 354 7 Q315 0 273 0 L59 0 L59 314 L29 314 L29 399 Z M433 413 Q433 506 392 546.5 Q351 587 275 587 L180 587 L180 399 L311 399 L311 314 L180 314 L180 109 L277 109 Q321 109 351 121.5 Q381 134 399 156.5 Q417 179 425 211.5 Q433 244 433 283 L433 413 Z " />
<glyph glyph-name="dcroat" unicode="&#x111;" horiz-adv-x="600" d="M262 627 L395 627 L395 726 L507 726 L507 627 L552 627 L552 555 L507 555 L507 0 L395 0 L395 43 L392 45 Q365 17 332.5 5.5 Q300 -6 268 -6 Q209 -6 174.5 16.5 Q140 39 121.5 75.5 Q103 112 97.5 158 Q92 204 92 250 Q92 293 100 337.5 Q108 382 129 418.5 Q150 455 186.5 478 Q223 501 280 501 Q313 501 344 490.5 Q375 480 393 457 L395 458 L395 555 L262 555 L262 627 Z M395 248 Q395 273 392 299 Q389 325 379.5 346 Q370 367 351.5 380.5 Q333 394 303 394 Q271 394 252 380 Q233 366 223 344 Q213 322 210 295 Q207 268 207 243 Q207 215 210.5 189 Q214 163 223.5 143.5 Q233 124 251 112 Q269 100 299 100 Q330 100 349 114 Q368 128 378 149.5 Q388 171 391.5 197.5 Q395 224 395 248 Z " />
<glyph glyph-name="emacron" unicode="&#x113;" horiz-adv-x="600" d="M208 215 Q208 188 213.5 166.5 Q219 145 231.5 129 Q244 113 265 104.5 Q286 96 317 96 Q339 96 370.5 107 Q402 118 430 143 L495 64 Q453 26 406.5 10 Q360 -6 313 -6 Q271 -6 231 5 Q191 16 160 43.5 Q129 71 110.5 119.5 Q92 168 92 243 Q92 316 111 365.5 Q130 415 160 445 Q190 475 228 488 Q266 501 305 501 Q358 501 396.5 483.5 Q435 466 460.5 433 Q486 400 498.5 353 Q511 306 511 248 L511 215 L208 215 Z M304 400 Q265 400 240 372.5 Q215 345 210 295 L394 295 Q391 349 366.5 374.5 Q342 400 304 400 Z M156 594 L156 688 L457 688 L457 594 L156 594 Z " />
<glyph glyph-name="ebreve" unicode="&#x115;" horiz-adv-x="600" d="M208 215 Q208 188 213.5 166.5 Q219 145 231.5 129 Q244 113 265 104.5 Q286 96 317 96 Q339 96 370.5 107 Q402 118 430 143 L495 64 Q453 26 406.5 10 Q360 -6 313 -6 Q271 -6 231 5 Q191 16 160 43.5 Q129 71 110.5 119.5 Q92 168 92 243 Q92 316 111 365.5 Q130 415 160 445 Q190 475 228 488 Q266 501 305 501 Q358 501 396.5 483.5 Q435 466 460.5 433 Q486 400 498.5 353 Q511 306 511 248 L511 215 L208 215 Z M304 400 Q265 400 240 372.5 Q215 345 210 295 L394 295 Q391 349 366.5 374.5 Q342 400 304 400 Z M307 566 Q263 566 234 581 Q205 596 187 618 Q169 640 160.5 665.5 Q152 691 151 713 L242 713 Q242 703 246.5 691.5 Q251 680 259 670 Q267 660 279 653.5 Q291 647 307 647 Q323 647 335.5 653.5 Q348 660 356.5 670 Q365 680 369 691.5 Q373 703 373 713 L462 713 Q460 691 451.5 665.5 Q443 640 425.5 618 Q408 596 379 581 Q350 566 307 566 Z " />
<glyph glyph-name="Edotaccent" unicode="&#x116;" horiz-adv-x="600" d="M84 0 L84 696 L523 696 L523 587 L205 587 L205 414 L487 414 L487 309 L205 309 L205 109 L543 109 L543 0 L84 0 Z M246 760 L246 869 L364 869 L364 760 L246 760 Z " />
<glyph glyph-name="edotaccent" unicode="&#x117;" horiz-adv-x="600" d="M208 215 Q208 188 213.5 166.5 Q219 145 231.5 129 Q244 113 265 104.5 Q286 96 317 96 Q339 96 370.5 107 Q402 118 430 143 L495 64 Q453 26 406.5 10 Q360 -6 313 -6 Q271 -6 231 5 Q191 16 160 43.5 Q129 71 110.5 119.5 Q92 168 92 243 Q92 316 111 365.5 Q130 415 160 445 Q190 475 228 488 Q266 501 305 501 Q358 501 396.5 483.5 Q435 466 460.5 433 Q486 400 498.5 353 Q511 306 511 248 L511 215 L208 215 Z M304 400 Q265 400 240 372.5 Q215 345 210 295 L394 295 Q391 349 366.5 374.5 Q342 400 304 400 Z M251 590 L251 699 L369 699 L369 590 L251 590 Z " />
<glyph glyph-name="Eogonek" unicode="&#x118;" horiz-adv-x="600" d="M331 -111 Q331 -89 341 -61.5 Q351 -34 375 0 L84 0 L84 696 L523 696 L523 587 L205 587 L205 414 L487 414 L487 309 L205 309 L205 109 L543 109 L543 0 L458 0 Q436 -29 427 -53 Q418 -77 418 -94 Q418 -136 467 -136 Q481 -136 499 -133 Q517 -130 541 -122 L567 -183 Q544 -196 515 -203.5 Q486 -211 456 -211 Q402 -211 366.5 -185 Q331 -159 331 -111 Z " />
<glyph glyph-name="eogonek" unicode="&#x119;" horiz-adv-x="600" d="M323 -81 Q323 -65 328 -46 Q333 -27 345 -4 Q337 -5 329 -5.5 Q321 -6 313 -6 Q271 -6 231 5 Q191 16 160 43.5 Q129 71 110.5 119.5 Q92 168 92 243 Q92 316 111 365.5 Q130 415 160 445 Q190 475 228 488 Q266 501 305 501 Q358 501 396.5 483.5 Q435 466 460.5 433 Q486 400 498.5 353 Q511 306 511 248 L511 215 L208 215 Q208 188 213.5 166.5 Q219 145 231.5 129 Q244 113 265 104.5 Q286 96 317 96 Q339 96 370.5 107 Q402 118 430 143 L495 64 Q473 44 452 31 Q429 2 419.5 -22 Q410 -46 410 -64 Q410 -106 459 -106 Q473 -106 491 -103 Q509 -100 533 -92 L559 -153 Q536 -166 507 -173.5 Q478 -181 448 -181 Q394 -181 358.5 -155 Q323 -129 323 -81 Z M304 400 Q265 400 240 372.5 Q215 345 210 295 L394 295 Q391 349 366.5 374.5 Q342 400 304 400 Z " />
<glyph glyph-name="ecaron" unicode="&#x11b;" horiz-adv-x="600" d="M208 215 Q208 188 213.5 166.5 Q219 145 231.5 129 Q244 113 265 104.5 Q286 96 317 96 Q339 96 370.5 107 Q402 118 430 143 L495 64 Q453 26 406.5 10 Q360 -6 313 -6 Q271 -6 231 5 Q191 16 160 43.5 Q129 71 110.5 119.5 Q92 168 92 243 Q92 316 111 365.5 Q130 415 160 445 Q190 475 228 488 Q266 501 305 501 Q358 501 396.5 483.5 Q435 466 460.5 433 Q486 400 498.5 353 Q511 306 511 248 L511 215 L208 215 Z M304 400 Q265 400 240 372.5 Q215 345 210 295 L394 295 Q391 349 366.5 374.5 Q342 400 304 400 Z M446 755 L494 707 L348 557 L270 557 L121 708 L168 755 L307 650 L446 755 Z " />
<glyph glyph-name="gcircumflex" unicode="&#x11d;" horiz-adv-x="600" d="M502 11 Q502 -46 484.5 -87.5 Q467 -129 436.5 -155 Q406 -181 365.5 -193.5 Q325 -206 279 -206 Q235 -206 190 -194 Q145 -182 107 -147 Q121 -125 136.5 -103.5 Q152 -82 166 -60 Q191 -79 223 -89.5 Q255 -100 279 -100 Q329 -100 359.5 -74 Q390 -48 390 1 L390 48 L388 48 Q363 19 332 7 Q301 -5 266 -5 Q210 -5 175 16 Q140 37 120.5 71 Q101 105 94 148 Q87 191 87 236 Q87 280 93 326.5 Q99 373 118.5 411.5 Q138 450 174.5 475 Q211 500 272 500 Q301 500 333.5 488 Q366 476 387 449 Q388 449 388 449.5 Q388 450 389 450 L389 495 L502 495 L502 11 Z M202 247 Q202 220 204.5 193.5 Q207 167 216.5 146.5 Q226 126 245 113 Q264 100 296 100 Q327 100 345.5 114 Q364 128 373.5 150 Q383 172 386 197.5 Q389 223 389 247 Q389 268 387 294 Q385 320 376 342.5 Q367 365 348.5 380 Q330 395 297 395 Q265 395 246 381 Q227 367 217.5 345.5 Q208 324 205 297.5 Q202 271 202 247 Z M301 649 Q292 643 272.5 628 Q253 613 231.5 596.5 Q210 580 190.5 565 Q171 550 162 544 L115 590 L264 742 L342 742 L488 592 L440 544 L301 649 Z " />
<glyph glyph-name="gbreve" unicode="&#x11f;" horiz-adv-x="600" d="M502 11 Q502 -46 484.5 -87.5 Q467 -129 436.5 -155 Q406 -181 365.5 -193.5 Q325 -206 279 -206 Q235 -206 190 -194 Q145 -182 107 -147 Q121 -125 136.5 -103.5 Q152 -82 166 -60 Q191 -79 223 -89.5 Q255 -100 279 -100 Q329 -100 359.5 -74 Q390 -48 390 1 L390 48 L388 48 Q363 19 332 7 Q301 -5 266 -5 Q210 -5 175 16 Q140 37 120.5 71 Q101 105 94 148 Q87 191 87 236 Q87 280 93 326.5 Q99 373 118.5 411.5 Q138 450 174.5 475 Q211 500 272 500 Q301 500 333.5 488 Q366 476 387 449 Q388 449 388 449.5 Q388 450 389 450 L389 495 L502 495 L502 11 Z M202 247 Q202 220 204.5 193.5 Q207 167 216.5 146.5 Q226 126 245 113 Q264 100 296 100 Q327 100 345.5 114 Q364 128 373.5 150 Q383 172 386 197.5 Q389 223 389 247 Q389 268 387 294 Q385 320 376 342.5 Q367 365 348.5 380 Q330 395 297 395 Q265 395 246 381 Q227 367 217.5 345.5 Q208 324 205 297.5 Q202 271 202 247 Z M300 566 Q256 566 227 581 Q198 596 180 618 Q162 640 153.5 665.5 Q145 691 144 713 L235 713 Q235 703 239.5 691.5 Q244 680 252 670 Q260 660 272 653.5 Q284 647 300 647 Q316 647 328.5 653.5 Q341 660 349.5 670 Q358 680 362 691.5 Q366 703 366 713 L455 713 Q453 691 444.5 665.5 Q436 640 418.5 618 Q401 596 372 581 Q343 566 300 566 Z " />
<glyph glyph-name="Gdotaccent" unicode="&#x120;" horiz-adv-x="600" d="M299 701 Q391 701 451.5 656.5 Q512 612 539 540 L427 494 Q414 534 380 560.5 Q346 587 299 587 Q262 587 237.5 574.5 Q213 562 198 542 Q183 522 176.5 495.5 Q170 469 170 442 L170 254 Q170 225 177 198.5 Q184 172 199 151.5 Q214 131 239 118.5 Q264 106 300 106 Q364 106 398 145 Q432 184 432 247 L432 276 L310 276 L310 380 L552 380 L552 248 Q552 192 534.5 145 Q517 98 484.5 64 Q452 30 405 11.5 Q358 -7 299 -7 Q233 -7 186 13.5 Q139 34 108.5 69 Q78 104 63.5 152 Q49 200 49 254 L49 442 Q49 493 63.5 539.5 Q78 586 109 622 Q140 658 187 679.5 Q234 701 299 701 Z M241 765 L241 874 L359 874 L359 765 L241 765 Z " />
<glyph glyph-name="gdotaccent" unicode="&#x121;" horiz-adv-x="600" d="M502 11 Q502 -46 484.5 -87.5 Q467 -129 436.5 -155 Q406 -181 365.5 -193.5 Q325 -206 279 -206 Q235 -206 190 -194 Q145 -182 107 -147 Q121 -125 136.5 -103.5 Q152 -82 166 -60 Q191 -79 223 -89.5 Q255 -100 279 -100 Q329 -100 359.5 -74 Q390 -48 390 1 L390 48 L388 48 Q363 19 332 7 Q301 -5 266 -5 Q210 -5 175 16 Q140 37 120.5 71 Q101 105 94 148 Q87 191 87 236 Q87 280 93 326.5 Q99 373 118.5 411.5 Q138 450 174.5 475 Q211 500 272 500 Q301 500 333.5 488 Q366 476 387 449 Q388 449 388 449.5 Q388 450 389 450 L389 495 L502 495 L502 11 Z M202 247 Q202 220 204.5 193.5 Q207 167 216.5 146.5 Q226 126 245 113 Q264 100 296 100 Q327 100 345.5 114 Q364 128 373.5 150 Q383 172 386 197.5 Q389 223 389 247 Q389 268 387 294 Q385 320 376 342.5 Q367 365 348.5 380 Q330 395 297 395 Q265 395 246 381 Q227 367 217.5 345.5 Q208 324 205 297.5 Q202 271 202 247 Z M251 590 L251 699 L369 699 L369 590 L251 590 Z " />
<glyph glyph-name="Gcommaaccent" unicode="&#x122;" horiz-adv-x="600" d="M299 701 Q391 701 451.5 656.5 Q512 612 539 540 L427 494 Q414 534 380 560.5 Q346 587 299 587 Q262 587 237.5 574.5 Q213 562 198 542 Q183 522 176.5 495.5 Q170 469 170 442 L170 254 Q170 225 177 198.5 Q184 172 199 151.5 Q214 131 239 118.5 Q264 106 300 106 Q364 106 398 145 Q432 184 432 247 L432 276 L310 276 L310 380 L552 380 L552 248 Q552 192 534.5 145 Q517 98 484.5 64 Q452 30 405 11.5 Q358 -7 299 -7 Q233 -7 186 13.5 Q139 34 108.5 69 Q78 104 63.5 152 Q49 200 49 254 L49 442 Q49 493 63.5 539.5 Q78 586 109 622 Q140 658 187 679.5 Q234 701 299 701 Z M353 -179 Q336 -209 319.5 -239 Q303 -269 286 -299 L222 -299 Q232 -270 240.5 -241.5 Q249 -213 259 -184 L228 -184 L228 -56 L353 -56 L353 -179 Z " />
<glyph glyph-name="gcommaaccent" unicode="&#x123;" horiz-adv-x="600" d="M245 698 Q262 727 278.5 755.5 Q295 784 312 813 L376 813 L340 703 L370 703 L370 576 L245 576 L245 698 Z M502 11 Q502 -46 484.5 -87.5 Q467 -129 436.5 -155 Q406 -181 365.5 -193.5 Q325 -206 279 -206 Q235 -206 190 -194 Q145 -182 107 -147 Q121 -125 136.5 -103.5 Q152 -82 166 -60 Q191 -79 223 -89.5 Q255 -100 279 -100 Q329 -100 359.5 -74 Q390 -48 390 1 L390 48 L388 48 Q363 19 332 7 Q301 -5 266 -5 Q210 -5 175 16 Q140 37 120.5 71 Q101 105 94 148 Q87 191 87 236 Q87 280 93 326.5 Q99 373 118.5 411.5 Q138 450 174.5 475 Q211 500 272 500 Q301 500 333.5 488 Q366 476 387 449 Q388 449 388 449.5 Q388 450 389 450 L389 495 L502 495 L502 11 Z M202 247 Q202 220 204.5 193.5 Q207 167 216.5 146.5 Q226 126 245 113 Q264 100 296 100 Q327 100 345.5 114 Q364 128 373.5 150 Q383 172 386 197.5 Q389 223 389 247 Q389 268 387 294 Q385 320 376 342.5 Q367 365 348.5 380 Q330 395 297 395 Q265 395 246 381 Q227 367 217.5 345.5 Q208 324 205 297.5 Q202 271 202 247 Z " />
<glyph glyph-name="hcircumflex" unicode="&#x125;" horiz-adv-x="600" d="M417 0 L417 294 Q417 342 396.5 368 Q376 394 327 394 Q284 394 257 365.5 Q230 337 230 287 L230 0 L117 0 L117 726 L230 726 L230 444 L232 444 Q256 470 291.5 485 Q327 500 361 500 Q437 500 483 456.5 Q529 413 529 325 L529 0 L417 0 Z M175 824 L33 732 L-10 781 L139 916 L215 916 L362 782 L316 732 L175 824 Z " />
<glyph glyph-name="Hbar" unicode="&#x126;" horiz-adv-x="600" d="M426 0 L426 308 L175 308 L175 0 L54 0 L54 518 L27 518 L27 595 L54 595 L54 696 L175 696 L175 595 L426 595 L426 696 L546 696 L546 595 L572 595 L572 518 L546 518 L546 0 L426 0 Z M426 413 L426 518 L175 518 L175 413 L426 413 Z " />
<glyph glyph-name="hbar" unicode="&#x127;" horiz-adv-x="600" d="M35 627 L94 627 L94 726 L206 726 L206 627 L366 627 L366 555 L206 555 L206 444 L209 444 Q233 470 268.5 485 Q304 500 338 500 Q414 500 459.5 456.5 Q505 413 505 325 L505 0 L393 0 L393 294 Q393 342 372.5 368 Q352 394 304 394 Q260 394 233 365.5 Q206 337 206 287 L206 0 L94 0 L94 555 L35 555 L35 627 Z " />
<glyph glyph-name="Itilde" unicode="&#x128;" horiz-adv-x="600" d="M117 696 L489 696 L489 587 L359 587 L359 109 L489 109 L489 0 L117 0 L117 109 L238 109 L238 587 L117 587 L117 696 Z M231 891 Q250 891 268.5 883.5 Q287 876 304 867 Q321 858 336.5 850.5 Q352 843 364 843 Q381 843 396 854 Q411 865 428 890 L488 853 Q464 801 436 777.5 Q408 754 374 754 Q355 754 336.5 761 Q318 768 301 776 Q284 784 268 791 Q252 798 238 798 Q221 798 205 788.5 Q189 779 169 753 L111 791 Q134 839 163.5 865 Q193 891 231 891 Z " />
<glyph glyph-name="itilde" unicode="&#x129;" horiz-adv-x="600" d="M231 712 Q250 712 268.5 704.5 Q287 697 304 688 Q321 679 336.5 671.5 Q352 664 364 664 Q381 664 396 675 Q411 686 428 711 L488 674 Q464 622 436 598.5 Q408 575 374 575 Q355 575 336.5 582 Q318 589 301 597 Q284 605 268 612 Q252 619 238 619 Q221 619 205 609.5 Q189 600 169 574 L111 612 Q134 660 163.5 686 Q193 712 231 712 Z M517 0 L128 0 L128 102 L272 102 L272 398 L128 398 L128 495 L385 495 L385 102 L517 102 L517 0 Z " />
<glyph glyph-name="imacron" unicode="&#x12b;" horiz-adv-x="600" d="M140 594 L140 688 L441 688 L441 594 L140 594 Z M516 0 L127 0 L127 102 L271 102 L271 398 L127 398 L127 495 L384 495 L384 102 L516 102 L516 0 Z " />
<glyph glyph-name="ibreve" unicode="&#x12d;" horiz-adv-x="600" d="M304 572 Q260 572 231 587 Q202 602 184 624 Q166 646 157.5 671.5 Q149 697 148 719 L239 719 Q239 709 243.5 697.5 Q248 686 256 676 Q264 666 276 659.5 Q288 653 304 653 Q320 653 332.5 659.5 Q345 666 353.5 676 Q362 686 366 697.5 Q370 709 370 719 L459 719 Q457 697 448.5 671.5 Q440 646 422.5 624 Q405 602 376 587 Q347 572 304 572 Z M514 0 L125 0 L125 102 L269 102 L269 398 L125 398 L125 495 L382 495 L382 102 L514 102 L514 0 Z " />
<glyph glyph-name="Iogonek" unicode="&#x12e;" horiz-adv-x="600" d="M209 -111 Q209 -89 219 -61.5 Q229 -34 253 0 L117 0 L117 109 L238 109 L238 587 L117 587 L117 696 L489 696 L489 587 L359 587 L359 109 L489 109 L489 0 L336 0 Q314 -29 305 -53 Q296 -77 296 -94 Q296 -136 345 -136 Q359 -136 377 -133 Q395 -130 419 -122 L445 -183 Q422 -196 393 -203.5 Q364 -211 334 -211 Q280 -211 244.5 -185 Q209 -159 209 -111 Z " />
<glyph glyph-name="iogonek" unicode="&#x12f;" horiz-adv-x="600" d="M226 -110 Q226 -88 236 -60.5 Q246 -33 269 0 L126 0 L126 102 L270 102 L270 398 L126 398 L126 495 L383 495 L383 102 L515 102 L515 0 L353 0 Q331 -29 322 -52.5 Q313 -76 313 -93 Q313 -135 362 -135 Q376 -135 394 -132 Q412 -129 436 -121 L462 -182 Q439 -195 410 -202.5 Q381 -210 351 -210 Q297 -210 261.5 -184 Q226 -158 226 -110 Z M261 583 L261 696 L383 696 L383 583 L261 583 Z " />
<glyph glyph-name="Idotaccent" unicode="&#x130;" horiz-adv-x="600" d="M117 696 L489 696 L489 587 L359 587 L359 109 L489 109 L489 0 L117 0 L117 109 L238 109 L238 587 L117 587 L117 696 Z M240 765 L240 874 L358 874 L358 765 L240 765 Z " />
<glyph glyph-name="dotlessi" unicode="&#x131;" horiz-adv-x="600" d="M515 0 L126 0 L126 102 L270 102 L270 398 L126 398 L126 495 L383 495 L383 102 L515 102 L515 0 Z " />
<glyph glyph-name="IJ" unicode="&#x132;" horiz-adv-x="600" d="M549 204 Q549 146 533.5 106 Q518 66 492 41.5 Q466 17 431.5 6 Q397 -5 358 -5 Q312 -5 268 11 Q224 27 194 56 Q208 79 223 101.5 Q238 124 252 147 Q269 132 294.5 119 Q320 106 343 106 Q360 106 375.5 110.5 Q391 115 403 126.5 Q415 138 422 158 Q429 178 429 209 L429 696 L549 696 L549 204 Z M54 696 L175 696 L175 0 L54 0 L54 696 Z " />
<glyph glyph-name="ij" unicode="&#x133;" horiz-adv-x="600" d="M138 494 L251 494 L251 0 L138 0 L138 494 Z M136 583 L136 696 L257 696 L257 583 L136 583 Z M272 -198 L272 -98 L311 -98 Q351 -98 364.5 -82.5 Q378 -67 378 -30 L378 494 L491 494 L491 -47 Q491 -80 482.5 -107.5 Q474 -135 455 -155.5 Q436 -176 406 -187 Q376 -198 334 -198 L272 -198 Z M373 583 L373 696 L494 696 L494 583 L373 583 Z " />
<glyph glyph-name="jcircumflex" unicode="&#x135;" horiz-adv-x="600" d="M160 -198 L160 -91 L215 -91 Q260 -91 275.5 -71.5 Q291 -52 291 -8 L291 398 L131 398 L131 495 L404 495 L404 -26 Q404 -65 395 -96.5 Q386 -128 366 -150.5 Q346 -173 313 -185.5 Q280 -198 232 -198 L160 -198 Z M321 642 Q312 636 292.5 621 Q273 606 251.5 589.5 Q230 573 210.5 558 Q191 543 182 537 L135 583 L284 735 L362 735 L508 585 L460 537 L321 642 Z " />
<glyph glyph-name="kcommaaccent" unicode="&#x137;" horiz-adv-x="600" d="M428 0 L283 222 L214 146 L214 0 L101 0 L101 726 L214 726 L214 292 L216 291 L400 495 L536 495 L359 303 L562 0 L428 0 Z M364 -171 Q347 -201 330.5 -231 Q314 -261 297 -291 L233 -291 Q243 -262 251.5 -233.5 Q260 -205 270 -176 L239 -176 L239 -48 L364 -48 L364 -171 Z " />
<glyph glyph-name="kgreenlandic" unicode="&#x138;" horiz-adv-x="600" d="M428 0 L283 222 L214 146 L214 0 L101 0 L101 495 L214 495 L214 292 L216 291 L400 495 L536 495 L359 303 L562 0 L428 0 Z " />
<glyph glyph-name="Lacute" unicode="&#x139;" horiz-adv-x="600" d="M114 0 L114 696 L235 696 L235 109 L555 109 L555 0 L114 0 Z M115 797 L283 925 L350 839 L159 740 L115 797 Z " />
<glyph glyph-name="lacute" unicode="&#x13a;" horiz-adv-x="600" d="M507 0 L118 0 L118 102 L260 102 L260 629 L116 629 L116 726 L373 726 L373 102 L507 102 L507 0 Z M223 818 L391 946 L458 860 L267 761 L223 818 Z " />
<glyph glyph-name="Lcommaaccent" unicode="&#x13b;" horiz-adv-x="600" d="M114 0 L114 696 L235 696 L235 109 L555 109 L555 0 L114 0 Z M410 -179 Q393 -209 376.5 -239 Q360 -269 343 -299 L279 -299 Q289 -270 297.5 -241.5 Q306 -213 316 -184 L285 -184 L285 -56 L410 -56 L410 -179 Z " />
<glyph glyph-name="lcommaaccent" unicode="&#x13c;" horiz-adv-x="600" d="M507 0 L118 0 L118 102 L260 102 L260 629 L116 629 L116 726 L373 726 L373 102 L507 102 L507 0 Z M381 -177 Q364 -207 347.5 -237 Q331 -267 314 -297 L250 -297 Q260 -268 268.5 -239.5 Q277 -211 287 -182 L256 -182 L256 -54 L381 -54 L381 -177 Z " />
<glyph glyph-name="Lcaron" unicode="&#x13d;" horiz-adv-x="600" d="M114 0 L114 696 L235 696 L235 109 L555 109 L555 0 L114 0 Z M470 572 Q453 542 436.5 512 Q420 482 403 452 L339 452 Q349 481 357.5 509.5 Q366 538 376 567 L345 567 L345 695 L470 695 L470 572 Z " />
<glyph glyph-name="lcaron" unicode="&#x13e;" horiz-adv-x="600" d="M507 0 L118 0 L118 102 L260 102 L260 629 L116 629 L116 726 L373 726 L373 102 L507 102 L507 0 Z M556 601 Q539 571 522.5 541 Q506 511 489 481 L425 481 Q435 510 443.5 538.5 Q452 567 462 596 L431 596 L431 724 L556 724 L556 601 Z " />
<glyph glyph-name="Ldot" unicode="&#x13f;" horiz-adv-x="600" d="M114 0 L114 696 L235 696 L235 109 L555 109 L555 0 L114 0 Z M348 314 L348 423 L466 423 L466 314 L348 314 Z " />
<glyph glyph-name="ldot" unicode="&#x140;" horiz-adv-x="600" d="M507 0 L118 0 L118 102 L260 102 L260 629 L116 629 L116 726 L373 726 L373 102 L507 102 L507 0 Z M433 331 L433 440 L551 440 L551 331 L433 331 Z " />
<glyph glyph-name="Lslash" unicode="&#x141;" horiz-adv-x="600" d="M114 0 L114 220 L74 197 L32 270 L114 318 L114 696 L235 696 L235 388 L323 440 L365 367 L235 291 L235 109 L555 109 L555 0 L114 0 Z " />
<glyph glyph-name="lslash" unicode="&#x142;" horiz-adv-x="600" d="M507 0 L118 0 L118 102 L260 102 L260 285 L197 252 L157 325 L260 379 L260 629 L116 629 L116 726 L373 726 L373 439 L458 484 L497 411 L373 345 L373 102 L507 102 L507 0 Z " />
<glyph glyph-name="nacute" unicode="&#x144;" horiz-adv-x="600" d="M393 0 L393 294 Q393 342 372.5 368 Q352 394 302 394 Q258 394 232 365.5 Q206 337 206 287 L206 0 L94 0 L94 495 L206 495 L206 444 L209 444 Q233 470 269.5 485 Q306 500 340 500 Q416 500 460.5 456.5 Q505 413 505 325 L505 0 L393 0 Z M216 573 L299 765 L404 725 L287 544 L216 573 Z " />
<glyph glyph-name="Ncommaaccent" unicode="&#x145;" horiz-adv-x="600" d="M409 0 L198 437 L195 436 L195 0 L74 0 L74 696 L193 696 L404 261 L407 262 L407 696 L527 696 L527 0 L409 0 Z M363 -161 Q346 -191 329.5 -221 Q313 -251 296 -281 L232 -281 Q242 -252 250.5 -223.5 Q259 -195 269 -166 L238 -166 L238 -38 L363 -38 L363 -161 Z " />
<glyph glyph-name="ncommaaccent" unicode="&#x146;" horiz-adv-x="600" d="M393 0 L393 294 Q393 342 372.5 368 Q352 394 302 394 Q258 394 232 365.5 Q206 337 206 287 L206 0 L94 0 L94 495 L206 495 L206 444 L209 444 Q233 470 269.5 485 Q306 500 340 500 Q416 500 460.5 456.5 Q505 413 505 325 L505 0 L393 0 Z M363 -171 Q346 -201 329.5 -231 Q313 -261 296 -291 L232 -291 Q242 -262 250.5 -233.5 Q259 -205 269 -176 L238 -176 L238 -48 L363 -48 L363 -171 Z " />
<glyph glyph-name="ncaron" unicode="&#x148;" horiz-adv-x="600" d="M393 0 L393 294 Q393 342 372.5 368 Q352 394 302 394 Q258 394 232 365.5 Q206 337 206 287 L206 0 L94 0 L94 495 L206 495 L206 444 L209 444 Q233 470 269.5 485 Q306 500 340 500 Q416 500 460.5 456.5 Q505 413 505 325 L505 0 L393 0 Z M432 755 L480 707 L334 557 L256 557 L107 708 L154 755 L293 650 L432 755 Z " />
<glyph glyph-name="napostrophe" unicode="&#x149;" horiz-adv-x="600" d="M90 498 L29 498 L64 601 L35 601 L35 724 L155 724 L155 605 L90 498 Z M431 0 L431 294 Q431 342 410.5 368 Q390 394 340 394 Q296 394 270 365.5 Q244 337 244 287 L244 0 L132 0 L132 495 L244 495 L244 444 L247 444 Q271 470 307.5 485 Q344 500 378 500 Q454 500 498.5 456.5 Q543 413 543 325 L543 0 L431 0 Z " />
<glyph glyph-name="Eng" unicode="&#x14a;" horiz-adv-x="600" d="M527 -38 Q527 -73 518.5 -104.5 Q510 -136 490.5 -160 Q471 -184 439 -198 Q407 -212 360 -212 Q311 -212 256 -197 L277 -109 Q294 -113 312 -115.5 Q330 -118 344 -118 Q376 -118 395.5 -101 Q415 -84 415 -33 L415 -7 L198 437 L195 436 L195 0 L74 0 L74 696 L191 696 L404 261 L407 262 L407 696 L527 696 L527 -38 L527 -38 Z " />
<glyph glyph-name="eng" unicode="&#x14b;" horiz-adv-x="600" d="M322 -103 Q354 -103 373.5 -86 Q393 -69 393 -18 L393 294 Q393 342 371 367.5 Q349 393 301 393 Q258 393 232.5 364 Q207 335 207 287 L207 0 L94 0 L94 495 L207 495 L207 445 L210 445 Q233 471 269.5 485.5 Q306 500 340 500 Q415 500 460 455.5 Q505 411 505 326 L505 -23 Q505 -58 496.5 -89.5 Q488 -121 468.5 -145 Q449 -169 417 -183 Q385 -197 338 -197 Q289 -197 234 -182 L255 -94 Q272 -98 290 -100.5 Q308 -103 322 -103 Z " />
<glyph glyph-name="omacron" unicode="&#x14d;" horiz-adv-x="600" d="M303 500 Q357 500 399.5 481.5 Q442 463 470 428 Q515 371 515 259 Q515 202 508 160.5 Q501 119 484 90 Q456 42 408 17.5 Q360 -7 295 -7 Q236 -7 192 13 Q148 33 122 74 Q102 105 93.5 146.5 Q85 188 85 243 Q85 300 96 343 Q107 386 130 418 Q159 457 202.5 478.5 Q246 500 303 500 Z M301 399 Q242 399 216 347 Q206 327 202.5 301.5 Q199 276 199 245 Q199 217 201 193.5 Q203 170 211 152 Q235 96 298 96 Q361 96 387 155 Q395 172 397.5 195 Q400 218 400 255 Q400 314 386 345 Q373 374 350.5 386.5 Q328 399 301 399 Z M153 594 L153 688 L454 688 L454 594 L153 594 Z " />
<glyph glyph-name="obreve" unicode="&#x14f;" horiz-adv-x="600" d="M303 500 Q357 500 399.5 481.5 Q442 463 470 428 Q515 371 515 259 Q515 202 508 160.5 Q501 119 484 90 Q456 42 408 17.5 Q360 -7 295 -7 Q236 -7 192 13 Q148 33 122 74 Q102 105 93.5 146.5 Q85 188 85 243 Q85 300 96 343 Q107 386 130 418 Q159 457 202.5 478.5 Q246 500 303 500 Z M301 399 Q242 399 216 347 Q206 327 202.5 301.5 Q199 276 199 245 Q199 217 201 193.5 Q203 170 211 152 Q235 96 298 96 Q361 96 387 155 Q395 172 397.5 195 Q400 218 400 255 Q400 314 386 345 Q373 374 350.5 386.5 Q328 399 301 399 Z M301 566 Q257 566 228 581 Q199 596 181 618 Q163 640 154.5 665.5 Q146 691 145 713 L236 713 Q236 703 240.5 691.5 Q245 680 253 670 Q261 660 273 653.5 Q285 647 301 647 Q317 647 329.5 653.5 Q342 660 350.5 670 Q359 680 363 691.5 Q367 703 367 713 L456 713 Q454 691 445.5 665.5 Q437 640 419.5 618 Q402 596 373 581 Q344 566 301 566 Z " />
<glyph glyph-name="ohungarumlaut" unicode="&#x151;" horiz-adv-x="600" d="M303 500 Q357 500 399.5 481.5 Q442 463 470 428 Q515 371 515 259 Q515 202 508 160.5 Q501 119 484 90 Q456 42 408 17.5 Q360 -7 295 -7 Q236 -7 192 13 Q148 33 122 74 Q102 105 93.5 146.5 Q85 188 85 243 Q85 300 96 343 Q107 386 130 418 Q159 457 202.5 478.5 Q246 500 303 500 Z M301 399 Q242 399 216 347 Q206 327 202.5 301.5 Q199 276 199 245 Q199 217 201 193.5 Q203 170 211 152 Q235 96 298 96 Q361 96 387 155 Q395 172 397.5 195 Q400 218 400 255 Q400 314 386 345 Q373 374 350.5 386.5 Q328 399 301 399 Z M176 574 L257 768 L362 730 L244 549 L176 574 Z M335 574 L415 768 L520 730 L403 549 L335 574 Z " />
<glyph glyph-name="racute" unicode="&#x155;" horiz-adv-x="600" d="M385 395 Q340 395 312.5 370.5 Q285 346 285 297 L285 0 L173 0 L173 495 L284 495 L284 436 L287 435 Q310 467 345 483.5 Q380 500 417 500 Q445 500 478 491.5 Q511 483 537 463 L487 363 Q456 383 431.5 389 Q407 395 385 395 Z M238 573 L321 765 L426 725 L309 544 L238 573 Z " />
<glyph glyph-name="Rcommaaccent" unicode="&#x156;" horiz-adv-x="600" d="M419 0 L292 280 L195 280 L195 0 L74 0 L74 696 L343 696 Q388 696 426.5 681.5 Q465 667 492.5 640 Q520 613 535.5 575 Q551 537 551 491 Q551 424 514.5 372 Q478 320 412 298 L554 0 L419 0 Z M427 491 Q427 540 396.5 564 Q366 588 320 588 L195 588 L195 387 L317 387 Q369 387 398 414 Q427 441 427 491 Z M354 -161 Q337 -191 320.5 -221 Q304 -251 287 -281 L223 -281 Q233 -252 241.5 -223.5 Q250 -195 260 -166 L229 -166 L229 -38 L354 -38 L354 -161 Z " />
<glyph glyph-name="rcommaaccent" unicode="&#x157;" horiz-adv-x="600" d="M385 395 Q340 395 312.5 370.5 Q285 346 285 297 L285 0 L173 0 L173 495 L284 495 L284 436 L287 435 Q310 467 345 483.5 Q380 500 417 500 Q445 500 478 491.5 Q511 483 537 463 L487 363 Q456 383 431.5 389 Q407 395 385 395 Z M292 -171 Q275 -201 258.5 -231 Q242 -261 225 -291 L161 -291 Q171 -262 179.5 -233.5 Q188 -205 198 -176 L167 -176 L167 -48 L292 -48 L292 -171 Z " />
<glyph glyph-name="rcaron" unicode="&#x159;" horiz-adv-x="600" d="M385 395 Q340 395 312.5 370.5 Q285 346 285 297 L285 0 L173 0 L173 495 L284 495 L284 436 L287 435 Q310 467 345 483.5 Q380 500 417 500 Q445 500 478 491.5 Q511 483 537 463 L487 363 Q456 383 431.5 389 Q407 395 385 395 Z M436 755 L484 707 L338 557 L260 557 L111 708 L158 755 L297 650 L436 755 Z " />
<glyph glyph-name="sacute" unicode="&#x15b;" horiz-adv-x="600" d="M508 151 Q508 115 492 85.5 Q476 56 448.5 36 Q421 16 384.5 5 Q348 -6 306 -6 Q251 -6 196.5 9 Q142 24 91 68 L151 150 Q187 117 226.5 104 Q266 91 311 91 Q346 91 371.5 106.5 Q397 122 397 148 Q397 169 383 180.5 Q369 192 347 199 Q325 206 297.5 210 Q270 214 242 220 Q218 225 196.5 233.5 Q175 242 158 257 Q141 272 131 294.5 Q121 317 121 350 Q121 385 136 413 Q151 441 176 460.5 Q201 480 234.5 490 Q268 500 306 500 Q363 500 408.5 487.5 Q454 475 495 444 L441 358 Q406 381 371.5 391 Q337 401 304 401 Q265 401 246.5 385.5 Q228 370 228 353 Q228 327 254.5 314.5 Q281 302 346 294 Q378 290 407 281.5 Q436 273 458.5 256.5 Q481 240 494.5 214.5 Q508 189 508 151 Z M247 573 L330 765 L435 725 L318 544 L247 573 Z " />
<glyph glyph-name="scircumflex" unicode="&#x15d;" horiz-adv-x="600" d="M508 151 Q508 115 492 85.5 Q476 56 448.5 36 Q421 16 384.5 5 Q348 -6 306 -6 Q251 -6 196.5 9 Q142 24 91 68 L151 150 Q187 117 226.5 104 Q266 91 311 91 Q346 91 371.5 106.5 Q397 122 397 148 Q397 169 383 180.5 Q369 192 347 199 Q325 206 297.5 210 Q270 214 242 220 Q218 225 196.5 233.5 Q175 242 158 257 Q141 272 131 294.5 Q121 317 121 350 Q121 385 136 413 Q151 441 176 460.5 Q201 480 234.5 490 Q268 500 306 500 Q363 500 408.5 487.5 Q454 475 495 444 L441 358 Q406 381 371.5 391 Q337 401 304 401 Q265 401 246.5 385.5 Q228 370 228 353 Q228 327 254.5 314.5 Q281 302 346 294 Q378 290 407 281.5 Q436 273 458.5 256.5 Q481 240 494.5 214.5 Q508 189 508 151 Z M310 642 Q301 636 281.5 621 Q262 606 240.5 589.5 Q219 573 199.5 558 Q180 543 171 537 L124 583 L273 735 L351 735 L497 585 L449 537 L310 642 Z " />
<glyph glyph-name="Scedilla" unicode="&#x15e;" horiz-adv-x="600" d="M551 206 Q551 157 533 119 Q515 81 483.5 54.5 Q452 28 409 13.5 Q366 -1 317 -3 L304 -42 Q334 -44 353 -53 Q372 -62 383 -74.5 Q394 -87 398 -101.5 Q402 -116 402 -129 Q402 -144 395 -160 Q388 -176 374 -189 Q360 -202 338.5 -210 Q317 -218 288 -218 Q262 -218 237 -212.5 Q212 -207 189 -194 L210 -142 Q233 -153 251 -156 Q269 -159 285 -159 Q305 -159 315 -149 Q325 -139 325 -125 Q325 -109 313 -101 Q301 -93 282 -93 Q275 -93 265 -95 L236 -75 L259 -2 Q202 3 144.5 24 Q87 45 39 91 Q56 114 72.5 137 Q89 160 106 183 Q149 141 198.5 123 Q248 105 303 105 Q328 105 351 110.5 Q374 116 391.5 127.5 Q409 139 419.5 157.5 Q430 176 430 202 Q430 231 417.5 249.5 Q405 268 384.5 280 Q364 292 337 299 Q310 306 280 313 Q244 321 207 331.5 Q170 342 141 362.5 Q112 383 93.5 416.5 Q75 450 75 505 Q75 556 94.5 593 Q114 630 145.5 654.5 Q177 679 217.5 691 Q258 703 300 703 Q363 703 420 688 Q477 673 523 637 L469 541 Q427 570 386.5 581 Q346 592 309 592 Q249 592 221 570 Q193 548 193 513 Q193 492 200.5 476.5 Q208 461 226 449 Q244 437 273.5 427 Q303 417 348 408 Q384 400 420 387.5 Q456 375 485 352.5 Q514 330 532.5 294.5 Q551 259 551 206 Z " />
<glyph glyph-name="scedilla" unicode="&#x15f;" horiz-adv-x="600" d="M508 151 Q508 116 493.5 88.5 Q479 61 454.5 41 Q430 21 396.5 9 Q363 -3 324 -5 L312 -42 Q342 -44 361 -53 Q380 -62 391 -74.5 Q402 -87 406 -101.5 Q410 -116 410 -129 Q410 -144 403 -160 Q396 -176 382 -189 Q368 -202 346.5 -210 Q325 -218 296 -218 Q270 -218 245 -212.5 Q220 -207 197 -194 L218 -142 Q241 -153 259 -156 Q277 -159 293 -159 Q313 -159 323 -149 Q333 -139 333 -125 Q333 -109 321 -101 Q309 -93 290 -93 Q283 -93 273 -95 L244 -75 L266 -4 Q221 -1 177 15 Q133 31 91 68 L151 150 Q187 117 226.5 104 Q266 91 311 91 Q346 91 371.5 106.5 Q397 122 397 148 Q397 169 383 180.5 Q369 192 347 199 Q325 206 297.5 210 Q270 214 242 220 Q218 225 196.5 233.5 Q175 242 158 257 Q141 272 131 294.5 Q121 317 121 350 Q121 385 136 413 Q151 441 176 460.5 Q201 480 234.5 490 Q268 500 306 500 Q363 500 408.5 487.5 Q454 475 495 444 L441 358 Q406 381 371.5 391 Q337 401 304 401 Q265 401 246.5 385.5 Q228 370 228 353 Q228 327 254.5 314.5 Q281 302 346 294 Q378 290 407 281.5 Q436 273 458.5 256.5 Q481 240 494.5 214.5 Q508 189 508 151 Z " />
<glyph glyph-name="Tcommaaccent" unicode="&#x162;" horiz-adv-x="600" d="M361 588 L361 0 L327 0 L315 -37 Q345 -39 364 -48 Q383 -57 394 -69.5 Q405 -82 409 -96.5 Q413 -111 413 -124 Q413 -139 406 -155 Q399 -171 385 -184 Q371 -197 349.5 -205 Q328 -213 299 -213 Q273 -213 248 -207.5 Q223 -202 200 -189 L221 -137 Q244 -148 262 -151 Q280 -154 296 -154 Q316 -154 326 -144 Q336 -134 336 -120 Q336 -104 324 -96 Q312 -88 293 -88 Q286 -88 276 -90 L247 -70 L269 0 L240 0 L240 588 L56 588 L56 696 L545 696 L545 588 L361 588 Z " />
<glyph glyph-name="tcommaaccent" unicode="&#x163;" horiz-adv-x="600" d="M81 398 L81 495 L212 495 L212 637 L322 637 L322 495 L531 495 L531 398 L323 398 L323 180 Q323 140 340.5 118 Q358 96 400 96 Q427 96 455.5 106 Q484 116 507 134 L553 44 Q533 29 510 19 Q487 9 464.5 3.5 Q442 -2 421 -4.5 Q400 -7 384 -7 Q369 -7 355.5 -5.5 Q342 -4 329 -2 L317 -37 Q347 -39 366 -48 Q385 -57 396 -69.5 Q407 -82 411 -96.5 Q415 -111 415 -124 Q415 -139 408 -155 Q401 -171 387 -184 Q373 -197 351.5 -205 Q330 -213 301 -213 Q275 -213 250 -207.5 Q225 -202 202 -189 L223 -137 Q246 -148 264 -151 Q282 -154 298 -154 Q318 -154 328 -144 Q338 -134 338 -120 Q338 -104 326 -96 Q314 -88 295 -88 Q288 -88 278 -90 L249 -70 L276 17 Q244 36 227 71.5 Q210 107 210 166 L210 398 L81 398 Z " />
<glyph glyph-name="tcaron" unicode="&#x165;" horiz-adv-x="600" d="M81 398 L81 495 L212 495 L212 637 L322 637 L322 495 L531 495 L531 398 L323 398 L323 180 Q323 140 340.5 118 Q358 96 400 96 Q427 96 455.5 106 Q484 116 507 134 L553 44 Q533 29 510 19 Q487 9 464.5 3.5 Q442 -2 421 -4.5 Q400 -7 384 -7 Q345 -7 312.5 1.5 Q280 10 257.5 30.5 Q235 51 222.5 84 Q210 117 210 166 L210 398 L81 398 Z M531 660 Q514 630 497.5 600 Q481 570 464 540 L400 540 Q410 569 418.5 597.5 Q427 626 437 655 L406 655 L406 783 L531 783 L531 660 Z " />
<glyph glyph-name="Tbar" unicode="&#x166;" horiz-adv-x="600" d="M361 588 L361 403 L501 403 L501 318 L361 318 L361 0 L240 0 L240 318 L105 318 L105 403 L240 403 L240 588 L56 588 L56 696 L545 696 L545 588 L361 588 Z " />
<glyph glyph-name="tbar" unicode="&#x167;" horiz-adv-x="600" d="M81 398 L81 495 L212 495 L212 637 L322 637 L322 495 L531 495 L531 398 L323 398 L323 311 L452 311 L452 232 L323 232 L323 180 Q323 140 340.5 118 Q358 96 400 96 Q427 96 455.5 106 Q484 116 507 134 L553 44 Q533 29 510 19 Q487 9 464.5 3.5 Q442 -2 421 -4.5 Q400 -7 384 -7 Q345 -7 312.5 1.5 Q280 10 257.5 30.5 Q235 51 222.5 84 Q210 117 210 166 L210 232 L121 232 L121 311 L210 311 L210 398 L81 398 Z " />
<glyph glyph-name="Utilde" unicode="&#x168;" horiz-adv-x="600" d="M542 696 L542 245 Q542 190 527 144 Q512 98 481.5 65 Q451 32 405.5 13.5 Q360 -5 300 -5 Q237 -5 191 14 Q145 33 115.5 67 Q86 101 72 147.5 Q58 194 58 249 L58 696 L178 696 L178 300 Q178 262 182 227.5 Q186 193 199 166.5 Q212 140 236 124 Q260 108 300 108 Q339 108 363 123 Q387 138 399.5 164.5 Q412 191 416.5 226 Q421 261 421 301 L421 696 L542 696 Z M236 887 Q255 887 273.5 879.5 Q292 872 309 863 Q326 854 341.5 846.5 Q357 839 369 839 Q386 839 401 850 Q416 861 433 886 L493 849 Q469 797 441 773.5 Q413 750 379 750 Q360 750 341.5 757 Q323 764 306 772 Q289 780 273 787 Q257 794 243 794 Q226 794 210 784.5 Q194 775 174 749 L116 787 Q139 835 168.5 861 Q198 887 236 887 Z " />
<glyph glyph-name="utilde" unicode="&#x169;" horiz-adv-x="600" d="M391 0 L391 48 L388 48 Q363 18 329.5 6 Q296 -6 263 -6 Q99 -6 99 169 L99 495 L211 495 L211 200 Q211 153 227 127.5 Q243 102 288 102 Q333 102 362 129 Q391 156 391 210 L391 495 L503 495 L503 0 L391 0 Z M233 707 Q252 707 270.5 699.5 Q289 692 306 683 Q323 674 338.5 666.5 Q354 659 366 659 Q383 659 398 670 Q413 681 430 706 L490 669 Q466 617 438 593.5 Q410 570 376 570 Q357 570 338.5 577 Q320 584 303 592 Q286 600 270 607 Q254 614 240 614 Q223 614 207 604.5 Q191 595 171 569 L113 607 Q136 655 165.5 681 Q195 707 233 707 Z " />
<glyph glyph-name="umacron" unicode="&#x16b;" horiz-adv-x="600" d="M391 0 L391 48 L388 48 Q363 18 329.5 6 Q296 -6 263 -6 Q99 -6 99 169 L99 495 L211 495 L211 200 Q211 153 227 127.5 Q243 102 288 102 Q333 102 362 129 Q391 156 391 210 L391 495 L503 495 L503 0 L391 0 Z M154 594 L154 688 L455 688 L455 594 L154 594 Z " />
<glyph glyph-name="ubreve" unicode="&#x16d;" horiz-adv-x="600" d="M391 0 L391 48 L388 48 Q363 18 329.5 6 Q296 -6 263 -6 Q99 -6 99 169 L99 495 L211 495 L211 200 Q211 153 227 127.5 Q243 102 288 102 Q333 102 362 129 Q391 156 391 210 L391 495 L503 495 L503 0 L391 0 Z M300 566 Q256 566 227 581 Q198 596 180 618 Q162 640 153.5 665.5 Q145 691 144 713 L235 713 Q235 703 239.5 691.5 Q244 680 252 670 Q260 660 272 653.5 Q284 647 300 647 Q316 647 328.5 653.5 Q341 660 349.5 670 Q358 680 362 691.5 Q366 703 366 713 L455 713 Q453 691 444.5 665.5 Q436 640 418.5 618 Q401 596 372 581 Q343 566 300 566 Z " />
<glyph glyph-name="Uring" unicode="&#x16e;" horiz-adv-x="600" d="M542 696 L542 245 Q542 190 527 144 Q512 98 481.5 65 Q451 32 405.5 13.5 Q360 -5 300 -5 Q237 -5 191 14 Q145 33 115.5 67 Q86 101 72 147.5 Q58 194 58 249 L58 696 L178 696 L178 300 Q178 262 182 227.5 Q186 193 199 166.5 Q212 140 236 124 Q260 108 300 108 Q339 108 363 123 Q387 138 399.5 164.5 Q412 191 416.5 226 Q421 261 421 301 L421 696 L542 696 Z M349 824 Q349 844 335.5 857 Q322 870 302 870 Q282 870 268 857 Q254 844 254 824 Q254 804 268 791 Q282 778 302 778 Q322 778 335.5 791 Q349 804 349 824 Z M190 824 Q190 846 199 865.5 Q208 885 223 899.5 Q238 914 258.5 922.5 Q279 931 302 931 Q325 931 345 922.5 Q365 914 380 899.5 Q395 885 404 865.5 Q413 846 413 824 Q413 802 404 782.5 Q395 763 380 748.5 Q365 734 344.5 725.5 Q324 717 301 717 Q278 717 258 725.5 Q238 734 223 748.5 Q208 763 199 782.5 Q190 802 190 824 Z " />
<glyph glyph-name="uring" unicode="&#x16f;" horiz-adv-x="600" d="M391 0 L391 48 L388 48 Q363 18 329.5 6 Q296 -6 263 -6 Q99 -6 99 169 L99 495 L211 495 L211 200 Q211 153 227 127.5 Q243 102 288 102 Q333 102 362 129 Q391 156 391 210 L391 495 L503 495 L503 0 L391 0 Z M349 648 Q349 668 335.5 681 Q322 694 302 694 Q282 694 268 681 Q254 668 254 648 Q254 628 268 615 Q282 602 302 602 Q322 602 335.5 615 Q349 628 349 648 Z M190 648 Q190 670 199 689.5 Q208 709 223 723.5 Q238 738 258.5 746.5 Q279 755 302 755 Q325 755 345 746.5 Q365 738 380 723.5 Q395 709 404 689.5 Q413 670 413 648 Q413 626 404 606.5 Q395 587 380 572.5 Q365 558 344.5 549.5 Q324 541 301 541 Q278 541 258 549.5 Q238 558 223 572.5 Q208 587 199 606.5 Q190 626 190 648 Z " />
<glyph glyph-name="uhungarumlaut" unicode="&#x171;" horiz-adv-x="600" d="M391 0 L391 48 L388 48 Q363 18 329.5 6 Q296 -6 263 -6 Q99 -6 99 169 L99 495 L211 495 L211 200 Q211 153 227 127.5 Q243 102 288 102 Q333 102 362 129 Q391 156 391 210 L391 495 L503 495 L503 0 L391 0 Z M164 574 L245 768 L350 730 L232 549 L164 574 Z M323 574 L403 768 L508 730 L391 549 L323 574 Z " />
<glyph glyph-name="Uogonek" unicode="&#x172;" horiz-adv-x="600" d="M218 -109 Q218 -88 227 -61 Q236 -34 259 -2 Q206 4 168.5 24.5 Q131 45 106 78 Q81 111 69.5 154.5 Q58 198 58 249 L58 696 L178 696 L178 300 Q178 262 182 227.5 Q186 193 199 166.5 Q212 140 236 124 Q260 108 300 108 Q339 108 363 123 Q387 138 399.5 164.5 Q412 191 416.5 226 Q421 261 421 301 L421 696 L542 696 L542 245 Q542 195 529.5 152 Q517 109 492 77 Q467 45 429.5 24.5 Q392 4 342 -2 Q322 -30 313.5 -52.5 Q305 -75 305 -92 Q305 -134 354 -134 Q368 -134 386 -131 Q404 -128 428 -120 L454 -181 Q431 -194 402 -201.5 Q373 -209 343 -209 Q289 -209 253.5 -183 Q218 -157 218 -109 Z " />
<glyph glyph-name="uogonek" unicode="&#x173;" horiz-adv-x="600" d="M346 -109 Q346 -87 356 -59 Q366 -31 391 3 L391 48 L388 48 Q363 18 329.5 6 Q296 -6 263 -6 Q99 -6 99 169 L99 495 L211 495 L211 200 Q211 153 227 127.5 Q243 102 288 102 Q333 102 362 129 Q391 156 391 210 L391 495 L503 495 L503 0 L472 0 Q450 -28 441.5 -51.5 Q433 -75 433 -92 Q433 -134 482 -134 Q496 -134 514 -131 Q532 -128 556 -120 L582 -181 Q559 -194 530 -201.5 Q501 -209 471 -209 Q417 -209 381.5 -183 Q346 -157 346 -109 Z " />
<glyph glyph-name="wcircumflex" unicode="&#x175;" horiz-adv-x="600" d="M298 239 L239 0 L126 0 L35 495 L148 495 L197 172 L201 172 L255 377 L350 377 L404 176 L409 176 L456 495 L566 495 L477 0 L363 0 L303 239 L298 239 Z M302 642 Q293 636 273.5 621 Q254 606 232.5 589.5 Q211 573 191.5 558 Q172 543 163 537 L116 583 L265 735 L343 735 L489 585 L441 537 L302 642 Z " />
<glyph glyph-name="ycircumflex" unicode="&#x177;" horiz-adv-x="600" d="M330 -60 Q316 -99 300.5 -125.5 Q285 -152 264.5 -168.5 Q244 -185 216.5 -192 Q189 -199 150 -199 L106 -199 L106 -104 L139 -104 Q161 -104 175.5 -99 Q190 -94 200 -85 Q210 -76 216 -62.5 Q222 -49 228 -32 L246 21 L70 495 L191 495 L254 312 Q264 283 277 247 Q290 211 301 167 L305 167 Q317 208 328 242 Q339 276 350 308 L413 495 L530 495 L330 -60 Z M303 642 Q294 636 274.5 621 Q255 606 233.5 589.5 Q212 573 192.5 558 Q173 543 164 537 L117 583 L266 735 L344 735 L490 585 L442 537 L303 642 Z " />
<glyph glyph-name="zacute" unicode="&#x17a;" horiz-adv-x="600" d="M106 0 L106 93 L357 398 L124 398 L124 495 L493 495 L493 402 L244 102 L499 102 L499 0 L106 0 Z M256 573 L339 765 L444 725 L327 544 L256 573 Z " />
<glyph glyph-name="Zdotaccent" unicode="&#x17b;" horiz-adv-x="600" d="M71 0 L71 104 L380 587 L87 587 L87 696 L523 696 L523 597 L214 109 L528 109 L528 0 L71 0 Z M249 765 L249 874 L367 874 L367 765 L249 765 Z " />
<glyph glyph-name="zdotaccent" unicode="&#x17c;" horiz-adv-x="600" d="M106 0 L106 93 L357 398 L124 398 L124 495 L493 495 L493 402 L244 102 L499 102 L499 0 L106 0 Z M250 590 L250 699 L368 699 L368 590 L250 590 Z " />
<glyph glyph-name="AEacute" unicode="&#x1fc;" horiz-adv-x="600" d="M306 0 L306 186 L197 186 Q185 139 172 93 Q159 47 147 0 L27 0 Q78 175 128 348 Q178 521 229 696 L558 696 L558 586 L428 586 L428 414 L547 414 L547 309 L428 309 L428 109 L571 109 L571 0 L306 0 Z M302 578 L223 288 L306 288 L306 578 L302 578 Z M293 797 L461 925 L528 839 L337 740 L293 797 Z " />
<glyph glyph-name="aeacute" unicode="&#x1fd;" horiz-adv-x="600" d="M295 59 Q275 28 243.5 11 Q212 -6 167 -6 Q107 -6 70 31.5 Q33 69 33 146 Q33 176 41 204 Q49 232 67 253 Q85 274 114 286.5 Q143 299 185 299 L247 299 L247 336 Q247 369 228.5 384 Q210 399 178 399 Q154 399 131.5 390.5 Q109 382 90 369 L50 452 Q85 479 121 491 Q157 503 193 503 Q224 503 255.5 493 Q287 483 308 452 Q331 481 361.5 492 Q392 503 418 503 Q494 503 529 447.5 Q564 392 564 296 L564 215 L354 215 Q354 151 376.5 120.5 Q399 90 434 90 Q453 90 472.5 99.5 Q492 109 512 130 L569 65 Q540 27 501.5 10.5 Q463 -6 427 -6 Q411 -6 392.5 -2.5 Q374 1 355.5 8.5 Q337 16 321 28.5 Q305 41 295 59 Z M134 154 Q134 131 145 112.5 Q156 94 185 94 Q211 94 229 112.5 Q247 131 247 182 L247 213 L188 213 Q156 213 145 195 Q134 177 134 154 Z M461 298 Q461 321 459 341 Q457 361 451 375.5 Q445 390 435 398 Q425 406 409 406 Q386 406 372 380 Q358 354 356 298 L461 298 Z M255 573 L338 765 L443 725 L326 544 L255 573 Z " />
<glyph glyph-name="Oslashacute" unicode="&#x1fe;" horiz-adv-x="600" d="M298 701 Q353 701 396 685.5 Q439 670 470 641 L512 701 L559 668 L508 596 Q547 533 547 442 L547 247 Q547 191 531 144.5 Q515 98 483.5 64.5 Q452 31 405.5 12.5 Q359 -6 298 -6 Q238 -6 194.5 10 Q151 26 122 54 L82 -3 Q71 5 59.5 12.5 Q48 20 37 28 Q49 46 61.5 63.5 Q74 81 87 99 Q68 131 60 168 Q52 205 52 247 L52 442 Q52 494 65.5 541.5 Q79 589 109 624 Q139 659 185.5 680 Q232 701 298 701 Z M425 440 Q425 458 422 475 L196 157 Q210 134 234.5 120 Q259 106 298 106 Q332 106 356.5 118 Q381 130 396 150.5 Q411 171 418 198 Q425 225 425 256 L425 440 Z M298 588 Q262 588 238 575 Q214 562 199.5 541 Q185 520 179 493.5 Q173 467 173 440 L173 256 Q173 248 173.5 240 Q174 232 175 224 L398 539 Q382 562 357.5 575 Q333 588 298 588 Z M231 797 L399 925 L466 839 L275 740 L231 797 Z " />
<glyph glyph-name="oslashacute" unicode="&#x1ff;" horiz-adv-x="600" d="M303 500 Q384 500 438 458 L481 513 L516 485 L470 427 Q515 370 515 259 Q515 202 508 160.5 Q501 119 484 90 Q456 42 408 17.5 Q360 -7 295 -7 Q253 -7 219 3 Q185 13 159 33 L120 -16 L86 11 L128 65 L122 74 Q102 105 93.5 146.5 Q85 188 85 243 Q85 300 96 343 Q107 386 130 418 Q159 457 202.5 478.5 Q246 500 303 500 Z M301 399 Q242 399 216 347 Q206 327 202.5 301.5 Q199 276 199 245 Q199 222 200.5 201.5 Q202 181 207 164 L369 371 Q356 385 338.5 392 Q321 399 301 399 Z M242 573 L325 765 L430 725 L313 544 L242 573 Z M400 255 Q400 298 392 328 L229 123 Q254 96 298 96 Q361 96 387 155 Q395 172 397.5 195 Q400 218 400 255 Z " />
<glyph glyph-name="Scaron" unicode="&#x160;" horiz-adv-x="600" d="M551 206 Q551 155 531.5 116 Q512 77 478 50 Q444 23 398.5 9.5 Q353 -4 301 -4 Q237 -4 167 16.5 Q97 37 39 91 Q56 114 72.5 137 Q89 160 106 183 Q149 141 198.5 123 Q248 105 303 105 Q328 105 351 110.5 Q374 116 391.5 127.5 Q409 139 419.5 157.5 Q430 176 430 202 Q430 231 417.5 249.5 Q405 268 384.5 280 Q364 292 337 299 Q310 306 280 313 Q244 321 207 331.5 Q170 342 141 362.5 Q112 383 93.5 416.5 Q75 450 75 505 Q75 556 94.5 593 Q114 630 145.5 654.5 Q177 679 217.5 691 Q258 703 300 703 Q363 703 420 688 Q477 673 523 637 L469 541 Q427 570 386.5 581 Q346 592 309 592 Q249 592 221 570 Q193 548 193 513 Q193 492 200.5 476.5 Q208 461 226 449 Q244 437 273.5 427 Q303 417 348 408 Q384 400 420 387.5 Q456 375 485 352.5 Q514 330 532.5 294.5 Q551 259 551 206 Z M443 921 L484 869 L337 745 L261 745 L112 870 L150 921 L297 835 L443 921 Z " />
<glyph glyph-name="Zcaron" unicode="&#x17d;" horiz-adv-x="600" d="M71 0 L71 104 L380 587 L87 587 L87 696 L523 696 L523 597 L214 109 L528 109 L528 0 L71 0 Z M458 921 L499 869 L352 745 L276 745 L127 870 L165 921 L312 835 L458 921 Z " />
<glyph glyph-name="scaron" unicode="&#x161;" horiz-adv-x="600" d="M508 151 Q508 115 492 85.5 Q476 56 448.5 36 Q421 16 384.5 5 Q348 -6 306 -6 Q251 -6 196.5 9 Q142 24 91 68 L151 150 Q187 117 226.5 104 Q266 91 311 91 Q346 91 371.5 106.5 Q397 122 397 148 Q397 169 383 180.5 Q369 192 347 199 Q325 206 297.5 210 Q270 214 242 220 Q218 225 196.5 233.5 Q175 242 158 257 Q141 272 131 294.5 Q121 317 121 350 Q121 385 136 413 Q151 441 176 460.5 Q201 480 234.5 490 Q268 500 306 500 Q363 500 408.5 487.5 Q454 475 495 444 L441 358 Q406 381 371.5 391 Q337 401 304 401 Q265 401 246.5 385.5 Q228 370 228 353 Q228 327 254.5 314.5 Q281 302 346 294 Q378 290 407 281.5 Q436 273 458.5 256.5 Q481 240 494.5 214.5 Q508 189 508 151 Z M447 755 L495 707 L349 557 L271 557 L122 708 L169 755 L308 650 L447 755 Z " />
<glyph glyph-name="zcaron" unicode="&#x17e;" horiz-adv-x="600" d="M105 0 L105 93 L356 398 L123 398 L123 495 L492 495 L492 402 L243 102 L498 102 L498 0 L105 0 Z M443 755 L491 707 L345 557 L267 557 L118 708 L165 755 L304 650 L443 755 Z " />
<glyph glyph-name="Kcommaaccent" unicode="&#x136;" horiz-adv-x="600" d="M341 423 L573 0 L432 0 L262 318 L178 208 L178 0 L57 0 L57 696 L179 696 L179 394 L181 394 L409 696 L547 696 L341 423 Z M355 -175 Q338 -205 321.5 -235 Q305 -265 288 -295 L224 -295 Q234 -266 242.5 -237.5 Q251 -209 261 -180 L230 -180 L230 -52 L355 -52 L355 -175 Z " />
<glyph glyph-name="cent" unicode="&#xa2;" horiz-adv-x="600" d="M504 67 Q468 32 425 16 Q382 0 330 -6 L323 -110 L265 -110 L274 -1 Q235 5 203 22.5 Q171 40 148 70 Q125 100 112 143.5 Q99 187 99 246 Q99 309 116 356 Q133 403 161.5 434 Q190 465 228.5 481.5 Q267 498 310 500 L318 602 L372 602 L364 497 Q437 485 494 430 L425 351 Q395 382 357 392 Q352 318 347 245 Q342 172 337 98 Q347 99 360 103.5 Q373 108 386.5 114.5 Q400 121 413 129.5 Q426 138 435 147 L504 67 Z M215 247 Q215 132 282 106 L303 394 Q261 386 238 350 Q215 314 215 247 Z " />
<glyph glyph-name="partialdiff" unicode="&#x2202;" horiz-adv-x="600" d="M287 85 Q320 85 344 104.5 Q368 124 383.5 154.5 Q399 185 407 223 Q415 261 417 298 Q381 335 346.5 349 Q312 363 286 363 Q262 363 242.5 350.5 Q223 338 209.5 318.5 Q196 299 188.5 273.5 Q181 248 181 223 Q181 187 189.5 160.5 Q198 134 213 117.5 Q228 101 247 93 Q266 85 287 85 Z M284 -10 Q238 -10 198.5 5 Q159 20 129.5 49 Q100 78 83.5 121 Q67 164 67 221 Q67 274 83.5 317 Q100 360 129 390 Q158 420 196.5 436.5 Q235 453 280 453 Q313 453 346 442.5 Q379 432 414 409 Q411 457 397 497.5 Q383 538 359.5 567.5 Q336 597 304 613.5 Q272 630 232 630 Q217 630 198.5 628.5 Q180 627 156 619 L152 709 Q176 715 201 718 Q226 721 246 721 Q324 721 378.5 690.5 Q433 660 467 609 Q501 558 516.5 491 Q532 424 532 351 Q532 261 513 193.5 Q494 126 461 81 Q428 36 382.5 13 Q337 -10 284 -10 Z " />
<glyph glyph-name="product" unicode="&#x220f;" horiz-adv-x="600" d="M419 -81 L419 588 L181 588 L181 -81 L60 -81 L60 696 L539 696 L539 -81 L419 -81 Z " />
<glyph glyph-name="summation" unicode="&#x2211;" horiz-adv-x="600" d="M83 -80 L83 30 L244 309 L83 592 L83 696 L516 696 L516 588 L227 588 L387 309 L227 32 L529 32 L529 -80 L83 -80 Z " />
<glyph glyph-name="radical" unicode="&#x221a;" horiz-adv-x="600" d="M365 -79 L273 -79 L136 315 L65 294 L39 373 L199 423 L310 104 L452 794 L560 794 L365 -79 Z " />
<glyph glyph-name="infinity" unicode="&#x221e;" horiz-adv-x="600" d="M173 433 Q212 433 245.5 411 Q279 389 299 359 Q325 391 355 412 Q385 433 430 433 Q490 433 525 391 Q560 349 560 280 Q560 249 549.5 221.5 Q539 194 521 173.5 Q503 153 478 141 Q453 129 424 129 Q384 129 352.5 150.5 Q321 172 298 204 Q275 173 245 151 Q215 129 168 129 Q109 129 73 170 Q37 211 37 280 Q37 312 47.5 340 Q58 368 76 388.5 Q94 409 119 421 Q144 433 173 433 Z M181 346 Q159 346 142 327.5 Q125 309 125 281 Q125 252 141 233 Q157 214 179 214 Q202 214 224.5 231 Q247 248 264 281 Q249 308 226 327 Q203 346 181 346 Z M420 347 Q400 347 378.5 330 Q357 313 338 281 Q357 252 375 233 Q393 214 419 214 Q439 214 456 233 Q473 252 473 281 Q473 313 455.5 330 Q438 347 420 347 Z " />
<glyph glyph-name="integral" unicode="&#x222b;" horiz-adv-x="600" d="M247 258 Q249 297 250.5 350.5 Q252 404 252 476 Q255 552 264.5 608 Q274 664 293.5 700.5 Q313 737 344 755 Q375 773 421 773 Q437 773 460.5 769 Q484 765 500 759 Q496 740 492 721 Q488 702 483 683 Q467 686 453.5 688 Q440 690 431 690 Q415 690 402.5 684 Q390 678 381 661 Q372 644 365.5 614.5 Q359 585 356 539 Q354 515 353.5 470.5 Q353 426 352.5 374.5 Q352 323 351.5 272 Q351 221 350 185 Q348 92 338.5 28.5 Q329 -35 309 -74.5 Q289 -114 256.5 -131.5 Q224 -149 178 -149 Q162 -149 139.5 -145 Q117 -141 99 -133 L121 -59 Q155 -66 172 -66 Q192 -66 205.5 -54.5 Q219 -43 227.5 -8 Q236 27 240.5 90.5 Q245 154 247 258 Z " />
<glyph glyph-name="approxequal" unicode="&#x2248;" horiz-adv-x="600" d="M529 413 Q500 358 467.5 332 Q435 306 391 306 Q369 306 346 315 Q323 324 300.5 335.5 Q278 347 256.5 356 Q235 365 217 365 Q194 365 176.5 353 Q159 341 136 312 Q119 323 103 333.5 Q87 344 70 355 Q99 408 133 434 Q167 460 214 460 Q237 460 259.5 450.5 Q282 441 303.5 430 Q325 419 345 409.5 Q365 400 383 400 Q406 400 423.5 415 Q441 430 462 458 L529 413 Z M529 231 Q500 177 467.5 151 Q435 125 391 125 Q369 125 346 134 Q323 143 300.5 154.5 Q278 166 256.5 175 Q235 184 217 184 Q194 184 176.5 171.5 Q159 159 136 130 Q119 141 103 151.5 Q87 162 70 173 Q99 226 133 252 Q167 278 214 278 Q237 278 259.5 268.5 Q282 259 303.5 248 Q325 237 345 227.5 Q365 218 383 218 Q406 218 423.5 233 Q441 248 462 276 L529 231 Z " />
<glyph glyph-name="notequal" unicode="&#x2260;" horiz-adv-x="600" d="M174 28 Q150 28 126 28 Q102 28 78 29 L153 146 L61 146 L61 235 L210 235 L288 357 L61 357 L61 446 L345 446 L426 572 L523 572 Q503 540 482.5 509 Q462 478 441 446 L538 446 L538 357 L385 357 L306 235 L538 235 L538 146 L250 146 L174 28 L174 28 Z " />
<glyph glyph-name="lessequal" unicode="&#x2264;" horiz-adv-x="600" d="M527 138 L66 301 L66 381 Q182 423 296.5 466 Q411 509 527 551 L527 451 L212 341 L527 239 L527 138 Z M66 1 L66 91 L528 91 L528 1 L66 1 Z " />
<glyph glyph-name="greaterequal" unicode="&#x2265;" horiz-adv-x="600" d="M71 238 L386 340 L71 450 L71 550 Q187 508 302 465 Q417 422 533 380 L533 300 L71 137 L71 238 Z M71 0 L71 90 L532 90 L532 0 L71 0 Z " />
<glyph glyph-name="&amp;#x2044;" unicode="&#x2044;" horiz-adv-x="600" d="M117 -17 L43 -17 L480 708 L557 708 L117 -17 Z " />
<glyph glyph-name="&amp;#x2215;" unicode="&#x2215;" horiz-adv-x="600" d="M117 -17 L43 -17 L480 708 L557 708 L117 -17 Z " />
<glyph glyph-name="lozenge" unicode="&#x25ca;" horiz-adv-x="600" d="M338 -19 L262 -19 L88 317 L263 654 L339 654 L510 317 L338 -19 Z M300 538 L191 318 L301 97 L410 317 L300 538 Z " />
<glyph glyph-name="Scommaaccent" unicode="&#x218;" horiz-adv-x="600" d="M551 206 Q551 155 531.5 116 Q512 77 478 50 Q444 23 398.5 9.5 Q353 -4 301 -4 Q237 -4 167 16.5 Q97 37 39 91 Q56 114 72.5 137 Q89 160 106 183 Q149 141 198.5 123 Q248 105 303 105 Q328 105 351 110.5 Q374 116 391.5 127.5 Q409 139 419.5 157.5 Q430 176 430 202 Q430 231 417.5 249.5 Q405 268 384.5 280 Q364 292 337 299 Q310 306 280 313 Q244 321 207 331.5 Q170 342 141 362.5 Q112 383 93.5 416.5 Q75 450 75 505 Q75 556 94.5 593 Q114 630 145.5 654.5 Q177 679 217.5 691 Q258 703 300 703 Q363 703 420 688 Q477 673 523 637 L469 541 Q427 570 386.5 581 Q346 592 309 592 Q249 592 221 570 Q193 548 193 513 Q193 492 200.5 476.5 Q208 461 226 449 Q244 437 273.5 427 Q303 417 348 408 Q384 400 420 387.5 Q456 375 485 352.5 Q514 330 532.5 294.5 Q551 259 551 206 Z M373 -175 Q356 -205 339.5 -235 Q323 -265 306 -295 L242 -295 Q252 -266 260.5 -237.5 Q269 -209 279 -180 L248 -180 L248 -52 L373 -52 L373 -175 Z " />
<glyph glyph-name="scommaaccent" unicode="&#x219;" horiz-adv-x="600" d="M508 151 Q508 115 492 85.5 Q476 56 448.5 36 Q421 16 384.5 5 Q348 -6 306 -6 Q251 -6 196.5 9 Q142 24 91 68 L151 150 Q187 117 226.5 104 Q266 91 311 91 Q346 91 371.5 106.5 Q397 122 397 148 Q397 169 383 180.5 Q369 192 347 199 Q325 206 297.5 210 Q270 214 242 220 Q218 225 196.5 233.5 Q175 242 158 257 Q141 272 131 294.5 Q121 317 121 350 Q121 385 136 413 Q151 441 176 460.5 Q201 480 234.5 490 Q268 500 306 500 Q363 500 408.5 487.5 Q454 475 495 444 L441 358 Q406 381 371.5 391 Q337 401 304 401 Q265 401 246.5 385.5 Q228 370 228 353 Q228 327 254.5 314.5 Q281 302 346 294 Q378 290 407 281.5 Q436 273 458.5 256.5 Q481 240 494.5 214.5 Q508 189 508 151 Z M376 -176 Q359 -206 342.5 -236 Q326 -266 309 -296 L245 -296 Q255 -267 263.5 -238.5 Q272 -210 282 -181 L251 -181 L251 -53 L376 -53 L376 -176 Z " />
<glyph glyph-name="primemod" unicode="&#x2b9;" horiz-adv-x="600" d="M413 684 L268 395 L185 422 L291 723 L413 684 Z " />
<glyph glyph-name="schwa" unicode="&#x259;" horiz-adv-x="600" d="M395 279 Q395 335 371.5 366.5 Q348 398 287 398 Q265 398 233 387 Q201 376 173 351 L113 430 Q155 468 201.5 484.5 Q248 501 295 501 Q340 501 379 489 Q418 477 447.5 448.5 Q477 420 494 371.5 Q511 323 511 251 Q511 178 492 129 Q473 80 443 50 Q413 20 375 7 Q337 -6 298 -6 Q198 -6 144.5 58 Q91 122 91 230 L91 279 L395 279 Z M299 94 Q337 94 362 121.5 Q387 149 392 199 L208 199 Q211 145 235.5 119.5 Q260 94 299 94 Z " />
<glyph glyph-name="perthousand" unicode="&#x2030;" horiz-adv-x="600" d="M297 533 Q297 482 263 452 Q229 422 178 422 Q125 422 92.5 451.5 Q60 481 60 532 L60 596 Q60 647 93.5 676.5 Q127 706 178 706 Q230 706 263.5 676.5 Q297 647 297 596 L297 533 Z M217 594 Q217 613 207 625 Q197 637 178 637 Q160 637 149.5 625 Q139 613 139 594 L139 534 Q139 515 149.5 503.5 Q160 492 178 492 Q197 492 207 503.5 Q217 515 217 534 L217 594 Z M575 473 L25 252 L25 321 L575 544 L575 473 Z M295 103 Q295 52 261.5 22 Q228 -8 176 -8 Q124 -8 91.5 21.5 Q59 51 59 102 L59 165 Q59 216 92.5 245.5 Q126 275 176 275 Q229 275 262 245.5 Q295 216 295 165 L295 103 Z M216 164 Q216 182 206 194 Q196 206 176 206 Q158 206 148 194 Q138 182 138 164 L138 103 Q138 84 148.5 72.5 Q159 61 176 61 Q195 61 205.5 72.5 Q216 84 216 103 L216 164 Z M557 103 Q557 52 523.5 22 Q490 -8 438 -8 Q386 -8 353.5 21.5 Q321 51 321 102 L321 165 Q321 216 354.5 245.5 Q388 275 438 275 Q491 275 524 245.5 Q557 216 557 165 L557 103 Z M478 164 Q478 182 468 194 Q458 206 438 206 Q420 206 410 194 Q400 182 400 164 L400 103 Q400 84 410.5 72.5 Q421 61 438 61 Q457 61 467.5 72.5 Q478 84 478 103 L478 164 Z " />
<glyph glyph-name="percent" unicode="&#x25;" horiz-adv-x="600" d="M298 505 Q298 478 288 456 Q278 434 261 419 Q244 404 221 395.5 Q198 387 172 387 Q118 387 82.5 418.5 Q47 450 47 504 L47 583 Q47 610 57 631.5 Q67 653 84.5 668 Q102 683 124.5 691.5 Q147 700 172 700 Q198 700 221 691.5 Q244 683 261 668 Q278 653 288 631.5 Q298 610 298 583 L298 505 Z M218 581 Q218 603 206 617 Q194 631 172 631 Q150 631 138 617 Q126 603 126 581 L126 506 Q126 483 138 470 Q150 457 172 457 Q194 457 206 470 Q218 483 218 506 L218 581 Z M107 -17 L32 -17 L490 708 L566 708 L107 -17 Z M549 111 Q549 84 539 62 Q529 40 512 25 Q495 10 472 1.5 Q449 -7 423 -7 Q396 -7 373.5 1 Q351 9 334 24.5 Q317 40 307.5 61.5 Q298 83 298 110 L298 189 Q298 216 308 237.5 Q318 259 335.5 274 Q353 289 375.5 297.5 Q398 306 423 306 Q449 306 472 297.5 Q495 289 512 274 Q529 259 539 237.5 Q549 216 549 189 L549 111 Z M470 187 Q470 209 458 223 Q446 237 423 237 Q401 237 389 223 Q377 209 377 187 L377 112 Q377 89 389.5 76 Q402 63 423 63 Q445 63 457.5 76 Q470 89 470 112 L470 187 Z " />
<glyph glyph-name="onequarter" unicode="&#xbc;" horiz-adv-x="600" d="M116 -17 L42 -17 L469 708 L545 708 L116 -17 Z M522 47 L522 0 L448 0 L448 47 L287 47 L287 104 L416 342 L499 342 L375 114 L448 114 L448 196 L522 196 L522 114 L550 114 L550 47 L522 47 Z M130 618 L68 585 L66 587 L66 656 L140 696 L207 696 L207 354 L130 354 L130 618 Z " />
<glyph glyph-name="onehalf" unicode="&#xbd;" horiz-adv-x="600" d="M110 -17 L36 -17 L463 708 L539 708 L110 -17 Z M320 0 L320 61 L463 218 Q476 233 476 248 Q476 261 467 270.5 Q458 280 440 280 Q423 280 410.5 267.5 Q398 255 395 232 L323 241 Q330 289 363.5 318 Q397 347 441 347 Q495 347 525 320.5 Q555 294 555 252 Q555 234 547.5 214.5 Q540 195 525 179 L422 68 L553 68 L553 0 L320 0 Z M135 618 L73 585 L71 587 L71 656 L145 696 L212 696 L212 354 L135 354 L135 618 Z " />
<glyph glyph-name="threequarters" unicode="&#xbe;" horiz-adv-x="600" d="M523 47 L523 0 L449 0 L449 47 L289 47 L289 104 Q321 164 353 223 Q385 282 417 342 L501 342 L376 114 L449 114 L449 196 L523 196 L523 114 L552 114 L552 47 L523 47 Z M138 -17 L63 -17 Q171 165 277 345 Q383 525 490 708 L567 708 L138 -17 Z M164 700 Q222 700 250.5 672.5 Q279 645 279 606 Q279 589 268 567 Q257 545 226 533 L226 530 Q243 525 254 516 Q265 507 271.5 496 Q278 485 280.5 474 Q283 463 283 454 Q283 409 249 378 Q215 347 158 347 Q139 347 120.5 352 Q102 357 85.5 368.5 Q69 380 57 398.5 Q45 417 40 443 L114 452 Q118 433 130 424 Q142 415 158 415 Q178 415 189.5 427 Q201 439 201 458 Q201 479 189 490.5 Q177 502 156 502 L128 502 L128 560 L154 560 Q177 560 188.5 571.5 Q200 583 200 597 Q200 613 189.5 623 Q179 633 160 633 Q146 633 133.5 623.5 Q121 614 116 593 L43 603 Q54 648 88 674 Q122 700 164 700 Z " />
<glyph glyph-name="onesuperior" unicode="&#xb9;" horiz-adv-x="600" d="M185 447 L286 447 L286 692 L192 643 L185 647 L185 727 L296 786 L374 786 L374 447 L467 447 L467 369 L185 369 L185 447 Z " />
<glyph glyph-name="threesuperior" unicode="&#xb3;" horiz-adv-x="600" d="M383 585 Q417 575 431 547 Q445 519 445 493 Q445 466 434.5 442.5 Q424 419 404.5 401.5 Q385 384 358 374.5 Q331 365 299 365 Q276 365 253 370.5 Q230 376 210.5 389 Q191 402 176.5 423.5 Q162 445 156 476 L240 487 Q245 464 260.5 453 Q276 442 296 442 Q323 442 338 458.5 Q353 475 353 499 Q353 524 337.5 538.5 Q322 553 293 553 L256 553 L256 619 L291 619 Q320 619 335 632.5 Q350 646 350 666 Q350 686 336.5 699 Q323 712 299 712 Q282 712 265 701 Q248 690 240 662 L162 679 Q175 730 213 759.5 Q251 789 302 789 Q337 789 363 779.5 Q389 770 406 754 Q423 738 431.5 717.5 Q440 697 440 675 Q440 653 427.5 628.5 Q415 604 383 589 L383 585 Z " />
<glyph glyph-name="twosuperior" unicode="&#xb2;" horiz-adv-x="600" d="M158 369 L158 439 L334 631 Q349 648 351 669 Q351 686 338.5 698.5 Q326 711 302 711 Q282 711 266.5 696.5 Q251 682 246 653 L159 665 Q163 693 176 716 Q189 739 208.5 755 Q228 771 252 779.5 Q276 788 302 788 Q332 788 357 780.5 Q382 773 401 759 Q420 745 430.5 723 Q441 701 441 673 Q441 650 432 627.5 Q423 605 407 588 L278 447 L438 447 L438 369 L158 369 Z " />
<glyph glyph-name="ordfeminine" unicode="&#xaa;" horiz-adv-x="600" d="M302 610 Q330 610 356 605 Q382 600 402 587 Q422 574 434 553 Q446 532 446 499 L446 279 L359 279 L359 317 Q343 295 318 285 Q293 275 270 275 Q214 275 183.5 301 Q153 327 153 374 Q153 418 183 444.5 Q213 471 273 471 L359 471 L359 496 Q359 515 345 526 Q331 537 298 537 Q246 537 216 507 L171 562 Q197 588 231.5 599 Q266 610 302 610 Z M237 383 Q237 369 249 356.5 Q261 344 291 344 Q320 344 339.5 355 Q359 366 359 392 L359 417 L286 417 Q260 417 248.5 406.5 Q237 396 237 383 Z " />
<glyph glyph-name="ordmasculine" unicode="&#xba;" horiz-adv-x="600" d="M301 610 Q368 610 409 568 Q450 526 450 441 Q450 366 411 320 Q372 274 297 274 Q148 274 148 438 Q148 518 187.5 564 Q227 610 301 610 Z M300 534 Q267 534 252 509.5 Q237 485 237 443 Q237 399 250.5 375 Q264 351 298 351 Q362 351 362 445 Q362 492 345.5 513 Q329 534 300 534 Z " />
<glyph glyph-name="uni021A" unicode="&#x21a;" horiz-adv-x="600" d="M361 588 L361 0 L240 0 L240 588 L56 588 L56 696 L545 696 L545 588 L361 588 Z M365 -175 Q348 -205 331.5 -235 Q315 -265 298 -295 L234 -295 Q244 -266 252.5 -237.5 Q261 -209 271 -180 L240 -180 L240 -52 L365 -52 L365 -175 Z " />
<glyph glyph-name="uni021B" unicode="&#x21b;" horiz-adv-x="600" d="M81 398 L81 495 L212 495 L212 637 L322 637 L322 495 L531 495 L531 398 L323 398 L323 180 Q323 140 340.5 118 Q358 96 400 96 Q427 96 455.5 106 Q484 116 507 134 L553 44 Q533 29 510 19 Q487 9 464.5 3.5 Q442 -2 421 -4.5 Q400 -7 384 -7 Q345 -7 312.5 1.5 Q280 10 257.5 30.5 Q235 51 222.5 84 Q210 117 210 166 L210 398 L81 398 Z M352 -176 Q335 -206 318.5 -236 Q302 -266 285 -296 L221 -296 Q231 -267 239.5 -238.5 Q248 -210 258 -181 L227 -181 L227 -53 L352 -53 L352 -176 Z " />
<glyph glyph-name="Circumflex" unicode="&#xf6c0;" horiz-adv-x="600" d="M299 820 L152 738 L114 787 L263 910 L339 910 L486 788 L445 738 L299 820 Z " />
<glyph glyph-name="commaaccent" unicode="&#xf6c3;" horiz-adv-x="600" d="M363 -179 Q346 -209 329.5 -239 Q313 -269 296 -299 L232 -299 Q242 -270 250.5 -241.5 Q259 -213 269 -184 L238 -184 L238 -56 L363 -56 L363 -179 L363 -179 Z " />
<glyph glyph-name="Acute" unicode="&#xf6c9;" horiz-adv-x="600" d="M183 797 L351 925 L418 839 L227 740 L183 797 Z " />
<glyph glyph-name="Caron" unicode="&#xf6ca;" horiz-adv-x="600" d="M445 921 L486 869 L339 745 L263 745 L114 870 L152 921 L299 835 L445 921 Z " />
<glyph glyph-name="Dieresis" unicode="&#xf6cb;" horiz-adv-x="600" d="M338 762 L338 872 L458 872 L458 762 L338 762 Z M141 762 L141 872 L261 872 L261 762 L141 762 Z " />
<glyph glyph-name="Grave" unicode="&#xf6ce;" horiz-adv-x="600" d="M372 740 L180 837 L250 923 L416 797 L372 740 Z " />
<glyph glyph-name="Hungarumlaut" unicode="&#xf6cf;" horiz-adv-x="600" d="M91 789 L249 927 L324 846 L139 735 L91 789 Z M278 789 L437 927 L511 846 L326 735 L278 789 Z " />
<glyph glyph-name="Macron" unicode="&#xf6d0;" horiz-adv-x="600" d="M149 774 L149 870 L450 870 L450 774 L149 774 Z " />
<glyph glyph-name="cyrBreve" unicode="&#xf6d1;" horiz-adv-x="600" d="M298 738 Q254 738 225 753 Q196 768 178 790 Q160 812 151.5 837.5 Q143 863 142 884 L233 884 Q233 874 237.5 862.5 Q242 851 250 841 Q258 831 270 824.5 Q282 818 298 818 Q314 818 326.5 824.5 Q339 831 347.5 841 Q356 851 360 862.5 Q364 874 364 884 L453 884 Q451 863 442.5 837.5 Q434 812 416.5 790 Q399 768 370 753 Q341 738 298 738 Z " />
<glyph glyph-name="minus" unicode="&#x2212;" horiz-adv-x="600" d="M81 251 L81 341 L519 341 L519 251 L81 251 Z " />
<glyph glyph-name="gradient" unicode="&#x2207;" horiz-adv-x="600" d="M572 696 L359 0 L241 0 L28 696 L572 696 Z M183 594 L298 162 L301 162 Q326 262 356 373 Q386 484 417 594 L183 594 Z " />
<glyph glyph-name="Agrave" unicode="&#xc0;" horiz-adv-x="600" d="M401 150 L197 150 L155 0 L29 0 L236 696 L364 696 L569 0 L443 0 L401 150 Z M297 531 Q290 502 282 468 Q274 434 263 395 Q253 359 246.5 335.5 Q240 312 236 296.5 Q232 281 229 270.5 Q226 260 224 251 L374 251 Q369 273 361 300 Q353 327 340 375 Q329 418 319 457 Q309 496 301 531 L297 531 Z M314 740 L122 837 L192 923 L358 797 L314 740 Z " />
<glyph glyph-name="Aacute" unicode="&#xc1;" horiz-adv-x="600" d="M401 150 L197 150 L155 0 L29 0 L236 696 L364 696 L569 0 L443 0 L401 150 Z M297 531 Q290 502 282 468 Q274 434 263 395 Q253 359 246.5 335.5 Q240 312 236 296.5 Q232 281 229 270.5 Q226 260 224 251 L374 251 Q369 273 361 300 Q353 327 340 375 Q329 418 319 457 Q309 496 301 531 L297 531 Z M240 797 L408 925 L475 839 L284 740 L240 797 Z " />
<glyph glyph-name="Acircumflex" unicode="&#xc2;" horiz-adv-x="600" d="M401 150 L197 150 L155 0 L29 0 L236 696 L364 696 L569 0 L443 0 L401 150 Z M297 531 Q290 502 282 468 Q274 434 263 395 Q253 359 246.5 335.5 Q240 312 236 296.5 Q232 281 229 270.5 Q226 260 224 251 L374 251 Q369 273 361 300 Q353 327 340 375 Q329 418 319 457 Q309 496 301 531 L297 531 Z M299 820 L152 738 L114 787 L263 910 L339 910 L486 788 L445 738 L299 820 Z " />
<glyph glyph-name="Adieresis" unicode="&#xc4;" horiz-adv-x="600" d="M401 150 L197 150 L155 0 L29 0 L236 696 L364 696 L569 0 L443 0 L401 150 Z M297 531 Q290 502 282 468 Q274 434 263 395 Q253 359 246.5 335.5 Q240 312 236 296.5 Q232 281 229 270.5 Q226 260 224 251 L374 251 Q369 273 361 300 Q353 327 340 375 Q329 418 319 457 Q309 496 301 531 L297 531 Z M338 762 L338 872 L458 872 L458 762 L338 762 Z M141 762 L141 872 L261 872 L261 762 L141 762 Z " />
<glyph glyph-name="Egrave" unicode="&#xc8;" horiz-adv-x="600" d="M84 0 L84 696 L523 696 L523 587 L205 587 L205 414 L487 414 L487 309 L205 309 L205 109 L543 109 L543 0 L84 0 Z M372 740 L180 837 L250 923 L416 797 L372 740 Z " />
<glyph glyph-name="Eacute" unicode="&#xc9;" horiz-adv-x="600" d="M84 0 L84 696 L523 696 L523 587 L205 587 L205 414 L487 414 L487 309 L205 309 L205 109 L543 109 L543 0 L84 0 Z M205 797 L373 925 L440 839 L249 740 L205 797 Z " />
<glyph glyph-name="Ecircumflex" unicode="&#xca;" horiz-adv-x="600" d="M84 0 L84 696 L523 696 L523 587 L205 587 L205 414 L487 414 L487 309 L205 309 L205 109 L543 109 L543 0 L84 0 Z M298 820 L151 738 L113 787 L262 910 L338 910 L485 788 L444 738 L298 820 Z " />
<glyph glyph-name="Edieresis" unicode="&#xcb;" horiz-adv-x="600" d="M84 0 L84 696 L523 696 L523 587 L205 587 L205 414 L487 414 L487 309 L205 309 L205 109 L543 109 L543 0 L84 0 Z M338 762 L338 872 L458 872 L458 762 L338 762 Z M141 762 L141 872 L261 872 L261 762 L141 762 Z " />
<glyph glyph-name="Igrave" unicode="&#xcc;" horiz-adv-x="600" d="M117 696 L489 696 L489 587 L359 587 L359 109 L489 109 L489 0 L117 0 L117 109 L238 109 L238 587 L117 587 L117 696 Z M336 740 L144 837 L214 923 L380 797 L336 740 Z " />
<glyph glyph-name="Iacute" unicode="&#xcd;" horiz-adv-x="600" d="M117 696 L489 696 L489 587 L359 587 L359 109 L489 109 L489 0 L117 0 L117 109 L238 109 L238 587 L117 587 L117 696 Z M225 797 L393 925 L460 839 L269 740 L225 797 Z " />
<glyph glyph-name="Icircumflex" unicode="&#xce;" horiz-adv-x="600" d="M117 696 L489 696 L489 587 L359 587 L359 109 L489 109 L489 0 L117 0 L117 109 L238 109 L238 587 L117 587 L117 696 Z M299 820 L152 738 L114 787 L263 910 L339 910 L486 788 L445 738 L299 820 Z " />
<glyph glyph-name="Idieresis" unicode="&#xcf;" horiz-adv-x="600" d="M117 696 L489 696 L489 587 L359 587 L359 109 L489 109 L489 0 L117 0 L117 109 L238 109 L238 587 L117 587 L117 696 Z M337 762 L337 872 L457 872 L457 762 L337 762 Z M140 762 L140 872 L260 872 L260 762 L140 762 Z " />
<glyph glyph-name="Ograve" unicode="&#xd2;" horiz-adv-x="600" d="M298 701 Q359 701 406 681.5 Q453 662 484 627.5 Q515 593 531 545.5 Q547 498 547 442 L547 247 Q547 191 531 144.5 Q515 98 483.5 64.5 Q452 31 405.5 12.5 Q359 -6 298 -6 Q231 -6 184 14.5 Q137 35 108 69.5 Q79 104 65.5 150 Q52 196 52 247 L52 442 Q52 494 65.5 541.5 Q79 589 109 624 Q139 659 185.5 680 Q232 701 298 701 Z M298 588 Q262 588 238 575 Q214 562 199.5 541 Q185 520 179 493.5 Q173 467 173 440 L173 256 Q173 227 179 200 Q185 173 199 152 Q213 131 237.5 118.5 Q262 106 298 106 Q332 106 356.5 118 Q381 130 396 150.5 Q411 171 418 198 Q425 225 425 256 L425 440 Q425 470 417.5 496.5 Q410 523 394.5 543.5 Q379 564 355 576 Q331 588 298 588 Z M323 740 L131 837 L201 923 L367 797 L323 740 Z " />
<glyph glyph-name="Oacute" unicode="&#xd3;" horiz-adv-x="600" d="M298 701 Q359 701 406 681.5 Q453 662 484 627.5 Q515 593 531 545.5 Q547 498 547 442 L547 247 Q547 191 531 144.5 Q515 98 483.5 64.5 Q452 31 405.5 12.5 Q359 -6 298 -6 Q231 -6 184 14.5 Q137 35 108 69.5 Q79 104 65.5 150 Q52 196 52 247 L52 442 Q52 494 65.5 541.5 Q79 589 109 624 Q139 659 185.5 680 Q232 701 298 701 Z M298 588 Q262 588 238 575 Q214 562 199.5 541 Q185 520 179 493.5 Q173 467 173 440 L173 256 Q173 227 179 200 Q185 173 199 152 Q213 131 237.5 118.5 Q262 106 298 106 Q332 106 356.5 118 Q381 130 396 150.5 Q411 171 418 198 Q425 225 425 256 L425 440 Q425 470 417.5 496.5 Q410 523 394.5 543.5 Q379 564 355 576 Q331 588 298 588 Z M236 797 L404 925 L471 839 L280 740 L236 797 Z " />
<glyph glyph-name="Ocircumflex" unicode="&#xd4;" horiz-adv-x="600" d="M298 701 Q359 701 406 681.5 Q453 662 484 627.5 Q515 593 531 545.5 Q547 498 547 442 L547 247 Q547 191 531 144.5 Q515 98 483.5 64.5 Q452 31 405.5 12.5 Q359 -6 298 -6 Q231 -6 184 14.5 Q137 35 108 69.5 Q79 104 65.5 150 Q52 196 52 247 L52 442 Q52 494 65.5 541.5 Q79 589 109 624 Q139 659 185.5 680 Q232 701 298 701 Z M298 588 Q262 588 238 575 Q214 562 199.5 541 Q185 520 179 493.5 Q173 467 173 440 L173 256 Q173 227 179 200 Q185 173 199 152 Q213 131 237.5 118.5 Q262 106 298 106 Q332 106 356.5 118 Q381 130 396 150.5 Q411 171 418 198 Q425 225 425 256 L425 440 Q425 470 417.5 496.5 Q410 523 394.5 543.5 Q379 564 355 576 Q331 588 298 588 Z M297 820 L150 738 L112 787 L261 910 L337 910 L484 788 L443 738 L297 820 Z " />
<glyph glyph-name="Odieresis" unicode="&#xd6;" horiz-adv-x="600" d="M298 701 Q359 701 406 681.5 Q453 662 484 627.5 Q515 593 531 545.5 Q547 498 547 442 L547 247 Q547 191 531 144.5 Q515 98 483.5 64.5 Q452 31 405.5 12.5 Q359 -6 298 -6 Q231 -6 184 14.5 Q137 35 108 69.5 Q79 104 65.5 150 Q52 196 52 247 L52 442 Q52 494 65.5 541.5 Q79 589 109 624 Q139 659 185.5 680 Q232 701 298 701 Z M298 588 Q262 588 238 575 Q214 562 199.5 541 Q185 520 179 493.5 Q173 467 173 440 L173 256 Q173 227 179 200 Q185 173 199 152 Q213 131 237.5 118.5 Q262 106 298 106 Q332 106 356.5 118 Q381 130 396 150.5 Q411 171 418 198 Q425 225 425 256 L425 440 Q425 470 417.5 496.5 Q410 523 394.5 543.5 Q379 564 355 576 Q331 588 298 588 Z M336 762 L336 872 L456 872 L456 762 L336 762 Z M139 762 L139 872 L259 872 L259 762 L139 762 Z " />
<glyph glyph-name="Ugrave" unicode="&#xd9;" horiz-adv-x="600" d="M542 696 L542 245 Q542 190 527 144 Q512 98 481.5 65 Q451 32 405.5 13.5 Q360 -5 300 -5 Q237 -5 191 14 Q145 33 115.5 67 Q86 101 72 147.5 Q58 194 58 249 L58 696 L178 696 L178 300 Q178 262 182 227.5 Q186 193 199 166.5 Q212 140 236 124 Q260 108 300 108 Q339 108 363 123 Q387 138 399.5 164.5 Q412 191 416.5 226 Q421 261 421 301 L421 696 L542 696 Z M329 740 L137 837 L207 923 L373 797 L329 740 Z " />
<glyph glyph-name="Uacute" unicode="&#xda;" horiz-adv-x="600" d="M542 696 L542 245 Q542 190 527 144 Q512 98 481.5 65 Q451 32 405.5 13.5 Q360 -5 300 -5 Q237 -5 191 14 Q145 33 115.5 67 Q86 101 72 147.5 Q58 194 58 249 L58 696 L178 696 L178 300 Q178 262 182 227.5 Q186 193 199 166.5 Q212 140 236 124 Q260 108 300 108 Q339 108 363 123 Q387 138 399.5 164.5 Q412 191 416.5 226 Q421 261 421 301 L421 696 L542 696 Z M222 797 L390 925 L457 839 L266 740 L222 797 Z " />
<glyph glyph-name="Ucircumflex" unicode="&#xdb;" horiz-adv-x="600" d="M542 696 L542 245 Q542 190 527 144 Q512 98 481.5 65 Q451 32 405.5 13.5 Q360 -5 300 -5 Q237 -5 191 14 Q145 33 115.5 67 Q86 101 72 147.5 Q58 194 58 249 L58 696 L178 696 L178 300 Q178 262 182 227.5 Q186 193 199 166.5 Q212 140 236 124 Q260 108 300 108 Q339 108 363 123 Q387 138 399.5 164.5 Q412 191 416.5 226 Q421 261 421 301 L421 696 L542 696 Z M299 820 L152 738 L114 787 L263 910 L339 910 L486 788 L445 738 L299 820 Z " />
<glyph glyph-name="Udieresis" unicode="&#xdc;" horiz-adv-x="600" d="M542 696 L542 245 Q542 190 527 144 Q512 98 481.5 65 Q451 32 405.5 13.5 Q360 -5 300 -5 Q237 -5 191 14 Q145 33 115.5 67 Q86 101 72 147.5 Q58 194 58 249 L58 696 L178 696 L178 300 Q178 262 182 227.5 Q186 193 199 166.5 Q212 140 236 124 Q260 108 300 108 Q339 108 363 123 Q387 138 399.5 164.5 Q412 191 416.5 226 Q421 261 421 301 L421 696 L542 696 Z M339 762 L339 872 L459 872 L459 762 L339 762 Z M142 762 L142 872 L262 872 L262 762 L142 762 Z " />
<glyph glyph-name="Yacute" unicode="&#xdd;" horiz-adv-x="600" d="M357 280 L357 0 L242 0 L242 280 L41 696 L166 696 Q198 624 231.5 552.5 Q265 481 299 407 L303 409 L434 696 L558 696 L357 280 Z M225 797 L393 925 L460 839 L269 740 L225 797 Z " />
<glyph glyph-name="Amacron" unicode="&#x100;" horiz-adv-x="600" d="M401 150 L197 150 L155 0 L29 0 L236 696 L364 696 L569 0 L443 0 L401 150 Z M297 531 Q290 502 282 468 Q274 434 263 395 Q253 359 246.5 335.5 Q240 312 236 296.5 Q232 281 229 270.5 Q226 260 224 251 L374 251 Q369 273 361 300 Q353 327 340 375 Q329 418 319 457 Q309 496 301 531 L297 531 Z M148 774 L148 870 L449 870 L449 774 L148 774 Z " />
<glyph glyph-name="Abreve" unicode="&#x102;" horiz-adv-x="600" d="M401 150 L197 150 L155 0 L29 0 L236 696 L364 696 L569 0 L443 0 L401 150 Z M297 531 Q290 502 282 468 Q274 434 263 395 Q253 359 246.5 335.5 Q240 312 236 296.5 Q232 281 229 270.5 Q226 260 224 251 L374 251 Q369 273 361 300 Q353 327 340 375 Q329 418 319 457 Q309 496 301 531 L297 531 Z M298 738 Q254 738 225 753 Q196 768 178 790 Q160 812 151.5 837.5 Q143 863 142 884 L233 884 Q233 874 237.5 862.5 Q242 851 250 841 Q258 831 270 824.5 Q282 818 298 818 Q314 818 326.5 824.5 Q339 831 347.5 841 Q356 851 360 862.5 Q364 874 364 884 L453 884 Q451 863 442.5 837.5 Q434 812 416.5 790 Q399 768 370 753 Q341 738 298 738 Z " />
<glyph glyph-name="Cacute" unicode="&#x106;" horiz-adv-x="600" d="M558 156 Q532 80 470.5 37 Q409 -6 318 -6 Q250 -6 202 14.5 Q154 35 123.5 70.5 Q93 106 79 154.5 Q65 203 65 259 L65 437 Q65 489 79 537 Q93 585 123 621.5 Q153 658 200.5 679.5 Q248 701 314 701 Q404 701 463 656.5 Q522 612 548 539 L437 494 Q424 535 394.5 561 Q365 587 316 587 Q282 587 257.5 574.5 Q233 562 217 542 Q201 522 193.5 495.5 Q186 469 186 442 L186 257 Q186 228 193.5 201.5 Q201 175 217.5 154 Q234 133 258.5 120.5 Q283 108 318 108 Q369 108 400 134.5 Q431 161 445 203 L558 156 Z M235 797 L403 925 L470 839 L279 740 L235 797 Z " />
<glyph glyph-name="Ccircumflex" unicode="&#x108;" horiz-adv-x="600" d="M558 156 Q532 80 470.5 37 Q409 -6 318 -6 Q250 -6 202 14.5 Q154 35 123.5 70.5 Q93 106 79 154.5 Q65 203 65 259 L65 437 Q65 489 79 537 Q93 585 123 621.5 Q153 658 200.5 679.5 Q248 701 314 701 Q404 701 463 656.5 Q522 612 548 539 L437 494 Q424 535 394.5 561 Q365 587 316 587 Q282 587 257.5 574.5 Q233 562 217 542 Q201 522 193.5 495.5 Q186 469 186 442 L186 257 Q186 228 193.5 201.5 Q201 175 217.5 154 Q234 133 258.5 120.5 Q283 108 318 108 Q369 108 400 134.5 Q431 161 445 203 L558 156 Z M314 820 L167 738 L129 787 L278 910 L354 910 L501 788 L460 738 L314 820 Z " />
<glyph glyph-name="Ccaron" unicode="&#x10c;" horiz-adv-x="600" d="M558 156 Q532 80 470.5 37 Q409 -6 318 -6 Q250 -6 202 14.5 Q154 35 123.5 70.5 Q93 106 79 154.5 Q65 203 65 259 L65 437 Q65 489 79 537 Q93 585 123 621.5 Q153 658 200.5 679.5 Q248 701 314 701 Q404 701 463 656.5 Q522 612 548 539 L437 494 Q424 535 394.5 561 Q365 587 316 587 Q282 587 257.5 574.5 Q233 562 217 542 Q201 522 193.5 495.5 Q186 469 186 442 L186 257 Q186 228 193.5 201.5 Q201 175 217.5 154 Q234 133 258.5 120.5 Q283 108 318 108 Q369 108 400 134.5 Q431 161 445 203 L558 156 Z M459 921 L500 869 L353 745 L277 745 L128 870 L166 921 L313 835 L459 921 Z " />
<glyph glyph-name="Dcaron" unicode="&#x10e;" horiz-adv-x="600" d="M290 696 Q368 696 431 666 Q494 636 527 567 Q546 529 550 477 Q554 425 554 360 Q554 287 550 233 Q546 179 529 138 Q512 99 485.5 72.5 Q459 46 426 30 Q393 14 354 7 Q315 0 273 0 L59 0 L59 696 L290 696 Z M433 413 Q433 506 392 546.5 Q351 587 275 587 L180 587 L180 109 L277 109 Q321 109 351 121.5 Q381 134 399 156.5 Q417 179 425 211.5 Q433 244 433 283 L433 413 Z M424 921 L465 869 L318 745 L242 745 L93 870 L131 921 L278 835 L424 921 Z " />
<glyph glyph-name="Emacron" unicode="&#x112;" horiz-adv-x="600" d="M84 0 L84 696 L523 696 L523 587 L205 587 L205 414 L487 414 L487 309 L205 309 L205 109 L543 109 L543 0 L84 0 Z M157 785 L157 881 L458 881 L458 785 L157 785 Z " />
<glyph glyph-name="Ebreve" unicode="&#x114;" horiz-adv-x="600" d="M84 0 L84 696 L523 696 L523 587 L205 587 L205 414 L487 414 L487 309 L205 309 L205 109 L543 109 L543 0 L84 0 Z M306 749 Q262 749 233 764 Q204 779 186 801 Q168 823 159.5 848.5 Q151 874 150 895 L241 895 Q241 885 245.5 873.5 Q250 862 258 852 Q266 842 278 835.5 Q290 829 306 829 Q322 829 334.5 835.5 Q347 842 355.5 852 Q364 862 368 873.5 Q372 885 372 895 L461 895 Q459 874 450.5 848.5 Q442 823 424.5 801 Q407 779 378 764 Q349 749 306 749 Z " />
<glyph glyph-name="Ecaron" unicode="&#x11a;" horiz-adv-x="600" d="M84 0 L84 696 L523 696 L523 587 L205 587 L205 414 L487 414 L487 309 L205 309 L205 109 L543 109 L543 0 L84 0 Z M443 921 L484 869 L337 745 L261 745 L112 870 L150 921 L297 835 L443 921 Z " />
<glyph glyph-name="Gcircumflex" unicode="&#x11c;" horiz-adv-x="600" d="M299 701 Q391 701 451.5 656.5 Q512 612 539 540 L427 494 Q414 534 380 560.5 Q346 587 299 587 Q262 587 237.5 574.5 Q213 562 198 542 Q183 522 176.5 495.5 Q170 469 170 442 L170 254 Q170 225 177 198.5 Q184 172 199 151.5 Q214 131 239 118.5 Q264 106 300 106 Q364 106 398 145 Q432 184 432 247 L432 276 L310 276 L310 380 L552 380 L552 248 Q552 192 534.5 145 Q517 98 484.5 64 Q452 30 405 11.5 Q358 -7 299 -7 Q233 -7 186 13.5 Q139 34 108.5 69 Q78 104 63.5 152 Q49 200 49 254 L49 442 Q49 493 63.5 539.5 Q78 586 109 622 Q140 658 187 679.5 Q234 701 299 701 Z M293 820 L146 738 L108 787 L257 910 L333 910 L480 788 L439 738 L293 820 Z " />
<glyph glyph-name="Gbreve" unicode="&#x11e;" horiz-adv-x="600" d="M299 701 Q391 701 451.5 656.5 Q512 612 539 540 L427 494 Q414 534 380 560.5 Q346 587 299 587 Q262 587 237.5 574.5 Q213 562 198 542 Q183 522 176.5 495.5 Q170 469 170 442 L170 254 Q170 225 177 198.5 Q184 172 199 151.5 Q214 131 239 118.5 Q264 106 300 106 Q364 106 398 145 Q432 184 432 247 L432 276 L310 276 L310 380 L552 380 L552 248 Q552 192 534.5 145 Q517 98 484.5 64 Q452 30 405 11.5 Q358 -7 299 -7 Q233 -7 186 13.5 Q139 34 108.5 69 Q78 104 63.5 152 Q49 200 49 254 L49 442 Q49 493 63.5 539.5 Q78 586 109 622 Q140 658 187 679.5 Q234 701 299 701 Z M292 745 Q248 745 219 760 Q190 775 172 797 Q154 819 145.5 844.5 Q137 870 136 891 L227 891 Q227 881 231.5 869.5 Q236 858 244 848 Q252 838 264 831.5 Q276 825 292 825 Q308 825 320.5 831.5 Q333 838 341.5 848 Q350 858 354 869.5 Q358 881 358 891 L447 891 Q445 870 436.5 844.5 Q428 819 410.5 797 Q393 775 364 760 Q335 745 292 745 Z " />
<glyph glyph-name="Hcircumflex" unicode="&#x124;" horiz-adv-x="600" d="M426 0 L426 308 L175 308 L175 0 L54 0 L54 696 L175 696 L175 413 L426 413 L426 696 L546 696 L546 0 L426 0 Z M303 820 L156 738 L118 787 L267 910 L343 910 L490 788 L449 738 L303 820 Z " />
<glyph glyph-name="Imacron" unicode="&#x12a;" horiz-adv-x="600" d="M117 696 L489 696 L489 587 L359 587 L359 109 L489 109 L489 0 L117 0 L117 109 L238 109 L238 587 L117 587 L117 696 Z M149 774 L149 870 L450 870 L450 774 L149 774 Z " />
<glyph glyph-name="Ibreve" unicode="&#x12c;" horiz-adv-x="600" d="M118 696 L490 696 L490 587 L360 587 L360 109 L490 109 L490 0 L118 0 L118 109 L239 109 L239 587 L118 587 L118 696 Z M299 748 Q255 748 226 763 Q197 778 179 800 Q161 822 152.5 847.5 Q144 873 143 894 L234 894 Q234 884 238.5 872.5 Q243 861 251 851 Q259 841 271 834.5 Q283 828 299 828 Q315 828 327.5 834.5 Q340 841 348.5 851 Q357 861 361 872.5 Q365 884 365 894 L454 894 Q452 873 443.5 847.5 Q435 822 417.5 800 Q400 778 371 763 Q342 748 299 748 Z " />
<glyph glyph-name="Jcircumflex" unicode="&#x134;" horiz-adv-x="600" d="M480 223 Q480 158 462 114.5 Q444 71 413.5 44.5 Q383 18 342.5 6.5 Q302 -5 257 -5 Q200 -5 150 13.5 Q100 32 65 77 L143 161 Q166 138 196 122 Q226 106 251 106 Q266 106 284.5 110.5 Q303 115 320 128 Q337 141 348.5 164.5 Q360 188 360 227 L360 588 L117 588 L117 696 L480 696 L480 223 Z M320 825 L173 743 L135 792 L284 915 L360 915 L507 793 L466 743 L320 825 Z " />
<glyph glyph-name="Nacute" unicode="&#x143;" horiz-adv-x="600" d="M409 0 L198 437 L195 436 L195 0 L74 0 L74 696 L193 696 L404 261 L407 262 L407 696 L527 696 L527 0 L409 0 Z M221 797 L389 925 L456 839 L265 740 L221 797 Z " />
<glyph glyph-name="Ncaron" unicode="&#x147;" horiz-adv-x="600" d="M409 0 L198 437 L195 436 L195 0 L74 0 L74 696 L193 696 L404 261 L407 262 L407 696 L527 696 L527 0 L409 0 Z M445 921 L486 869 L339 745 L263 745 L114 870 L152 921 L299 835 L445 921 Z " />
<glyph glyph-name="Omacron" unicode="&#x14c;" horiz-adv-x="600" d="M298 701 Q359 701 406 681.5 Q453 662 484 627.5 Q515 593 531 545.5 Q547 498 547 442 L547 247 Q547 191 531 144.5 Q515 98 483.5 64.5 Q452 31 405.5 12.5 Q359 -6 298 -6 Q231 -6 184 14.5 Q137 35 108 69.5 Q79 104 65.5 150 Q52 196 52 247 L52 442 Q52 494 65.5 541.5 Q79 589 109 624 Q139 659 185.5 680 Q232 701 298 701 Z M298 588 Q262 588 238 575 Q214 562 199.5 541 Q185 520 179 493.5 Q173 467 173 440 L173 256 Q173 227 179 200 Q185 173 199 152 Q213 131 237.5 118.5 Q262 106 298 106 Q332 106 356.5 118 Q381 130 396 150.5 Q411 171 418 198 Q425 225 425 256 L425 440 Q425 470 417.5 496.5 Q410 523 394.5 543.5 Q379 564 355 576 Q331 588 298 588 Z M148 781 L148 877 L449 877 L449 781 L148 781 Z " />
<glyph glyph-name="Obreve" unicode="&#x14e;" horiz-adv-x="600" d="M298 701 Q359 701 406 681.5 Q453 662 484 627.5 Q515 593 531 545.5 Q547 498 547 442 L547 247 Q547 191 531 144.5 Q515 98 483.5 64.5 Q452 31 405.5 12.5 Q359 -6 298 -6 Q231 -6 184 14.5 Q137 35 108 69.5 Q79 104 65.5 150 Q52 196 52 247 L52 442 Q52 494 65.5 541.5 Q79 589 109 624 Q139 659 185.5 680 Q232 701 298 701 Z M298 588 Q262 588 238 575 Q214 562 199.5 541 Q185 520 179 493.5 Q173 467 173 440 L173 256 Q173 227 179 200 Q185 173 199 152 Q213 131 237.5 118.5 Q262 106 298 106 Q332 106 356.5 118 Q381 130 396 150.5 Q411 171 418 198 Q425 225 425 256 L425 440 Q425 470 417.5 496.5 Q410 523 394.5 543.5 Q379 564 355 576 Q331 588 298 588 Z M294 746 Q250 746 221 761 Q192 776 174 798 Q156 820 147.5 845.5 Q139 871 138 892 L229 892 Q229 882 233.5 870.5 Q238 859 246 849 Q254 839 266 832.5 Q278 826 294 826 Q310 826 322.5 832.5 Q335 839 343.5 849 Q352 859 356 870.5 Q360 882 360 892 L449 892 Q447 871 438.5 845.5 Q430 820 412.5 798 Q395 776 366 761 Q337 746 294 746 Z " />
<glyph glyph-name="Ohungarumlaut" unicode="&#x150;" horiz-adv-x="600" d="M298 701 Q359 701 406 681.5 Q453 662 484 627.5 Q515 593 531 545.5 Q547 498 547 442 L547 247 Q547 191 531 144.5 Q515 98 483.5 64.5 Q452 31 405.5 12.5 Q359 -6 298 -6 Q231 -6 184 14.5 Q137 35 108 69.5 Q79 104 65.5 150 Q52 196 52 247 L52 442 Q52 494 65.5 541.5 Q79 589 109 624 Q139 659 185.5 680 Q232 701 298 701 Z M298 588 Q262 588 238 575 Q214 562 199.5 541 Q185 520 179 493.5 Q173 467 173 440 L173 256 Q173 227 179 200 Q185 173 199 152 Q213 131 237.5 118.5 Q262 106 298 106 Q332 106 356.5 118 Q381 130 396 150.5 Q411 171 418 198 Q425 225 425 256 L425 440 Q425 470 417.5 496.5 Q410 523 394.5 543.5 Q379 564 355 576 Q331 588 298 588 Z M125 789 L283 927 L358 846 L173 735 L125 789 Z M312 789 L471 927 L545 846 L360 735 L312 789 Z " />
<glyph glyph-name="Racute" unicode="&#x154;" horiz-adv-x="600" d="M419 0 L292 280 L195 280 L195 0 L74 0 L74 696 L343 696 Q388 696 426.5 681.5 Q465 667 492.5 640 Q520 613 535.5 575 Q551 537 551 491 Q551 424 514.5 372 Q478 320 412 298 L554 0 L419 0 Z M427 491 Q427 540 396.5 564 Q366 588 320 588 L195 588 L195 387 L317 387 Q369 387 398 414 Q427 441 427 491 Z M186 797 L354 925 L421 839 L230 740 L186 797 Z " />
<glyph glyph-name="Rcaron" unicode="&#x158;" horiz-adv-x="600" d="M419 0 L292 280 L195 280 L195 0 L74 0 L74 696 L343 696 Q388 696 426.5 681.5 Q465 667 492.5 640 Q520 613 535.5 575 Q551 537 551 491 Q551 424 514.5 372 Q478 320 412 298 L554 0 L419 0 Z M427 491 Q427 540 396.5 564 Q366 588 320 588 L195 588 L195 387 L317 387 Q369 387 398 414 Q427 441 427 491 Z M410 921 L451 869 L304 745 L228 745 L79 870 L117 921 L264 835 L410 921 Z " />
<glyph glyph-name="Sacute" unicode="&#x15a;" horiz-adv-x="600" d="M551 206 Q551 155 531.5 116 Q512 77 478 50 Q444 23 398.5 9.5 Q353 -4 301 -4 Q237 -4 167 16.5 Q97 37 39 91 Q56 114 72.5 137 Q89 160 106 183 Q149 141 198.5 123 Q248 105 303 105 Q328 105 351 110.5 Q374 116 391.5 127.5 Q409 139 419.5 157.5 Q430 176 430 202 Q430 231 417.5 249.5 Q405 268 384.5 280 Q364 292 337 299 Q310 306 280 313 Q244 321 207 331.5 Q170 342 141 362.5 Q112 383 93.5 416.5 Q75 450 75 505 Q75 556 94.5 593 Q114 630 145.5 654.5 Q177 679 217.5 691 Q258 703 300 703 Q363 703 420 688 Q477 673 523 637 L469 541 Q427 570 386.5 581 Q346 592 309 592 Q249 592 221 570 Q193 548 193 513 Q193 492 200.5 476.5 Q208 461 226 449 Q244 437 273.5 427 Q303 417 348 408 Q384 400 420 387.5 Q456 375 485 352.5 Q514 330 532.5 294.5 Q551 259 551 206 Z M214 801 L382 929 L449 843 L258 744 L214 801 Z " />
<glyph glyph-name="Scircumflex" unicode="&#x15c;" horiz-adv-x="600" d="M551 206 Q551 155 531.5 116 Q512 77 478 50 Q444 23 398.5 9.5 Q353 -4 301 -4 Q237 -4 167 16.5 Q97 37 39 91 Q56 114 72.5 137 Q89 160 106 183 Q149 141 198.5 123 Q248 105 303 105 Q328 105 351 110.5 Q374 116 391.5 127.5 Q409 139 419.5 157.5 Q430 176 430 202 Q430 231 417.5 249.5 Q405 268 384.5 280 Q364 292 337 299 Q310 306 280 313 Q244 321 207 331.5 Q170 342 141 362.5 Q112 383 93.5 416.5 Q75 450 75 505 Q75 556 94.5 593 Q114 630 145.5 654.5 Q177 679 217.5 691 Q258 703 300 703 Q363 703 420 688 Q477 673 523 637 L469 541 Q427 570 386.5 581 Q346 592 309 592 Q249 592 221 570 Q193 548 193 513 Q193 492 200.5 476.5 Q208 461 226 449 Q244 437 273.5 427 Q303 417 348 408 Q384 400 420 387.5 Q456 375 485 352.5 Q514 330 532.5 294.5 Q551 259 551 206 Z M303 820 L156 738 L118 787 L267 910 L343 910 L490 788 L449 738 L303 820 Z " />
<glyph glyph-name="Tcaron" unicode="&#x164;" horiz-adv-x="600" d="M361 588 L361 0 L240 0 L240 588 L56 588 L56 696 L545 696 L545 588 L361 588 Z M445 921 L486 869 L339 745 L263 745 L114 870 L152 921 L299 835 L445 921 Z " />
<glyph glyph-name="Umacron" unicode="&#x16a;" horiz-adv-x="600" d="M542 696 L542 245 Q542 190 527 144 Q512 98 481.5 65 Q451 32 405.5 13.5 Q360 -5 300 -5 Q237 -5 191 14 Q145 33 115.5 67 Q86 101 72 147.5 Q58 194 58 249 L58 696 L178 696 L178 300 Q178 262 182 227.5 Q186 193 199 166.5 Q212 140 236 124 Q260 108 300 108 Q339 108 363 123 Q387 138 399.5 164.5 Q412 191 416.5 226 Q421 261 421 301 L421 696 L542 696 Z M151 774 L151 870 L452 870 L452 774 L151 774 Z " />
<glyph glyph-name="Ubreve" unicode="&#x16c;" horiz-adv-x="600" d="M542 696 L542 245 Q542 190 527 144 Q512 98 481.5 65 Q451 32 405.5 13.5 Q360 -5 300 -5 Q237 -5 191 14 Q145 33 115.5 67 Q86 101 72 147.5 Q58 194 58 249 L58 696 L178 696 L178 300 Q178 262 182 227.5 Q186 193 199 166.5 Q212 140 236 124 Q260 108 300 108 Q339 108 363 123 Q387 138 399.5 164.5 Q412 191 416.5 226 Q421 261 421 301 L421 696 L542 696 Z M300 741 Q256 741 227 756 Q198 771 180 793 Q162 815 153.5 840.5 Q145 866 144 887 L235 887 Q235 877 239.5 865.5 Q244 854 252 844 Q260 834 272 827.5 Q284 821 300 821 Q316 821 328.5 827.5 Q341 834 349.5 844 Q358 854 362 865.5 Q366 877 366 887 L455 887 Q453 866 444.5 840.5 Q436 815 418.5 793 Q401 771 372 756 Q343 741 300 741 Z " />
<glyph glyph-name="Uhungarumlaut" unicode="&#x170;" horiz-adv-x="600" d="M542 696 L542 245 Q542 190 527 144 Q512 98 481.5 65 Q451 32 405.5 13.5 Q360 -5 300 -5 Q237 -5 191 14 Q145 33 115.5 67 Q86 101 72 147.5 Q58 194 58 249 L58 696 L178 696 L178 300 Q178 262 182 227.5 Q186 193 199 166.5 Q212 140 236 124 Q260 108 300 108 Q339 108 363 123 Q387 138 399.5 164.5 Q412 191 416.5 226 Q421 261 421 301 L421 696 L542 696 Z M123 789 L281 927 L356 846 L171 735 L123 789 Z M310 789 L469 927 L543 846 L358 735 L310 789 Z " />
<glyph glyph-name="Wcircumflex" unicode="&#x174;" horiz-adv-x="600" d="M297 297 L226 0 L104 0 L35 695 L150 695 L191 235 L194 235 L254 488 L345 488 Q359 425 374 363 Q389 301 404 238 L408 238 L452 695 L565 695 L491 0 L376 0 L301 297 L297 297 Z M299 820 L152 738 L114 787 L263 910 L339 910 L486 788 L445 738 L299 820 Z " />
<glyph glyph-name="Ycircumflex" unicode="&#x176;" horiz-adv-x="600" d="M357 280 L357 0 L242 0 L242 280 L41 696 L166 696 Q198 624 231.5 552.5 Q265 481 299 407 L303 409 L434 696 L558 696 L357 280 Z M300 820 L153 738 L115 787 L264 910 L340 910 L487 788 L446 738 L300 820 Z " />
<glyph glyph-name="Zacute" unicode="&#x179;" horiz-adv-x="600" d="M71 0 L71 104 L380 587 L87 587 L87 696 L523 696 L523 597 L214 109 L528 109 L528 0 L71 0 Z M218 797 L386 925 L453 839 L262 740 L218 797 Z " />
<glyph glyph-name="tonos" unicode="&#x384;" horiz-adv-x="600" d="M204 573 L287 765 L392 725 L275 544 L204 573 Z " />
<glyph glyph-name="dieresistonos" unicode="&#x385;" horiz-adv-x="600" d="M408 579 L408 688 L526 688 L526 579 L408 579 Z M74 579 L74 688 L192 688 L192 579 L74 579 Z M214 571 L297 763 L402 723 L285 542 L214 571 Z " />
<glyph glyph-name="Alphatonos" unicode="&#x386;" horiz-adv-x="600" d="M401 150 L197 150 L155 0 L29 0 L236 696 L364 696 L569 0 L443 0 L401 150 Z M297 531 Q290 502 282 468 Q274 434 263 395 Q253 359 246.5 335.5 Q240 312 236 296.5 Q232 281 229 270.5 Q226 260 224 251 L374 251 Q369 273 361 300 Q353 327 340 375 Q329 418 319 457 Q309 496 301 531 L297 531 Z M-36 545 L47 737 L152 697 L35 516 L-36 545 Z " />
<glyph glyph-name="anoteleia" unicode="&#x387;" horiz-adv-x="600" d="M231 276 L231 414 L367 414 L367 276 L231 276 Z " />
<glyph glyph-name="Epsilontonos" unicode="&#x388;" horiz-adv-x="600" d="M84 0 L84 696 L523 696 L523 587 L205 587 L205 414 L487 414 L487 309 L205 309 L205 109 L543 109 L543 0 L84 0 Z M-145 547 L-62 739 L43 699 L-74 518 L-145 547 Z " />
<glyph glyph-name="Etatonos" unicode="&#x389;" horiz-adv-x="600" d="M426 0 L426 308 L175 308 L175 0 L54 0 L54 696 L175 696 L175 413 L426 413 L426 696 L546 696 L546 0 L426 0 Z M-172 548 L-89 740 L16 700 L-101 519 L-172 548 Z " />
<glyph glyph-name="Iotatonos" unicode="&#x38a;" horiz-adv-x="600" d="M117 696 L489 696 L489 587 L359 587 L359 109 L489 109 L489 0 L117 0 L117 109 L238 109 L238 587 L117 587 L117 696 Z M-113 548 L-30 740 L75 700 L-42 519 L-113 548 Z " />
<glyph glyph-name="Omicrontonos" unicode="&#x38c;" horiz-adv-x="600" d="M298 701 Q359 701 406 681.5 Q453 662 484 627.5 Q515 593 531 545.5 Q547 498 547 442 L547 247 Q547 191 531 144.5 Q515 98 483.5 64.5 Q452 31 405.5 12.5 Q359 -6 298 -6 Q231 -6 184 14.5 Q137 35 108 69.5 Q79 104 65.5 150 Q52 196 52 247 L52 442 Q52 494 65.5 541.5 Q79 589 109 624 Q139 659 185.5 680 Q232 701 298 701 Z M298 588 Q262 588 238 575 Q214 562 199.5 541 Q185 520 179 493.5 Q173 467 173 440 L173 256 Q173 227 179 200 Q185 173 199 152 Q213 131 237.5 118.5 Q262 106 298 106 Q332 106 356.5 118 Q381 130 396 150.5 Q411 171 418 198 Q425 225 425 256 L425 440 Q425 470 417.5 496.5 Q410 523 394.5 543.5 Q379 564 355 576 Q331 588 298 588 Z M-121 548 L-38 740 L67 700 L-50 519 L-121 548 Z " />
<glyph glyph-name="Upsilontonos" unicode="&#x38e;" horiz-adv-x="600" d="M357 280 L357 0 L242 0 L242 280 L41 696 L166 696 Q198 624 231.5 552.5 Q265 481 299 407 L303 409 L434 696 L558 696 L357 280 Z M-184 548 L-101 740 L4 700 L-113 519 L-184 548 Z " />
<glyph glyph-name="Omegatonos" unicode="&#x38f;" horiz-adv-x="600" d="M341 120 Q366 127 383 143 Q400 159 410 181 Q420 203 424 229.5 Q428 256 428 286 L428 440 Q428 470 420.5 497 Q413 524 397.5 544.5 Q382 565 358 577 Q334 589 300 589 Q265 589 241 576 Q217 563 202 542 Q187 521 180 494 Q173 467 173 440 L173 286 Q173 260 176.5 234 Q180 208 189.5 185.5 Q199 163 216.5 145.5 Q234 128 262 119 L262 0 L38 0 L38 109 L110 109 Q110 110 110.5 110.5 Q111 111 111 112 Q93 125 81.5 144.5 Q70 164 63.5 186.5 Q57 209 54 234 Q51 259 51 283 L51 441 Q51 492 65.5 539 Q80 586 110.5 622 Q141 658 188 679.5 Q235 701 300 701 Q359 701 405.5 682.5 Q452 664 484 630.5 Q516 597 533 549.5 Q550 502 550 445 L550 283 Q550 230 536.5 186 Q523 142 486 110 Q486 110 487 109 L562 109 L562 0 L341 0 L341 120 Z M-119 548 L-36 740 L69 700 L-48 519 L-119 548 Z " />
<glyph glyph-name="iotadieresistonos" unicode="&#x390;" horiz-adv-x="600" d="M512 102 L512 0 L433 0 Q379 0 343 12 Q307 24 285 48.5 Q263 73 253.5 109 Q244 145 244 193 L244 398 L104 398 L104 495 L356 495 L356 210 Q356 184 358 163.5 Q360 143 368.5 129.5 Q377 116 394.5 109 Q412 102 443 102 L512 102 Z M400 579 L400 688 L518 688 L518 579 L400 579 Z M66 579 L66 688 L184 688 L184 579 L66 579 Z M206 571 L289 763 L394 723 L277 542 L206 571 Z " />
<glyph glyph-name="Alpha" unicode="&#x391;" horiz-adv-x="600" d="M401 150 L197 150 L155 0 L29 0 L236 696 L364 696 L569 0 L443 0 L401 150 Z M297 531 Q290 502 282 468 Q274 434 263 395 Q253 359 246.5 335.5 Q240 312 236 296.5 Q232 281 229 270.5 Q226 260 224 251 L374 251 Q369 273 361 300 Q353 327 340 375 Q329 418 319 457 Q309 496 301 531 L297 531 Z " />
<glyph glyph-name="Beta" unicode="&#x392;" horiz-adv-x="600" d="M551 205 Q551 160 535 122 Q519 84 491.5 57 Q464 30 427 15 Q390 0 347 0 L67 0 L67 696 L318 696 Q425 696 480.5 646.5 Q536 597 536 512 Q536 493 531 472.5 Q526 452 514.5 432.5 Q503 413 485 396.5 Q467 380 441 369 L441 365 Q468 357 488.5 340 Q509 323 523 301 Q537 279 544 254 Q551 229 551 205 Z M410 503 Q410 541 383.5 564.5 Q357 588 307 588 L188 588 L188 413 L307 413 Q359 413 384.5 439 Q410 465 410 503 Z M428 212 Q428 231 421.5 249 Q415 267 401.5 280.5 Q388 294 367 302.5 Q346 311 318 311 L188 311 L188 109 L318 109 Q346 109 367 118 Q388 127 401.5 141.5 Q415 156 421.5 174.5 Q428 193 428 212 Z " />
<glyph glyph-name="Gamma" unicode="&#x393;" horiz-adv-x="600" d="M124 696 L570 696 L570 587 L245 587 L245 0 L124 0 L124 696 Z " />
<glyph glyph-name="Epsilon" unicode="&#x395;" horiz-adv-x="600" d="M84 0 L84 696 L523 696 L523 587 L205 587 L205 414 L487 414 L487 309 L205 309 L205 109 L543 109 L543 0 L84 0 Z " />
<glyph glyph-name="Zeta" unicode="&#x396;" horiz-adv-x="600" d="M71 0 L71 104 L380 587 L87 587 L87 696 L523 696 L523 597 L214 109 L528 109 L528 0 L71 0 Z " />
<glyph glyph-name="Eta" unicode="&#x397;" horiz-adv-x="600" d="M426 0 L426 308 L175 308 L175 0 L54 0 L54 696 L175 696 L175 413 L426 413 L426 696 L546 696 L546 0 L426 0 Z " />
<glyph glyph-name="Theta" unicode="&#x398;" horiz-adv-x="600" d="M204 400 L395 400 L395 301 L204 301 L204 400 Z M298 701 Q359 701 406 681.5 Q453 662 484 627.5 Q515 593 531 545.5 Q547 498 547 442 L547 247 Q547 191 531 144.5 Q515 98 483.5 64.5 Q452 31 405.5 12.5 Q359 -6 298 -6 Q231 -6 184 14.5 Q137 35 108 69.5 Q79 104 65.5 150 Q52 196 52 247 L52 442 Q52 494 65.5 541.5 Q79 589 109 624 Q139 659 185.5 680 Q232 701 298 701 Z M298 588 Q262 588 238 575 Q214 562 199.5 541 Q185 520 179 493.5 Q173 467 173 440 L173 256 Q173 227 179 200 Q185 173 199 152 Q213 131 237.5 118.5 Q262 106 298 106 Q332 106 356.5 118 Q381 130 396 150.5 Q411 171 418 198 Q425 225 425 256 L425 440 Q425 470 417.5 496.5 Q410 523 394.5 543.5 Q379 564 355 576 Q331 588 298 588 Z " />
<glyph glyph-name="Iota" unicode="&#x399;" horiz-adv-x="600" d="M117 696 L489 696 L489 587 L359 587 L359 109 L489 109 L489 0 L117 0 L117 109 L238 109 L238 587 L117 587 L117 696 Z " />
<glyph glyph-name="Kappa" unicode="&#x39a;" horiz-adv-x="600" d="M341 423 L573 0 L432 0 L262 318 L178 208 L178 0 L57 0 L57 696 L179 696 L179 394 L181 394 L409 696 L547 696 L341 423 Z " />
<glyph glyph-name="Lambda" unicode="&#x39b;" horiz-adv-x="600" d="M29 0 L236 696 L364 696 L569 0 L443 0 L353 334 Q339 388 326 435.5 Q313 483 301 531 L298 531 L246 336 L155 0 L29 0 Z " />
<glyph glyph-name="Mu" unicode="&#x39c;" horiz-adv-x="600" d="M422 0 L422 434 L419 434 L346 231 L256 231 L183 435 L180 432 L180 0 L61 0 L61 696 L185 696 L300 383 L303 383 L415 696 L541 696 L541 0 L422 0 Z " />
<glyph glyph-name="Nu" unicode="&#x39d;" horiz-adv-x="600" d="M409 0 L198 437 L195 436 L195 0 L74 0 L74 696 L193 696 L404 261 L407 262 L407 696 L527 696 L527 0 L409 0 Z " />
<glyph glyph-name="Xi" unicode="&#x39e;" horiz-adv-x="600" d="M67 586 L67 696 L532 696 L532 586 L67 586 Z M119 298 L119 405 L479 405 L479 298 L119 298 Z M64 0 L64 110 L536 110 L536 0 L64 0 Z " />
<glyph glyph-name="Omicron" unicode="&#x39f;" horiz-adv-x="600" d="M298 701 Q359 701 406 681.5 Q453 662 484 627.5 Q515 593 531 545.5 Q547 498 547 442 L547 247 Q547 191 531 144.5 Q515 98 483.5 64.5 Q452 31 405.5 12.5 Q359 -6 298 -6 Q231 -6 184 14.5 Q137 35 108 69.5 Q79 104 65.5 150 Q52 196 52 247 L52 442 Q52 494 65.5 541.5 Q79 589 109 624 Q139 659 185.5 680 Q232 701 298 701 Z M298 588 Q262 588 238 575 Q214 562 199.5 541 Q185 520 179 493.5 Q173 467 173 440 L173 256 Q173 227 179 200 Q185 173 199 152 Q213 131 237.5 118.5 Q262 106 298 106 Q332 106 356.5 118 Q381 130 396 150.5 Q411 171 418 198 Q425 225 425 256 L425 440 Q425 470 417.5 496.5 Q410 523 394.5 543.5 Q379 564 355 576 Q331 588 298 588 Z " />
<glyph glyph-name="Pi" unicode="&#x3a0;" horiz-adv-x="600" d="M546 0 L426 0 L426 587 L175 587 L175 0 L54 0 L54 696 L546 696 L546 0 Z " />
<glyph glyph-name="Rho" unicode="&#x3a1;" horiz-adv-x="600" d="M557 478 Q557 436 542 398 Q527 360 498 331 Q469 302 426 284.5 Q383 267 327 267 L201 267 L201 0 L80 0 L80 696 L320 696 Q372 696 415.5 682 Q459 668 490.5 641 Q522 614 539.5 573 Q557 532 557 478 Z M433 481 Q433 535 402.5 561 Q372 587 319 587 L201 587 L201 376 L323 376 Q379 376 406 407.5 Q433 439 433 481 Z " />
<glyph glyph-name="Sigma" unicode="&#x3a3;" horiz-adv-x="600" d="M70 0 L70 108 L231 357 L70 592 L70 696 L523 696 L523 587 L215 587 L373 358 L214 109 L536 109 L536 0 L70 0 Z " />
<glyph glyph-name="Tau" unicode="&#x3a4;" horiz-adv-x="600" d="M361 588 L361 0 L240 0 L240 588 L56 588 L56 696 L545 696 L545 588 L361 588 Z " />
<glyph glyph-name="Upsilon" unicode="&#x3a5;" horiz-adv-x="600" d="M357 280 L357 0 L242 0 L242 280 L41 696 L166 696 Q198 624 231.5 552.5 Q265 481 299 407 L303 409 L434 696 L558 696 L357 280 Z " />
<glyph glyph-name="Phi" unicode="&#x3a6;" horiz-adv-x="600" d="M354 657 Q456 644 507 582.5 Q558 521 558 422 L558 288 Q558 191 507.5 131 Q457 71 354 58 L354 0 L245 0 L245 58 Q189 65 150.5 85 Q112 105 88 135 Q64 165 53 204 Q42 243 42 288 L42 422 Q42 468 53.5 508 Q65 548 89.5 578.5 Q114 609 152.5 629.5 Q191 650 245 657 L245 696 L354 696 L354 657 Z M447 429 Q447 479 424.5 512 Q402 545 353 553 L353 161 Q404 169 425.5 202.5 Q447 236 447 288 L447 429 Z M152 288 Q152 240 172 205 Q192 170 245 162 L245 553 Q219 549 201 537.5 Q183 526 172 509.5 Q161 493 156.5 472.5 Q152 452 152 430 L152 288 Z " />
<glyph glyph-name="Chi" unicode="&#x3a7;" horiz-adv-x="600" d="M431 0 L299 243 L168 0 L36 0 Q86 91 135.5 180 Q185 269 236 360 L51 696 L182 696 L299 475 L417 696 L547 696 L363 360 Q413 269 463 180 Q513 91 563 0 L431 0 Z " />
<glyph glyph-name="Psi" unicode="&#x3a8;" horiz-adv-x="600" d="M553 370 Q553 324 539 285.5 Q525 247 499.5 218.5 Q474 190 437 172.5 Q400 155 355 152 L355 0 L244 0 L244 152 Q148 159 97 216.5 Q46 274 46 367 L46 696 L155 696 L155 402 Q155 373 158 348 Q161 323 170 303.5 Q179 284 196.5 271.5 Q214 259 244 256 L244 696 L355 696 L355 256 Q385 259 403 272 Q421 285 430 304.5 Q439 324 441.5 349.5 Q444 375 444 402 L444 696 L553 696 L553 370 Z " />
<glyph glyph-name="Iotadieresis" unicode="&#x3aa;" horiz-adv-x="600" d="M117 696 L489 696 L489 587 L359 587 L359 109 L489 109 L489 0 L117 0 L117 109 L238 109 L238 587 L117 587 L117 696 Z M336 757 L336 867 L456 867 L456 757 L336 757 Z M139 757 L139 867 L259 867 L259 757 L139 757 Z " />
<glyph glyph-name="Upsilondieresis" unicode="&#x3ab;" horiz-adv-x="600" d="M357 280 L357 0 L242 0 L242 280 L41 696 L166 696 Q198 624 231.5 552.5 Q265 481 299 407 L303 409 L434 696 L558 696 L357 280 Z M338 757 L338 867 L458 867 L458 757 L338 757 Z M141 757 L141 867 L261 867 L261 757 L141 757 Z " />
<glyph glyph-name="alphatonos" unicode="&#x3ac;" horiz-adv-x="600" d="M92 251 Q92 295 100.5 339 Q109 383 130 418.5 Q151 454 187.5 476 Q224 498 281 498 Q313 498 342 488 Q371 478 392 450 L395 452 L395 495 L507 495 L507 0 L395 0 L395 47 Q394 47 394 47.5 Q394 48 393 48 Q366 19 334.5 7 Q303 -5 271 -5 Q212 -5 177 17.5 Q142 40 123 76.5 Q104 113 98 159 Q92 205 92 251 Z M207 242 Q207 216 210.5 191 Q214 166 223.5 146 Q233 126 251.5 113.5 Q270 101 300 101 Q331 101 350 115 Q369 129 379 150.5 Q389 172 392 198 Q395 224 395 247 Q395 271 392 297 Q389 323 379 344.5 Q369 366 351 380 Q333 394 302 394 Q269 394 250.5 379.5 Q232 365 222 342.5 Q212 320 209.5 293.5 Q207 267 207 242 Z M239 573 L322 765 L427 725 L310 544 L239 573 Z " />
<glyph glyph-name="epsilontonos" unicode="&#x3ad;" horiz-adv-x="600" d="M257 573 L340 765 L445 725 L328 544 L257 573 Z M191 258 Q154 270 139.5 298.5 Q125 327 125 353 Q125 383 137.5 409.5 Q150 436 174 456 Q198 476 234 488 Q270 500 317 500 Q371 500 418.5 484.5 Q466 469 504 431 Q487 411 470 391.5 Q453 372 436 352 Q407 379 378 388.5 Q349 398 321 398 Q286 398 263 383 Q240 368 240 342 Q240 323 254 309.5 Q268 296 308 296 L380 296 L380 209 L306 209 Q277 209 254.5 196 Q232 183 232 154 Q232 128 258 113 Q284 98 326 98 Q358 98 389 108 Q420 118 447 146 Q465 127 482.5 107.5 Q500 88 518 69 Q477 31 425 13.5 Q373 -4 319 -4 Q275 -4 238 6 Q201 16 174.5 34.5 Q148 53 133 80.5 Q118 108 118 144 Q118 157 122 173 Q126 189 134.5 205 Q143 221 157 234.5 Q171 248 191 256 L191 258 Z " />
<glyph glyph-name="etatonos" unicode="&#x3ae;" horiz-adv-x="600" d="M393 0 L393 294 Q393 342 372.5 368 Q352 394 302 394 Q258 394 232 365.5 Q206 337 206 287 L206 0 L94 0 L94 495 L206 495 L206 444 L209 444 Q233 470 268.5 485 Q304 500 338 500 Q414 500 459.5 456.5 Q505 413 505 325 L505 0 L393 0 Z M218 573 L301 765 L406 725 L289 544 L218 573 Z " />
<glyph glyph-name="iotatonos" unicode="&#x3af;" horiz-adv-x="600" d="M512 102 L512 0 L433 0 Q379 0 343 12 Q307 24 285 48.5 Q263 73 253.5 109 Q244 145 244 193 L244 398 L104 398 L104 495 L356 495 L356 210 Q356 184 358 163.5 Q360 143 368.5 129.5 Q377 116 394.5 109 Q412 102 443 102 L512 102 Z M228 573 L311 765 L416 725 L299 544 L228 573 Z " />
<glyph glyph-name="upsilondieresistonos" unicode="&#x3b0;" horiz-adv-x="600" d="M506 178 Q506 136 490.5 102.5 Q475 69 447.5 45 Q420 21 382 8 Q344 -5 299 -5 Q255 -5 217.5 8.5 Q180 22 152.5 46 Q125 70 109.5 103.5 Q94 137 94 178 L94 495 L206 495 L206 201 Q206 153 232.5 127 Q259 101 300 101 Q341 101 367.5 127 Q394 153 394 201 L394 495 L506 495 L506 178 Z M409 579 L409 688 L527 688 L527 579 L409 579 Z M75 579 L75 688 L193 688 L193 579 L75 579 Z M215 571 L298 763 L403 723 L286 542 L215 571 Z " />
<glyph glyph-name="alpha" unicode="&#x3b1;" horiz-adv-x="600" d="M92 251 Q92 295 100.5 339 Q109 383 130 418.5 Q151 454 187.5 476 Q224 498 281 498 Q313 498 342 488 Q371 478 392 450 L395 452 L395 495 L507 495 L507 0 L395 0 L395 47 Q394 47 394 47.5 Q394 48 393 48 Q366 19 334.5 7 Q303 -5 271 -5 Q212 -5 177 17.5 Q142 40 123 76.5 Q104 113 98 159 Q92 205 92 251 Z M207 242 Q207 216 210.5 191 Q214 166 223.5 146 Q233 126 251.5 113.5 Q270 101 300 101 Q331 101 350 115 Q369 129 379 150.5 Q389 172 392 198 Q395 224 395 247 Q395 271 392 297 Q389 323 379 344.5 Q369 366 351 380 Q333 394 302 394 Q269 394 250.5 379.5 Q232 365 222 342.5 Q212 320 209.5 293.5 Q207 267 207 242 Z " />
<glyph glyph-name="beta" unicode="&#x3b2;" horiz-adv-x="600" d="M516 230 Q516 183 506.5 140.5 Q497 98 475.5 65.5 Q454 33 418 14 Q382 -5 329 -5 Q297 -5 265 6.5 Q233 18 208 46 L206 46 L206 -148 L93 -148 L93 517 Q93 612 143.5 668.5 Q194 725 289 725 Q343 725 380 708.5 Q417 692 440 666.5 Q463 641 473 610.5 Q483 580 483 553 Q483 536 479.5 516.5 Q476 497 468 478 Q460 459 446.5 443 Q433 427 413 416 Q449 406 469.5 384.5 Q490 363 500.5 336.5 Q511 310 513.5 282 Q516 254 516 230 Z M397 245 Q397 264 393.5 284.5 Q390 305 380.5 322 Q371 339 353.5 349.5 Q336 360 309 360 L252 360 L252 451 L298 451 Q319 451 333 460 Q347 469 355.5 482.5 Q364 496 367.5 512 Q371 528 371 542 Q371 558 366 574 Q361 590 351 602.5 Q341 615 325.5 622.5 Q310 630 290 630 Q265 630 249 621 Q233 612 223.5 597.5 Q214 583 210 565 Q206 547 206 529 L206 242 Q206 218 208.5 192 Q211 166 221 144.5 Q231 123 249.5 109 Q268 95 301 95 Q331 95 350 108.5 Q369 122 379.5 143.5 Q390 165 393.5 191.5 Q397 218 397 245 Z " />
<glyph glyph-name="gamma" unicode="&#x3b3;" horiz-adv-x="600" d="M307 180 Q334 264 359.5 341.5 Q385 419 414 495 L536 495 Q489 375 445 259 Q401 143 359 18 L359 -200 L248 -200 L248 -3 Q192 181 128 351 Q122 367 117.5 376.5 Q113 386 107.5 391.5 Q102 397 95 398.5 Q88 400 77 400 L71 400 L63 491 Q80 497 97 500 Q114 503 127 503 Q157 503 175 489.5 Q193 476 207 452 Q220 428 232 396 Q244 364 256 327.5 Q268 291 279.5 253 Q291 215 302 180 L307 180 Z " />
<glyph glyph-name="delta" unicode="&#x3b4;" horiz-adv-x="600" d="M300 405 Q267 400 247 384 Q227 368 216 345.5 Q205 323 201.5 296 Q198 269 198 241 Q198 96 298 96 Q348 96 373.5 131.5 Q399 167 399 247 Q399 323 373.5 358 Q348 393 300 405 Z M313 726 Q358 726 398.5 717.5 Q439 709 485 684 L441 592 Q405 612 376.5 619 Q348 626 321 626 Q288 626 271 613.5 Q254 601 254 582 Q254 559 278 541 Q302 523 339 504 L386 480 Q426 460 450.5 435 Q475 410 489 380 Q503 350 508 315 Q513 280 513 240 Q513 174 495.5 127 Q478 80 448 50.5 Q418 21 378.5 7.5 Q339 -6 295 -6 Q192 -6 139 53.5 Q86 113 86 234 Q86 268 91.5 302.5 Q97 337 110.5 367.5 Q124 398 146.5 422.5 Q169 447 203 460 Q170 480 152.5 511.5 Q135 543 135 575 Q135 612 149 640.5 Q163 669 187 688 Q211 707 243.5 716.5 Q276 726 313 726 Z " />
<glyph glyph-name="epsilon" unicode="&#x3b5;" horiz-adv-x="600" d="M194 258 Q157 270 142.5 298.5 Q128 327 128 353 Q128 383 140.5 409.5 Q153 436 177 456 Q201 476 237 488 Q273 500 320 500 Q374 500 421.5 484.5 Q469 469 507 431 Q490 411 473 391.5 Q456 372 439 352 Q410 379 381 388.5 Q352 398 324 398 Q289 398 266 383 Q243 368 243 342 Q243 323 257 309.5 Q271 296 311 296 L383 296 L383 209 L309 209 Q280 209 257.5 196 Q235 183 235 154 Q235 128 261 113 Q287 98 329 98 Q361 98 392 108 Q423 118 450 146 Q468 127 485.5 107.5 Q503 88 521 69 Q480 31 428 13.5 Q376 -4 322 -4 Q278 -4 241 6 Q204 16 177.5 34.5 Q151 53 136 80.5 Q121 108 121 144 Q121 157 125 173 Q129 189 137.5 205 Q146 221 160 234.5 Q174 248 194 256 L194 258 Z " />
<glyph glyph-name="zeta" unicode="&#x3b6;" horiz-adv-x="600" d="M227 218 Q227 174 250.5 149 Q274 124 316 107 L419 66 Q470 46 489 22 Q508 -2 508 -34 Q508 -53 499 -74.5 Q490 -96 476.5 -117.5 Q463 -139 447 -160 Q431 -181 416 -199 L338 -154 L370 -100 Q377 -89 382.5 -77 Q388 -65 388 -58 Q388 -46 376 -37 Q364 -28 341 -19 L259 11 Q193 35 151.5 85 Q110 135 110 211 Q110 255 131 307.5 Q152 360 188.5 413.5 Q225 467 274.5 518 Q324 569 382 611 L382 612 L147 612 L147 711 L535 711 L535 623 Q466 572 409 518 Q352 464 311.5 411.5 Q271 359 249 309.5 Q227 260 227 218 Z " />
<glyph glyph-name="eta" unicode="&#x3b7;" horiz-adv-x="600" d="M393 0 L393 294 Q393 342 372.5 368 Q352 394 302 394 Q258 394 232 365.5 Q206 337 206 287 L206 0 L94 0 L94 495 L206 495 L206 444 L209 444 Q233 470 268.5 485 Q304 500 338 500 Q414 500 459.5 456.5 Q505 413 505 325 L505 0 L393 0 Z " />
<glyph glyph-name="theta" unicode="&#x3b8;" horiz-adv-x="600" d="M308 729 Q365 729 406.5 707 Q448 685 473 644 Q482 630 490 608.5 Q498 587 504.5 555 Q511 523 514.5 477.5 Q518 432 518 369 Q518 309 515 264 Q512 219 506 185.5 Q500 152 492.5 128.5 Q485 105 476 89 Q450 43 402.5 18 Q355 -7 297 -7 Q241 -7 198.5 12.5 Q156 32 130 72 Q119 88 110.5 112.5 Q102 137 96 172 Q90 207 87 254 Q84 301 84 363 Q84 463 95 524.5 Q106 586 120 614 Q146 669 193.5 699 Q241 729 308 729 Z M392 168 Q394 174 397 186 Q400 198 402.5 217 Q405 236 406.5 264.5 Q408 293 407 332 L195 332 Q194 289 195.5 258.5 Q197 228 200 207 Q203 186 207 173 Q211 160 214 152 Q225 126 246 111 Q267 96 300 96 Q371 96 392 168 Z M304 628 Q275 628 253 613 Q231 598 218 571 Q214 563 210 552.5 Q206 542 203 525.5 Q200 509 198 484 Q196 459 195 421 L406 421 Q407 531 384 579 Q373 602 352.5 615 Q332 628 304 628 Z " />
<glyph glyph-name="iota" unicode="&#x3b9;" horiz-adv-x="600" d="M512 102 L512 0 L433 0 Q379 0 343 12 Q307 24 285 48.5 Q263 73 253.5 109 Q244 145 244 193 L244 398 L104 398 L104 495 L356 495 L356 210 Q356 184 358 163.5 Q360 143 368.5 129.5 Q377 116 394.5 109 Q412 102 443 102 L512 102 Z " />
<glyph glyph-name="kappa" unicode="&#x3ba;" horiz-adv-x="600" d="M429 0 L287 226 L214 146 L214 0 L101 0 L101 495 L214 495 L214 292 L216 291 L400 495 L536 495 L363 307 L561 0 L429 0 Z " />
<glyph glyph-name="lambda" unicode="&#x3bb;" horiz-adv-x="600" d="M532 -1 Q516 -5 501.5 -6 Q487 -7 477 -7 Q450 -7 432.5 0 Q415 7 403 20.5 Q391 34 383 52.5 Q375 71 368 95 L293 336 L289 336 L173 0 L55 0 L238 487 L211 578 Q203 606 190 618.5 Q177 631 144 631 Q139 631 133.5 631 Q128 631 122 630 L116 723 Q152 732 180 732 Q231 732 259.5 709 Q288 686 305 643 L476 122 Q484 99 493 91 Q502 83 529 83 L532 -1 Z " />
<glyph glyph-name="nu" unicode="&#x3bd;" horiz-adv-x="600" d="M302 155 Q317 204 332.5 253 Q348 302 362 342 L413 495 L534 495 L351 0 L249 0 L65 495 L186 495 L255 291 Q265 262 276 228 Q287 194 299 155 L302 155 Z " />
<glyph glyph-name="xi" unicode="&#x3be;" horiz-adv-x="600" d="M482 586 Q447 609 416 617 Q385 625 356 625 Q329 625 309 616.5 Q289 608 275.5 594.5 Q262 581 255.5 564 Q249 547 249 530 Q249 484 283 458 Q317 432 368 432 L463 432 L463 339 L344 339 Q318 339 297.5 329 Q277 319 262 302 Q247 285 239 263.5 Q231 242 231 218 Q231 195 238.5 178 Q246 161 258.5 148.5 Q271 136 288.5 126.5 Q306 117 327 109 L343 103 Q395 83 429 70 Q463 57 482.5 43.5 Q502 30 509.5 13.5 Q517 -3 517 -28 Q517 -46 509 -67.5 Q501 -89 488.5 -111.5 Q476 -134 460.5 -156.5 Q445 -179 429 -199 Q408 -187 388 -175.5 Q368 -164 347 -153 Q350 -147 358 -134.5 Q366 -122 374.5 -108 Q383 -94 389 -80.5 Q395 -67 395 -60 Q395 -47 387 -38 Q379 -29 350 -19 L321 -9 Q283 4 245 19 Q207 34 177 58 Q147 82 128.5 118.5 Q110 155 110 211 Q110 256 135 301.5 Q160 347 223 388 Q196 399 178.5 417 Q161 435 150.5 455 Q140 475 135.5 495.5 Q131 516 131 531 Q131 574 148.5 610.5 Q166 647 196.5 672.5 Q227 698 268.5 712.5 Q310 727 358 727 Q393 727 440.5 717 Q488 707 535 674 L482 586 L482 586 Z " />
<glyph glyph-name="omicron" unicode="&#x3bf;" horiz-adv-x="600" d="M303 500 Q357 500 399.5 481.5 Q442 463 470 428 Q515 371 515 259 Q515 202 508 160.5 Q501 119 484 90 Q456 42 408 17.5 Q360 -7 295 -7 Q236 -7 192 13 Q148 33 122 74 Q102 105 93.5 146.5 Q85 188 85 243 Q85 300 96 343 Q107 386 130 418 Q159 457 202.5 478.5 Q246 500 303 500 Z M301 399 Q242 399 216 347 Q206 327 202.5 301.5 Q199 276 199 245 Q199 217 201 193.5 Q203 170 211 152 Q235 96 298 96 Q361 96 387 155 Q395 172 397.5 195 Q400 218 400 255 Q400 314 386 345 Q373 374 350.5 386.5 Q328 399 301 399 Z " />
<glyph glyph-name="rho" unicode="&#x3c1;" horiz-adv-x="600" d="M304 500 Q404 500 458.5 438.5 Q513 377 513 256 Q513 129 458.5 62 Q404 -5 311 -5 Q278 -5 252 5.5 Q226 16 204 39 Q203 39 201 37 L201 -198 L88 -198 L88 247 Q88 373 144.5 436.5 Q201 500 304 500 Z M300 399 Q248 399 223.5 358.5 Q199 318 199 245 Q199 175 221.5 135.5 Q244 96 296 96 Q349 96 373.5 134.5 Q398 173 398 257 Q398 334 371.5 366.5 Q345 399 300 399 Z " />
<glyph glyph-name="sigma1" unicode="&#x3c2;" horiz-adv-x="600" d="M454 350 Q428 374 400.5 384 Q373 394 350 394 Q292 394 258 357 Q224 320 224 245 Q224 197 242 164.5 Q260 132 309 112 L408 72 Q455 53 474.5 29.5 Q494 6 494 -27 Q494 -46 487 -66.5 Q480 -87 468 -107.5 Q456 -128 441 -148.5 Q426 -169 410 -188 L329 -143 Q334 -136 341 -124.5 Q348 -113 355 -101 Q362 -89 366.5 -77.5 Q371 -66 371 -58 Q371 -45 362 -35.5 Q353 -26 325 -16 Q267 4 226.5 25.5 Q186 47 160 76 Q134 105 122 144 Q110 183 110 239 Q110 306 129.5 355.5 Q149 405 181 437.5 Q213 470 254.5 485.5 Q296 501 341 501 Q388 501 435.5 485.5 Q483 470 524 432 Q506 412 489 391 Q472 370 454 350 Z " />
<glyph glyph-name="sigma" unicode="&#x3c3;" horiz-adv-x="600" d="M458 395 Q481 375 493.5 338.5 Q506 302 506 247 Q506 184 490 136.5 Q474 89 445.5 57.5 Q417 26 377 10 Q337 -6 289 -6 Q182 -6 130.5 59 Q79 124 79 242 Q79 299 93 345.5 Q107 392 134 425 Q161 458 202 476.5 Q243 495 297 495 L558 495 L558 398 L458 398 L458 395 Z M294 396 Q243 396 218 356 Q193 316 193 248 Q193 178 216.5 137.5 Q240 97 292 97 Q343 97 367 137 Q391 177 391 252 Q391 327 364.5 361.5 Q338 396 294 396 Z " />
<glyph glyph-name="tau" unicode="&#x3c4;" horiz-adv-x="600" d="M56 398 L56 495 L506 495 L506 398 L308 398 L308 180 Q308 140 325.5 118 Q343 96 385 96 Q412 96 440.5 106 Q469 116 492 134 L538 44 Q518 29 495 19 Q472 9 449.5 3.5 Q427 -2 406 -4.5 Q385 -7 369 -7 Q330 -7 297.5 1.5 Q265 10 242.5 30.5 Q220 51 207.5 84 Q195 117 195 166 L195 398 L56 398 Z " />
<glyph glyph-name="upsilon" unicode="&#x3c5;" horiz-adv-x="600" d="M506 178 Q506 136 490.5 102.5 Q475 69 447.5 45 Q420 21 382 8 Q344 -5 299 -5 Q255 -5 217.5 8.5 Q180 22 152.5 46 Q125 70 109.5 103.5 Q94 137 94 178 L94 495 L206 495 L206 201 Q206 153 232.5 127 Q259 101 300 101 Q341 101 367.5 127 Q394 153 394 201 L394 495 L506 495 L506 178 Z " />
<glyph glyph-name="phi" unicode="&#x3c6;" horiz-adv-x="600" d="M351 94 Q405 95 426 136 Q447 177 447 248 Q447 281 443 309 Q439 337 428 357 Q417 377 398.5 388 Q380 399 351 400 L351 94 Z M244 -5 Q142 -1 93 59 Q44 119 44 247 Q44 352 70.5 409 Q97 466 163 489 L200 392 Q189 387 180 378.5 Q171 370 165 353.5 Q159 337 156 311 Q153 285 153 246 Q153 212 156.5 184.5 Q160 157 170 136.5 Q180 116 198 105 Q216 94 244 93 L244 500 L336 500 Q450 500 502 435.5 Q554 371 554 247 Q554 181 539.5 134.5 Q525 88 499 58.5 Q473 29 435.5 14 Q398 -1 352 -5 L352 -198 L244 -198 L244 -5 Z " />
<glyph glyph-name="chi" unicode="&#x3c7;" horiz-adv-x="600" d="M399 0 Q373 42 347.5 82.5 Q322 123 296 165 Q270 123 244.5 82.5 Q219 42 193 0 L61 0 Q103 64 146 127 Q189 190 231 254 L70 495 L202 495 L296 340 Q320 378 343.5 417 Q367 456 391 495 L523 495 L361 253 L532 0 L399 0 Z " />
<glyph glyph-name="psi" unicode="&#x3c8;" horiz-adv-x="600" d="M546 183 Q546 134 532.5 100 Q519 66 493.5 43.5 Q468 21 432 9.5 Q396 -2 352 -5 L352 -199 L245 -199 L245 -4 Q202 -2 166.5 9 Q131 20 106 42 Q81 64 67.5 98.5 Q54 133 54 181 L54 495 L163 495 L163 199 Q163 170 168 150.5 Q173 131 183 119.5 Q193 108 208.5 103 Q224 98 245 97 L245 515 L352 515 L352 97 Q373 98 389 102.5 Q405 107 415.5 118.5 Q426 130 431.5 149.5 Q437 169 437 199 L437 495 L546 495 L546 183 Z " />
<glyph glyph-name="omega" unicode="&#x3c9;" horiz-adv-x="600" d="M298 58 Q281 21 254 7.5 Q227 -6 196 -6 Q144 -6 115.5 17 Q87 40 73 76 Q59 112 56 156.5 Q53 201 53 245 Q53 302 57.5 348.5 Q62 395 77 428 Q92 461 121 479.5 Q150 498 199 501 Q201 475 203 450 Q205 425 207 399 Q193 397 184 389 Q175 381 170 363.5 Q165 346 163.5 317 Q162 288 162 244 Q162 202 164 174 Q166 146 171 128.5 Q176 111 184.5 103.5 Q193 96 206 96 Q235 96 241 122.5 Q247 149 247 197 L247 344 L351 344 L351 197 Q351 173 352 154 Q353 135 357 122.5 Q361 110 369.5 103 Q378 96 393 96 Q421 96 430 131.5 Q439 167 439 245 Q439 291 437 320 Q435 349 430.5 366 Q426 383 418 390 Q410 397 397 399 L407 501 Q452 499 479.5 484 Q507 469 522.5 437.5 Q538 406 543 358 Q548 310 548 243 Q548 206 545 162.5 Q542 119 528.5 82 Q515 45 487 20 Q459 -5 408 -5 Q378 -5 348.5 8 Q319 21 303 58 L298 58 Z " />
<glyph glyph-name="iotadieresis" unicode="&#x3ca;" horiz-adv-x="600" d="M512 102 L512 0 L433 0 Q379 0 343 12 Q307 24 285 48.5 Q263 73 253.5 109 Q244 145 244 193 L244 398 L104 398 L104 495 L356 495 L356 210 Q356 184 358 163.5 Q360 143 368.5 129.5 Q377 116 394.5 109 Q412 102 443 102 L512 102 Z M311 583 L311 692 L429 692 L429 583 L311 583 Z M122 583 L122 692 L240 692 L240 583 L122 583 Z " />
<glyph glyph-name="upsilondieresis" unicode="&#x3cb;" horiz-adv-x="600" d="M506 178 Q506 136 490.5 102.5 Q475 69 447.5 45 Q420 21 382 8 Q344 -5 299 -5 Q255 -5 217.5 8.5 Q180 22 152.5 46 Q125 70 109.5 103.5 Q94 137 94 178 L94 495 L206 495 L206 201 Q206 153 232.5 127 Q259 101 300 101 Q341 101 367.5 127 Q394 153 394 201 L394 495 L506 495 L506 178 Z M335 583 L335 692 L453 692 L453 583 L335 583 Z M146 583 L146 692 L264 692 L264 583 L146 583 Z " />
<glyph glyph-name="omicrontonos" unicode="&#x3cc;" horiz-adv-x="600" d="M303 500 Q357 500 399.5 481.5 Q442 463 470 428 Q515 371 515 259 Q515 202 508 160.5 Q501 119 484 90 Q456 42 408 17.5 Q360 -7 295 -7 Q236 -7 192 13 Q148 33 122 74 Q102 105 93.5 146.5 Q85 188 85 243 Q85 300 96 343 Q107 386 130 418 Q159 457 202.5 478.5 Q246 500 303 500 Z M301 399 Q242 399 216 347 Q206 327 202.5 301.5 Q199 276 199 245 Q199 217 201 193.5 Q203 170 211 152 Q235 96 298 96 Q361 96 387 155 Q395 172 397.5 195 Q400 218 400 255 Q400 314 386 345 Q373 374 350.5 386.5 Q328 399 301 399 Z M238 572 L321 764 L426 724 L309 543 L238 572 Z " />
<glyph glyph-name="upsilontonos" unicode="&#x3cd;" horiz-adv-x="600" d="M235 572 L318 764 L423 724 L306 543 L235 572 Z M506 178 Q506 136 490.5 102.5 Q475 69 447.5 45 Q420 21 382 8 Q344 -5 299 -5 Q255 -5 217.5 8.5 Q180 22 152.5 46 Q125 70 109.5 103.5 Q94 137 94 178 L94 495 L206 495 L206 201 Q206 153 232.5 127 Q259 101 300 101 Q341 101 367.5 127 Q394 153 394 201 L394 495 L506 495 L506 178 Z " />
<glyph glyph-name="omegatonos" unicode="&#x3ce;" horiz-adv-x="600" d="M298 58 Q281 21 254 7.5 Q227 -6 196 -6 Q144 -6 115.5 17 Q87 40 73 76 Q59 112 56 156.5 Q53 201 53 245 Q53 302 57.5 348.5 Q62 395 77 428 Q92 461 121 479.5 Q150 498 199 501 Q201 475 203 450 Q205 425 207 399 Q193 397 184 389 Q175 381 170 363.5 Q165 346 163.5 317 Q162 288 162 244 Q162 202 164 174 Q166 146 171 128.5 Q176 111 184.5 103.5 Q193 96 206 96 Q235 96 241 122.5 Q247 149 247 197 L247 344 L351 344 L351 197 Q351 173 352 154 Q353 135 357 122.5 Q361 110 369.5 103 Q378 96 393 96 Q421 96 430 131.5 Q439 167 439 245 Q439 291 437 320 Q435 349 430.5 366 Q426 383 418 390 Q410 397 397 399 L407 501 Q452 499 479.5 484 Q507 469 522.5 437.5 Q538 406 543 358 Q548 310 548 243 Q548 206 545 162.5 Q542 119 528.5 82 Q515 45 487 20 Q459 -5 408 -5 Q378 -5 348.5 8 Q319 21 303 58 L298 58 Z M236 573 L319 765 L424 725 L307 544 L236 573 Z " />
</font>
</svg>
