<?xml version="1.0" encoding="UTF-8"?>
<svg xmlns="http://www.w3.org/2000/svg" xmlns:xlink="http://www.w3.org/1999/xlink" version="1.2" >
<font id="PFDINMonoPro-Regular">
<font-face  font-family="PF DIN Mono Pro" units-per-em="1000" ascent="750" descent="-250" font-style="normal" font-weight="400" font-stretch="normal" cap-height="696" x-height="496" underline-position="-73" underline-thickness="55" />
<missing-glyph  horiz-adv-x="600" d="M80 700 L520 700 L520 0 L80 0 L80 700 Z M440 650 L160 650 L300 395 L440 650 Z M470 95 L470 605 L330 350 L470 95 Z M440 50 L300 305 L160 50 L440 50 Z M130 95 L270 350 L130 605 L130 95 Z " />
<glyph glyph-name="NULL" d="" />
<glyph glyph-name="nonmarkingreturn" unicode="&#xd;" horiz-adv-x="600" d="" />
<glyph glyph-name="space" unicode="&#x20;" horiz-adv-x="600" d="" />
<glyph glyph-name="ampersand" unicode="&#x26;" horiz-adv-x="600" d="M412 75 Q374 38 329 16 Q284 -6 235 -6 Q186 -6 150.5 8 Q115 22 91.5 46 Q68 70 56.5 101 Q45 132 45 167 Q45 233 78 283.5 Q111 334 184 382 L155 421 Q130 455 117.5 483.5 Q105 512 105 541 Q105 575 116 605 Q127 635 149 657 Q171 679 204.5 691.5 Q238 704 283 704 Q322 704 363.5 689.5 Q405 675 441 643 L391 584 Q369 607 339.5 618.5 Q310 630 281 630 Q243 630 214 609 Q185 588 185 543 Q185 522 192.5 504.5 Q200 487 220 461 L416 197 Q434 229 444 258 Q454 287 461 318 L537 306 Q526 261 509.5 217.5 Q493 174 464 133 L565 0 L470 0 L412 75 Z M367 135 Q332 183 297 230.5 Q262 278 225 326 Q175 294 150 257 Q125 220 125 172 Q125 129 153 100 Q181 71 238 71 Q256 71 274.5 77 Q293 83 310 92 Q327 101 341.5 112.5 Q356 124 367 135 Z " />
<glyph glyph-name="quotesingle" unicode="&#x27;" horiz-adv-x="600" d="M356 696 L343 477 L269 477 L256 696 L356 696 Z " />
<glyph glyph-name="parenleft" unicode="&#x28;" horiz-adv-x="600" d="M392 -120 Q355 -80 321.5 -32 Q288 16 262 70 Q236 124 220.5 183 Q205 242 205 305 Q205 369 220 428.5 Q235 488 260.5 542 Q286 596 319 643 Q352 690 389 730 L435 702 Q403 661 377.5 613.5 Q352 566 333.5 515 Q315 464 305 412 Q295 360 295 310 Q295 256 305.5 202 Q316 148 334.5 97 Q353 46 378.5 -1 Q404 -48 434 -88 L392 -120 L392 -120 Z " />
<glyph glyph-name="parenright" unicode="&#x29;" horiz-adv-x="600" d="M175 -88 Q205 -48 230.5 -1 Q256 46 274.5 97 Q293 148 303.5 202 Q314 256 314 310 Q314 360 304 412 Q294 464 276 515 Q258 566 232 613.5 Q206 661 175 702 L220 730 Q257 690 290.5 643 Q324 596 349.5 542 Q375 488 390 428.5 Q405 369 405 305 Q405 242 389.5 183 Q374 124 348 70 Q322 16 288 -32 Q254 -80 217 -120 L175 -88 Z " />
<glyph glyph-name="asterisk" unicode="&#x2a;" horiz-adv-x="600" d="M418 442 Q404 431 390.5 420.5 Q377 410 362 399 L300 503 L237 398 Q223 409 209 419.5 Q195 430 181 441 L259 532 Q231 539 202.5 547 Q174 555 146 562 L165 627 L276 580 L266 700 L334 700 L324 580 Q351 591 379.5 603 Q408 615 435 627 L454 561 L340 532 L418 442 Z " />
<glyph glyph-name="plus" unicode="&#x2b;" horiz-adv-x="600" d="M332 262 L332 70 L268 70 L268 262 L79 262 L79 326 L268 326 L268 516 L332 516 L332 326 L520 326 L520 262 L332 262 Z " />
<glyph glyph-name="comma" unicode="&#x2c;" horiz-adv-x="600" d="M242 -155 L181 -155 L230 0 L195 0 L195 125 L316 125 L316 2 L242 -155 Z " />
<glyph glyph-name="hyphen" unicode="&#x2d;" horiz-adv-x="600" d="M156 230 L156 305 L444 305 L444 230 L156 230 Z " />
<glyph glyph-name="period" unicode="&#x2e;" horiz-adv-x="600" d="M195 0 L195 126 L314 126 L314 0 L195 0 Z " />
<glyph glyph-name="slash" unicode="&#x2f;" horiz-adv-x="600" d="M207 -42 L142 -42 L393 725 L458 725 L207 -42 Z " />
<glyph glyph-name="zero" unicode="0" horiz-adv-x="600" d="M494 190 Q494 143 478 106.5 Q462 70 435 45 Q408 20 373 7 Q338 -6 300 -6 Q262 -6 227 7 Q192 20 165 45 Q138 70 122 106.5 Q106 143 106 190 L106 506 Q106 553 122 589.5 Q138 626 165 651 Q192 676 227 689 Q262 702 300 702 Q338 702 373 689 Q408 676 435 651 Q462 626 478 589.5 Q494 553 494 506 L494 190 Z M185 214 L400 570 Q386 596 359.5 611 Q333 626 300 626 Q249 626 217 594 Q185 562 185 505 L185 214 Z M415 469 L204 118 Q235 70 300 70 Q351 70 383 102 Q415 134 415 191 L415 469 Z " />
<glyph glyph-name="one" unicode="1" horiz-adv-x="600" d="M133 531 L133 611 L292 696 L375 696 L375 80 L523 80 L523 0 L133 0 L133 80 L293 80 L293 606 L141 528 L133 531 Z " />
<glyph glyph-name="two" unicode="2" horiz-adv-x="600" d="M90 0 L90 80 L360 421 Q399 470 399 522 Q399 542 392.5 560.5 Q386 579 373 593.5 Q360 608 340 617 Q320 626 293 626 Q244 626 214.5 594 Q185 562 178 514 L96 526 Q102 566 120 598.5 Q138 631 164.5 653.5 Q191 676 224.5 688 Q258 700 295 700 Q335 700 370.5 689 Q406 678 431.5 655.5 Q457 633 472 600 Q487 567 487 524 Q487 493 474 456 Q461 419 436 388 L193 81 L480 81 L480 0 L90 0 Z " />
<glyph glyph-name="three" unicode="3" horiz-adv-x="600" d="M380 366 Q411 355 431 335.5 Q451 316 462.5 293 Q474 270 478.5 247 Q483 224 483 207 Q483 163 468 124 Q453 85 425 56 Q397 27 358.5 10.5 Q320 -6 273 -6 Q242 -6 210.5 1.5 Q179 9 152.5 26.5 Q126 44 106.5 73 Q87 102 80 145 L161 157 Q171 112 203 91 Q235 70 275 70 Q336 70 367.5 109.5 Q399 149 399 207 Q399 266 364 298 Q329 330 277 330 L227 330 L227 402 L268 402 Q321 402 354.5 433 Q388 464 388 513 Q388 562 357 594 Q326 626 276 626 Q241 626 207.5 603.5 Q174 581 160 530 L86 545 Q93 579 110.5 608 Q128 637 153 658 Q178 679 209.5 690.5 Q241 702 276 702 Q327 702 364 686.5 Q401 671 424.5 645.5 Q448 620 459.5 586 Q471 552 471 515 Q471 496 466 475 Q461 454 449.5 434 Q438 414 421 397 Q404 380 380 370 L380 366 Z " />
<glyph glyph-name="four" unicode="4" horiz-adv-x="600" d="M457 106 L457 0 L376 0 L376 106 L74 106 L74 186 L313 696 L404 696 L162 183 L376 183 L376 388 L457 388 L457 183 L515 183 L515 106 L457 106 Z " />
<glyph glyph-name="five" unicode="5" horiz-adv-x="600" d="M495 220 Q495 173 482 132 Q469 91 443.5 60.5 Q418 30 379.5 12.5 Q341 -5 290 -5 Q255 -5 223.5 2 Q192 9 166.5 26.5 Q141 44 122.5 72.5 Q104 101 95 145 L177 159 Q186 111 216.5 89.5 Q247 68 290 68 Q330 68 354.5 85 Q379 102 392 127.5 Q405 153 409 183 Q413 213 413 240 Q413 269 408.5 296.5 Q404 324 391.5 346 Q379 368 356.5 381 Q334 394 298 394 Q266 394 241 376 Q216 358 199 330 L118 330 L118 696 L481 696 L481 618 L195 618 L195 424 Q229 454 258.5 462 Q288 470 320 470 Q362 470 395 455 Q428 440 450 413 Q472 386 483.5 348 Q495 310 495 264 L495 220 Z " />
<glyph glyph-name="six" unicode="6" horiz-adv-x="600" d="M498 210 Q498 154 480.5 113 Q463 72 434.5 45.5 Q406 19 369.5 6.5 Q333 -6 295 -6 Q252 -6 216 7 Q180 20 154.5 46.5 Q129 73 115 112 Q101 151 101 202 Q101 233 109.5 271.5 Q118 310 138 350 L318 696 L406 696 L251 393 L254 392 Q268 398 286.5 401 Q305 404 321 404 Q361 404 393.5 388.5 Q426 373 449 346.5 Q472 320 485 284.5 Q498 249 498 210 Z M411 204 Q411 235 402 259 Q393 283 377.5 299.5 Q362 316 341.5 324.5 Q321 333 297 333 Q276 333 255.5 324.5 Q235 316 219 299.5 Q203 283 193 259 Q183 235 183 204 Q183 142 213.5 105 Q244 68 297 68 Q348 68 379.5 105.5 Q411 143 411 204 Z " />
<glyph glyph-name="seven" unicode="7" horiz-adv-x="600" d="M253 0 L161 0 L404 615 L187 615 L187 511 L105 511 L105 696 L494 696 L494 611 L253 0 Z " />
<glyph glyph-name="eight" unicode="8" horiz-adv-x="600" d="M510 195 Q510 149 493 112 Q476 75 447.5 48.5 Q419 22 380 7.5 Q341 -7 298 -7 Q251 -7 212.5 7.5 Q174 22 146.5 48.5 Q119 75 103.5 112 Q88 149 88 195 Q88 243 112 288 Q136 333 187 359 Q141 381 122.5 421.5 Q104 462 104 506 Q104 547 119 583 Q134 619 160.5 645.5 Q187 672 222.5 687 Q258 702 300 702 Q346 702 382 686.5 Q418 671 443.5 644.5 Q469 618 482.5 582 Q496 546 496 505 Q496 459 474 420.5 Q452 382 414 359 Q464 334 487 288.5 Q510 243 510 195 Z M414 510 Q414 538 404 560 Q394 582 378 597.5 Q362 613 341.5 621 Q321 629 300 629 Q278 629 257.5 621 Q237 613 221 597.5 Q205 582 195.5 560 Q186 538 186 510 Q186 482 195.5 460.5 Q205 439 221 424 Q237 409 257.5 401.5 Q278 394 300 394 Q321 394 341.5 401.5 Q362 409 378 424 Q394 439 404 460.5 Q414 482 414 510 Z M427 200 Q427 227 416.5 249.5 Q406 272 388.5 288.5 Q371 305 347.5 314.5 Q324 324 298 324 Q273 324 250 314.5 Q227 305 209 288.5 Q191 272 180.5 249.5 Q170 227 170 200 Q170 173 179 148.5 Q188 124 204.5 105.5 Q221 87 245 76 Q269 65 298 65 Q328 65 352 76 Q376 87 392.5 105.5 Q409 124 418 148.5 Q427 173 427 200 Z " />
<glyph glyph-name="nine" unicode="9" horiz-adv-x="600" d="M101 482 Q101 540 118.5 582 Q136 624 164 650 Q192 676 226.5 688.5 Q261 701 296 701 Q337 701 374 688 Q411 675 438.5 648.5 Q466 622 482.5 583 Q499 544 499 493 Q499 429 473 378 L278 0 L187 0 L349 311 L346 312 Q334 304 314.5 300 Q295 296 279 296 Q239 296 206 309.5 Q173 323 150 348 Q127 373 114 407 Q101 441 101 482 Z M183 492 Q183 461 192.5 436.5 Q202 412 217.5 395.5 Q233 379 254 370.5 Q275 362 299 362 Q323 362 344 370.5 Q365 379 380.5 395.5 Q396 412 405.5 436.5 Q415 461 415 492 Q415 554 383.5 591 Q352 628 299 628 Q248 628 215.5 590.5 Q183 553 183 492 Z " />
<glyph glyph-name="colon" unicode="&#x3a;" horiz-adv-x="600" d="M248 0 L248 111 L351 111 L351 0 L248 0 Z M248 285 L248 396 L351 396 L351 285 L248 285 Z " />
<glyph glyph-name="semicolon" unicode="&#x3b;" horiz-adv-x="600" d="M250 285 L250 396 L353 396 L353 285 L250 285 Z M297 -113 L246 -113 L278 0 L250 0 L250 111 L353 111 L353 2 L297 -113 Z " />
<glyph glyph-name="less" unicode="&#x3c;" horiz-adv-x="600" d="M503 63 L96 265 L96 325 L503 528 L503 457 L177 295 L503 134 L503 63 Z " />
<glyph glyph-name="equal" unicode="&#x3d;" horiz-adv-x="600" d="M79 357 L79 424 L520 424 L520 357 L79 357 Z M79 165 L79 232 L520 232 L520 165 L79 165 Z " />
<glyph glyph-name="greater" unicode="&#x3e;" horiz-adv-x="600" d="M116 134 L442 295 L116 457 L116 528 L523 325 L523 265 L116 63 L116 134 Z " />
<glyph glyph-name="question" unicode="&#x3f;" horiz-adv-x="600" d="M507 517 Q506 487 498 463 Q490 439 478 419 Q466 399 450.5 382 Q435 365 419 348 Q393 321 372.5 294.5 Q352 268 352 234 L352 184 L265 184 L265 236 Q265 271 278.5 301 Q292 331 316 356 Q331 372 348.5 390 Q366 408 381 427.5 Q396 447 406 467.5 Q416 488 416 509 Q416 524 411.5 542.5 Q407 561 394 578 Q381 595 359 606.5 Q337 618 302 618 Q271 618 248.5 604 Q226 590 210.5 570 Q195 550 187 529 Q179 508 177 493 L92 508 Q104 557 125.5 593.5 Q147 630 176 653.5 Q205 677 239.5 688.5 Q274 700 312 700 Q356 700 392 686 Q428 672 453.5 647.5 Q479 623 493 589.5 Q507 556 507 517 Z M262 0 L262 98 L352 98 L352 0 L262 0 Z " />
<glyph glyph-name="at" unicode="&#x40;" horiz-adv-x="600" d="M366 458 L370 496 L429 496 L410 279 Q409 270 407.5 256 Q406 242 406 228 Q406 209 411 194.5 Q416 180 433 180 Q445 180 456.5 192 Q468 204 476 229.5 Q484 255 489 295.5 Q494 336 494 392 Q494 510 455.5 568.5 Q417 627 333 627 Q282 627 240.5 600.5 Q199 574 169 524 Q139 474 123 400 Q107 326 107 232 Q107 123 151 73.5 Q195 24 276 24 Q309 24 346.5 30.5 Q384 37 425 56 L444 -3 Q405 -22 360 -31.5 Q315 -41 283 -41 Q218 -41 171.5 -22 Q125 -3 95.5 32.5 Q66 68 52.5 119.5 Q39 171 39 236 Q39 343 61 427 Q83 511 123 568.5 Q163 626 217.5 656.5 Q272 687 337 687 Q390 687 431 666.5 Q472 646 500 608 Q528 570 542.5 515.5 Q557 461 557 394 Q557 253 518 185 Q479 117 418 117 Q390 117 372.5 133.5 Q355 150 353 179 L351 179 Q335 145 311.5 129.5 Q288 114 259 114 Q235 114 215.5 122 Q196 130 182 148.5 Q168 167 160 198 Q152 229 152 274 Q152 313 160 353 Q168 393 185 426 Q202 459 227.5 480 Q253 501 288 501 Q306 501 327 493.5 Q348 486 364 458 L366 458 Z M213 273 Q213 259 215 242 Q217 225 223 210 Q229 195 240.5 185 Q252 175 270 175 Q294 175 310 189.5 Q326 204 335.5 227.5 Q345 251 349.5 279.5 Q354 308 354 337 Q354 357 351.5 375 Q349 393 343 406.5 Q337 420 326 428 Q315 436 297 436 Q272 436 255.5 420.5 Q239 405 229.5 381 Q220 357 216.5 328.5 Q213 300 213 273 Z " />
<glyph glyph-name="A" unicode="A" horiz-adv-x="600" d="M421 171 L175 171 L121 0 L29 0 L252 696 L348 696 L568 0 L475 0 L421 171 Z M297 583 Q287 549 276 506.5 Q265 464 249 413 L199 246 L398 246 L352 402 Q336 451 324 497.5 Q312 544 301 583 L297 583 Z " />
<glyph glyph-name="B" unicode="B" horiz-adv-x="600" d="M546 196 Q546 152 530.5 115.5 Q515 79 488.5 53.5 Q462 28 427.5 14 Q393 0 354 0 L68 0 L68 696 L325 696 Q427 696 478.5 648 Q530 600 530 519 Q530 498 524.5 475.5 Q519 453 506 432.5 Q493 412 473 394.5 Q453 377 425 367 L425 364 Q455 357 478 339.5 Q501 322 516 298.5 Q531 275 538.5 248.5 Q546 222 546 196 Z M156 619 L156 399 L314 399 Q378 399 410 431.5 Q442 464 442 512 Q442 559 410 589 Q378 619 314 619 L156 619 Z M156 323 L156 81 L329 81 Q362 81 386.5 91.5 Q411 102 426.5 119 Q442 136 450 158 Q458 180 458 203 Q458 226 450 248 Q442 270 426.5 286.5 Q411 303 386.5 313 Q362 323 329 323 L156 323 Z " />
<glyph glyph-name="C" unicode="C" horiz-adv-x="600" d="M553 142 Q527 72 467 33 Q407 -6 322 -6 Q260 -6 213.5 15 Q167 36 136 71 Q105 106 90 153 Q75 200 75 252 L75 444 Q75 495 90 541.5 Q105 588 135 623.5 Q165 659 211 680 Q257 701 319 701 Q404 701 460.5 661 Q517 621 544 554 L462 517 Q445 562 409.5 589 Q374 616 320 616 Q279 616 249.5 601 Q220 586 200.5 561.5 Q181 537 171.5 505 Q162 473 162 440 L162 259 Q162 224 172 191.5 Q182 159 202 134 Q222 109 252 93.5 Q282 78 323 78 Q377 78 415.5 106.5 Q454 135 471 182 L553 142 Z " />
<glyph glyph-name="D" unicode="D" horiz-adv-x="600" d="M292 696 Q370 696 433 666 Q496 636 529 567 Q548 529 552 477 Q556 425 556 360 Q556 287 552 233 Q548 179 531 138 Q514 99 487.5 72.5 Q461 46 428 30 Q395 14 356 7 Q317 0 275 0 L64 0 L64 696 L292 696 Z M468 412 Q468 469 455 508 Q442 547 418 571 Q394 595 361 605 Q328 615 288 615 L152 615 L152 81 L288 81 Q337 81 371.5 95 Q406 109 427.5 135 Q449 161 458.5 197.5 Q468 234 468 279 L468 412 Z " />
<glyph glyph-name="E" unicode="E" horiz-adv-x="600" d="M90 0 L90 696 L516 696 L516 615 L178 615 L178 400 L480 400 L480 323 L178 323 L178 81 L536 81 L536 0 L90 0 Z " />
<glyph glyph-name="F" unicode="F" horiz-adv-x="600" d="M198 615 L198 385 L494 385 L494 308 L198 308 L198 0 L110 0 L110 696 L540 696 L540 615 L198 615 Z " />
<glyph glyph-name="G" unicode="G" horiz-adv-x="600" d="M300 75 Q342 75 372 88.5 Q402 102 421.5 125 Q441 148 450 177.5 Q459 207 459 240 L459 293 L312 293 L312 373 L547 373 L547 241 Q547 188 530.5 142.5 Q514 97 482.5 64 Q451 31 404.5 12 Q358 -7 299 -7 Q236 -7 189.5 12.5 Q143 32 112.5 66 Q82 100 67 145.5 Q52 191 52 243 L52 454 Q52 503 67 548 Q82 593 113 627 Q144 661 190.5 681 Q237 701 299 701 Q384 701 446 662 Q508 623 535 556 L457 516 Q448 538 432.5 557 Q417 576 396 589.5 Q375 603 350.5 610.5 Q326 618 299 618 Q254 618 223 602.5 Q192 587 173.5 562 Q155 537 147 505 Q139 473 139 440 L139 253 Q139 218 147.5 186 Q156 154 175.5 129.5 Q195 105 225.5 90 Q256 75 300 75 Z " />
<glyph glyph-name="H" unicode="H" horiz-adv-x="600" d="M454 0 L454 324 L146 324 L146 0 L58 0 L58 696 L146 696 L146 401 L454 401 L454 696 L542 696 L542 0 L454 0 Z " />
<glyph glyph-name="I" unicode="I" horiz-adv-x="600" d="M122 696 L482 696 L482 616 L341 616 L341 81 L482 81 L482 0 L122 0 L122 81 L253 81 L253 616 L122 616 L122 696 Z " />
<glyph glyph-name="J" unicode="J" horiz-adv-x="600" d="M465 222 Q465 158 448.5 114.5 Q432 71 403 44 Q374 17 335 5.5 Q296 -6 252 -6 Q199 -6 154 14 Q109 34 80 66 L138 131 Q147 122 160 112.5 Q173 103 188 95 Q203 87 219 82 Q235 77 249 77 Q274 77 297 83 Q320 89 338 105 Q356 121 366.5 149.5 Q377 178 377 223 L377 616 L118 616 L118 696 L465 696 L465 222 Z " />
<glyph glyph-name="K" unicode="K" horiz-adv-x="600" d="M338 431 L573 0 L475 0 L283 359 L153 190 L153 0 L65 0 L65 696 L154 696 L154 322 L157 323 L445 696 L541 696 L338 431 Z " />
<glyph glyph-name="L" unicode="L" horiz-adv-x="600" d="M125 0 L125 696 L213 696 L213 81 L555 81 L555 0 L125 0 Z " />
<glyph glyph-name="M" unicode="M" horiz-adv-x="600" d="M451 0 L451 505 L448 503 L339 226 L262 226 L153 505 L150 503 L150 0 L62 0 L62 696 L155 696 L301 326 L304 326 L448 696 L539 696 L539 0 L451 0 Z " />
<glyph glyph-name="N" unicode="N" horiz-adv-x="600" d="M433 0 L170 514 L167 513 L167 0 L79 0 L79 696 L169 696 L432 178 L435 180 L435 696 L522 696 L522 0 L433 0 Z " />
<glyph glyph-name="O" unicode="O" horiz-adv-x="600" d="M299 701 Q357 701 403 681.5 Q449 662 481 628 Q513 594 530 546.5 Q547 499 547 444 L547 252 Q547 193 529.5 145 Q512 97 479.5 63.5 Q447 30 401.5 12 Q356 -6 299 -6 Q236 -6 189.5 15 Q143 36 112.5 71 Q82 106 67 153 Q52 200 52 252 L52 444 Q52 495 67 541.5 Q82 588 113 623.5 Q144 659 190.5 680 Q237 701 299 701 Z M300 618 Q255 618 224.5 603 Q194 588 175 563.5 Q156 539 147.5 507 Q139 475 139 442 L139 257 Q139 222 147.5 189.5 Q156 157 175 132 Q194 107 225 91.5 Q256 76 300 76 Q341 76 371 90 Q401 104 420.5 128 Q440 152 449.5 185 Q459 218 459 257 L459 442 Q459 478 448.5 510 Q438 542 417.5 566 Q397 590 367.5 604 Q338 618 300 618 Z " />
<glyph glyph-name="P" unicode="P" horiz-adv-x="600" d="M547 485 Q547 449 534.5 412 Q522 375 496 346 Q470 317 428.5 298.5 Q387 280 329 280 L175 280 L175 0 L87 0 L87 696 L317 696 Q363 696 405 684 Q447 672 478.5 646.5 Q510 621 528.5 581 Q547 541 547 485 Z M455 488 Q455 552 419.5 583.5 Q384 615 319 615 L175 615 L175 361 L323 361 Q360 361 385.5 372.5 Q411 384 426.5 402 Q442 420 448.5 442.5 Q455 465 455 488 Z " />
<glyph glyph-name="Q" unicode="Q" horiz-adv-x="600" d="M299 701 Q357 701 403 681.5 Q449 662 481 628 Q513 594 530 546.5 Q547 499 547 444 L547 252 Q547 193 530 146.5 Q513 100 482 66 L535 8 L477 -44 L419 20 Q367 -6 299 -6 Q236 -6 189.5 15 Q143 36 112.5 71 Q82 106 67 153 Q52 200 52 252 L52 444 Q52 495 67 541.5 Q82 588 113 623.5 Q144 659 190.5 680 Q237 701 299 701 Z M300 618 Q255 618 224.5 603 Q194 588 175 563.5 Q156 539 147.5 507 Q139 475 139 442 L139 257 Q139 222 147.5 189.5 Q156 157 175 132 Q194 107 225 91.5 Q256 76 300 76 Q334 76 360 85 L295 158 L353 210 L423 131 Q441 155 450 187 Q459 219 459 257 L459 442 Q459 478 448.5 510 Q438 542 417.5 566 Q397 590 367.5 604 Q338 618 300 618 Z " />
<glyph glyph-name="R" unicode="R" horiz-adv-x="600" d="M451 0 L309 295 L171 295 L171 0 L83 0 L83 696 L347 696 Q392 696 429 681.5 Q466 667 492.5 640.5 Q519 614 533.5 578 Q548 542 548 500 Q548 428 507.5 374.5 Q467 321 398 304 L547 0 L451 0 Z M460 500 Q460 559 424 588 Q388 617 331 617 L171 617 L171 374 L327 374 Q392 374 426 407 Q460 440 460 500 Z " />
<glyph glyph-name="S" unicode="S" horiz-adv-x="600" d="M548 198 Q548 151 530.5 113.5 Q513 76 481 50 Q449 24 404.5 10.5 Q360 -3 306 -3 Q274 -3 239.5 3 Q205 9 171.5 21 Q138 33 106 50.5 Q74 68 48 92 L101 159 Q141 120 194.5 98 Q248 76 309 76 Q340 76 367.5 83 Q395 90 415.5 105 Q436 120 447.5 143.5 Q459 167 459 199 Q459 229 446.5 250.5 Q434 272 413 287 Q392 302 363.5 312 Q335 322 304 329 Q265 338 225.5 349 Q186 360 155 380 Q124 400 104.5 432.5 Q85 465 85 516 Q85 562 103.5 597.5 Q122 633 152.5 656 Q183 679 223 691 Q263 703 307 703 Q375 703 428.5 687 Q482 671 524 636 L480 566 Q443 591 402 606 Q361 621 313 621 Q245 621 208 595 Q171 569 171 521 Q171 494 182 475.5 Q193 457 215.5 444 Q238 431 273.5 420.5 Q309 410 358 398 Q390 390 423.5 377.5 Q457 365 484.5 342.5 Q512 320 530 285 Q548 250 548 198 Z " />
<glyph glyph-name="T" unicode="T" horiz-adv-x="600" d="M346 616 L346 0 L258 0 L258 616 L60 616 L60 696 L544 696 L544 616 L346 616 Z " />
<glyph glyph-name="U" unicode="U" horiz-adv-x="600" d="M538 696 L538 254 Q538 198 524 150 Q510 102 480.5 67.5 Q451 33 406 13.5 Q361 -6 300 -6 Q234 -6 188.5 15 Q143 36 115 72 Q87 108 75 155 Q63 202 63 254 L63 696 L150 696 L150 261 Q150 226 157 193.5 Q164 161 181.5 135 Q199 109 228 93.5 Q257 78 301 78 Q382 78 416 126.5 Q450 175 450 261 L450 696 L538 696 Z " />
<glyph glyph-name="V" unicode="V" horiz-adv-x="600" d="M305 108 L473 696 L564 696 L348 0 L252 0 L36 696 L127 696 L300 108 L305 108 Z " />
<glyph glyph-name="W" unicode="W" horiz-adv-x="600" d="M296 361 L197 0 L113 0 L43 696 L131 696 L175 188 L179 188 L260 483 L339 483 L418 195 L422 195 L474 696 L557 696 L477 0 L396 0 L300 361 L296 361 Z " />
<glyph glyph-name="X" unicode="X" horiz-adv-x="600" d="M464 0 L299 284 L135 0 L37 0 L251 357 L51 696 L149 696 L299 430 L450 696 L548 696 L348 357 L562 0 L464 0 Z " />
<glyph glyph-name="Y" unicode="Y" horiz-adv-x="600" d="M342 276 L342 0 L258 0 L258 276 L49 696 L142 696 L239 503 L301 370 L366 509 L460 696 L551 696 L342 276 Z " />
<glyph glyph-name="Z" unicode="Z" horiz-adv-x="600" d="M78 0 L78 77 L420 616 L98 616 L98 696 L520 696 L520 626 L179 81 L530 81 L530 0 L78 0 Z " />
<glyph glyph-name="bracketleft" unicode="&#x5b;" horiz-adv-x="600" d="M245 -105 L245 698 L414 698 L414 642 L320 642 L320 -49 L414 -49 L414 -105 L245 -105 Z " />
<glyph glyph-name="backslash" unicode="&#x5c;" horiz-adv-x="600" d="M142 725 L207 725 L458 -42 L393 -42 L142 725 Z " />
<glyph glyph-name="bracketright" unicode="&#x5d;" horiz-adv-x="600" d="M196 -105 L196 -49 L289 -49 L289 642 L196 642 L196 698 L364 698 L364 -105 L196 -105 Z " />
<glyph glyph-name="asciicircum" unicode="&#x5e;" horiz-adv-x="600" d="M67 328 L269 695 L329 695 L532 328 L461 328 L299 623 L138 328 L67 328 Z " />
<glyph glyph-name="underscore" unicode="&#x5f;" horiz-adv-x="600" d="M50 -129 L50 -69 L550 -69 L550 -129 L50 -129 Z " />
<glyph glyph-name="grave" unicode="&#x60;" horiz-adv-x="600" d="M323 551 L223 723 L304 748 L376 571 L323 551 Z " />
<glyph glyph-name="a" unicode="a" horiz-adv-x="600" d="M282 501 Q322 501 358.5 493.5 Q395 486 422.5 468 Q450 450 466 419 Q482 388 482 341 L482 0 L399 0 L399 43 L398 44 Q384 22 348 8 Q312 -6 261 -6 Q176 -6 130.5 35.5 Q85 77 85 141 Q85 170 95 196.5 Q105 223 124.5 243 Q144 263 173.5 275 Q203 287 243 287 L399 287 L399 343 Q399 384 372 404 Q345 424 285 424 Q238 424 211 412.5 Q184 401 167 381 L115 436 Q143 468 187 484.5 Q231 501 282 501 Z M163 146 Q163 111 189.5 90 Q216 69 271 69 Q295 69 318 73 Q341 77 359 87.5 Q377 98 388 115.5 Q399 133 399 161 L399 219 L263 219 Q215 219 189 200 Q163 181 163 146 Z " />
<glyph glyph-name="b" unicode="b" horiz-adv-x="600" d="M498 255 Q498 208 491.5 161 Q485 114 465.5 77 Q446 40 411.5 17 Q377 -6 321 -6 Q285 -6 248 6 Q211 18 186 55 L184 55 L184 0 L102 0 L102 726 L184 726 L184 440 L186 440 Q218 475 251.5 488 Q285 501 321 501 Q374 501 408 479.5 Q442 458 461.5 423.5 Q481 389 489 345 Q497 301 498 255 Z M413 248 Q413 278 409.5 308.5 Q406 339 394 363.5 Q382 388 359 403.5 Q336 419 298 419 Q260 419 237.5 403 Q215 387 203 362 Q191 337 187.5 306.5 Q184 276 184 248 Q184 221 187.5 189.5 Q191 158 203 131 Q215 104 237.5 86.5 Q260 69 298 69 Q337 69 360 86 Q383 103 394.5 129.5 Q406 156 409.5 187.5 Q413 219 413 248 Z " />
<glyph glyph-name="c" unicode="c" horiz-adv-x="600" d="M513 64 Q481 32 436.5 13 Q392 -6 341 -6 Q298 -6 258 7.5 Q218 21 187 51 Q156 81 137.5 129 Q119 177 119 245 Q119 314 138 362.5 Q157 411 188 441.5 Q219 472 259 486.5 Q299 501 342 501 Q392 501 432 482 Q472 463 504 432 L451 372 Q429 396 399 409 Q369 422 338 422 Q273 422 237 377.5 Q201 333 201 247 Q201 159 239.5 115.5 Q278 72 348 72 Q380 72 410.5 87.5 Q441 103 459 123 L513 64 L513 64 Z " />
<glyph glyph-name="d" unicode="d" horiz-adv-x="600" d="M416 0 L416 48 L413 49 Q380 17 345.5 5.5 Q311 -6 274 -6 Q221 -6 187 14 Q153 34 134 68 Q115 102 108 147.5 Q101 193 101 243 Q101 291 109 337.5 Q117 384 139 420 Q161 456 198 478.5 Q235 501 294 501 Q331 501 363 488.5 Q395 476 414 451 L416 451 L416 726 L498 726 L498 0 L416 0 Z M416 248 Q416 276 412.5 306.5 Q409 337 397.5 362 Q386 387 363.5 403 Q341 419 304 419 Q265 419 242 403.5 Q219 388 207 363.5 Q195 339 191 308.5 Q187 278 187 248 Q187 213 190.5 182 Q194 151 205.5 127 Q217 103 239.5 89 Q262 75 300 75 Q337 75 360 92 Q383 109 395.5 134.5 Q408 160 412 190.5 Q416 221 416 248 Z " />
<glyph glyph-name="e" unicode="e" horiz-adv-x="600" d="M188 220 L188 212 Q188 183 196 157 Q204 131 220 111.5 Q236 92 260 81 Q284 70 316 70 Q340 70 371.5 82 Q403 94 428 117 L481 58 Q446 24 402 9 Q358 -6 312 -6 Q274 -6 236.5 4.5 Q199 15 169 43 Q139 71 120.5 120 Q102 169 102 246 Q102 319 121 368.5 Q140 418 170 447.5 Q200 477 237 489.5 Q274 502 309 502 Q350 502 386 487.5 Q422 473 449 445 Q476 417 491.5 376.5 Q507 336 507 284 L507 220 L188 220 Z M305 424 Q254 424 223 389 Q192 354 188 289 L421 289 Q418 356 387 390 Q356 424 305 424 Z " />
<glyph glyph-name="f" unicode="f" horiz-adv-x="600" d="M522 635 Q504 645 476.5 652.5 Q449 660 423 660 Q371 660 352 634.5 Q333 609 333 568 L333 496 L541 496 L541 424 L333 424 L333 0 L250 0 L250 424 L72 424 L72 496 L250 496 L250 566 Q250 615 264 647.5 Q278 680 302.5 699.5 Q327 719 359.5 727.5 Q392 736 428 736 Q464 736 496.5 728.5 Q529 721 556 705 L522 635 Z " />
<glyph glyph-name="g" unicode="g" horiz-adv-x="600" d="M488 9 Q488 -47 470.5 -87.5 Q453 -128 423.5 -154 Q394 -180 355 -192.5 Q316 -205 273 -205 Q231 -205 188 -192 Q145 -179 113 -148 L162 -81 Q182 -98 214 -112 Q246 -126 275 -126 Q331 -126 368 -94 Q405 -62 405 -2 L405 56 L403 56 Q372 21 338.5 8 Q305 -5 268 -5 Q215 -5 181 15.5 Q147 36 127 70 Q107 104 99 147.5 Q91 191 91 237 Q91 285 97.5 332.5 Q104 380 124 417.5 Q144 455 180.5 478.5 Q217 502 276 502 Q312 502 347.5 486 Q383 470 403 441 L405 441 L405 496 L488 496 L488 9 Z M176 248 Q176 214 179.5 183 Q183 152 194.5 128.5 Q206 105 228.5 91 Q251 77 289 77 Q326 77 349 93 Q372 109 384.5 134 Q397 159 401 189.5 Q405 220 405 248 Q405 273 402.5 303 Q400 333 388.5 359.5 Q377 386 354 403.5 Q331 421 291 421 Q252 421 229 405 Q206 389 194.5 364 Q183 339 179.5 308.5 Q176 278 176 248 Z " />
<glyph glyph-name="h" unicode="h" horiz-adv-x="600" d="M414 0 L414 297 Q414 354 390.5 387 Q367 420 305 420 Q280 420 258.5 411.5 Q237 403 220.5 387 Q204 371 194.5 348 Q185 325 185 297 L185 0 L103 0 L103 726 L185 726 L185 434 L188 434 Q214 466 250 483.5 Q286 501 326 501 Q362 501 393 490.5 Q424 480 447 458.5 Q470 437 483 404.5 Q496 372 496 329 L496 0 L414 0 Z " />
<glyph glyph-name="i" unicode="i" horiz-adv-x="600" d="M495 0 L142 0 L142 76 L281 76 L281 424 L141 424 L141 496 L363 496 L363 76 L495 76 L495 0 Z M263 596 L263 696 L363 696 L363 596 L263 596 Z " />
<glyph glyph-name="j" unicode="j" horiz-adv-x="600" d="M174 -196 L174 -121 L226 -121 Q247 -121 262 -118 Q277 -115 286 -105.5 Q295 -96 299.5 -79.5 Q304 -63 304 -36 L304 424 L144 424 L144 496 L387 496 L387 -43 Q387 -76 380.5 -104.5 Q374 -133 357 -153 Q340 -173 311 -184.5 Q282 -196 237 -196 L174 -196 Z M287 596 L287 696 L387 696 L387 596 L287 596 Z " />
<glyph glyph-name="k" unicode="k" horiz-adv-x="600" d="M453 0 L289 249 L199 150 L199 0 L117 0 L117 726 L199 726 L199 257 L202 257 L416 496 L513 496 L344 309 L548 0 L453 0 Z " />
<glyph glyph-name="l" unicode="l" horiz-adv-x="600" d="M495 0 L142 0 L142 76 L281 76 L281 654 L141 654 L141 726 L363 726 L363 76 L495 76 L495 0 Z " />
<glyph glyph-name="m" unicode="m" horiz-adv-x="600" d="M454 0 L454 343 Q454 376 444.5 400 Q435 424 404 424 Q371 424 356 393 Q341 362 341 307 L341 0 L264 0 L264 327 Q264 368 253 395 Q242 422 208 422 Q174 422 160.5 392.5 Q147 363 147 320 L147 0 L68 0 L68 496 L145 496 L145 453 L149 453 Q165 476 185 488.5 Q205 501 232 501 Q255 501 278 489.5 Q301 478 312 439 L316 439 Q338 475 364 488 Q390 501 419 501 Q482 501 507.5 463 Q533 425 533 358 L533 0 L454 0 Z " />
<glyph glyph-name="n" unicode="n" horiz-adv-x="600" d="M414 0 L414 288 Q414 352 392 386 Q370 420 315 420 Q255 420 220 387 Q185 354 185 297 L185 0 L103 0 L103 496 L185 496 L185 434 L188 434 Q214 466 252.5 483.5 Q291 501 331 501 Q367 501 397 490.5 Q427 480 449 458.5 Q471 437 483.5 404.5 Q496 372 496 329 L496 0 L414 0 Z " />
<glyph glyph-name="o" unicode="o" horiz-adv-x="600" d="M303 500 Q359 500 402 478.5 Q445 457 471 417 Q488 390 496.5 351.5 Q505 313 505 265 Q505 201 498 157.5 Q491 114 474 85 Q448 41 404 17.5 Q360 -6 296 -6 Q242 -6 200 12.5 Q158 31 132 69 Q112 100 103.5 143 Q95 186 95 246 Q95 288 100.5 324.5 Q106 361 120 390 Q145 444 193 472 Q241 500 303 500 Z M301 426 Q225 426 195 359 Q184 336 181 307 Q178 278 177 245 Q177 212 179 184.5 Q181 157 191 135 Q205 103 232.5 86 Q260 69 297 69 Q340 69 370 90 Q400 111 414 157 Q419 175 420.5 198.5 Q422 222 422 262 Q422 291 419.5 314 Q417 337 409 355 Q395 392 365.5 409 Q336 426 301 426 Z " />
<glyph glyph-name="p" unicode="p" horiz-adv-x="600" d="M183 496 L183 441 L186 440 Q215 473 249.5 487 Q284 501 321 501 Q374 501 408.5 479.5 Q443 458 463 422.5 Q483 387 490.5 342.5 Q498 298 498 252 Q498 204 490 157.5 Q482 111 460 75 Q438 39 400.5 16.5 Q363 -6 305 -6 Q268 -6 237.5 6 Q207 18 185 44 L183 44 L183 -198 L101 -198 L101 496 L183 496 Z M183 247 Q183 219 186.5 188.5 Q190 158 201.5 133 Q213 108 235 92 Q257 76 295 76 Q334 76 357 91.5 Q380 107 392 131.5 Q404 156 408 186.5 Q412 217 412 247 Q412 276 409 306.5 Q406 337 395 362.5 Q384 388 361.5 404 Q339 420 300 420 Q262 420 239 403 Q216 386 203.5 360.5 Q191 335 187 304.5 Q183 274 183 247 Z " />
<glyph glyph-name="q" unicode="q" horiz-adv-x="600" d="M98 240 Q98 295 107.5 342.5 Q117 390 139 425 Q161 460 198 480.5 Q235 501 290 501 Q326 501 358 484.5 Q390 468 410 438 L412 438 L412 496 L494 496 L494 -197 L412 -197 L412 55 L410 55 Q378 20 342.5 7 Q307 -6 271 -6 Q218 -6 184.5 15.5 Q151 37 132 71.5 Q113 106 106 150 Q99 194 98 240 Z M183 247 Q183 217 186.5 186.5 Q190 156 202 131.5 Q214 107 237 91.5 Q260 76 298 76 Q335 76 357.5 92 Q380 108 392 133 Q404 158 408 188.5 Q412 219 412 247 Q412 274 408.5 305.5 Q405 337 393 364 Q381 391 358.5 408.5 Q336 426 298 426 Q259 426 236 409 Q213 392 201.5 365.5 Q190 339 186.5 307.5 Q183 276 183 247 Z " />
<glyph glyph-name="r" unicode="r" horiz-adv-x="600" d="M493 391 Q473 406 447.5 413.5 Q422 421 399 421 Q344 421 310.5 390.5 Q277 360 277 300 L277 0 L195 0 L195 496 L277 496 L277 433 L281 433 Q308 470 344.5 485.5 Q381 501 421 501 Q447 501 478.5 492.5 Q510 484 530 470 L493 391 Z " />
<glyph glyph-name="s" unicode="s" horiz-adv-x="600" d="M501 147 Q501 112 487 84 Q473 56 447 36 Q421 16 385 5 Q349 -6 306 -6 Q252 -6 198 11 Q144 28 99 66 L149 129 Q184 99 222.5 84 Q261 69 310 69 Q355 69 387 87.5 Q419 106 419 145 Q419 177 397.5 191.5 Q376 206 344 213 Q312 220 274 225.5 Q236 231 204 244 Q172 257 150.5 283 Q129 309 129 358 Q129 392 143.5 419 Q158 446 182.5 464 Q207 482 240 491.5 Q273 501 310 501 Q367 501 409.5 487 Q452 473 487 447 L443 381 Q414 401 381.5 413 Q349 425 304 425 Q261 425 235 408 Q209 391 209 362 Q209 328 240.5 312.5 Q272 297 345 287 Q375 283 403 274.5 Q431 266 453 250.5 Q475 235 488 209.5 Q501 184 501 147 Z " />
<glyph glyph-name="t" unicode="t" horiz-adv-x="600" d="M93 424 L93 496 L228 496 L228 636 L309 636 L309 496 L535 496 L535 424 L309 424 L309 170 Q309 150 312.5 131.5 Q316 113 325.5 99 Q335 85 352.5 76.5 Q370 68 399 68 Q428 68 457.5 77.5 Q487 87 512 109 L553 44 Q510 12 467 2.5 Q424 -7 394 -7 Q358 -7 327 1.5 Q296 10 273.5 29.5 Q251 49 238.5 81 Q226 113 226 161 L226 424 L93 424 Z " />
<glyph glyph-name="u" unicode="u" horiz-adv-x="600" d="M414 0 L414 56 L411 56 Q386 24 349.5 9 Q313 -6 275 -6 Q237 -6 205 3.5 Q173 13 150.5 34 Q128 55 115.5 88 Q103 121 103 167 L103 496 L185 496 L185 198 Q185 166 190 142 Q195 118 208 102.5 Q221 87 243 79.5 Q265 72 299 72 Q348 72 381 106.5 Q414 141 414 198 L414 496 L496 496 L496 0 L414 0 Z " />
<glyph glyph-name="v" unicode="v" horiz-adv-x="600" d="M304 115 Q315 152 329.5 197 Q344 242 356 279 L428 496 L519 496 L336 0 L264 0 L80 496 L170 496 L242 280 Q253 248 268 205.5 Q283 163 300 115 L304 115 Z " />
<glyph glyph-name="w" unicode="w" horiz-adv-x="600" d="M299 259 L218 0 L134 0 L41 496 L125 496 L186 133 L190 133 L266 376 L342 376 L422 133 L427 133 L481 496 L562 496 L472 0 L387 0 L305 259 L299 259 Z " />
<glyph glyph-name="x" unicode="x" horiz-adv-x="600" d="M417 0 L300 189 L183 0 L84 0 L253 254 L92 496 L190 496 L300 313 L410 496 L509 496 L347 253 L516 0 L417 0 Z " />
<glyph glyph-name="y" unicode="y" horiz-adv-x="600" d="M325 -52 Q308 -99 288.5 -127.5 Q269 -156 246.5 -171.5 Q224 -187 199 -192 Q174 -197 146 -197 L110 -197 L110 -125 L145 -125 Q182 -125 206.5 -107.5 Q231 -90 247 -40 L263 10 L81 496 L172 496 L251 271 Q262 241 276 201 Q290 161 303 116 L307 116 Q321 160 332.5 197 Q344 234 356 270 L433 496 L519 496 L325 -52 Z " />
<glyph glyph-name="z" unicode="z" horiz-adv-x="600" d="M116 0 L116 68 L389 424 L137 424 L137 496 L483 496 L483 425 L214 76 L492 76 L492 0 L116 0 Z " />
<glyph glyph-name="braceleft" unicode="&#x7b;" horiz-adv-x="600" d="M351 -103 Q312 -103 285.5 -74 Q259 -45 259 4 L259 143 Q259 196 240 231 Q221 266 181 271 L181 322 Q201 325 215.5 336.5 Q230 348 240 365.5 Q250 383 254.5 405.5 Q259 428 259 452 L259 588 Q259 638 285.5 667 Q312 696 351 696 L419 696 L419 642 L378 642 Q364 642 355.5 634 Q347 626 341.5 613.5 Q336 601 334 585.5 Q332 570 332 555 L332 430 Q332 398 323 374.5 Q314 351 302 335 Q290 319 277.5 310.5 Q265 302 257 299 L257 296 Q265 293 277.5 284.5 Q290 276 302 260 Q314 244 323 221 Q332 198 332 167 L332 37 Q332 22 334 6.5 Q336 -9 341.5 -21.5 Q347 -34 355.5 -42 Q364 -50 378 -50 L419 -50 L419 -103 L351 -103 Z " />
<glyph glyph-name="bar" unicode="&#x7c;" horiz-adv-x="600" d="M267 -162 L267 716 L332 716 L332 -162 L267 -162 Z " />
<glyph glyph-name="braceright" unicode="&#x7d;" horiz-adv-x="600" d="M419 271 Q379 266 360.5 231 Q342 196 342 143 L342 4 Q342 -45 315.5 -74 Q289 -103 250 -103 L181 -103 L181 -50 L223 -50 Q236 -50 245 -42 Q254 -34 259 -21.5 Q264 -9 266.5 6.5 Q269 22 269 37 L269 167 Q269 198 277.5 221 Q286 244 298 260 Q310 276 323 284.5 Q336 293 344 296 L344 299 Q336 302 323 310.5 Q310 319 298 335 Q286 351 277.5 374.5 Q269 398 269 430 L269 555 Q269 570 268.5 585.5 Q268 601 263.5 613.5 Q259 626 249.5 634 Q240 642 223 642 L181 642 L181 692 L247 692 Q295 692 318.5 662.5 Q342 633 342 588 L342 452 Q342 428 346.5 405.5 Q351 383 360.5 365.5 Q370 348 384.5 336.5 Q399 325 419 322 L419 271 L419 271 Z " />
<glyph glyph-name="asciitilde" unicode="&#x7e;" horiz-adv-x="600" d="M525 312 Q497 267 466.5 244 Q436 221 390 221 Q370 221 346.5 231 Q323 241 299 253.5 Q275 266 251.5 276 Q228 286 207 286 Q180 286 165 273 Q150 260 131 235 L74 274 Q101 320 135 340 Q169 360 208 360 Q231 360 254.5 350 Q278 340 301.5 327.5 Q325 315 347.5 305 Q370 295 391 295 Q416 295 432 311.5 Q448 328 468 355 L525 312 L525 312 Z " />
<glyph glyph-name="agrave" unicode="&#xe0;" horiz-adv-x="600" d="M282 501 Q322 501 358.5 493.5 Q395 486 422.5 468 Q450 450 466 419 Q482 388 482 341 L482 0 L399 0 L399 43 L398 44 Q384 22 348 8 Q312 -6 261 -6 Q176 -6 130.5 35.5 Q85 77 85 141 Q85 170 95 196.5 Q105 223 124.5 243 Q144 263 173.5 275 Q203 287 243 287 L399 287 L399 343 Q399 384 372 404 Q345 424 285 424 Q238 424 211 412.5 Q184 401 167 381 L115 436 Q143 468 187 484.5 Q231 501 282 501 Z M163 146 Q163 111 189.5 90 Q216 69 271 69 Q295 69 318 73 Q341 77 359 87.5 Q377 98 388 115.5 Q399 133 399 161 L399 219 L263 219 Q215 219 189 200 Q163 181 163 146 Z M284 551 L184 723 L265 748 L337 571 L284 551 Z " />
<glyph glyph-name="acircumflex" unicode="&#xe2;" horiz-adv-x="600" d="M282 501 Q322 501 358.5 493.5 Q395 486 422.5 468 Q450 450 466 419 Q482 388 482 341 L482 0 L399 0 L399 43 L398 44 Q384 22 348 8 Q312 -6 261 -6 Q176 -6 130.5 35.5 Q85 77 85 141 Q85 170 95 196.5 Q105 223 124.5 243 Q144 263 173.5 275 Q203 287 243 287 L399 287 L399 343 Q399 384 372 404 Q345 424 285 424 Q238 424 211 412.5 Q184 401 167 381 L115 436 Q143 468 187 484.5 Q231 501 282 501 Z M163 146 Q163 111 189.5 90 Q216 69 271 69 Q295 69 318 73 Q341 77 359 87.5 Q377 98 388 115.5 Q399 133 399 161 L399 219 L263 219 Q215 219 189 200 Q163 181 163 146 Z M292 659 L158 552 L119 590 L269 743 L322 743 L465 592 L425 553 L292 659 Z " />
<glyph glyph-name="adieresis" unicode="&#xe4;" horiz-adv-x="600" d="M282 501 Q322 501 358.5 493.5 Q395 486 422.5 468 Q450 450 466 419 Q482 388 482 341 L482 0 L399 0 L399 43 L398 44 Q384 22 348 8 Q312 -6 261 -6 Q176 -6 130.5 35.5 Q85 77 85 141 Q85 170 95 196.5 Q105 223 124.5 243 Q144 263 173.5 275 Q203 287 243 287 L399 287 L399 343 Q399 384 372 404 Q345 424 285 424 Q238 424 211 412.5 Q184 401 167 381 L115 436 Q143 468 187 484.5 Q231 501 282 501 Z M163 146 Q163 111 189.5 90 Q216 69 271 69 Q295 69 318 73 Q341 77 359 87.5 Q377 98 388 115.5 Q399 133 399 161 L399 219 L263 219 Q215 219 189 200 Q163 181 163 146 Z M342 597 L342 685 L430 685 L430 597 L342 597 Z M162 597 L162 685 L250 685 L250 597 L162 597 Z " />
<glyph glyph-name="dieresis" unicode="&#xa8;" horiz-adv-x="600" d="M346 597 L346 685 L434 685 L434 597 L346 597 Z M166 597 L166 685 L254 685 L254 597 L166 597 Z " />
<glyph glyph-name="ccedilla" unicode="&#xe7;" horiz-adv-x="600" d="M513 64 Q481 32 437 13.5 Q393 -5 342 -6 L332 -39 Q361 -41 380 -49.5 Q399 -58 410.5 -70.5 Q422 -83 427 -97 Q432 -111 432 -123 Q432 -136 426.5 -150.5 Q421 -165 408.5 -177.5 Q396 -190 375.5 -198 Q355 -206 324 -206 Q304 -206 283 -202.5 Q262 -199 237 -188 L254 -145 Q275 -154 292.5 -157 Q310 -160 324 -160 Q344 -160 357.5 -150 Q371 -140 371 -124 Q371 -105 355 -94.5 Q339 -84 313 -84 L299 -84 L279 -63 L298 -2 Q262 4 229.5 20.5 Q197 37 172.5 67 Q148 97 133.5 141 Q119 185 119 245 Q119 314 138 362.5 Q157 411 188 441.5 Q219 472 259 486.5 Q299 501 342 501 Q392 501 432 482 Q472 463 504 432 L451 372 Q429 396 399 409 Q369 422 338 422 Q273 422 237 377.5 Q201 333 201 247 Q201 159 239.5 115.5 Q278 72 348 72 Q380 72 410.5 87.5 Q441 103 459 123 L513 64 L513 64 Z " />
<glyph glyph-name="eacute" unicode="&#xe9;" horiz-adv-x="600" d="M188 220 L188 212 Q188 183 196 157 Q204 131 220 111.5 Q236 92 260 81 Q284 70 316 70 Q340 70 371.5 82 Q403 94 428 117 L481 58 Q446 24 402 9 Q358 -6 312 -6 Q274 -6 236.5 4.5 Q199 15 169 43 Q139 71 120.5 120 Q102 169 102 246 Q102 319 121 368.5 Q140 418 170 447.5 Q200 477 237 489.5 Q274 502 309 502 Q350 502 386 487.5 Q422 473 449 445 Q476 417 491.5 376.5 Q507 336 507 284 L507 220 L188 220 Z M305 424 Q254 424 223 389 Q192 354 188 289 L421 289 Q418 356 387 390 Q356 424 305 424 Z M265 571 L337 748 L418 723 L318 551 L265 571 Z " />
<glyph glyph-name="egrave" unicode="&#xe8;" horiz-adv-x="600" d="M188 220 L188 212 Q188 183 196 157 Q204 131 220 111.5 Q236 92 260 81 Q284 70 316 70 Q340 70 371.5 82 Q403 94 428 117 L481 58 Q446 24 402 9 Q358 -6 312 -6 Q274 -6 236.5 4.5 Q199 15 169 43 Q139 71 120.5 120 Q102 169 102 246 Q102 319 121 368.5 Q140 418 170 447.5 Q200 477 237 489.5 Q274 502 309 502 Q350 502 386 487.5 Q422 473 449 445 Q476 417 491.5 376.5 Q507 336 507 284 L507 220 L188 220 Z M305 424 Q254 424 223 389 Q192 354 188 289 L421 289 Q418 356 387 390 Q356 424 305 424 Z M304 551 L204 723 L285 748 L357 571 L304 551 Z " />
<glyph glyph-name="ecircumflex" unicode="&#xea;" horiz-adv-x="600" d="M188 220 L188 212 Q188 183 196 157 Q204 131 220 111.5 Q236 92 260 81 Q284 70 316 70 Q340 70 371.5 82 Q403 94 428 117 L481 58 Q446 24 402 9 Q358 -6 312 -6 Q274 -6 236.5 4.5 Q199 15 169 43 Q139 71 120.5 120 Q102 169 102 246 Q102 319 121 368.5 Q140 418 170 447.5 Q200 477 237 489.5 Q274 502 309 502 Q350 502 386 487.5 Q422 473 449 445 Q476 417 491.5 376.5 Q507 336 507 284 L507 220 L188 220 Z M305 424 Q254 424 223 389 Q192 354 188 289 L421 289 Q418 356 387 390 Q356 424 305 424 Z M315 659 L181 552 L142 590 L292 743 L345 743 L488 592 L448 553 L315 659 Z " />
<glyph glyph-name="edieresis" unicode="&#xeb;" horiz-adv-x="600" d="M188 220 L188 212 Q188 183 196 157 Q204 131 220 111.5 Q236 92 260 81 Q284 70 316 70 Q340 70 371.5 82 Q403 94 428 117 L481 58 Q446 24 402 9 Q358 -6 312 -6 Q274 -6 236.5 4.5 Q199 15 169 43 Q139 71 120.5 120 Q102 169 102 246 Q102 319 121 368.5 Q140 418 170 447.5 Q200 477 237 489.5 Q274 502 309 502 Q350 502 386 487.5 Q422 473 449 445 Q476 417 491.5 376.5 Q507 336 507 284 L507 220 L188 220 Z M305 424 Q254 424 223 389 Q192 354 188 289 L421 289 Q418 356 387 390 Q356 424 305 424 Z M362 597 L362 685 L450 685 L450 597 L362 597 Z M182 597 L182 685 L270 685 L270 597 L182 597 Z " />
<glyph glyph-name="sterling" unicode="&#xa3;" horiz-adv-x="600" d="M93 362 L162 362 Q151 402 136 440.5 Q121 479 121 521 Q121 555 133.5 587.5 Q146 620 170 645 Q194 670 228 685 Q262 700 306 700 Q340 700 367.5 696.5 Q395 693 418.5 682.5 Q442 672 463.5 653.5 Q485 635 507 605 L435 554 Q407 596 373 609.5 Q339 623 304 623 Q290 623 274.5 617.5 Q259 612 245.5 599.5 Q232 587 223 567.5 Q214 548 214 521 Q214 500 218.5 480 Q223 460 229.5 440.5 Q236 421 243 401.5 Q250 382 254 362 L413 362 L413 294 L261 294 Q259 240 247 184.5 Q235 129 200 76 L506 76 L506 0 L93 0 L93 64 Q129 112 153.5 170 Q178 228 180 294 L93 294 L93 362 Z " />
<glyph glyph-name="trademark" unicode="&#x2122;" horiz-adv-x="600" d="M481 389 L481 578 L432 472 L384 472 L334 576 L334 389 L280 389 L280 695 L333 695 L408 541 L483 695 L537 695 L537 389 L481 389 Z M180 643 L180 390 L124 390 L124 643 L43 643 L43 696 L262 696 L262 643 L180 643 Z " />
<glyph glyph-name="icircumflex" unicode="&#xee;" horiz-adv-x="600" d="M495 0 L142 0 L142 76 L281 76 L281 424 L141 424 L141 496 L363 496 L363 76 L495 76 L495 0 Z M299 659 L165 552 L126 590 L276 743 L329 743 L472 592 L432 553 L299 659 Z " />
<glyph glyph-name="idieresis" unicode="&#xef;" horiz-adv-x="600" d="M495 0 L142 0 L142 76 L281 76 L281 424 L141 424 L141 496 L363 496 L363 76 L495 76 L495 0 Z M345 597 L345 685 L433 685 L433 597 L345 597 Z M165 597 L165 685 L253 685 L253 597 L165 597 Z " />
<glyph glyph-name="bullet" unicode="&#x2022;" horiz-adv-x="600" d="M431 267 Q431 240 420.5 216 Q410 192 392 174.5 Q374 157 350 146.5 Q326 136 299 136 Q272 136 248 146.5 Q224 157 206 174.5 Q188 192 178 216 Q168 240 168 267 Q168 294 178 318 Q188 342 206 359.5 Q224 377 248 387.5 Q272 398 299 398 Q326 398 350 387.5 Q374 377 392 359.5 Q410 342 420.5 318 Q431 294 431 267 Z " />
<glyph glyph-name="ocircumflex" unicode="&#xf4;" horiz-adv-x="600" d="M303 500 Q359 500 402 478.5 Q445 457 471 417 Q488 390 496.5 351.5 Q505 313 505 265 Q505 201 498 157.5 Q491 114 474 85 Q448 41 404 17.5 Q360 -6 296 -6 Q242 -6 200 12.5 Q158 31 132 69 Q112 100 103.5 143 Q95 186 95 246 Q95 288 100.5 324.5 Q106 361 120 390 Q145 444 193 472 Q241 500 303 500 Z M301 426 Q225 426 195 359 Q184 336 181 307 Q178 278 177 245 Q177 212 179 184.5 Q181 157 191 135 Q205 103 232.5 86 Q260 69 297 69 Q340 69 370 90 Q400 111 414 157 Q419 175 420.5 198.5 Q422 222 422 262 Q422 291 419.5 314 Q417 337 409 355 Q395 392 365.5 409 Q336 426 301 426 Z M299 659 L165 552 L126 590 L276 743 L329 743 L472 592 L432 553 L299 659 Z " />
<glyph glyph-name="odieresis" unicode="&#xf6;" horiz-adv-x="600" d="M303 500 Q359 500 402 478.5 Q445 457 471 417 Q488 390 496.5 351.5 Q505 313 505 265 Q505 201 498 157.5 Q491 114 474 85 Q448 41 404 17.5 Q360 -6 296 -6 Q242 -6 200 12.5 Q158 31 132 69 Q112 100 103.5 143 Q95 186 95 246 Q95 288 100.5 324.5 Q106 361 120 390 Q145 444 193 472 Q241 500 303 500 Z M301 426 Q225 426 195 359 Q184 336 181 307 Q178 278 177 245 Q177 212 179 184.5 Q181 157 191 135 Q205 103 232.5 86 Q260 69 297 69 Q340 69 370 90 Q400 111 414 157 Q419 175 420.5 198.5 Q422 222 422 262 Q422 291 419.5 314 Q417 337 409 355 Q395 392 365.5 409 Q336 426 301 426 Z M343 597 L343 685 L431 685 L431 597 L343 597 Z M163 597 L163 685 L251 685 L251 597 L163 597 Z " />
<glyph glyph-name="sfthyphen" unicode="&#xad;" horiz-adv-x="600" d="M156 230 L156 305 L444 305 L444 230 L156 230 Z " />
<glyph glyph-name="ugrave" unicode="&#xf9;" horiz-adv-x="600" d="M414 0 L414 56 L411 56 Q386 24 349.5 9 Q313 -6 275 -6 Q237 -6 205 3.5 Q173 13 150.5 34 Q128 55 115.5 88 Q103 121 103 167 L103 496 L185 496 L185 198 Q185 166 190 142 Q195 118 208 102.5 Q221 87 243 79.5 Q265 72 299 72 Q348 72 381 106.5 Q414 141 414 198 L414 496 L496 496 L496 0 L414 0 Z M291 551 L191 723 L272 748 L344 571 L291 551 Z " />
<glyph glyph-name="ucircumflex" unicode="&#xfb;" horiz-adv-x="600" d="M414 0 L414 56 L411 56 Q386 24 349.5 9 Q313 -6 275 -6 Q237 -6 205 3.5 Q173 13 150.5 34 Q128 55 115.5 88 Q103 121 103 167 L103 496 L185 496 L185 198 Q185 166 190 142 Q195 118 208 102.5 Q221 87 243 79.5 Q265 72 299 72 Q348 72 381 106.5 Q414 141 414 198 L414 496 L496 496 L496 0 L414 0 Z M299 659 L165 552 L126 590 L276 743 L329 743 L472 592 L432 553 L299 659 Z " />
<glyph glyph-name="udieresis" unicode="&#xfc;" horiz-adv-x="600" d="M414 0 L414 56 L411 56 Q386 24 349.5 9 Q313 -6 275 -6 Q237 -6 205 3.5 Q173 13 150.5 34 Q128 55 115.5 88 Q103 121 103 167 L103 496 L185 496 L185 198 Q185 166 190 142 Q195 118 208 102.5 Q221 87 243 79.5 Q265 72 299 72 Q348 72 381 106.5 Q414 141 414 198 L414 496 L496 496 L496 0 L414 0 Z M342 597 L342 685 L430 685 L430 597 L342 597 Z M162 597 L162 685 L250 685 L250 597 L162 597 Z " />
<glyph glyph-name="dagger" unicode="&#x2020;" horiz-adv-x="600" d="M340 390 L340 -186 L260 -186 L260 390 L90 390 L90 456 L260 456 L260 696 L340 696 L340 456 L510 456 L510 390 L340 390 Z " />
<glyph glyph-name="&amp;#x394;" unicode="&#x394;" horiz-adv-x="600" d="M29 0 L253 696 L347 696 L568 0 L29 0 Z M301 585 L298 585 L148 81 L450 81 L301 585 Z " />
<glyph glyph-name="&amp;#x2206;" unicode="&#x2206;" horiz-adv-x="600" d="M29 0 L253 696 L347 696 L568 0 L29 0 Z M301 585 L298 585 L148 81 L450 81 L301 585 Z " />
<glyph glyph-name="germandbls" unicode="&#xdf;" horiz-adv-x="600" d="M499 231 Q499 189 488.5 147 Q478 105 454.5 71.5 Q431 38 393 17.5 Q355 -3 299 -3 L261 -3 L261 68 L297 68 Q330 68 352 81.5 Q374 95 387.5 118 Q401 141 406.5 171 Q412 201 412 233 Q412 258 406.5 283 Q401 308 388 328.5 Q375 349 355 361.5 Q335 374 306 374 L271 374 L271 445 L302 445 Q323 445 339.5 453.5 Q356 462 368 476.5 Q380 491 386.5 510 Q393 529 393 549 Q393 570 387 590 Q381 610 368.5 625 Q356 640 336.5 649.5 Q317 659 289 659 Q257 659 236.5 648 Q216 637 204 619.5 Q192 602 187 581 Q182 560 182 540 L182 0 L100 0 L100 536 Q100 581 114 616.5 Q128 652 153.5 677.5 Q179 703 214.5 716.5 Q250 730 294 730 Q338 730 371.5 715 Q405 700 428 675.5 Q451 651 463 620 Q475 589 475 557 Q475 537 470.5 515 Q466 493 456 473 Q446 453 431.5 436.5 Q417 420 396 411 Q424 403 443.5 385 Q463 367 475.5 342 Q488 317 493.5 288 Q499 259 499 231 Z " />
<glyph glyph-name="registered" unicode="&#xae;" horiz-adv-x="600" d="M509 492 Q509 447 493 409.5 Q477 372 449 344 Q421 316 383 300.5 Q345 285 300 285 Q256 285 217.5 300.5 Q179 316 151 344 Q123 372 107 409.5 Q91 447 91 492 Q91 537 107 575.5 Q123 614 151 642 Q179 670 217.5 686 Q256 702 300 702 Q345 702 383 686 Q421 670 449 642 Q477 614 493 575.5 Q509 537 509 492 Z M469 492 Q469 529 456 560.5 Q443 592 420.5 615 Q398 638 367 651 Q336 664 300 664 Q264 664 233 651 Q202 638 179.5 615 Q157 592 144 560.5 Q131 529 131 492 Q131 456 144 424.5 Q157 393 179.5 370.5 Q202 348 233 335 Q264 322 300 322 Q336 322 367 335 Q398 348 420.5 370.5 Q443 393 456 424.5 Q469 456 469 492 Z M305 472 L263 472 L263 371 L222 371 L222 613 L322 613 Q352 613 373 594.5 Q394 576 394 544 Q394 521 381 503.5 Q368 486 347 478 L403 371 L356 371 L305 472 Z M263 576 L263 510 L315 510 Q332 510 342.5 519 Q353 528 353 544 Q353 576 316 576 L263 576 Z " />
<glyph glyph-name="copyright" unicode="&#xa9;" horiz-adv-x="600" d="M458 222 Q439 177 403 151.5 Q367 126 314 126 Q276 126 247 139 Q218 152 199 174 Q180 196 170.5 225 Q161 254 161 286 L161 392 Q161 424 170.5 453 Q180 482 199 503.5 Q218 525 247 538 Q276 551 314 551 Q367 551 403.5 525.5 Q440 500 457 457 L402 433 Q391 460 368.5 477 Q346 494 315 494 Q267 494 243.5 464 Q220 434 220 389 L220 290 Q220 246 244 214 Q268 182 315 182 Q347 182 369 200.5 Q391 219 402 248 L458 222 Z M310 691 Q368 691 414 671.5 Q460 652 492 617.5 Q524 583 541 536 Q558 489 558 433 L558 258 Q558 199 540.5 151 Q523 103 490.5 69.5 Q458 36 412.5 18 Q367 0 310 0 Q247 0 200.5 21 Q154 42 123.5 77 Q93 112 78 159 Q63 206 63 258 L63 433 Q63 484 78 531 Q93 578 124 613.5 Q155 649 201.5 670 Q248 691 310 691 Z M311 640 Q258 640 221.5 622.5 Q185 605 162 576 Q139 547 129 509 Q119 471 119 431 L119 264 Q119 223 129.5 184.5 Q140 146 162.5 116.5 Q185 87 221.5 69 Q258 51 311 51 Q360 51 395.5 67 Q431 83 454.5 111.5 Q478 140 489.5 179 Q501 218 501 264 L501 431 Q501 475 488 513 Q475 551 450.5 579.5 Q426 608 391 624 Q356 640 311 640 Z " />
<glyph glyph-name="section" unicode="&#xa7;" horiz-adv-x="600" d="M496 285 Q496 224 454 177 Q467 159 477.5 135.5 Q488 112 488 85 Q488 50 474 20.5 Q460 -9 434.5 -30.5 Q409 -52 373 -64 Q337 -76 292 -76 Q236 -76 185 -54.5 Q134 -33 103 2 L150 54 Q180 22 217 8.5 Q254 -5 292 -5 Q346 -5 377 15.5 Q408 36 408 84 Q408 120 375 142 Q342 164 285 183 Q245 196 213.5 210.5 Q182 225 160.5 243.5 Q139 262 127.5 286.5 Q116 311 116 345 Q116 375 129.5 403.5 Q143 432 163 454 Q146 473 135 495 Q124 517 124 548 Q124 582 138 610.5 Q152 639 176 659.5 Q200 680 232.5 691 Q265 702 303 702 Q407 702 476 642 L431 584 Q396 611 363.5 621 Q331 631 301 631 Q253 631 228 609.5 Q203 588 203 554 Q203 524 224.5 506.5 Q246 489 279 476.5 Q312 464 349.5 452 Q387 440 420 420 Q453 400 474.5 368 Q496 336 496 285 Z M226 415 Q209 404 199 387.5 Q189 371 189 351 Q189 322 212 303.5 Q235 285 267.5 271 Q300 257 335 246 Q370 235 395 222 Q424 246 424 286 Q424 307 414.5 322 Q405 337 387.5 348.5 Q370 360 345.5 369.5 Q321 379 290 390 Q273 395 261 400 Q249 405 226 415 Z " />
<glyph glyph-name="degree" unicode="&#xb0;" horiz-adv-x="600" d="M434 568 Q434 540 423.5 515.5 Q413 491 395 473 Q377 455 352.5 444.5 Q328 434 300 434 Q272 434 247.5 444.5 Q223 455 205 473 Q187 491 176.5 515.5 Q166 540 166 568 Q166 596 176.5 620.5 Q187 645 205 663 Q223 681 247.5 691.5 Q272 702 300 702 Q328 702 352.5 691.5 Q377 681 395 663 Q413 645 423.5 620.5 Q434 596 434 568 Z M380 568 Q380 601 357 624.5 Q334 648 300 648 Q267 648 243.5 624.5 Q220 601 220 568 Q220 535 243.5 511.5 Q267 488 300 488 Q334 488 357 511.5 Q380 535 380 568 Z " />
<glyph glyph-name="periodcentered" unicode="&#xb7;" horiz-adv-x="600" d="M242 207 L242 333 L361 333 L361 207 L242 207 Z " />
<glyph glyph-name="plusminus" unicode="&#xb1;" horiz-adv-x="600" d="M332 291 L332 117 L268 117 L268 291 L84 291 L84 355 L268 355 L268 529 L332 529 L332 355 L515 355 L515 291 L332 291 Z M84 0 L84 64 L515 64 L515 0 L84 0 Z " />
<glyph glyph-name="yen" unicode="&#xa5;" horiz-adv-x="600" d="M498 252 L498 198 L342 198 L342 0 L262 0 L262 198 L107 198 L107 252 L498 252 Z M107 308 L107 362 L225 362 L69 696 L156 696 L299 365 L304 365 L442 696 L530 696 L379 362 L498 362 L498 308 L107 308 Z " />
<glyph glyph-name="Omega" unicode="&#x3a9;" horiz-adv-x="600" d="M357 95 Q407 112 433 159.5 Q459 207 459 270 L459 443 Q459 479 449 511.5 Q439 544 419 568.5 Q399 593 369 607 Q339 621 300 621 Q257 621 226.5 605.5 Q196 590 176.5 565 Q157 540 148 508 Q139 476 139 443 L139 270 Q139 242 145.5 215 Q152 188 165 165 Q178 142 197.5 123.5 Q217 105 244 95 L244 0 L38 0 L38 81 L126 81 Q105 94 90.5 115.5 Q76 137 67.5 163 Q59 189 55.5 217.5 Q52 246 52 275 L52 445 Q52 496 67 542.5 Q82 589 113 624.5 Q144 660 190.5 681 Q237 702 299 702 Q356 702 402 682.5 Q448 663 480.5 629 Q513 595 530 547.5 Q547 500 547 445 L547 275 Q547 213 531 163 Q515 113 473 81 L562 81 L562 0 L357 0 L357 95 L357 95 Z " />
<glyph glyph-name="guillemotleft" unicode="&#xab;" horiz-adv-x="600" d="M410 46 L283 232 L410 418 L488 418 L365 232 L488 46 L410 46 Z M238 46 L111 232 L238 418 L316 418 L192 232 L316 46 L238 46 Z " />
<glyph glyph-name="guillemotright" unicode="&#xbb;" horiz-adv-x="600" d="M111 46 L234 232 L111 418 L189 418 L316 232 L189 46 L111 46 Z M283 46 L407 232 L283 418 L361 418 L488 232 L361 46 L283 46 Z " />
<glyph glyph-name="ellipsis" unicode="&#x2026;" horiz-adv-x="600" d="M64 0 L64 115 L173 115 L173 0 L64 0 Z M249 0 L249 115 L358 115 L358 0 L249 0 Z M430 0 L430 115 L539 115 L539 0 L430 0 Z " />
<glyph glyph-name="oe" unicode="&#x153;" horiz-adv-x="600" d="M556 49 Q531 19 496 6.5 Q461 -6 429 -6 Q412 -6 394 -2.5 Q376 1 359.5 9.5 Q343 18 329 32 Q315 46 306 66 Q286 30 255 12 Q224 -6 189 -6 Q110 -6 74.5 57 Q39 120 39 246 Q39 369 74 434.5 Q109 500 191 500 Q267 500 303 434 Q325 471 359 486 Q393 501 424 501 Q488 501 526.5 448.5 Q565 396 565 301 L565 224 L341 224 Q341 146 360.5 106.5 Q380 67 432 67 Q444 67 466.5 73.5 Q489 80 509 102 L556 49 Z M490 289 Q490 358 473.5 392 Q457 426 415 426 Q380 426 362 389.5 Q344 353 341 289 L490 289 Z M190 429 Q150 429 133 383.5 Q116 338 116 245 Q116 66 190 66 Q226 66 244.5 106.5 Q263 147 263 246 Q263 299 258 334 Q253 369 244 390 Q235 411 221.5 420 Q208 429 190 429 Z " />
<glyph glyph-name="endash" unicode="&#x2013;" horiz-adv-x="600" d="M70 229 L70 306 L530 306 L530 229 L70 229 Z " />
<glyph glyph-name="afii00208" unicode="&#x2015;" horiz-adv-x="600" d="M44 230 L44 307 L556 307 L556 230 L44 230 Z " />
<glyph glyph-name="quotedblleft" unicode="&#x201c;" horiz-adv-x="600" d="M231 737 L282 737 L250 606 L278 606 L278 495 L175 495 L175 604 L231 737 Z M374 737 L425 737 L393 606 L421 606 L421 495 L318 495 L318 604 L374 737 Z " />
<glyph glyph-name="quotedblright" unicode="&#x201d;" horiz-adv-x="600" d="M369 495 L318 495 L350 626 L322 626 L322 737 L425 737 L425 628 L369 495 Z M226 495 L175 495 L207 626 L179 626 L179 737 L282 737 L282 628 L226 495 Z " />
<glyph glyph-name="quoteleft" unicode="&#x2018;" horiz-adv-x="600" d="M302 737 L353 737 L321 606 L349 606 L349 495 L246 495 L246 604 L302 737 Z " />
<glyph glyph-name="quoteright" unicode="&#x2019;" horiz-adv-x="600" d="M297 495 L246 495 L278 626 L250 626 L250 737 L353 737 L353 628 L297 495 Z " />
<glyph glyph-name="divide" unicode="&#xf7;" horiz-adv-x="600" d="M357 473 Q357 450 340 433 Q323 416 300 416 Q276 416 259.5 433 Q243 450 243 473 Q243 496 259.5 513 Q276 530 300 530 Q323 530 340 513 Q357 496 357 473 Z M74 262 L74 325 L525 325 L525 262 L74 262 Z M300 172 Q323 172 340 155.5 Q357 139 357 116 Q357 92 340 75.5 Q323 59 300 59 Q276 59 259.5 75.5 Q243 92 243 116 Q243 139 259.5 155.5 Q276 172 300 172 Z " />
<glyph glyph-name="&amp;#xb5;" unicode="&#xb5;" horiz-adv-x="600" d="M418 0 L418 56 L415 56 Q390 24 353.5 9 Q317 -6 278 -6 Q256 -6 234 0.5 Q212 7 192 21 L189 20 L189 -200 L107 -200 L107 496 L189 496 L189 198 Q189 141 214 108.5 Q239 76 304 76 Q353 76 385.5 108.5 Q418 141 418 198 L418 496 L500 496 L500 0 L418 0 Z " />
<glyph glyph-name="&amp;#x3bc;" unicode="&#x3bc;" horiz-adv-x="600" d="M418 0 L418 56 L415 56 Q390 24 353.5 9 Q317 -6 278 -6 Q256 -6 234 0.5 Q212 7 192 21 L189 20 L189 -200 L107 -200 L107 496 L189 496 L189 198 Q189 141 214 108.5 Q239 76 304 76 Q353 76 385.5 108.5 Q418 141 418 198 L418 496 L500 496 L500 0 L418 0 Z " />
<glyph glyph-name="pi" unicode="&#x3c0;" horiz-adv-x="600" d="M414 0 L414 424 L185 424 L185 0 L103 0 L103 496 L496 496 L496 0 L414 0 Z " />
<glyph glyph-name="dollar" unicode="&#x24;" horiz-adv-x="600" d="M254 0 Q205 6 156 27 Q107 48 66 89 L116 148 Q178 91 259 77 L276 326 Q241 334 207.5 345 Q174 356 148 375.5 Q122 395 106 425.5 Q90 456 90 503 Q90 548 107 581.5 Q124 615 153 638 Q182 661 220 673 Q258 685 300 685 L306 768 L361 768 L355 682 Q445 672 507 620 L466 556 Q438 574 410 587 Q382 600 350 605 L335 391 Q341 389 351 387 Q382 379 414.5 367 Q447 355 473.5 333 Q500 311 517 277.5 Q534 244 534 193 Q534 148 517.5 112 Q501 76 471.5 51 Q442 26 400.5 12 Q359 -2 309 -3 L304 -85 L248 -85 L254 0 Z M450 194 Q450 219 440.5 238 Q431 257 415 271.5 Q399 286 377 296 Q355 306 330 313 L314 74 Q342 75 367 82.5 Q392 90 410.5 105 Q429 120 439.5 142 Q450 164 450 194 Z M170 508 Q170 465 197 443.5 Q224 422 281 405 L295 607 Q236 604 203 578 Q170 552 170 508 Z " />
<glyph glyph-name="Euro" unicode="&#x20ac;" horiz-adv-x="600" d="M534 97 Q499 49 450.5 21.5 Q402 -6 333 -6 Q279 -6 237 12.5 Q195 31 166.5 64 Q138 97 123.5 143 Q109 189 109 245 L109 268 L65 268 L65 322 L406 322 L406 268 L196 268 L196 239 Q196 164 233 117.5 Q270 71 334 71 Q380 71 415 93 Q450 115 470 147 L534 97 Z M447 554 Q428 586 400 604 Q372 622 334 622 Q298 622 272 607.5 Q246 593 229 568.5 Q212 544 204 512.5 Q196 481 196 448 L196 432 L406 432 L406 378 L65 378 L65 432 L109 432 L109 452 Q109 503 124 548.5 Q139 594 168 627.5 Q197 661 238.5 681 Q280 701 333 701 Q399 701 444.5 675.5 Q490 650 519 599 L447 554 Z " />
<glyph glyph-name="logicalnot" unicode="&#xac;" horiz-adv-x="600" d="M520 70 L455 70 L455 262 L79 262 L79 326 L520 326 L520 70 Z " />
<glyph glyph-name="brokenbar" unicode="&#xa6;" horiz-adv-x="600" d="M267 304 L267 716 L332 716 L332 304 L267 304 Z M332 246 L332 -162 L267 -162 L267 246 L332 246 Z " />
<glyph glyph-name="exclam" unicode="&#x21;" horiz-adv-x="600" d="M242 696 L343 696 L326 177 L258 177 L242 696 Z M242 0 L242 98 L338 98 L338 0 L242 0 Z " />
<glyph glyph-name="ae" unicode="&#xe6;" horiz-adv-x="600" d="M300 67 Q281 29 247.5 11.5 Q214 -6 169 -6 Q104 -6 69.5 35.5 Q35 77 35 142 Q35 171 43.5 198 Q52 225 70 245.5 Q88 266 116.5 278 Q145 290 186 290 L258 290 L258 349 Q258 389 236 407 Q214 425 181 425 Q155 425 131 414.5 Q107 404 87 390 L51 452 Q93 484 128.5 494 Q164 504 196 504 Q211 504 227 501.5 Q243 499 258 492.5 Q273 486 286.5 474.5 Q300 463 310 445 Q333 480 365 492 Q397 504 423 504 Q496 504 530.5 451 Q565 398 565 302 L565 225 L339 225 Q339 182 346 152 Q353 122 365.5 103 Q378 84 395 75.5 Q412 67 432 67 Q455 67 476.5 78.5 Q498 90 519 117 L569 70 Q544 32 507 13 Q470 -6 435 -6 Q418 -6 398.5 -2 Q379 2 360.5 10.5 Q342 19 326 33 Q310 47 300 67 Z M110 147 Q110 113 126 92 Q142 71 177 71 Q192 71 206.5 75 Q221 79 232.5 89.5 Q244 100 251 117.5 Q258 135 258 162 L258 221 L181 221 Q143 221 126.5 201 Q110 181 110 147 Z M488 290 Q488 363 471.5 395.5 Q455 428 415 428 Q379 428 360.5 391.5 Q342 355 339 290 L488 290 Z " />
<glyph glyph-name="eth" unicode="&#xf0;" horiz-adv-x="600" d="M263 557 L339 605 Q321 625 292 639 Q263 653 208 663 L222 728 Q285 723 331.5 700.5 Q378 678 407 647 L483 695 L511 650 L438 604 Q457 570 468.5 535 Q480 500 486 462.5 Q492 425 493.5 385 Q495 345 495 303 Q495 271 492 235 Q489 199 481 165 Q473 131 458 100 Q443 69 418.5 45.5 Q394 22 359 8 Q324 -6 276 -6 Q177 -6 127.5 54.5 Q78 115 78 228 Q78 349 132.5 412.5 Q187 476 281 476 Q296 476 315 472.5 Q334 469 352.5 461 Q371 453 387.5 440.5 Q404 428 415 410 L419 410 Q418 439 408.5 480.5 Q399 522 373 564 L291 512 L263 557 Z M285 402 Q231 402 195.5 364 Q160 326 160 245 Q160 159 187.5 114 Q215 69 280 69 Q338 69 373.5 110.5 Q409 152 409 246 Q409 290 399 320 Q389 350 372 368 Q355 386 332.5 394 Q310 402 285 402 Z " />
<glyph glyph-name="multiply" unicode="&#xd7;" horiz-adv-x="600" d="M344 274 L508 110 L463 65 L299 229 L137 67 L92 112 L254 274 L91 437 L136 482 L299 320 L460 481 L505 436 L344 274 Z " />
<glyph glyph-name="cedilla" unicode="&#xb8;" horiz-adv-x="600" d="M321 36 L297 -39 Q326 -41 345 -49.5 Q364 -58 375.5 -70.5 Q387 -83 392 -97 Q397 -111 397 -123 Q397 -136 391.5 -150.5 Q386 -165 373.5 -177.5 Q361 -190 340.5 -198 Q320 -206 289 -206 Q269 -206 248 -202.5 Q227 -199 202 -188 L219 -145 Q240 -154 257.5 -157 Q275 -160 289 -160 Q309 -160 322.5 -150 Q336 -140 336 -124 Q336 -105 320 -94.5 Q304 -84 278 -84 L264 -84 L244 -63 L276 40 L321 36 Z " />
<glyph glyph-name="florin" unicode="&#x192;" horiz-adv-x="600" d="M173 420 L270 420 L281 493 Q286 527 297.5 564 Q309 601 330 631 Q351 661 384.5 680.5 Q418 700 468 700 Q491 700 512 696 Q533 692 548 686 Q543 666 538.5 648.5 Q534 631 529 611 Q515 616 496.5 618.5 Q478 621 464 621 Q441 621 424.5 611 Q408 601 397 583.5 Q386 566 379 544 Q372 522 369 498 L358 420 L464 420 L464 351 L348 351 L316 123 Q309 75 297.5 36 Q286 -3 266 -31 Q246 -59 217 -74.5 Q188 -90 146 -90 Q125 -90 98.5 -84.5 Q72 -79 51 -71 Q58 -51 63.5 -37.5 Q69 -24 76 -4 Q109 -17 136 -17 Q178 -17 198 21 Q218 59 227 122 L260 351 L173 351 L173 420 Z " />
<glyph glyph-name="circumflex" unicode="&#x2c6;" horiz-adv-x="600" d="M300 659 L166 552 L127 590 L277 743 L330 743 L473 592 L433 553 L300 659 Z " />
<glyph glyph-name="caron" unicode="&#x2c7;" horiz-adv-x="600" d="M433 743 L473 704 L330 553 L277 553 L127 706 L166 744 L300 637 L433 743 Z " />
<glyph glyph-name="breve" unicode="&#x2d8;" horiz-adv-x="600" d="M229 697 Q230 687 235 676 Q240 665 249 655.5 Q258 646 271 640 Q284 634 300 634 Q318 634 331.5 640 Q345 646 354 655.5 Q363 665 367.5 676 Q372 687 372 697 L443 697 Q441 677 434 654.5 Q427 632 410.5 613 Q394 594 367.5 581 Q341 568 300 568 Q259 568 231.5 581 Q204 594 187.5 613 Q171 632 163.5 654.5 Q156 677 156 697 L229 697 Z " />
<glyph glyph-name="tilde" unicode="&#x2dc;" horiz-adv-x="600" d="M230 699 Q248 699 266.5 691.5 Q285 684 302 675.5 Q319 667 335 659.5 Q351 652 364 652 Q379 652 394 662.5 Q409 673 425 697 L477 668 Q455 622 428.5 600.5 Q402 579 370 579 Q352 579 334.5 585.5 Q317 592 300 600 Q283 608 267.5 614.5 Q252 621 237 621 Q220 621 206.5 612.5 Q193 604 174 581 L122 610 Q142 652 171 675.5 Q200 699 230 699 Z " />
<glyph glyph-name="Ntilde" unicode="&#xd1;" horiz-adv-x="600" d="M433 0 L170 514 L167 513 L167 0 L79 0 L79 696 L169 696 L432 178 L435 180 L435 696 L522 696 L522 0 L433 0 Z M233 869 Q251 869 269.5 861.5 Q288 854 305 845.5 Q322 837 338 829.5 Q354 822 367 822 Q382 822 397 832.5 Q412 843 428 867 L480 838 Q458 792 431.5 770.5 Q405 749 373 749 Q355 749 337.5 755.5 Q320 762 303 770 Q286 778 270.5 784.5 Q255 791 240 791 Q223 791 209.5 782.5 Q196 774 177 751 L125 780 Q145 822 174 845.5 Q203 869 233 869 Z " />
<glyph glyph-name="otilde" unicode="&#xf5;" horiz-adv-x="600" d="M303 500 Q359 500 402 478.5 Q445 457 471 417 Q488 390 496.5 351.5 Q505 313 505 265 Q505 201 498 157.5 Q491 114 474 85 Q448 41 404 17.5 Q360 -6 296 -6 Q242 -6 200 12.5 Q158 31 132 69 Q112 100 103.5 143 Q95 186 95 246 Q95 288 100.5 324.5 Q106 361 120 390 Q145 444 193 472 Q241 500 303 500 Z M301 426 Q225 426 195 359 Q184 336 181 307 Q178 278 177 245 Q177 212 179 184.5 Q181 157 191 135 Q205 103 232.5 86 Q260 69 297 69 Q340 69 370 90 Q400 111 414 157 Q419 175 420.5 198.5 Q422 222 422 262 Q422 291 419.5 314 Q417 337 409 355 Q395 392 365.5 409 Q336 426 301 426 Z M236 699 Q254 699 272.5 691.5 Q291 684 308 675.5 Q325 667 341 659.5 Q357 652 370 652 Q385 652 400 662.5 Q415 673 431 697 L483 668 Q461 622 434.5 600.5 Q408 579 376 579 Q358 579 340.5 585.5 Q323 592 306 600 Q289 608 273.5 614.5 Q258 621 243 621 Q226 621 212.5 612.5 Q199 604 180 581 L128 610 Q148 652 177 675.5 Q206 699 236 699 Z " />
<glyph glyph-name="Ccedilla" unicode="&#xc7;" horiz-adv-x="600" d="M553 142 Q527 72 467 33 Q407 -6 322 -6 L315 -6 L305 -39 Q334 -41 353 -49.5 Q372 -58 383.5 -70.5 Q395 -83 400 -97 Q405 -111 405 -123 Q405 -136 399.5 -150.5 Q394 -165 381.5 -177.5 Q369 -190 348.5 -198 Q328 -206 297 -206 Q277 -206 256 -202.5 Q235 -199 210 -188 L227 -145 Q248 -154 265.5 -157 Q283 -160 297 -160 Q317 -160 330.5 -150 Q344 -140 344 -124 Q344 -105 328 -94.5 Q312 -84 286 -84 L272 -84 L252 -63 L271 -2 Q221 6 184.5 29.5 Q148 53 123.5 87 Q99 121 87 163 Q75 205 75 252 L75 444 Q75 495 90 541.5 Q105 588 135 623.5 Q165 659 211 680 Q257 701 319 701 Q404 701 460.5 661 Q517 621 544 554 L462 517 Q445 562 409.5 589 Q374 616 320 616 Q279 616 249.5 601 Q220 586 200.5 561.5 Q181 537 171.5 505 Q162 473 162 440 L162 259 Q162 224 172 191.5 Q182 159 202 134 Q222 109 252 93.5 Q282 78 323 78 Q377 78 415.5 106.5 Q454 135 471 182 L553 142 Z " />
<glyph glyph-name="acute" unicode="&#xb4;" horiz-adv-x="600" d="M223 571 L295 748 L376 723 L276 551 L223 571 Z " />
<glyph glyph-name="AE" unicode="&#xc6;" horiz-adv-x="600" d="M320 0 L320 205 L186 205 L119 0 L27 0 L266 696 L559 696 L559 615 L409 615 L409 401 L546 401 L546 324 L409 324 L409 81 L571 81 L571 0 L320 0 Z M316 599 L211 280 L320 280 L320 599 L316 599 Z " />
<glyph glyph-name="quotesinglbase" unicode="&#x201a;" horiz-adv-x="600" d="M291 -131 L240 -131 L272 0 L244 0 L244 111 L347 111 L347 2 L291 -131 Z " />
<glyph glyph-name="quotedblbase" unicode="&#x201e;" horiz-adv-x="600" d="M369 -131 L318 -131 L350 0 L322 0 L322 111 L425 111 L425 2 L369 -131 Z M226 -131 L175 -131 L207 0 L179 0 L179 111 L282 111 L282 2 L226 -131 Z " />
<glyph glyph-name="daggerdbl" unicode="&#x2021;" horiz-adv-x="600" d="M260 390 L90 390 L90 456 L260 456 L260 696 L340 696 L340 456 L510 456 L510 390 L340 390 L340 200 L510 200 L510 134 L340 134 L340 -186 L260 -186 L260 134 L90 134 L90 200 L260 200 L260 390 Z " />
<glyph glyph-name="guilsinglleft" unicode="&#x2039;" horiz-adv-x="600" d="M324 46 L197 232 L324 418 L402 418 L279 232 L402 46 L324 46 Z " />
<glyph glyph-name="emdash" unicode="&#x2014;" horiz-adv-x="600" d="M45 230 L45 307 L556 307 L556 230 L45 230 Z " />
<glyph glyph-name="guilsinglright" unicode="&#x203a;" horiz-adv-x="600" d="M197 46 L320 232 L197 418 L275 418 L402 232 L275 46 L197 46 Z " />
<glyph glyph-name="exclamdown" unicode="&#xa1;" horiz-adv-x="600" d="M268 313 L336 313 L353 -206 L252 -206 L268 313 Z M348 490 L348 392 L252 392 L252 490 L348 490 Z " />
<glyph glyph-name="currency" unicode="&#xa4;" horiz-adv-x="600" d="M166 319 Q166 292 176.5 267.5 Q187 243 205 225 Q223 207 247 196.5 Q271 186 299 186 Q327 186 351.5 196.5 Q376 207 394 225 Q412 243 422.5 267.5 Q433 292 433 319 Q433 347 422.5 371.5 Q412 396 394 414 Q376 432 351.5 442.5 Q327 453 299 453 Q271 453 247 442.5 Q223 432 205 414 Q187 396 176.5 371.5 Q166 347 166 319 Z M64 505 Q77 519 88.5 530 Q100 541 113 554 L181 486 Q210 505 239 514.5 Q268 524 300 524 Q332 524 361 514.5 Q390 505 419 486 L486 554 L535 504 L467 437 Q505 379 505 319 Q505 260 467 201 Q483 186 501 169 Q519 152 535 135 L486 85 L419 153 Q363 114 300 114 Q236 114 181 153 L113 85 Q103 96 88 110.5 Q73 125 64 134 L133 201 Q95 260 95 319 Q95 379 133 437 L64 505 Z " />
<glyph glyph-name="paragraph" unicode="&#xb6;" horiz-adv-x="600" d="M258 324 L219 324 Q181 324 152.5 340 Q124 356 104.5 381.5 Q85 407 75 440 Q65 473 65 508 Q65 544 76 579.5 Q87 615 109 643 Q131 671 165 688 Q199 705 244 705 L535 705 L535 640 L492 640 L492 -82 L418 -82 L418 640 L333 640 L333 -82 L258 -82 L258 324 Z " />
<glyph glyph-name="questiondown" unicode="&#xbf;" horiz-adv-x="600" d="M92 -26 Q93 4 101 28 Q109 52 121 72 Q133 92 148.5 109 Q164 126 180 143 Q206 170 226.5 196.5 Q247 223 247 257 L247 307 L334 307 L334 255 Q334 220 320.5 190 Q307 160 283 135 Q268 119 250.5 101 Q233 83 218 63.5 Q203 44 193 23.5 Q183 3 183 -18 Q183 -33 187.5 -51.5 Q192 -70 205 -87 Q218 -104 240 -115.5 Q262 -127 297 -127 Q328 -127 350.5 -113 Q373 -99 388.5 -79 Q404 -59 412 -38 Q420 -17 422 -2 L507 -17 Q495 -67 473.5 -103 Q452 -139 423 -162.5 Q394 -186 359.5 -197.5 Q325 -209 287 -209 Q243 -209 207 -195 Q171 -181 145.5 -156.5 Q120 -132 106 -98.5 Q92 -65 92 -26 Z M337 491 L337 393 L247 393 L247 491 L337 491 Z " />
<glyph glyph-name="oslash" unicode="&#xf8;" horiz-adv-x="600" d="M303 500 Q375 500 425 465 L467 524 L505 497 L459 432 L471 417 Q488 390 496.5 351.5 Q505 313 505 265 Q505 201 498 157.5 Q491 114 474 85 Q448 41 404 17.5 Q360 -6 296 -6 Q222 -6 173 27 L136 -25 L99 3 L139 59 Q135 63 132 69 Q112 100 103.5 143 Q95 186 95 246 Q95 288 100.5 324.5 Q106 361 120 390 Q145 444 193 472 Q241 500 303 500 Z M301 426 Q225 426 195 359 Q184 336 181 307 Q178 278 177 245 Q177 212 179 184.5 Q181 157 191 135 L191 134 L379 399 Q347 426 301 426 Z M407 359 L220 94 Q249 69 297 69 Q340 69 370 90 Q400 111 414 157 Q419 175 420.5 198.5 Q422 222 422 262 Q422 291 419.5 314 Q417 337 409 355 L407 359 Z " />
<glyph glyph-name="Thorn" unicode="&#xde;" horiz-adv-x="600" d="M58 695 L146 695 L146 567 L313 567 Q356 567 397.5 555 Q439 543 471 517.5 Q503 492 523 452 Q543 412 543 356 Q543 320 528.5 283 Q514 246 486.5 217 Q459 188 418.5 169.5 Q378 151 327 151 L146 151 L146 0 L58 0 L58 695 Z M451 359 Q451 423 412.5 454.5 Q374 486 315 486 L146 486 L146 232 L319 232 Q352 232 377 243.5 Q402 255 418.5 273 Q435 291 443 313.5 Q451 336 451 359 Z " />
<glyph glyph-name="Eth" unicode="&#xd0;" horiz-adv-x="600" d="M35 391 L64 391 L64 696 L292 696 Q370 696 433 666 Q496 636 529 567 Q548 529 552 477 Q556 425 556 360 Q556 287 552 233 Q548 179 531 138 Q514 99 487.5 72.5 Q461 46 428 30 Q395 14 356 7 Q317 0 275 0 L64 0 L64 328 L35 328 L35 391 Z M468 412 Q468 469 455 508 Q442 547 418 571 Q394 595 361 605 Q328 615 288 615 L152 615 L152 391 L298 391 L298 328 L152 328 L152 81 L288 81 Q337 81 371.5 95 Q406 109 427.5 135 Q449 161 458.5 197.5 Q468 234 468 279 L468 412 Z " />
<glyph glyph-name="Oslash" unicode="&#xd8;" horiz-adv-x="600" d="M299 701 Q350 701 391.5 686 Q433 671 465 643 L503 699 L546 670 L501 603 Q547 537 547 444 L547 252 Q547 193 529.5 145 Q512 97 479.5 63.5 Q447 30 401.5 12 Q356 -6 299 -6 Q242 -6 199.5 10 Q157 26 127 55 L88 -2 L46 27 L93 96 Q52 163 52 252 L52 444 Q52 495 67 541.5 Q82 588 113 623.5 Q144 659 190.5 680 Q237 701 299 701 Z M459 442 Q459 485 444 521 L177 129 Q197 105 226.5 90.5 Q256 76 300 76 Q341 76 371 90 Q401 104 420.5 128 Q440 152 449.5 185 Q459 218 459 257 L459 442 Z M300 618 Q255 618 224.5 603 Q194 588 175 563.5 Q156 539 147.5 507 Q139 475 139 442 L139 257 Q139 237 141.5 217.5 Q144 198 150 180 L415 569 Q395 592 366 605 Q337 618 300 618 Z " />
<glyph glyph-name="macron" unicode="&#xaf;" horiz-adv-x="600" d="M166 600 L166 675 L434 675 L434 600 L166 600 Z " />
<glyph glyph-name="ring" unicode="&#x2da;" horiz-adv-x="600" d="M300 546 Q258 546 229.5 574.5 Q201 603 201 644 Q201 685 229.5 713.5 Q258 742 300 742 Q341 742 369.5 713.5 Q398 685 398 644 Q398 603 369.5 574.5 Q341 546 300 546 Z M300 699 Q277 699 261 683 Q245 667 245 644 Q245 621 261 605 Q277 589 300 589 Q323 589 339 605 Q355 621 355 644 Q355 667 339 683 Q323 699 300 699 Z " />
<glyph glyph-name="dotaccent" unicode="&#x2d9;" horiz-adv-x="600" d="M256 597 L256 685 L344 685 L344 597 L256 597 Z " />
<glyph glyph-name="ogonek" unicode="&#x2db;" horiz-adv-x="600" d="M195 -101 Q195 -78 205 -52 Q215 -26 239 6 L306 6 L307 4 Q287 -22 278.5 -43.5 Q270 -65 270 -84 Q270 -107 284.5 -119.5 Q299 -132 325 -132 Q339 -132 355 -129 Q371 -126 392 -118 L414 -171 Q397 -182 370 -189.5 Q343 -197 314 -197 Q259 -197 227 -168.5 Q195 -140 195 -101 Z " />
<glyph glyph-name="hungarumlaut" unicode="&#x2dd;" horiz-adv-x="600" d="M158 571 L230 748 L311 723 L211 551 L158 571 Z M288 571 L360 748 L441 723 L341 551 L288 571 Z " />
<glyph glyph-name="Atilde" unicode="&#xc3;" horiz-adv-x="600" d="M421 171 L175 171 L121 0 L29 0 L252 696 L348 696 L568 0 L475 0 L421 171 Z M297 583 Q287 549 276 506.5 Q265 464 249 413 L199 246 L398 246 L352 402 Q336 451 324 497.5 Q312 544 301 583 L297 583 Z M231 869 Q249 869 267.5 861.5 Q286 854 303 845.5 Q320 837 336 829.5 Q352 822 365 822 Q380 822 395 832.5 Q410 843 426 867 L478 838 Q456 792 429.5 770.5 Q403 749 371 749 Q353 749 335.5 755.5 Q318 762 301 770 Q284 778 268.5 784.5 Q253 791 238 791 Q221 791 207.5 782.5 Q194 774 175 751 L123 780 Q143 822 172 845.5 Q201 869 231 869 Z " />
<glyph glyph-name="Aring" unicode="&#xc5;" horiz-adv-x="600" d="M421 171 L175 171 L121 0 L29 0 L252 696 L348 696 L568 0 L475 0 L421 171 Z M297 583 Q287 549 276 506.5 Q265 464 249 413 L199 246 L398 246 L352 402 Q336 451 324 497.5 Q312 544 301 583 L297 583 Z M300 714 Q258 714 229.5 742.5 Q201 771 201 812 Q201 853 229.5 881.5 Q258 910 300 910 Q341 910 369.5 881.5 Q398 853 398 812 Q398 771 369.5 742.5 Q341 714 300 714 Z M300 867 Q277 867 261 851 Q245 835 245 812 Q245 789 261 773 Q277 757 300 757 Q323 757 339 773 Q355 789 355 812 Q355 835 339 851 Q323 867 300 867 Z " />
<glyph glyph-name="Otilde" unicode="&#xd5;" horiz-adv-x="600" d="M299 701 Q357 701 403 681.5 Q449 662 481 628 Q513 594 530 546.5 Q547 499 547 444 L547 252 Q547 193 529.5 145 Q512 97 479.5 63.5 Q447 30 401.5 12 Q356 -6 299 -6 Q236 -6 189.5 15 Q143 36 112.5 71 Q82 106 67 153 Q52 200 52 252 L52 444 Q52 495 67 541.5 Q82 588 113 623.5 Q144 659 190.5 680 Q237 701 299 701 Z M300 618 Q255 618 224.5 603 Q194 588 175 563.5 Q156 539 147.5 507 Q139 475 139 442 L139 257 Q139 222 147.5 189.5 Q156 157 175 132 Q194 107 225 91.5 Q256 76 300 76 Q341 76 371 90 Q401 104 420.5 128 Q440 152 449.5 185 Q459 218 459 257 L459 442 Q459 478 448.5 510 Q438 542 417.5 566 Q397 590 367.5 604 Q338 618 300 618 Z M225 882 Q243 882 261.5 874.5 Q280 867 297 858.5 Q314 850 330 842.5 Q346 835 359 835 Q374 835 389 845.5 Q404 856 420 880 L472 851 Q450 805 423.5 783.5 Q397 762 365 762 Q347 762 329.5 768.5 Q312 775 295 783 Q278 791 262.5 797.5 Q247 804 232 804 Q215 804 201.5 795.5 Q188 787 169 764 L117 793 Q137 835 166 858.5 Q195 882 225 882 Z " />
<glyph glyph-name="aacute" unicode="&#xe1;" horiz-adv-x="600" d="M282 501 Q322 501 358.5 493.5 Q395 486 422.5 468 Q450 450 466 419 Q482 388 482 341 L482 0 L399 0 L399 43 L398 44 Q384 22 348 8 Q312 -6 261 -6 Q176 -6 130.5 35.5 Q85 77 85 141 Q85 170 95 196.5 Q105 223 124.5 243 Q144 263 173.5 275 Q203 287 243 287 L399 287 L399 343 Q399 384 372 404 Q345 424 285 424 Q238 424 211 412.5 Q184 401 167 381 L115 436 Q143 468 187 484.5 Q231 501 282 501 Z M163 146 Q163 111 189.5 90 Q216 69 271 69 Q295 69 318 73 Q341 77 359 87.5 Q377 98 388 115.5 Q399 133 399 161 L399 219 L263 219 Q215 219 189 200 Q163 181 163 146 Z M263 571 L335 748 L416 723 L316 551 L263 571 Z " />
<glyph glyph-name="atilde" unicode="&#xe3;" horiz-adv-x="600" d="M282 501 Q322 501 358.5 493.5 Q395 486 422.5 468 Q450 450 466 419 Q482 388 482 341 L482 0 L399 0 L399 43 L398 44 Q384 22 348 8 Q312 -6 261 -6 Q176 -6 130.5 35.5 Q85 77 85 141 Q85 170 95 196.5 Q105 223 124.5 243 Q144 263 173.5 275 Q203 287 243 287 L399 287 L399 343 Q399 384 372 404 Q345 424 285 424 Q238 424 211 412.5 Q184 401 167 381 L115 436 Q143 468 187 484.5 Q231 501 282 501 Z M163 146 Q163 111 189.5 90 Q216 69 271 69 Q295 69 318 73 Q341 77 359 87.5 Q377 98 388 115.5 Q399 133 399 161 L399 219 L263 219 Q215 219 189 200 Q163 181 163 146 Z M229 699 Q247 699 265.5 691.5 Q284 684 301 675.5 Q318 667 334 659.5 Q350 652 363 652 Q378 652 393 662.5 Q408 673 424 697 L476 668 Q454 622 427.5 600.5 Q401 579 369 579 Q351 579 333.5 585.5 Q316 592 299 600 Q282 608 266.5 614.5 Q251 621 236 621 Q219 621 205.5 612.5 Q192 604 173 581 L121 610 Q141 652 170 675.5 Q199 699 229 699 Z " />
<glyph glyph-name="igrave" unicode="&#xec;" horiz-adv-x="600" d="M495 0 L142 0 L142 76 L281 76 L281 424 L141 424 L141 496 L363 496 L363 76 L495 76 L495 0 Z M295 551 L195 723 L276 748 L348 571 L295 551 Z " />
<glyph glyph-name="iacute" unicode="&#xed;" horiz-adv-x="600" d="M495 0 L142 0 L142 76 L281 76 L281 424 L141 424 L141 496 L363 496 L363 76 L495 76 L495 0 Z M277 571 L349 748 L430 723 L330 551 L277 571 Z " />
<glyph glyph-name="ntilde" unicode="&#xf1;" horiz-adv-x="600" d="M414 0 L414 288 Q414 352 392 386 Q370 420 315 420 Q255 420 220 387 Q185 354 185 297 L185 0 L103 0 L103 496 L185 496 L185 434 L188 434 Q214 466 252.5 483.5 Q291 501 331 501 Q367 501 397 490.5 Q427 480 449 458.5 Q471 437 483.5 404.5 Q496 372 496 329 L496 0 L414 0 Z M231 699 Q249 699 267.5 691.5 Q286 684 303 675.5 Q320 667 336 659.5 Q352 652 365 652 Q380 652 395 662.5 Q410 673 426 697 L478 668 Q456 622 429.5 600.5 Q403 579 371 579 Q353 579 335.5 585.5 Q318 592 301 600 Q284 608 268.5 614.5 Q253 621 238 621 Q221 621 207.5 612.5 Q194 604 175 581 L123 610 Q143 652 172 675.5 Q201 699 231 699 Z " />
<glyph glyph-name="ograve" unicode="&#xf2;" horiz-adv-x="600" d="M303 500 Q359 500 402 478.5 Q445 457 471 417 Q488 390 496.5 351.5 Q505 313 505 265 Q505 201 498 157.5 Q491 114 474 85 Q448 41 404 17.5 Q360 -6 296 -6 Q242 -6 200 12.5 Q158 31 132 69 Q112 100 103.5 143 Q95 186 95 246 Q95 288 100.5 324.5 Q106 361 120 390 Q145 444 193 472 Q241 500 303 500 Z M301 426 Q225 426 195 359 Q184 336 181 307 Q178 278 177 245 Q177 212 179 184.5 Q181 157 191 135 Q205 103 232.5 86 Q260 69 297 69 Q340 69 370 90 Q400 111 414 157 Q419 175 420.5 198.5 Q422 222 422 262 Q422 291 419.5 314 Q417 337 409 355 Q395 392 365.5 409 Q336 426 301 426 Z M296 551 L196 723 L277 748 L349 571 L296 551 Z " />
<glyph glyph-name="oacute" unicode="&#xf3;" horiz-adv-x="600" d="M303 500 Q359 500 402 478.5 Q445 457 471 417 Q488 390 496.5 351.5 Q505 313 505 265 Q505 201 498 157.5 Q491 114 474 85 Q448 41 404 17.5 Q360 -6 296 -6 Q242 -6 200 12.5 Q158 31 132 69 Q112 100 103.5 143 Q95 186 95 246 Q95 288 100.5 324.5 Q106 361 120 390 Q145 444 193 472 Q241 500 303 500 Z M301 426 Q225 426 195 359 Q184 336 181 307 Q178 278 177 245 Q177 212 179 184.5 Q181 157 191 135 Q205 103 232.5 86 Q260 69 297 69 Q340 69 370 90 Q400 111 414 157 Q419 175 420.5 198.5 Q422 222 422 262 Q422 291 419.5 314 Q417 337 409 355 Q395 392 365.5 409 Q336 426 301 426 Z M274 571 L346 748 L427 723 L327 551 L274 571 Z " />
<glyph glyph-name="uacute" unicode="&#xfa;" horiz-adv-x="600" d="M414 0 L414 56 L411 56 Q386 24 349.5 9 Q313 -6 275 -6 Q237 -6 205 3.5 Q173 13 150.5 34 Q128 55 115.5 88 Q103 121 103 167 L103 496 L185 496 L185 198 Q185 166 190 142 Q195 118 208 102.5 Q221 87 243 79.5 Q265 72 299 72 Q348 72 381 106.5 Q414 141 414 198 L414 496 L496 496 L496 0 L414 0 Z M259 571 L331 748 L412 723 L312 551 L259 571 Z " />
<glyph glyph-name="yacute" unicode="&#xfd;" horiz-adv-x="600" d="M325 -52 Q308 -99 288.5 -127.5 Q269 -156 246.5 -171.5 Q224 -187 199 -192 Q174 -197 146 -197 L110 -197 L110 -125 L145 -125 Q182 -125 206.5 -107.5 Q231 -90 247 -40 L263 10 L81 496 L172 496 L251 271 Q262 241 276 201 Q290 161 303 116 L307 116 Q321 160 332.5 197 Q344 234 356 270 L433 496 L519 496 L325 -52 Z M268 571 L340 748 L421 723 L321 551 L268 571 Z " />
<glyph glyph-name="ydieresis" unicode="&#xff;" horiz-adv-x="600" d="M325 -52 Q308 -99 288.5 -127.5 Q269 -156 246.5 -171.5 Q224 -187 199 -192 Q174 -197 146 -197 L110 -197 L110 -125 L145 -125 Q182 -125 206.5 -107.5 Q231 -90 247 -40 L263 10 L81 496 L172 496 L251 271 Q262 241 276 201 Q290 161 303 116 L307 116 Q321 160 332.5 197 Q344 234 356 270 L433 496 L519 496 L325 -52 Z M356 597 L356 685 L444 685 L444 597 L356 597 Z M176 597 L176 685 L264 685 L264 597 L176 597 Z " />
<glyph glyph-name="aring" unicode="&#xe5;" horiz-adv-x="600" d="M282 501 Q322 501 358.5 493.5 Q395 486 422.5 468 Q450 450 466 419 Q482 388 482 341 L482 0 L399 0 L399 43 L398 44 Q384 22 348 8 Q312 -6 261 -6 Q176 -6 130.5 35.5 Q85 77 85 141 Q85 170 95 196.5 Q105 223 124.5 243 Q144 263 173.5 275 Q203 287 243 287 L399 287 L399 343 Q399 384 372 404 Q345 424 285 424 Q238 424 211 412.5 Q184 401 167 381 L115 436 Q143 468 187 484.5 Q231 501 282 501 Z M163 146 Q163 111 189.5 90 Q216 69 271 69 Q295 69 318 73 Q341 77 359 87.5 Q377 98 388 115.5 Q399 133 399 161 L399 219 L263 219 Q215 219 189 200 Q163 181 163 146 Z M304 546 Q262 546 233.5 574.5 Q205 603 205 644 Q205 685 233.5 713.5 Q262 742 304 742 Q345 742 373.5 713.5 Q402 685 402 644 Q402 603 373.5 574.5 Q345 546 304 546 Z M304 699 Q281 699 265 683 Q249 667 249 644 Q249 621 265 605 Q281 589 304 589 Q327 589 343 605 Q359 621 359 644 Q359 667 343 683 Q327 699 304 699 Z " />
<glyph glyph-name="thorn" unicode="&#xfe;" horiz-adv-x="600" d="M193 696 L193 441 L196 440 Q225 473 259.5 487 Q294 501 331 501 Q384 501 418.5 479.5 Q453 458 473 422.5 Q493 387 500.5 342.5 Q508 298 508 252 Q508 204 500 157.5 Q492 111 470 75 Q448 39 410.5 16.5 Q373 -6 315 -6 Q278 -6 251 5 Q224 16 195 44 L193 44 L193 -198 L111 -198 L111 696 L193 696 Z M193 247 Q193 219 196.5 188.5 Q200 158 212 133 Q224 108 246.5 92 Q269 76 307 76 Q346 76 368.5 91.5 Q391 107 403 131.5 Q415 156 418.5 186.5 Q422 217 422 247 Q422 276 418.5 306.5 Q415 337 403.5 362.5 Q392 388 369 404 Q346 420 307 420 Q269 420 246.5 403 Q224 386 212 360.5 Q200 335 196.5 304.5 Q193 274 193 247 Z " />
<glyph glyph-name="OE" unicode="&#x152;" horiz-adv-x="600" d="M361 0 Q332 -6 299 -6 Q228 -6 180.5 15 Q133 36 104.5 71 Q76 106 64 153 Q52 200 52 252 L52 444 Q52 495 65.5 541.5 Q79 588 108 623.5 Q137 659 184 680 Q231 701 299 701 Q327 701 355 696 L548 696 L548 615 L353 615 L353 400 L531 400 L531 323 L353 323 L353 81 L568 81 L568 0 L361 0 Z M137 257 Q137 226 142.5 196.5 Q148 167 162.5 143 Q177 119 202.5 102 Q228 85 267 79 L267 615 Q230 613 205 597 Q180 581 165 556.5 Q150 532 143.5 502 Q137 472 137 442 L137 257 Z " />
<glyph glyph-name="Ydieresis" unicode="&#x178;" horiz-adv-x="600" d="M342 276 L342 0 L258 0 L258 276 L49 696 L142 696 L239 503 L301 370 L366 509 L460 696 L551 696 L342 276 Z M346 755 L346 843 L434 843 L434 755 L346 755 Z M166 755 L166 843 L254 843 L254 755 L166 755 Z " />
<glyph glyph-name="amacron" unicode="&#x101;" horiz-adv-x="600" d="M282 501 Q322 501 358.5 493.5 Q395 486 422.5 468 Q450 450 466 419 Q482 388 482 341 L482 0 L399 0 L399 43 L398 44 Q384 22 348 8 Q312 -6 261 -6 Q176 -6 130.5 35.5 Q85 77 85 141 Q85 170 95 196.5 Q105 223 124.5 243 Q144 263 173.5 275 Q203 287 243 287 L399 287 L399 343 Q399 384 372 404 Q345 424 285 424 Q238 424 211 412.5 Q184 401 167 381 L115 436 Q143 468 187 484.5 Q231 501 282 501 Z M163 146 Q163 111 189.5 90 Q216 69 271 69 Q295 69 318 73 Q341 77 359 87.5 Q377 98 388 115.5 Q399 133 399 161 L399 219 L263 219 Q215 219 189 200 Q163 181 163 146 Z M167 600 L167 675 L435 675 L435 600 L167 600 Z " />
<glyph glyph-name="abreve" unicode="&#x103;" horiz-adv-x="600" d="M282 501 Q322 501 358.5 493.5 Q395 486 422.5 468 Q450 450 466 419 Q482 388 482 341 L482 0 L399 0 L399 43 L398 44 Q384 22 348 8 Q312 -6 261 -6 Q176 -6 130.5 35.5 Q85 77 85 141 Q85 170 95 196.5 Q105 223 124.5 243 Q144 263 173.5 275 Q203 287 243 287 L399 287 L399 343 Q399 384 372 404 Q345 424 285 424 Q238 424 211 412.5 Q184 401 167 381 L115 436 Q143 468 187 484.5 Q231 501 282 501 Z M163 146 Q163 111 189.5 90 Q216 69 271 69 Q295 69 318 73 Q341 77 359 87.5 Q377 98 388 115.5 Q399 133 399 161 L399 219 L263 219 Q215 219 189 200 Q163 181 163 146 Z M228 697 Q229 687 234 676 Q239 665 248 655.5 Q257 646 270 640 Q283 634 299 634 Q317 634 330.5 640 Q344 646 353 655.5 Q362 665 366.5 676 Q371 687 371 697 L442 697 Q440 677 433 654.5 Q426 632 409.5 613 Q393 594 366.5 581 Q340 568 299 568 Q258 568 230.5 581 Q203 594 186.5 613 Q170 632 162.5 654.5 Q155 677 155 697 L228 697 Z " />
<glyph glyph-name="Aogonek" unicode="&#x104;" horiz-adv-x="600" d="M421 171 L175 171 L121 0 L29 0 L252 696 L348 696 L568 0 L562 0 Q544 -24 536 -45 Q528 -66 528 -84 Q528 -107 542.5 -119.5 Q557 -132 583 -132 Q597 -132 613 -129 Q629 -126 650 -118 L672 -171 Q655 -182 628 -189.5 Q601 -197 572 -197 Q517 -197 485 -168.5 Q453 -140 453 -101 Q453 -79 462 -54.5 Q471 -30 492 0 L475 0 L421 171 Z M297 583 Q287 549 276 506.5 Q265 464 249 413 L199 246 L398 246 L352 402 Q336 451 324 497.5 Q312 544 301 583 L297 583 Z " />
<glyph glyph-name="aogonek" unicode="&#x105;" horiz-adv-x="600" d="M359 -101 Q359 -79 368 -54 Q377 -29 399 1 L399 43 L398 44 Q384 22 348 8 Q312 -6 261 -6 Q176 -6 130.5 35.5 Q85 77 85 141 Q85 170 95 196.5 Q105 223 124.5 243 Q144 263 173.5 275 Q203 287 243 287 L399 287 L399 343 Q399 384 372 404 Q345 424 285 424 Q238 424 211 412.5 Q184 401 167 381 L115 436 Q143 468 187 484.5 Q231 501 282 501 Q322 501 358.5 493.5 Q395 486 422.5 468 Q450 450 466 419 Q482 388 482 341 L482 0 L468 0 Q450 -24 442 -45 Q434 -66 434 -84 Q434 -107 448.5 -119.5 Q463 -132 489 -132 Q503 -132 519 -129 Q535 -126 556 -118 L578 -171 Q561 -182 534 -189.5 Q507 -197 478 -197 Q423 -197 391 -168.5 Q359 -140 359 -101 Z M163 146 Q163 111 189.5 90 Q216 69 271 69 Q295 69 318 73 Q341 77 359 87.5 Q377 98 388 115.5 Q399 133 399 161 L399 219 L263 219 Q215 219 189 200 Q163 181 163 146 Z " />
<glyph glyph-name="cacute" unicode="&#x107;" horiz-adv-x="600" d="M513 64 Q481 32 436.5 13 Q392 -6 341 -6 Q298 -6 258 7.5 Q218 21 187 51 Q156 81 137.5 129 Q119 177 119 245 Q119 314 138 362.5 Q157 411 188 441.5 Q219 472 259 486.5 Q299 501 342 501 Q392 501 432 482 Q472 463 504 432 L451 372 Q429 396 399 409 Q369 422 338 422 Q273 422 237 377.5 Q201 333 201 247 Q201 159 239.5 115.5 Q278 72 348 72 Q380 72 410.5 87.5 Q441 103 459 123 L513 64 Z M284 571 L356 748 L437 723 L337 551 L284 571 Z " />
<glyph glyph-name="ccircumflex" unicode="&#x109;" horiz-adv-x="600" d="M513 64 Q481 32 436.5 13 Q392 -6 341 -6 Q298 -6 258 7.5 Q218 21 187 51 Q156 81 137.5 129 Q119 177 119 245 Q119 314 138 362.5 Q157 411 188 441.5 Q219 472 259 486.5 Q299 501 342 501 Q392 501 432 482 Q472 463 504 432 L451 372 Q429 396 399 409 Q369 422 338 422 Q273 422 237 377.5 Q201 333 201 247 Q201 159 239.5 115.5 Q278 72 348 72 Q380 72 410.5 87.5 Q441 103 459 123 L513 64 Z M327 659 L193 552 L154 590 L304 743 L357 743 L500 592 L460 553 L327 659 Z " />
<glyph glyph-name="Cdotaccent" unicode="&#x10a;" horiz-adv-x="600" d="M553 142 Q527 72 467 33 Q407 -6 322 -6 Q260 -6 213.5 15 Q167 36 136 71 Q105 106 90 153 Q75 200 75 252 L75 444 Q75 495 90 541.5 Q105 588 135 623.5 Q165 659 211 680 Q257 701 319 701 Q404 701 460.5 661 Q517 621 544 554 L462 517 Q445 562 409.5 589 Q374 616 320 616 Q279 616 249.5 601 Q220 586 200.5 561.5 Q181 537 171.5 505 Q162 473 162 440 L162 259 Q162 224 172 191.5 Q182 159 202 134 Q222 109 252 93.5 Q282 78 323 78 Q377 78 415.5 106.5 Q454 135 471 182 L553 142 Z M260 767 L260 855 L348 855 L348 767 L260 767 Z " />
<glyph glyph-name="cdotaccent" unicode="&#x10b;" horiz-adv-x="600" d="M513 64 Q481 32 436.5 13 Q392 -6 341 -6 Q298 -6 258 7.5 Q218 21 187 51 Q156 81 137.5 129 Q119 177 119 245 Q119 314 138 362.5 Q157 411 188 441.5 Q219 472 259 486.5 Q299 501 342 501 Q392 501 432 482 Q472 463 504 432 L451 372 Q429 396 399 409 Q369 422 338 422 Q273 422 237 377.5 Q201 333 201 247 Q201 159 239.5 115.5 Q278 72 348 72 Q380 72 410.5 87.5 Q441 103 459 123 L513 64 Z M285 597 L285 685 L373 685 L373 597 L285 597 Z " />
<glyph glyph-name="ccaron" unicode="&#x10d;" horiz-adv-x="600" d="M513 64 Q481 32 436.5 13 Q392 -6 341 -6 Q298 -6 258 7.5 Q218 21 187 51 Q156 81 137.5 129 Q119 177 119 245 Q119 314 138 362.5 Q157 411 188 441.5 Q219 472 259 486.5 Q299 501 342 501 Q392 501 432 482 Q472 463 504 432 L451 372 Q429 396 399 409 Q369 422 338 422 Q273 422 237 377.5 Q201 333 201 247 Q201 159 239.5 115.5 Q278 72 348 72 Q380 72 410.5 87.5 Q441 103 459 123 L513 64 Z M456 743 L496 704 L353 553 L300 553 L150 706 L189 744 L323 637 L456 743 Z " />
<glyph glyph-name="dcaron" unicode="&#x10f;" horiz-adv-x="600" d="M362 0 L362 48 L359 49 Q326 17 291.5 5.5 Q257 -6 220 -6 Q167 -6 133 14 Q99 34 80 68 Q61 102 54 147.5 Q47 193 47 243 Q47 291 55 337.5 Q63 384 85 420 Q107 456 144 478.5 Q181 501 240 501 Q277 501 309 488.5 Q341 476 360 451 L362 451 L362 726 L444 726 L444 0 L362 0 Z M362 248 Q362 276 358.5 306.5 Q355 337 343.5 362 Q332 387 309.5 403 Q287 419 250 419 Q211 419 188 403.5 Q165 388 153 363.5 Q141 339 137 308.5 Q133 278 133 248 Q133 213 136.5 182 Q140 151 151.5 127 Q163 103 185.5 89 Q208 75 246 75 Q283 75 306 92 Q329 109 341.5 134.5 Q354 160 358 190.5 Q362 221 362 248 Z M558 509 L507 509 L545 615 L514 615 L514 726 L617 726 L617 617 L558 509 Z " />
<glyph glyph-name="Dcroat" unicode="&#x110;" horiz-adv-x="600" d="M34 391 L64 391 L64 696 L292 696 Q370 696 433 666 Q496 636 529 567 Q548 529 552 477 Q556 425 556 360 Q556 287 552 233 Q548 179 531 138 Q514 99 487.5 72.5 Q461 46 428 30 Q395 14 356 7 Q317 0 275 0 L64 0 L64 328 L34 328 L34 391 Z M468 412 Q468 469 455 508 Q442 547 418 571 Q394 595 361 605 Q328 615 288 615 L152 615 L152 391 L297 391 L297 328 L152 328 L152 81 L288 81 Q337 81 371.5 95 Q406 109 427.5 135 Q449 161 458.5 197.5 Q468 234 468 279 L468 412 Z " />
<glyph glyph-name="dcroat" unicode="&#x111;" horiz-adv-x="600" d="M289 624 L416 624 L416 726 L498 726 L498 624 L551 624 L551 567 L498 567 L498 0 L416 0 L416 48 L413 49 Q380 17 345.5 5.5 Q311 -6 274 -6 Q221 -6 187 14 Q153 34 134 68 Q115 102 108 147.5 Q101 193 101 243 Q101 291 109 337.5 Q117 384 139 420 Q161 456 198 478.5 Q235 501 294 501 Q331 501 363 488.5 Q395 476 414 451 L416 451 L416 567 L289 567 L289 624 Z M416 248 Q416 276 412.5 306.5 Q409 337 397.5 362 Q386 387 363.5 403 Q341 419 304 419 Q265 419 242 403.5 Q219 388 207 363.5 Q195 339 191 308.5 Q187 278 187 248 Q187 213 190.5 182 Q194 151 205.5 127 Q217 103 239.5 89 Q262 75 300 75 Q337 75 360 92 Q383 109 395.5 134.5 Q408 160 412 190.5 Q416 221 416 248 Z " />
<glyph glyph-name="emacron" unicode="&#x113;" horiz-adv-x="600" d="M188 220 L188 212 Q188 183 196 157 Q204 131 220 111.5 Q236 92 260 81 Q284 70 316 70 Q340 70 371.5 82 Q403 94 428 117 L481 58 Q446 24 402 9 Q358 -6 312 -6 Q274 -6 236.5 4.5 Q199 15 169 43 Q139 71 120.5 120 Q102 169 102 246 Q102 319 121 368.5 Q140 418 170 447.5 Q200 477 237 489.5 Q274 502 309 502 Q350 502 386 487.5 Q422 473 449 445 Q476 417 491.5 376.5 Q507 336 507 284 L507 220 L188 220 Z M305 424 Q254 424 223 389 Q192 354 188 289 L421 289 Q418 356 387 390 Q356 424 305 424 Z M174 600 L174 675 L442 675 L442 600 L174 600 Z " />
<glyph glyph-name="ebreve" unicode="&#x115;" horiz-adv-x="600" d="M188 220 L188 212 Q188 183 196 157 Q204 131 220 111.5 Q236 92 260 81 Q284 70 316 70 Q340 70 371.5 82 Q403 94 428 117 L481 58 Q446 24 402 9 Q358 -6 312 -6 Q274 -6 236.5 4.5 Q199 15 169 43 Q139 71 120.5 120 Q102 169 102 246 Q102 319 121 368.5 Q140 418 170 447.5 Q200 477 237 489.5 Q274 502 309 502 Q350 502 386 487.5 Q422 473 449 445 Q476 417 491.5 376.5 Q507 336 507 284 L507 220 L188 220 Z M305 424 Q254 424 223 389 Q192 354 188 289 L421 289 Q418 356 387 390 Q356 424 305 424 Z M243 697 Q244 687 249 676 Q254 665 263 655.5 Q272 646 285 640 Q298 634 314 634 Q332 634 345.5 640 Q359 646 368 655.5 Q377 665 381.5 676 Q386 687 386 697 L457 697 Q455 677 448 654.5 Q441 632 424.5 613 Q408 594 381.5 581 Q355 568 314 568 Q273 568 245.5 581 Q218 594 201.5 613 Q185 632 177.5 654.5 Q170 677 170 697 L243 697 Z " />
<glyph glyph-name="Edotaccent" unicode="&#x116;" horiz-adv-x="600" d="M90 0 L90 696 L516 696 L516 615 L178 615 L178 400 L480 400 L480 323 L178 323 L178 81 L536 81 L536 0 L90 0 Z M261 767 L261 855 L349 855 L349 767 L261 767 Z " />
<glyph glyph-name="edotaccent" unicode="&#x117;" horiz-adv-x="600" d="M188 220 L188 212 Q188 183 196 157 Q204 131 220 111.5 Q236 92 260 81 Q284 70 316 70 Q340 70 371.5 82 Q403 94 428 117 L481 58 Q446 24 402 9 Q358 -6 312 -6 Q274 -6 236.5 4.5 Q199 15 169 43 Q139 71 120.5 120 Q102 169 102 246 Q102 319 121 368.5 Q140 418 170 447.5 Q200 477 237 489.5 Q274 502 309 502 Q350 502 386 487.5 Q422 473 449 445 Q476 417 491.5 376.5 Q507 336 507 284 L507 220 L188 220 Z M305 424 Q254 424 223 389 Q192 354 188 289 L421 289 Q418 356 387 390 Q356 424 305 424 Z M267 597 L267 685 L355 685 L355 597 L267 597 Z " />
<glyph glyph-name="Eogonek" unicode="&#x118;" horiz-adv-x="600" d="M346 -101 Q346 -79 355 -54.5 Q364 -30 385 0 L90 0 L90 696 L516 696 L516 615 L178 615 L178 400 L480 400 L480 323 L178 323 L178 81 L536 81 L536 0 L455 0 Q437 -24 429 -45 Q421 -66 421 -84 Q421 -107 435.5 -119.5 Q450 -132 476 -132 Q490 -132 506 -129 Q522 -126 543 -118 L565 -171 Q548 -182 521 -189.5 Q494 -197 465 -197 Q410 -197 378 -168.5 Q346 -140 346 -101 Z " />
<glyph glyph-name="eogonek" unicode="&#x119;" horiz-adv-x="600" d="M334 -74 Q334 -40 354 -3 Q333 -6 312 -6 Q274 -6 236.5 4.5 Q199 15 169 43 Q139 71 120.5 120 Q102 169 102 246 Q102 319 121 368.5 Q140 418 170 447.5 Q200 477 237 489.5 Q274 502 309 502 Q350 502 386 487.5 Q422 473 449 445 Q476 417 491.5 376.5 Q507 336 507 284 L507 220 L188 220 L188 212 Q188 183 196 157 Q204 131 220 111.5 Q236 92 260 81 Q284 70 316 70 Q340 70 371.5 82 Q403 94 428 117 L481 58 Q466 43 445 30 Q409 -18 409 -57 Q409 -80 423.5 -92.5 Q438 -105 464 -105 Q478 -105 494 -102 Q510 -99 531 -91 L553 -144 Q536 -155 509 -162.5 Q482 -170 453 -170 Q398 -170 366 -141.5 Q334 -113 334 -74 Z M305 424 Q254 424 223 389 Q192 354 188 289 L421 289 Q418 356 387 390 Q356 424 305 424 Z " />
<glyph glyph-name="ecaron" unicode="&#x11b;" horiz-adv-x="600" d="M188 220 L188 212 Q188 183 196 157 Q204 131 220 111.5 Q236 92 260 81 Q284 70 316 70 Q340 70 371.5 82 Q403 94 428 117 L481 58 Q446 24 402 9 Q358 -6 312 -6 Q274 -6 236.5 4.5 Q199 15 169 43 Q139 71 120.5 120 Q102 169 102 246 Q102 319 121 368.5 Q140 418 170 447.5 Q200 477 237 489.5 Q274 502 309 502 Q350 502 386 487.5 Q422 473 449 445 Q476 417 491.5 376.5 Q507 336 507 284 L507 220 L188 220 Z M305 424 Q254 424 223 389 Q192 354 188 289 L421 289 Q418 356 387 390 Q356 424 305 424 Z M444 743 L484 704 L341 553 L288 553 L138 706 L177 744 L311 637 L444 743 Z " />
<glyph glyph-name="gcircumflex" unicode="&#x11d;" horiz-adv-x="600" d="M488 9 Q488 -47 470.5 -87.5 Q453 -128 423.5 -154 Q394 -180 355 -192.5 Q316 -205 273 -205 Q231 -205 188 -192 Q145 -179 113 -148 L162 -81 Q182 -98 214 -112 Q246 -126 275 -126 Q331 -126 368 -94 Q405 -62 405 -2 L405 56 L403 56 Q372 21 338.5 8 Q305 -5 268 -5 Q215 -5 181 15.5 Q147 36 127 70 Q107 104 99 147.5 Q91 191 91 237 Q91 285 97.5 332.5 Q104 380 124 417.5 Q144 455 180.5 478.5 Q217 502 276 502 Q312 502 347.5 486 Q383 470 403 441 L405 441 L405 496 L488 496 L488 9 Z M176 248 Q176 214 179.5 183 Q183 152 194.5 128.5 Q206 105 228.5 91 Q251 77 289 77 Q326 77 349 93 Q372 109 384.5 134 Q397 159 401 189.5 Q405 220 405 248 Q405 273 402.5 303 Q400 333 388.5 359.5 Q377 386 354 403.5 Q331 421 291 421 Q252 421 229 405 Q206 389 194.5 364 Q183 339 179.5 308.5 Q176 278 176 248 Z M297 659 L163 552 L124 590 L274 743 L327 743 L470 592 L430 553 L297 659 Z " />
<glyph glyph-name="gbreve" unicode="&#x11f;" horiz-adv-x="600" d="M488 9 Q488 -47 470.5 -87.5 Q453 -128 423.5 -154 Q394 -180 355 -192.5 Q316 -205 273 -205 Q231 -205 188 -192 Q145 -179 113 -148 L162 -81 Q182 -98 214 -112 Q246 -126 275 -126 Q331 -126 368 -94 Q405 -62 405 -2 L405 56 L403 56 Q372 21 338.5 8 Q305 -5 268 -5 Q215 -5 181 15.5 Q147 36 127 70 Q107 104 99 147.5 Q91 191 91 237 Q91 285 97.5 332.5 Q104 380 124 417.5 Q144 455 180.5 478.5 Q217 502 276 502 Q312 502 347.5 486 Q383 470 403 441 L405 441 L405 496 L488 496 L488 9 Z M176 248 Q176 214 179.5 183 Q183 152 194.5 128.5 Q206 105 228.5 91 Q251 77 289 77 Q326 77 349 93 Q372 109 384.5 134 Q397 159 401 189.5 Q405 220 405 248 Q405 273 402.5 303 Q400 333 388.5 359.5 Q377 386 354 403.5 Q331 421 291 421 Q252 421 229 405 Q206 389 194.5 364 Q183 339 179.5 308.5 Q176 278 176 248 Z M224 697 Q225 687 230 676 Q235 665 244 655.5 Q253 646 266 640 Q279 634 295 634 Q313 634 326.5 640 Q340 646 349 655.5 Q358 665 362.5 676 Q367 687 367 697 L438 697 Q436 677 429 654.5 Q422 632 405.5 613 Q389 594 362.5 581 Q336 568 295 568 Q254 568 226.5 581 Q199 594 182.5 613 Q166 632 158.5 654.5 Q151 677 151 697 L224 697 Z " />
<glyph glyph-name="Gdotaccent" unicode="&#x120;" horiz-adv-x="600" d="M300 75 Q342 75 372 88.5 Q402 102 421.5 125 Q441 148 450 177.5 Q459 207 459 240 L459 293 L312 293 L312 373 L547 373 L547 241 Q547 188 530.5 142.5 Q514 97 482.5 64 Q451 31 404.5 12 Q358 -7 299 -7 Q236 -7 189.5 12.5 Q143 32 112.5 66 Q82 100 67 145.5 Q52 191 52 243 L52 454 Q52 503 67 548 Q82 593 113 627 Q144 661 190.5 681 Q237 701 299 701 Q384 701 446 662 Q508 623 535 556 L457 516 Q448 538 432.5 557 Q417 576 396 589.5 Q375 603 350.5 610.5 Q326 618 299 618 Q254 618 223 602.5 Q192 587 173.5 562 Q155 537 147 505 Q139 473 139 440 L139 253 Q139 218 147.5 186 Q156 154 175.5 129.5 Q195 105 225.5 90 Q256 75 300 75 Z M260 767 L260 855 L348 855 L348 767 L260 767 Z " />
<glyph glyph-name="gdotaccent" unicode="&#x121;" horiz-adv-x="600" d="M488 9 Q488 -47 470.5 -87.5 Q453 -128 423.5 -154 Q394 -180 355 -192.5 Q316 -205 273 -205 Q231 -205 188 -192 Q145 -179 113 -148 L162 -81 Q182 -98 214 -112 Q246 -126 275 -126 Q331 -126 368 -94 Q405 -62 405 -2 L405 56 L403 56 Q372 21 338.5 8 Q305 -5 268 -5 Q215 -5 181 15.5 Q147 36 127 70 Q107 104 99 147.5 Q91 191 91 237 Q91 285 97.5 332.5 Q104 380 124 417.5 Q144 455 180.5 478.5 Q217 502 276 502 Q312 502 347.5 486 Q383 470 403 441 L405 441 L405 496 L488 496 L488 9 Z M176 248 Q176 214 179.5 183 Q183 152 194.5 128.5 Q206 105 228.5 91 Q251 77 289 77 Q326 77 349 93 Q372 109 384.5 134 Q397 159 401 189.5 Q405 220 405 248 Q405 273 402.5 303 Q400 333 388.5 359.5 Q377 386 354 403.5 Q331 421 291 421 Q252 421 229 405 Q206 389 194.5 364 Q183 339 179.5 308.5 Q176 278 176 248 Z M259 597 L259 685 L347 685 L347 597 L259 597 Z " />
<glyph glyph-name="Gcommaaccent" unicode="&#x122;" horiz-adv-x="600" d="M300 75 Q342 75 372 88.5 Q402 102 421.5 125 Q441 148 450 177.5 Q459 207 459 240 L459 293 L312 293 L312 373 L547 373 L547 241 Q547 188 530.5 142.5 Q514 97 482.5 64 Q451 31 404.5 12 Q358 -7 299 -7 Q236 -7 189.5 12.5 Q143 32 112.5 66 Q82 100 67 145.5 Q52 191 52 243 L52 454 Q52 503 67 548 Q82 593 113 627 Q144 661 190.5 681 Q237 701 299 701 Q384 701 446 662 Q508 623 535 556 L457 516 Q448 538 432.5 557 Q417 576 396 589.5 Q375 603 350.5 610.5 Q326 618 299 618 Q254 618 223 602.5 Q192 587 173.5 562 Q155 537 147 505 Q139 473 139 440 L139 253 Q139 218 147.5 186 Q156 154 175.5 129.5 Q195 105 225.5 90 Q256 75 300 75 Z M294 -275 L243 -275 L281 -169 L250 -169 L250 -58 L353 -58 L353 -167 L294 -275 Z " />
<glyph glyph-name="gcommaaccent" unicode="&#x123;" horiz-adv-x="600" d="M299 771 L350 771 L312 675 L343 675 L343 564 L240 564 L240 673 L299 771 Z M488 9 Q488 -47 470.5 -87.5 Q453 -128 423.5 -154 Q394 -180 355 -192.5 Q316 -205 273 -205 Q231 -205 188 -192 Q145 -179 113 -148 L162 -81 Q182 -98 214 -112 Q246 -126 275 -126 Q331 -126 368 -94 Q405 -62 405 -2 L405 56 L403 56 Q372 21 338.5 8 Q305 -5 268 -5 Q215 -5 181 15.5 Q147 36 127 70 Q107 104 99 147.5 Q91 191 91 237 Q91 285 97.5 332.5 Q104 380 124 417.5 Q144 455 180.5 478.5 Q217 502 276 502 Q312 502 347.5 486 Q383 470 403 441 L405 441 L405 496 L488 496 L488 9 Z M176 248 Q176 214 179.5 183 Q183 152 194.5 128.5 Q206 105 228.5 91 Q251 77 289 77 Q326 77 349 93 Q372 109 384.5 134 Q397 159 401 189.5 Q405 220 405 248 Q405 273 402.5 303 Q400 333 388.5 359.5 Q377 386 354 403.5 Q331 421 291 421 Q252 421 229 405 Q206 389 194.5 364 Q183 339 179.5 308.5 Q176 278 176 248 Z " />
<glyph glyph-name="hcircumflex" unicode="&#x125;" horiz-adv-x="600" d="M461 0 L461 297 Q461 354 437.5 387 Q414 420 352 420 Q327 420 305.5 411.5 Q284 403 267.5 387 Q251 371 241.5 348 Q232 325 232 297 L232 0 L150 0 L150 726 L232 726 L232 434 L235 434 Q261 466 297 483.5 Q333 501 373 501 Q409 501 440 490.5 Q471 480 494 458.5 Q517 437 530 404.5 Q543 372 543 329 L543 0 L461 0 Z M198 834 L64 727 L25 765 L175 918 L228 918 L371 767 L331 728 L198 834 Z " />
<glyph glyph-name="Hbar" unicode="&#x126;" horiz-adv-x="600" d="M454 0 L454 324 L146 324 L146 0 L58 0 L58 535 L29 535 L29 595 L58 595 L58 696 L146 696 L146 595 L454 595 L454 696 L542 696 L542 595 L569 595 L569 535 L542 535 L542 0 L454 0 Z M454 401 L454 535 L146 535 L146 401 L454 401 Z " />
<glyph glyph-name="hbar" unicode="&#x127;" horiz-adv-x="600" d="M73 639 L134 639 L134 726 L216 726 L216 639 L432 639 L432 572 L216 572 L216 428 L219 428 Q245 460 282.5 477.5 Q320 495 360 495 Q396 495 426.5 484.5 Q457 474 479.5 452.5 Q502 431 514.5 398.5 Q527 366 527 323 L527 0 L445 0 L445 291 Q445 348 421.5 381 Q398 414 336 414 Q311 414 289.5 405.5 Q268 397 251.5 381 Q235 365 225.5 342 Q216 319 216 291 L216 0 L134 0 L134 572 L73 572 L73 639 Z " />
<glyph glyph-name="Itilde" unicode="&#x128;" horiz-adv-x="600" d="M122 696 L482 696 L482 616 L341 616 L341 81 L482 81 L482 0 L122 0 L122 81 L253 81 L253 616 L122 616 L122 696 Z M229 878 Q247 878 265.5 870.5 Q284 863 301 854.5 Q318 846 334 838.5 Q350 831 363 831 Q378 831 393 841.5 Q408 852 424 876 L476 847 Q454 801 427.5 779.5 Q401 758 369 758 Q351 758 333.5 764.5 Q316 771 299 779 Q282 787 266.5 793.5 Q251 800 236 800 Q219 800 205.5 791.5 Q192 783 173 760 L121 789 Q141 831 170 854.5 Q199 878 229 878 Z " />
<glyph glyph-name="itilde" unicode="&#x129;" horiz-adv-x="600" d="M495 0 L142 0 L142 76 L281 76 L281 424 L141 424 L141 496 L363 496 L363 76 L495 76 L495 0 Z M231 699 Q249 699 267.5 691.5 Q286 684 303 675.5 Q320 667 336 659.5 Q352 652 365 652 Q380 652 395 662.5 Q410 673 426 697 L478 668 Q456 622 429.5 600.5 Q403 579 371 579 Q353 579 335.5 585.5 Q318 592 301 600 Q284 608 268.5 614.5 Q253 621 238 621 Q221 621 207.5 612.5 Q194 604 175 581 L123 610 Q143 652 172 675.5 Q201 699 231 699 Z " />
<glyph glyph-name="imacron" unicode="&#x12b;" horiz-adv-x="600" d="M494 0 L141 0 L141 76 L280 76 L280 424 L140 424 L140 496 L362 496 L362 76 L494 76 L494 0 Z M156 600 L156 675 L424 675 L424 600 L156 600 Z " />
<glyph glyph-name="ibreve" unicode="&#x12d;" horiz-adv-x="600" d="M494 0 L141 0 L141 76 L280 76 L280 424 L140 424 L140 496 L362 496 L362 76 L494 76 L494 0 Z M229 703 Q230 693 235 682 Q240 671 249 661.5 Q258 652 271 646 Q284 640 300 640 Q318 640 331.5 646 Q345 652 354 661.5 Q363 671 367.5 682 Q372 693 372 703 L443 703 Q441 683 434 660.5 Q427 638 410.5 619 Q394 600 367.5 587 Q341 574 300 574 Q259 574 231.5 587 Q204 600 187.5 619 Q171 638 163.5 660.5 Q156 683 156 703 L229 703 Z " />
<glyph glyph-name="Iogonek" unicode="&#x12e;" horiz-adv-x="600" d="M218 -101 Q218 -79 227 -54.5 Q236 -30 257 0 L122 0 L122 81 L253 81 L253 616 L122 616 L122 696 L482 696 L482 616 L341 616 L341 81 L482 81 L482 0 L327 0 Q309 -24 301 -45 Q293 -66 293 -84 Q293 -107 307.5 -119.5 Q322 -132 348 -132 Q362 -132 378 -129 Q394 -126 415 -118 L437 -171 Q420 -182 393 -189.5 Q366 -197 337 -197 Q282 -197 250 -168.5 Q218 -140 218 -101 Z " />
<glyph glyph-name="iogonek" unicode="&#x12f;" horiz-adv-x="600" d="M242 -100 Q242 -78 250.5 -53.5 Q259 -29 280 0 L142 0 L142 76 L281 76 L281 424 L141 424 L141 496 L363 496 L363 76 L495 76 L495 0 L350 0 Q332 -24 324.5 -44.5 Q317 -65 317 -83 Q317 -106 331.5 -118.5 Q346 -131 372 -131 Q386 -131 402 -128 Q418 -125 439 -117 L461 -170 Q444 -181 417 -188.5 Q390 -196 361 -196 Q306 -196 274 -167.5 Q242 -139 242 -100 Z M263 596 L263 696 L363 696 L363 596 L263 596 Z " />
<glyph glyph-name="Idotaccent" unicode="&#x130;" horiz-adv-x="600" d="M122 696 L482 696 L482 616 L341 616 L341 81 L482 81 L482 0 L122 0 L122 81 L253 81 L253 616 L122 616 L122 696 Z M255 767 L255 855 L343 855 L343 767 L255 767 Z " />
<glyph glyph-name="dotlessi" unicode="&#x131;" horiz-adv-x="600" d="M495 0 L142 0 L142 76 L281 76 L281 424 L141 424 L141 496 L363 496 L363 76 L495 76 L495 0 Z " />
<glyph glyph-name="IJ" unicode="&#x132;" horiz-adv-x="600" d="M543 222 Q543 158 526.5 114.5 Q510 71 481 44 Q452 17 413 5.5 Q374 -6 330 -6 Q277 -6 232 14 Q187 34 158 66 L216 131 Q225 122 238 112.5 Q251 103 266 95 Q281 87 297 82 Q313 77 327 77 Q352 77 375 83 Q398 89 416 105 Q434 121 444.5 149.5 Q455 178 455 223 L455 696 L543 696 L543 222 Z M58 696 L145 696 L145 0 L58 0 L58 696 Z " />
<glyph glyph-name="ij" unicode="&#x133;" horiz-adv-x="600" d="M166 496 L248 496 L248 0 L166 0 L166 496 Z M161 596 L161 696 L261 696 L261 596 L161 596 Z M267 -196 L267 -121 L319 -121 Q340 -121 355 -118 Q370 -115 379 -105.5 Q388 -96 392.5 -79.5 Q397 -63 397 -36 L397 496 L480 496 L480 -43 Q480 -76 473.5 -104.5 Q467 -133 450 -153 Q433 -173 404 -184.5 Q375 -196 330 -196 L267 -196 Z M387 596 L387 696 L487 696 L487 596 L387 596 Z " />
<glyph glyph-name="jcircumflex" unicode="&#x135;" horiz-adv-x="600" d="M174 -196 L174 -121 L226 -121 Q247 -121 262 -118 Q277 -115 286 -105.5 Q295 -96 299.5 -79.5 Q304 -63 304 -36 L304 424 L144 424 L144 496 L387 496 L387 -43 Q387 -76 380.5 -104.5 Q374 -133 357 -153 Q340 -173 311 -184.5 Q282 -196 237 -196 L174 -196 Z M318 659 L184 552 L145 590 L295 743 L348 743 L491 592 L451 553 L318 659 Z " />
<glyph glyph-name="kcommaaccent" unicode="&#x137;" horiz-adv-x="600" d="M453 0 L289 249 L199 150 L199 0 L117 0 L117 726 L199 726 L199 257 L202 257 L416 496 L513 496 L344 309 L548 0 L453 0 Z M298 -259 L247 -259 L285 -153 L254 -153 L254 -42 L357 -42 L357 -151 L298 -259 Z " />
<glyph glyph-name="kgreenlandic" unicode="&#x138;" horiz-adv-x="600" d="M453 0 L289 249 L199 150 L199 0 L117 0 L117 496 L199 496 L199 257 L202 257 L416 496 L513 496 L344 309 L548 0 L453 0 Z " />
<glyph glyph-name="Lacute" unicode="&#x139;" horiz-adv-x="600" d="M125 0 L125 696 L213 696 L213 81 L555 81 L555 0 L125 0 Z M121 780 L269 902 L328 841 L158 738 L121 780 Z " />
<glyph glyph-name="lacute" unicode="&#x13a;" horiz-adv-x="600" d="M495 0 L142 0 L142 76 L281 76 L281 654 L141 654 L141 726 L363 726 L363 76 L495 76 L495 0 Z M261 799 L409 921 L468 860 L298 757 L261 799 Z " />
<glyph glyph-name="Lcommaaccent" unicode="&#x13b;" horiz-adv-x="600" d="M125 0 L125 696 L213 696 L213 81 L555 81 L555 0 L125 0 Z M341 -275 L290 -275 L328 -169 L297 -169 L297 -58 L400 -58 L400 -167 L341 -275 Z " />
<glyph glyph-name="lcommaaccent" unicode="&#x13c;" horiz-adv-x="600" d="M495 0 L142 0 L142 76 L281 76 L281 654 L141 654 L141 726 L363 726 L363 76 L495 76 L495 0 Z M314 -275 L263 -275 L301 -169 L270 -169 L270 -58 L373 -58 L373 -167 L314 -275 Z " />
<glyph glyph-name="Lcaron" unicode="&#x13d;" horiz-adv-x="600" d="M125 0 L125 696 L213 696 L213 81 L555 81 L555 0 L125 0 Z M386 477 L335 477 L373 583 L342 583 L342 694 L445 694 L445 585 L386 477 Z " />
<glyph glyph-name="lcaron" unicode="&#x13e;" horiz-adv-x="600" d="M495 0 L142 0 L142 76 L281 76 L281 654 L141 654 L141 726 L363 726 L363 76 L495 76 L495 0 Z M472 505 L421 505 L459 611 L428 611 L428 722 L531 722 L531 613 L472 505 Z " />
<glyph glyph-name="Ldot" unicode="&#x13f;" horiz-adv-x="600" d="M125 0 L125 696 L213 696 L213 81 L555 81 L555 0 L125 0 Z M349 311 L349 399 L437 399 L437 311 L349 311 Z " />
<glyph glyph-name="ldot" unicode="&#x140;" horiz-adv-x="600" d="M444 338 L444 426 L532 426 L532 338 L444 338 Z M498 0 L145 0 L145 76 L284 76 L284 654 L144 654 L144 726 L366 726 L366 76 L498 76 L498 0 Z " />
<glyph glyph-name="Lslash" unicode="&#x141;" horiz-adv-x="600" d="M125 0 L125 235 L68 202 L35 260 L125 312 L125 696 L213 696 L213 364 L300 415 L333 357 L213 287 L213 81 L555 81 L555 0 L125 0 Z " />
<glyph glyph-name="lslash" unicode="&#x142;" horiz-adv-x="600" d="M495 0 L142 0 L142 76 L281 76 L281 315 L194 274 L165 333 L281 388 L281 654 L141 654 L141 726 L363 726 L363 427 L456 472 L485 413 L363 354 L363 76 L495 76 L495 0 Z " />
<glyph glyph-name="nacute" unicode="&#x144;" horiz-adv-x="600" d="M414 0 L414 288 Q414 352 392 386 Q370 420 315 420 Q255 420 220 387 Q185 354 185 297 L185 0 L103 0 L103 496 L185 496 L185 434 L188 434 Q214 466 252.5 483.5 Q291 501 331 501 Q367 501 397 490.5 Q427 480 449 458.5 Q471 437 483.5 404.5 Q496 372 496 329 L496 0 L414 0 Z M230 571 L302 748 L383 723 L283 551 L230 571 Z " />
<glyph glyph-name="Ncommaaccent" unicode="&#x145;" horiz-adv-x="600" d="M433 0 L170 514 L167 513 L167 0 L79 0 L79 696 L169 696 L432 178 L435 180 L435 696 L522 696 L522 0 L433 0 Z M291 -259 L240 -259 L278 -153 L247 -153 L247 -42 L350 -42 L350 -151 L291 -259 Z " />
<glyph glyph-name="ncommaaccent" unicode="&#x146;" horiz-adv-x="600" d="M414 0 L414 288 Q414 352 392 386 Q370 420 315 420 Q255 420 220 387 Q185 354 185 297 L185 0 L103 0 L103 496 L185 496 L185 434 L188 434 Q214 466 252.5 483.5 Q291 501 331 501 Q367 501 397 490.5 Q427 480 449 458.5 Q471 437 483.5 404.5 Q496 372 496 329 L496 0 L414 0 Z M293 -259 L242 -259 L280 -153 L249 -153 L249 -42 L352 -42 L352 -151 L293 -259 Z " />
<glyph glyph-name="ncaron" unicode="&#x148;" horiz-adv-x="600" d="M414 0 L414 288 Q414 352 392 386 Q370 420 315 420 Q255 420 220 387 Q185 354 185 297 L185 0 L103 0 L103 496 L185 496 L185 434 L188 434 Q214 466 252.5 483.5 Q291 501 331 501 Q367 501 397 490.5 Q427 480 449 458.5 Q471 437 483.5 404.5 Q496 372 496 329 L496 0 L414 0 Z M432 743 L472 704 L329 553 L276 553 L126 706 L165 744 L299 637 L432 743 Z " />
<glyph glyph-name="napostrophe" unicode="&#x149;" horiz-adv-x="600" d="M84 496 L33 496 L71 589 L40 589 L40 700 L143 700 L143 591 L84 496 Z M445 0 L445 288 Q445 352 423 386 Q401 420 346 420 Q286 420 251 387 Q216 354 216 297 L216 0 L134 0 L134 496 L216 496 L216 434 L219 434 Q245 466 283.5 483.5 Q322 501 362 501 Q398 501 428 490.5 Q458 480 480 458.5 Q502 437 514.5 404.5 Q527 372 527 329 L527 0 L445 0 Z " />
<glyph glyph-name="Eng" unicode="&#x14a;" horiz-adv-x="600" d="M522 -47 Q522 -68 516.5 -95.5 Q511 -123 494.5 -148 Q478 -173 448.5 -190 Q419 -207 371 -207 Q351 -207 328 -204.5 Q305 -202 283 -197 L294 -130 Q311 -133 330 -135 Q349 -137 361 -137 Q379 -137 393.5 -133.5 Q408 -130 418.5 -120 Q429 -110 434.5 -92.5 Q440 -75 440 -47 L440 -14 L170 514 L167 513 L167 0 L79 0 L79 696 L166 696 L432 178 L435 180 L435 696 L522 696 L522 -47 L522 -47 Z " />
<glyph glyph-name="eng" unicode="&#x14b;" horiz-adv-x="600" d="M496 -26 Q496 -47 490.5 -74.5 Q485 -102 468.5 -127 Q452 -152 422.5 -169 Q393 -186 345 -186 Q325 -186 302 -183.5 Q279 -181 257 -176 L268 -109 Q285 -112 304 -114 Q323 -116 335 -116 Q353 -116 367.5 -112.5 Q382 -109 392.5 -99 Q403 -89 408.5 -71.5 Q414 -54 414 -26 L414 297 Q414 354 387.5 386.5 Q361 419 300 419 Q250 419 218 385.5 Q186 352 186 297 L186 0 L103 0 L103 496 L186 496 L186 436 L190 436 Q215 468 252.5 484.5 Q290 501 330 501 Q364 501 394.5 489.5 Q425 478 447.5 456.5 Q470 435 483 403 Q496 371 496 330 L496 -26 Z " />
<glyph glyph-name="omacron" unicode="&#x14d;" horiz-adv-x="600" d="M303 500 Q359 500 402 478.5 Q445 457 471 417 Q488 390 496.5 351.5 Q505 313 505 265 Q505 201 498 157.5 Q491 114 474 85 Q448 41 404 17.5 Q360 -6 296 -6 Q242 -6 200 12.5 Q158 31 132 69 Q112 100 103.5 143 Q95 186 95 246 Q95 288 100.5 324.5 Q106 361 120 390 Q145 444 193 472 Q241 500 303 500 Z M301 426 Q225 426 195 359 Q184 336 181 307 Q178 278 177 245 Q177 212 179 184.5 Q181 157 191 135 Q205 103 232.5 86 Q260 69 297 69 Q340 69 370 90 Q400 111 414 157 Q419 175 420.5 198.5 Q422 222 422 262 Q422 291 419.5 314 Q417 337 409 355 Q395 392 365.5 409 Q336 426 301 426 Z M171 600 L171 675 L439 675 L439 600 L171 600 Z " />
<glyph glyph-name="obreve" unicode="&#x14f;" horiz-adv-x="600" d="M303 500 Q359 500 402 478.5 Q445 457 471 417 Q488 390 496.5 351.5 Q505 313 505 265 Q505 201 498 157.5 Q491 114 474 85 Q448 41 404 17.5 Q360 -6 296 -6 Q242 -6 200 12.5 Q158 31 132 69 Q112 100 103.5 143 Q95 186 95 246 Q95 288 100.5 324.5 Q106 361 120 390 Q145 444 193 472 Q241 500 303 500 Z M301 426 Q225 426 195 359 Q184 336 181 307 Q178 278 177 245 Q177 212 179 184.5 Q181 157 191 135 Q205 103 232.5 86 Q260 69 297 69 Q340 69 370 90 Q400 111 414 157 Q419 175 420.5 198.5 Q422 222 422 262 Q422 291 419.5 314 Q417 337 409 355 Q395 392 365.5 409 Q336 426 301 426 Z M234 697 Q235 687 240 676 Q245 665 254 655.5 Q263 646 276 640 Q289 634 305 634 Q323 634 336.5 640 Q350 646 359 655.5 Q368 665 372.5 676 Q377 687 377 697 L448 697 Q446 677 439 654.5 Q432 632 415.5 613 Q399 594 372.5 581 Q346 568 305 568 Q264 568 236.5 581 Q209 594 192.5 613 Q176 632 168.5 654.5 Q161 677 161 697 L234 697 Z " />
<glyph glyph-name="ohungarumlaut" unicode="&#x151;" horiz-adv-x="600" d="M303 500 Q359 500 402 478.5 Q445 457 471 417 Q488 390 496.5 351.5 Q505 313 505 265 Q505 201 498 157.5 Q491 114 474 85 Q448 41 404 17.5 Q360 -6 296 -6 Q242 -6 200 12.5 Q158 31 132 69 Q112 100 103.5 143 Q95 186 95 246 Q95 288 100.5 324.5 Q106 361 120 390 Q145 444 193 472 Q241 500 303 500 Z M301 426 Q225 426 195 359 Q184 336 181 307 Q178 278 177 245 Q177 212 179 184.5 Q181 157 191 135 Q205 103 232.5 86 Q260 69 297 69 Q340 69 370 90 Q400 111 414 157 Q419 175 420.5 198.5 Q422 222 422 262 Q422 291 419.5 314 Q417 337 409 355 Q395 392 365.5 409 Q336 426 301 426 Z M197 571 L269 748 L350 723 L250 551 L197 571 Z M327 571 L399 748 L480 723 L380 551 L327 571 Z " />
<glyph glyph-name="racute" unicode="&#x155;" horiz-adv-x="600" d="M493 391 Q473 406 447.5 413.5 Q422 421 399 421 Q344 421 310.5 390.5 Q277 360 277 300 L277 0 L195 0 L195 496 L277 496 L277 433 L281 433 Q308 470 344.5 485.5 Q381 501 421 501 Q447 501 478.5 492.5 Q510 484 530 470 L493 391 Z M272 571 L344 748 L425 723 L325 551 L272 571 Z " />
<glyph glyph-name="Rcommaaccent" unicode="&#x156;" horiz-adv-x="600" d="M451 0 L309 295 L171 295 L171 0 L83 0 L83 696 L347 696 Q392 696 429 681.5 Q466 667 492.5 640.5 Q519 614 533.5 578 Q548 542 548 500 Q548 428 507.5 374.5 Q467 321 398 304 L547 0 L451 0 Z M460 500 Q460 559 424 588 Q388 617 331 617 L171 617 L171 374 L327 374 Q392 374 426 407 Q460 440 460 500 Z M281 -259 L230 -259 L268 -153 L237 -153 L237 -42 L340 -42 L340 -151 L281 -259 Z " />
<glyph glyph-name="rcommaaccent" unicode="&#x157;" horiz-adv-x="600" d="M493 391 Q473 406 447.5 413.5 Q422 421 399 421 Q344 421 310.5 390.5 Q277 360 277 300 L277 0 L195 0 L195 496 L277 496 L277 433 L281 433 Q308 470 344.5 485.5 Q381 501 421 501 Q447 501 478.5 492.5 Q510 484 530 470 L493 391 Z M233 -259 L182 -259 L220 -153 L189 -153 L189 -42 L292 -42 L292 -151 L233 -259 Z " />
<glyph glyph-name="rcaron" unicode="&#x159;" horiz-adv-x="600" d="M493 391 Q473 406 447.5 413.5 Q422 421 399 421 Q344 421 310.5 390.5 Q277 360 277 300 L277 0 L195 0 L195 496 L277 496 L277 433 L281 433 Q308 470 344.5 485.5 Q381 501 421 501 Q447 501 478.5 492.5 Q510 484 530 470 L493 391 Z M434 743 L474 704 L331 553 L278 553 L128 706 L167 744 L301 637 L434 743 Z " />
<glyph glyph-name="sacute" unicode="&#x15b;" horiz-adv-x="600" d="M501 147 Q501 112 487 84 Q473 56 447 36 Q421 16 385 5 Q349 -6 306 -6 Q252 -6 198 11 Q144 28 99 66 L149 129 Q184 99 222.5 84 Q261 69 310 69 Q355 69 387 87.5 Q419 106 419 145 Q419 177 397.5 191.5 Q376 206 344 213 Q312 220 274 225.5 Q236 231 204 244 Q172 257 150.5 283 Q129 309 129 358 Q129 392 143.5 419 Q158 446 182.5 464 Q207 482 240 491.5 Q273 501 310 501 Q367 501 409.5 487 Q452 473 487 447 L443 381 Q414 401 381.5 413 Q349 425 304 425 Q261 425 235 408 Q209 391 209 362 Q209 328 240.5 312.5 Q272 297 345 287 Q375 283 403 274.5 Q431 266 453 250.5 Q475 235 488 209.5 Q501 184 501 147 Z M262 571 L334 748 L415 723 L315 551 L262 571 Z " />
<glyph glyph-name="scircumflex" unicode="&#x15d;" horiz-adv-x="600" d="M501 147 Q501 112 487 84 Q473 56 447 36 Q421 16 385 5 Q349 -6 306 -6 Q252 -6 198 11 Q144 28 99 66 L149 129 Q184 99 222.5 84 Q261 69 310 69 Q355 69 387 87.5 Q419 106 419 145 Q419 177 397.5 191.5 Q376 206 344 213 Q312 220 274 225.5 Q236 231 204 244 Q172 257 150.5 283 Q129 309 129 358 Q129 392 143.5 419 Q158 446 182.5 464 Q207 482 240 491.5 Q273 501 310 501 Q367 501 409.5 487 Q452 473 487 447 L443 381 Q414 401 381.5 413 Q349 425 304 425 Q261 425 235 408 Q209 391 209 362 Q209 328 240.5 312.5 Q272 297 345 287 Q375 283 403 274.5 Q431 266 453 250.5 Q475 235 488 209.5 Q501 184 501 147 Z M312 659 L178 552 L139 590 L289 743 L342 743 L485 592 L445 553 L312 659 Z " />
<glyph glyph-name="Scedilla" unicode="&#x15e;" horiz-adv-x="600" d="M548 198 Q548 151 531 114.5 Q514 78 483 52 Q452 26 409 12 Q366 -2 314 -3 L303 -39 Q332 -41 351 -49.5 Q370 -58 381.5 -70.5 Q393 -83 398 -97 Q403 -111 403 -123 Q403 -136 397.5 -150.5 Q392 -165 379.5 -177.5 Q367 -190 346.5 -198 Q326 -206 295 -206 Q275 -206 254 -202.5 Q233 -199 208 -188 L225 -145 Q246 -154 263.5 -157 Q281 -160 295 -160 Q315 -160 328.5 -150 Q342 -140 342 -124 Q342 -105 326 -94.5 Q310 -84 284 -84 L270 -84 L250 -63 L269 -1 Q211 4 152 27.5 Q93 51 48 92 L101 159 Q141 120 194.5 98 Q248 76 309 76 Q340 76 367.5 83 Q395 90 415.5 105 Q436 120 447.5 143.5 Q459 167 459 199 Q459 229 446.5 250.5 Q434 272 413 287 Q392 302 363.5 312 Q335 322 304 329 Q265 338 225.5 349 Q186 360 155 380 Q124 400 104.5 432.5 Q85 465 85 516 Q85 562 103.5 597.5 Q122 633 152.5 656 Q183 679 223 691 Q263 703 307 703 Q375 703 428.5 687 Q482 671 524 636 L480 566 Q443 591 402 606 Q361 621 313 621 Q245 621 208 595 Q171 569 171 521 Q171 494 182 475.5 Q193 457 215.5 444 Q238 431 273.5 420.5 Q309 410 358 398 Q390 390 423.5 377.5 Q457 365 484.5 342.5 Q512 320 530 285 Q548 250 548 198 Z " />
<glyph glyph-name="scedilla" unicode="&#x15f;" horiz-adv-x="600" d="M501 147 Q501 113 487.5 85.5 Q474 58 449 38 Q424 18 389.5 6.5 Q355 -5 313 -6 L303 -39 Q332 -41 351 -49.5 Q370 -58 381.5 -70.5 Q393 -83 398 -97 Q403 -111 403 -123 Q403 -136 397.5 -150.5 Q392 -165 379.5 -177.5 Q367 -190 346.5 -198 Q326 -206 295 -206 Q275 -206 254 -202.5 Q233 -199 208 -188 L225 -145 Q246 -154 263.5 -157 Q281 -160 295 -160 Q315 -160 328.5 -150 Q342 -140 342 -124 Q342 -105 326 -94.5 Q310 -84 284 -84 L270 -84 L250 -63 L268 -4 Q223 1 179.5 17.5 Q136 34 99 66 L149 129 Q184 99 222.5 84 Q261 69 310 69 Q355 69 387 87.5 Q419 106 419 145 Q419 177 397.5 191.5 Q376 206 344 213 Q312 220 274 225.5 Q236 231 204 244 Q172 257 150.5 283 Q129 309 129 358 Q129 392 143.5 419 Q158 446 182.5 464 Q207 482 240 491.5 Q273 501 310 501 Q367 501 409.5 487 Q452 473 487 447 L443 381 Q414 401 381.5 413 Q349 425 304 425 Q261 425 235 408 Q209 391 209 362 Q209 328 240.5 312.5 Q272 297 345 287 Q375 283 403 274.5 Q431 266 453 250.5 Q475 235 488 209.5 Q501 184 501 147 Z " />
<glyph glyph-name="Tcommaaccent" unicode="&#x162;" horiz-adv-x="600" d="M346 616 L346 0 L322 0 L310 -39 Q339 -41 358 -49.5 Q377 -58 388.5 -70.5 Q400 -83 405 -97 Q410 -111 410 -123 Q410 -136 404.5 -150.5 Q399 -165 386.5 -177.5 Q374 -190 353.5 -198 Q333 -206 302 -206 Q282 -206 261 -202.5 Q240 -199 215 -188 L232 -145 Q253 -154 270.5 -157 Q288 -160 302 -160 Q322 -160 335.5 -150 Q349 -140 349 -124 Q349 -105 333 -94.5 Q317 -84 291 -84 L277 -84 L257 -63 L276 0 L258 0 L258 616 L60 616 L60 696 L544 696 L544 616 L346 616 Z " />
<glyph glyph-name="tcommaaccent" unicode="&#x163;" horiz-adv-x="600" d="M93 424 L93 496 L228 496 L228 636 L309 636 L309 496 L535 496 L535 424 L309 424 L309 170 Q309 150 312.5 131.5 Q316 113 325.5 99 Q335 85 352.5 76.5 Q370 68 399 68 Q428 68 457.5 77.5 Q487 87 512 109 L553 44 Q510 12 467 2.5 Q424 -7 394 -7 Q355 -7 322 2 L309 -39 Q338 -41 357 -49.5 Q376 -58 387.5 -70.5 Q399 -83 404 -97 Q409 -111 409 -123 Q409 -136 403.5 -150.5 Q398 -165 385.5 -177.5 Q373 -190 352.5 -198 Q332 -206 301 -206 Q281 -206 260 -202.5 Q239 -199 214 -188 L231 -145 Q252 -154 269.5 -157 Q287 -160 301 -160 Q321 -160 334.5 -150 Q348 -140 348 -124 Q348 -105 332 -94.5 Q316 -84 290 -84 L276 -84 L256 -63 L282 22 Q256 42 241 75 Q226 108 226 161 L226 424 L93 424 Z " />
<glyph glyph-name="tcaron" unicode="&#x165;" horiz-adv-x="600" d="M93 424 L93 496 L228 496 L228 636 L309 636 L309 496 L535 496 L535 424 L309 424 L309 170 Q309 150 312.5 131.5 Q316 113 325.5 99 Q335 85 352.5 76.5 Q370 68 399 68 Q428 68 457.5 77.5 Q487 87 512 109 L553 44 Q510 12 467 2.5 Q424 -7 394 -7 Q358 -7 327 1.5 Q296 10 273.5 29.5 Q251 49 238.5 81 Q226 113 226 161 L226 424 L93 424 Z M469 533 L418 533 L456 639 L425 639 L425 750 L528 750 L528 641 L469 533 Z " />
<glyph glyph-name="Tbar" unicode="&#x166;" horiz-adv-x="600" d="M346 616 L346 403 L495 403 L495 333 L346 333 L346 0 L258 0 L258 333 L117 333 L117 403 L258 403 L258 616 L60 616 L60 696 L544 696 L544 616 L346 616 Z " />
<glyph glyph-name="tbar" unicode="&#x167;" horiz-adv-x="600" d="M93 424 L93 496 L228 496 L228 636 L309 636 L309 496 L535 496 L535 424 L309 424 L309 311 L440 311 L440 246 L309 246 L309 170 Q309 150 312.5 131.5 Q316 113 325.5 99 Q335 85 352.5 76.5 Q370 68 399 68 Q428 68 457.5 77.5 Q487 87 512 109 L553 44 Q510 12 467 2.5 Q424 -7 394 -7 Q358 -7 327 1.5 Q296 10 273.5 29.5 Q251 49 238.5 81 Q226 113 226 161 L226 246 L118 246 L118 311 L226 311 L226 424 L93 424 Z " />
<glyph glyph-name="Utilde" unicode="&#x168;" horiz-adv-x="600" d="M538 696 L538 254 Q538 198 524 150 Q510 102 480.5 67.5 Q451 33 406 13.5 Q361 -6 300 -6 Q234 -6 188.5 15 Q143 36 115 72 Q87 108 75 155 Q63 202 63 254 L63 696 L150 696 L150 261 Q150 226 157 193.5 Q164 161 181.5 135 Q199 109 228 93.5 Q257 78 301 78 Q382 78 416 126.5 Q450 175 450 261 L450 696 L538 696 Z M238 869 Q256 869 274.5 861.5 Q293 854 310 845.5 Q327 837 343 829.5 Q359 822 372 822 Q387 822 402 832.5 Q417 843 433 867 L485 838 Q463 792 436.5 770.5 Q410 749 378 749 Q360 749 342.5 755.5 Q325 762 308 770 Q291 778 275.5 784.5 Q260 791 245 791 Q228 791 214.5 782.5 Q201 774 182 751 L130 780 Q150 822 179 845.5 Q208 869 238 869 Z " />
<glyph glyph-name="utilde" unicode="&#x169;" horiz-adv-x="600" d="M414 0 L414 56 L411 56 Q386 24 349.5 9 Q313 -6 275 -6 Q237 -6 205 3.5 Q173 13 150.5 34 Q128 55 115.5 88 Q103 121 103 167 L103 496 L185 496 L185 198 Q185 166 190 142 Q195 118 208 102.5 Q221 87 243 79.5 Q265 72 299 72 Q348 72 381 106.5 Q414 141 414 198 L414 496 L496 496 L496 0 L414 0 Z M233 699 Q251 699 269.5 691.5 Q288 684 305 675.5 Q322 667 338 659.5 Q354 652 367 652 Q382 652 397 662.5 Q412 673 428 697 L480 668 Q458 622 431.5 600.5 Q405 579 373 579 Q355 579 337.5 585.5 Q320 592 303 600 Q286 608 270.5 614.5 Q255 621 240 621 Q223 621 209.5 612.5 Q196 604 177 581 L125 610 Q145 652 174 675.5 Q203 699 233 699 Z " />
<glyph glyph-name="umacron" unicode="&#x16b;" horiz-adv-x="600" d="M414 0 L414 56 L411 56 Q386 24 349.5 9 Q313 -6 275 -6 Q237 -6 205 3.5 Q173 13 150.5 34 Q128 55 115.5 88 Q103 121 103 167 L103 496 L185 496 L185 198 Q185 166 190 142 Q195 118 208 102.5 Q221 87 243 79.5 Q265 72 299 72 Q348 72 381 106.5 Q414 141 414 198 L414 496 L496 496 L496 0 L414 0 Z M174 600 L174 675 L442 675 L442 600 L174 600 Z " />
<glyph glyph-name="ubreve" unicode="&#x16d;" horiz-adv-x="600" d="M414 0 L414 56 L411 56 Q386 24 349.5 9 Q313 -6 275 -6 Q237 -6 205 3.5 Q173 13 150.5 34 Q128 55 115.5 88 Q103 121 103 167 L103 496 L185 496 L185 198 Q185 166 190 142 Q195 118 208 102.5 Q221 87 243 79.5 Q265 72 299 72 Q348 72 381 106.5 Q414 141 414 198 L414 496 L496 496 L496 0 L414 0 Z M231 697 Q232 687 237 676 Q242 665 251 655.5 Q260 646 273 640 Q286 634 302 634 Q320 634 333.5 640 Q347 646 356 655.5 Q365 665 369.5 676 Q374 687 374 697 L445 697 Q443 677 436 654.5 Q429 632 412.5 613 Q396 594 369.5 581 Q343 568 302 568 Q261 568 233.5 581 Q206 594 189.5 613 Q173 632 165.5 654.5 Q158 677 158 697 L231 697 Z " />
<glyph glyph-name="Uring" unicode="&#x16e;" horiz-adv-x="600" d="M538 696 L538 254 Q538 198 524 150 Q510 102 480.5 67.5 Q451 33 406 13.5 Q361 -6 300 -6 Q234 -6 188.5 15 Q143 36 115 72 Q87 108 75 155 Q63 202 63 254 L63 696 L150 696 L150 261 Q150 226 157 193.5 Q164 161 181.5 135 Q199 109 228 93.5 Q257 78 301 78 Q382 78 416 126.5 Q450 175 450 261 L450 696 L538 696 Z M304 708 Q262 708 233.5 736.5 Q205 765 205 806 Q205 847 233.5 875.5 Q262 904 304 904 Q345 904 373.5 875.5 Q402 847 402 806 Q402 765 373.5 736.5 Q345 708 304 708 Z M304 861 Q281 861 265 845 Q249 829 249 806 Q249 783 265 767 Q281 751 304 751 Q327 751 343 767 Q359 783 359 806 Q359 829 343 845 Q327 861 304 861 Z " />
<glyph glyph-name="uring" unicode="&#x16f;" horiz-adv-x="600" d="M414 0 L414 56 L411 56 Q386 24 349.5 9 Q313 -6 275 -6 Q237 -6 205 3.5 Q173 13 150.5 34 Q128 55 115.5 88 Q103 121 103 167 L103 496 L185 496 L185 198 Q185 166 190 142 Q195 118 208 102.5 Q221 87 243 79.5 Q265 72 299 72 Q348 72 381 106.5 Q414 141 414 198 L414 496 L496 496 L496 0 L414 0 Z M302 546 Q260 546 231.5 574.5 Q203 603 203 644 Q203 685 231.5 713.5 Q260 742 302 742 Q343 742 371.5 713.5 Q400 685 400 644 Q400 603 371.5 574.5 Q343 546 302 546 Z M302 699 Q279 699 263 683 Q247 667 247 644 Q247 621 263 605 Q279 589 302 589 Q325 589 341 605 Q357 621 357 644 Q357 667 341 683 Q325 699 302 699 Z " />
<glyph glyph-name="uhungarumlaut" unicode="&#x171;" horiz-adv-x="600" d="M414 0 L414 56 L411 56 Q386 24 349.5 9 Q313 -6 275 -6 Q237 -6 205 3.5 Q173 13 150.5 34 Q128 55 115.5 88 Q103 121 103 167 L103 496 L185 496 L185 198 Q185 166 190 142 Q195 118 208 102.5 Q221 87 243 79.5 Q265 72 299 72 Q348 72 381 106.5 Q414 141 414 198 L414 496 L496 496 L496 0 L414 0 Z M188 571 L260 748 L341 723 L241 551 L188 571 Z M318 571 L390 748 L471 723 L371 551 L318 571 Z " />
<glyph glyph-name="Uogonek" unicode="&#x172;" horiz-adv-x="600" d="M237 -99 Q237 -79 245 -56 Q253 -33 272 -5 Q213 -1 173.5 21.5 Q134 44 109 79.5 Q84 115 73.5 159.5 Q63 204 63 254 L63 696 L150 696 L150 261 Q150 226 157 193.5 Q164 161 181.5 135 Q199 109 228 93.5 Q257 78 301 78 Q382 78 416 126.5 Q450 175 450 261 L450 696 L538 696 L538 254 Q538 203 526 158.5 Q514 114 490 80.5 Q466 47 429 25 Q392 3 342 -3 Q312 -46 312 -82 Q312 -105 326.5 -117.5 Q341 -130 367 -130 Q381 -130 397 -127 Q413 -124 434 -116 L456 -169 Q439 -180 412 -187.5 Q385 -195 356 -195 Q301 -195 269 -166.5 Q237 -138 237 -99 Z " />
<glyph glyph-name="uogonek" unicode="&#x173;" horiz-adv-x="600" d="M375 -99 Q375 -77 383.5 -52.5 Q392 -28 414 1 L414 56 L411 56 Q386 24 349.5 9 Q313 -6 275 -6 Q237 -6 205 3.5 Q173 13 150.5 34 Q128 55 115.5 88 Q103 121 103 167 L103 496 L185 496 L185 198 Q185 166 190 142 Q195 118 208 102.5 Q221 87 243 79.5 Q265 72 299 72 Q348 72 381 106.5 Q414 141 414 198 L414 496 L496 496 L496 0 L482 0 Q465 -23 457.5 -43.5 Q450 -64 450 -82 Q450 -105 464.5 -117.5 Q479 -130 505 -130 Q519 -130 535 -127 Q551 -124 572 -116 L594 -169 Q577 -180 550 -187.5 Q523 -195 494 -195 Q439 -195 407 -166.5 Q375 -138 375 -99 Z " />
<glyph glyph-name="wcircumflex" unicode="&#x175;" horiz-adv-x="600" d="M299 259 L218 0 L134 0 L41 496 L125 496 L186 133 L190 133 L266 376 L342 376 L422 133 L427 133 L481 496 L562 496 L472 0 L387 0 L305 259 L299 259 Z M300 659 L166 552 L127 590 L277 743 L330 743 L473 592 L433 553 L300 659 Z " />
<glyph glyph-name="ycircumflex" unicode="&#x177;" horiz-adv-x="600" d="M325 -52 Q308 -99 288.5 -127.5 Q269 -156 246.5 -171.5 Q224 -187 199 -192 Q174 -197 146 -197 L110 -197 L110 -125 L145 -125 Q182 -125 206.5 -107.5 Q231 -90 247 -40 L263 10 L81 496 L172 496 L251 271 Q262 241 276 201 Q290 161 303 116 L307 116 Q321 160 332.5 197 Q344 234 356 270 L433 496 L519 496 L325 -52 Z M302 659 L168 552 L129 590 L279 743 L332 743 L475 592 L435 553 L302 659 Z " />
<glyph glyph-name="zacute" unicode="&#x17a;" horiz-adv-x="600" d="M116 0 L116 68 L389 424 L137 424 L137 496 L483 496 L483 425 L214 76 L492 76 L492 0 L116 0 Z M276 571 L348 748 L429 723 L329 551 L276 571 Z " />
<glyph glyph-name="Zdotaccent" unicode="&#x17b;" horiz-adv-x="600" d="M78 0 L78 77 L420 616 L98 616 L98 696 L520 696 L520 626 L179 81 L530 81 L530 0 L78 0 Z M272 767 L272 855 L360 855 L360 767 L272 767 Z " />
<glyph glyph-name="zdotaccent" unicode="&#x17c;" horiz-adv-x="600" d="M116 0 L116 68 L389 424 L137 424 L137 496 L483 496 L483 425 L214 76 L492 76 L492 0 L116 0 Z M262 597 L262 685 L350 685 L350 597 L262 597 Z " />
<glyph glyph-name="AEacute" unicode="&#x1fc;" horiz-adv-x="600" d="M320 0 L320 205 L186 205 L119 0 L27 0 L266 696 L559 696 L559 615 L409 615 L409 401 L546 401 L546 324 L409 324 L409 81 L571 81 L571 0 L320 0 Z M316 599 L211 280 L320 280 L320 599 L316 599 Z M316 780 L464 902 L523 841 L353 738 L316 780 Z " />
<glyph glyph-name="aeacute" unicode="&#x1fd;" horiz-adv-x="600" d="M300 67 Q281 29 247.5 11.5 Q214 -6 169 -6 Q104 -6 69.5 35.5 Q35 77 35 142 Q35 171 43.5 198 Q52 225 70 245.5 Q88 266 116.5 278 Q145 290 186 290 L258 290 L258 349 Q258 389 236 407 Q214 425 181 425 Q155 425 131 414.5 Q107 404 87 390 L51 452 Q93 484 128.5 494 Q164 504 196 504 Q211 504 227 501.5 Q243 499 258 492.5 Q273 486 286.5 474.5 Q300 463 310 445 Q333 480 365 492 Q397 504 423 504 Q496 504 530.5 451 Q565 398 565 302 L565 225 L339 225 Q339 182 346 152 Q353 122 365.5 103 Q378 84 395 75.5 Q412 67 432 67 Q455 67 476.5 78.5 Q498 90 519 117 L569 70 Q544 32 507 13 Q470 -6 435 -6 Q418 -6 398.5 -2 Q379 2 360.5 10.5 Q342 19 326 33 Q310 47 300 67 Z M110 147 Q110 113 126 92 Q142 71 177 71 Q192 71 206.5 75 Q221 79 232.5 89.5 Q244 100 251 117.5 Q258 135 258 162 L258 221 L181 221 Q143 221 126.5 201 Q110 181 110 147 Z M488 290 Q488 363 471.5 395.5 Q455 428 415 428 Q379 428 360.5 391.5 Q342 355 339 290 L488 290 Z M273 571 L345 748 L426 723 L326 551 L273 571 Z " />
<glyph glyph-name="Oslashacute" unicode="&#x1fe;" horiz-adv-x="600" d="M299 701 Q350 701 391.5 686 Q433 671 465 643 L503 699 L546 670 L501 603 Q547 537 547 444 L547 252 Q547 193 529.5 145 Q512 97 479.5 63.5 Q447 30 401.5 12 Q356 -6 299 -6 Q242 -6 199.5 10 Q157 26 127 55 L88 -2 L46 27 L93 96 Q52 163 52 252 L52 444 Q52 495 67 541.5 Q82 588 113 623.5 Q144 659 190.5 680 Q237 701 299 701 Z M459 442 Q459 485 444 521 L177 129 Q197 105 226.5 90.5 Q256 76 300 76 Q341 76 371 90 Q401 104 420.5 128 Q440 152 449.5 185 Q459 218 459 257 L459 442 Z M300 618 Q255 618 224.5 603 Q194 588 175 563.5 Q156 539 147.5 507 Q139 475 139 442 L139 257 Q139 237 141.5 217.5 Q144 198 150 180 L415 569 Q395 592 366 605 Q337 618 300 618 Z M240 780 L388 902 L447 841 L277 738 L240 780 Z " />
<glyph glyph-name="oslashacute" unicode="&#x1ff;" horiz-adv-x="600" d="M303 500 Q375 500 425 465 L467 524 L505 497 L459 432 L471 417 Q488 390 496.5 351.5 Q505 313 505 265 Q505 201 498 157.5 Q491 114 474 85 Q448 41 404 17.5 Q360 -6 296 -6 Q222 -6 173 27 L136 -25 L99 3 L139 59 Q135 63 132 69 Q112 100 103.5 143 Q95 186 95 246 Q95 288 100.5 324.5 Q106 361 120 390 Q145 444 193 472 Q241 500 303 500 Z M301 426 Q225 426 195 359 Q184 336 181 307 Q178 278 177 245 Q177 212 179 184.5 Q181 157 191 135 L191 134 L379 399 Q347 426 301 426 Z M407 359 L220 94 Q249 69 297 69 Q340 69 370 90 Q400 111 414 157 Q419 175 420.5 198.5 Q422 222 422 262 Q422 291 419.5 314 Q417 337 409 355 L407 359 Z M257 571 L329 748 L410 723 L310 551 L257 571 Z " />
<glyph glyph-name="Scaron" unicode="&#x160;" horiz-adv-x="600" d="M548 198 Q548 151 530.5 113.5 Q513 76 481 50 Q449 24 404.5 10.5 Q360 -3 306 -3 Q274 -3 239.5 3 Q205 9 171.5 21 Q138 33 106 50.5 Q74 68 48 92 L101 159 Q141 120 194.5 98 Q248 76 309 76 Q340 76 367.5 83 Q395 90 415.5 105 Q436 120 447.5 143.5 Q459 167 459 199 Q459 229 446.5 250.5 Q434 272 413 287 Q392 302 363.5 312 Q335 322 304 329 Q265 338 225.5 349 Q186 360 155 380 Q124 400 104.5 432.5 Q85 465 85 516 Q85 562 103.5 597.5 Q122 633 152.5 656 Q183 679 223 691 Q263 703 307 703 Q375 703 428.5 687 Q482 671 524 636 L480 566 Q443 591 402 606 Q361 621 313 621 Q245 621 208 595 Q171 569 171 521 Q171 494 182 475.5 Q193 457 215.5 444 Q238 431 273.5 420.5 Q309 410 358 398 Q390 390 423.5 377.5 Q457 365 484.5 342.5 Q512 320 530 285 Q548 250 548 198 Z M443 908 L473 869 L330 742 L277 742 L127 871 L156 909 L300 822 L443 908 Z " />
<glyph glyph-name="Zcaron" unicode="&#x17d;" horiz-adv-x="600" d="M78 0 L78 77 L420 616 L98 616 L98 696 L520 696 L520 626 L179 81 L530 81 L530 0 L78 0 Z M456 908 L486 869 L343 742 L290 742 L140 871 L169 909 L313 822 L456 908 Z " />
<glyph glyph-name="scaron" unicode="&#x161;" horiz-adv-x="600" d="M501 147 Q501 112 487 84 Q473 56 447 36 Q421 16 385 5 Q349 -6 306 -6 Q252 -6 198 11 Q144 28 99 66 L149 129 Q184 99 222.5 84 Q261 69 310 69 Q355 69 387 87.5 Q419 106 419 145 Q419 177 397.5 191.5 Q376 206 344 213 Q312 220 274 225.5 Q236 231 204 244 Q172 257 150.5 283 Q129 309 129 358 Q129 392 143.5 419 Q158 446 182.5 464 Q207 482 240 491.5 Q273 501 310 501 Q367 501 409.5 487 Q452 473 487 447 L443 381 Q414 401 381.5 413 Q349 425 304 425 Q261 425 235 408 Q209 391 209 362 Q209 328 240.5 312.5 Q272 297 345 287 Q375 283 403 274.5 Q431 266 453 250.5 Q475 235 488 209.5 Q501 184 501 147 Z M438 743 L478 704 L335 553 L282 553 L132 706 L171 744 L305 637 L438 743 Z " />
<glyph glyph-name="zcaron" unicode="&#x17e;" horiz-adv-x="600" d="M116 0 L116 68 L389 424 L137 424 L137 496 L483 496 L483 425 L214 76 L492 76 L492 0 L116 0 Z M438 743 L478 704 L335 553 L282 553 L132 706 L171 744 L305 637 L438 743 Z " />
<glyph glyph-name="Kcommaaccent" unicode="&#x136;" horiz-adv-x="600" d="M338 431 L573 0 L475 0 L283 359 L153 190 L153 0 L65 0 L65 696 L154 696 L154 322 L157 323 L445 696 L541 696 L338 431 Z M291 -259 L240 -259 L278 -153 L247 -153 L247 -42 L350 -42 L350 -151 L291 -259 Z " />
<glyph glyph-name="cent" unicode="&#xa2;" horiz-adv-x="600" d="M500 64 Q468 32 423.5 13 Q379 -6 328 -6 L327 -6 L320 -111 L267 -111 L275 0 Q240 7 209.5 24.5 Q179 42 156 71.5 Q133 101 119.5 144 Q106 187 106 245 Q106 310 123 357 Q140 404 168 435 Q196 466 233 481.5 Q270 497 310 500 L318 601 L369 601 L362 498 Q400 493 432.5 475.5 Q465 458 491 432 L438 372 Q404 409 356 418 L332 72 L335 72 Q367 72 397.5 87.5 Q428 103 446 123 L500 64 Z M188 247 Q188 178 211.5 136 Q235 94 280 80 L305 421 Q249 414 218.5 370 Q188 326 188 247 Z " />
<glyph glyph-name="partialdiff" unicode="&#x2202;" horiz-adv-x="600" d="M156 218 Q156 176 167 145.5 Q178 115 196 96 Q214 77 237.5 68 Q261 59 287 59 Q327 59 355.5 80.5 Q384 102 402 136.5 Q420 171 428.5 213 Q437 255 439 297 Q397 342 357 361 Q317 380 285 380 Q255 380 231 366 Q207 352 190.5 329 Q174 306 165 277 Q156 248 156 218 Z M77 216 Q77 268 92.5 310 Q108 352 135.5 381 Q163 410 200 426 Q237 442 279 442 Q318 442 356 427 Q394 412 437 377 Q434 435 420 486 Q406 537 381 575 Q356 613 320 635 Q284 657 236 657 Q220 657 203 655.5 Q186 654 169 649 L169 712 Q208 721 244 721 Q320 721 373 691 Q426 661 459.5 610 Q493 559 508 492 Q523 425 523 351 Q523 261 505 193.5 Q487 126 455 81 Q423 36 379 13 Q335 -10 283 -10 Q239 -10 201.5 4.5 Q164 19 136 47.5 Q108 76 92.5 118 Q77 160 77 216 Z " />
<glyph glyph-name="product" unicode="&#x220f;" horiz-adv-x="600" d="M454 -83 L454 619 L146 619 L146 -83 L58 -83 L58 696 L542 696 L542 -83 L454 -83 Z " />
<glyph glyph-name="summation" unicode="&#x2211;" horiz-adv-x="600" d="M80 -81 L80 -4 L248 307 L81 626 L81 696 L508 696 L508 619 L184 619 L351 307 L182 0 L520 0 L520 -81 L80 -81 Z " />
<glyph glyph-name="radical" unicode="&#x221a;" horiz-adv-x="600" d="M353 -81 L285 -81 L127 332 L56 309 L35 366 L174 411 L315 36 L489 797 L564 797 L353 -81 Z " />
<glyph glyph-name="infinity" unicode="&#x221e;" horiz-adv-x="600" d="M169 428 Q190 428 210 420.5 Q230 413 247 400 Q264 387 278 371 Q292 355 302 338 Q330 379 360.5 403.5 Q391 428 439 428 Q466 428 488.5 417.5 Q511 407 527.5 388 Q544 369 553 342.5 Q562 316 562 285 Q562 256 552 230.5 Q542 205 524.5 185.5 Q507 166 483.5 154.5 Q460 143 432 143 Q412 143 393.5 151 Q375 159 358.5 172 Q342 185 327.5 201 Q313 217 301 234 Q287 216 273 199.5 Q259 183 242.5 170.5 Q226 158 206.5 150.5 Q187 143 163 143 Q137 143 114 153.5 Q91 164 74.5 183 Q58 202 48.5 228 Q39 254 39 285 Q39 315 49 341 Q59 367 76.5 386.5 Q94 406 118 417 Q142 428 169 428 Z M169 365 Q156 365 144.5 358.5 Q133 352 124.5 341 Q116 330 111 315.5 Q106 301 106 285 Q106 251 124 228.5 Q142 206 167 206 Q195 206 221.5 229.5 Q248 253 265 285 Q257 298 246.5 312.5 Q236 327 223 338.5 Q210 350 196 357.5 Q182 365 169 365 Z M437 365 Q409 365 384.5 341.5 Q360 318 338 284 Q360 253 383 229.5 Q406 206 434 206 Q459 206 477 229.5 Q495 253 495 285 Q495 320 477.5 342.5 Q460 365 437 365 Z " />
<glyph glyph-name="integral" unicode="&#x222b;" horiz-adv-x="600" d="M255 79 Q260 139 262 227 Q264 315 264 441 Q264 483 266 521.5 Q268 560 272 590 Q283 682 316.5 728.5 Q350 775 421 775 Q435 775 457 771.5 Q479 768 494 762 L478 703 Q461 708 449 709.5 Q437 711 429 711 Q412 711 398 704 Q384 697 373.5 678 Q363 659 356 627 Q349 595 345 544 Q343 516 342.5 470 Q342 424 342 372.5 Q342 321 341.5 270 Q341 219 339 181 Q337 139 335 102 Q333 65 328 33 Q315 -66 278 -109 Q241 -152 171 -152 Q157 -152 139 -149 Q121 -146 106 -140 L122 -82 Q143 -87 153 -87.5 Q163 -88 171 -88 Q188 -88 202 -81 Q216 -74 226.5 -55 Q237 -36 244 -4 Q251 28 255 79 Z " />
<glyph glyph-name="approxequal" unicode="&#x2248;" horiz-adv-x="600" d="M525 389 Q497 344 466.5 321 Q436 298 390 298 Q370 298 346.5 308 Q323 318 299 330.5 Q275 343 251.5 353 Q228 363 207 363 Q180 363 165 350 Q150 337 131 312 L74 351 Q101 397 135 417 Q169 437 208 437 Q231 437 254.5 427 Q278 417 301.5 404.5 Q325 392 347.5 382 Q370 372 391 372 Q416 372 432 388.5 Q448 405 468 432 L525 389 Z M525 233 Q497 188 466.5 165 Q436 142 390 142 Q370 142 346.5 152 Q323 162 299 174.5 Q275 187 251.5 197 Q228 207 207 207 Q180 207 165 194 Q150 181 131 156 L74 195 Q101 241 135 261 Q169 281 208 281 Q231 281 254.5 271 Q278 261 301.5 248.5 Q325 236 347.5 226 Q370 216 391 216 Q416 216 432 232.5 Q448 249 468 276 L525 233 Z " />
<glyph glyph-name="notequal" unicode="&#x2260;" horiz-adv-x="600" d="M95 57 L169 165 L79 165 L79 232 L215 232 L301 357 L79 357 L79 424 L347 424 L433 548 L505 548 L419 424 L520 424 L520 357 L373 357 L287 232 L520 232 L520 165 L241 165 L166 55 L95 57 Z " />
<glyph glyph-name="lessequal" unicode="&#x2264;" horiz-adv-x="600" d="M519 105 L79 267 L79 327 L519 490 L519 419 L160 297 L519 176 L519 105 Z M79 3 L79 67 L520 67 L520 3 L79 3 Z " />
<glyph glyph-name="greaterequal" unicode="&#x2265;" horiz-adv-x="600" d="M80 174 L439 295 L80 417 L80 488 L520 325 L520 265 L80 103 L80 174 Z M79 1 L79 65 L520 65 L520 1 L79 1 Z " />
<glyph glyph-name="&amp;#x2044;" unicode="&#x2044;" horiz-adv-x="600" d="M117 -17 L56 -17 L481 713 L543 713 L117 -17 Z " />
<glyph glyph-name="&amp;#x2215;" unicode="&#x2215;" horiz-adv-x="600" d="M117 -17 L56 -17 L481 713 L543 713 L117 -17 Z " />
<glyph glyph-name="lozenge" unicode="&#x25ca;" horiz-adv-x="600" d="M335 -19 L266 -19 Q246 20 224 62.5 Q202 105 179.5 148.5 Q157 192 134.5 234.5 Q112 277 92 316 Q133 396 179 484.5 Q225 573 266 653 L336 653 L507 316 L335 -19 Z M300 557 L182 317 Q211 260 242.5 197.5 Q274 135 301 78 Q331 138 360 197 Q389 256 419 316 L300 557 Z " />
<glyph glyph-name="Scommaaccent" unicode="&#x218;" horiz-adv-x="600" d="M548 198 Q548 151 530.5 113.5 Q513 76 481 50 Q449 24 404.5 10.5 Q360 -3 306 -3 Q274 -3 239.5 3 Q205 9 171.5 21 Q138 33 106 50.5 Q74 68 48 92 L101 159 Q141 120 194.5 98 Q248 76 309 76 Q340 76 367.5 83 Q395 90 415.5 105 Q436 120 447.5 143.5 Q459 167 459 199 Q459 229 446.5 250.5 Q434 272 413 287 Q392 302 363.5 312 Q335 322 304 329 Q265 338 225.5 349 Q186 360 155 380 Q124 400 104.5 432.5 Q85 465 85 516 Q85 562 103.5 597.5 Q122 633 152.5 656 Q183 679 223 691 Q263 703 307 703 Q375 703 428.5 687 Q482 671 524 636 L480 566 Q443 591 402 606 Q361 621 313 621 Q245 621 208 595 Q171 569 171 521 Q171 494 182 475.5 Q193 457 215.5 444 Q238 431 273.5 420.5 Q309 410 358 398 Q390 390 423.5 377.5 Q457 365 484.5 342.5 Q512 320 530 285 Q548 250 548 198 Z M307 -267 L256 -267 L294 -161 L263 -161 L263 -50 L366 -50 L366 -159 L307 -267 Z " />
<glyph glyph-name="scommaaccent" unicode="&#x219;" horiz-adv-x="600" d="M501 147 Q501 112 487 84 Q473 56 447 36 Q421 16 385 5 Q349 -6 306 -6 Q252 -6 198 11 Q144 28 99 66 L149 129 Q184 99 222.5 84 Q261 69 310 69 Q355 69 387 87.5 Q419 106 419 145 Q419 177 397.5 191.5 Q376 206 344 213 Q312 220 274 225.5 Q236 231 204 244 Q172 257 150.5 283 Q129 309 129 358 Q129 392 143.5 419 Q158 446 182.5 464 Q207 482 240 491.5 Q273 501 310 501 Q367 501 409.5 487 Q452 473 487 447 L443 381 Q414 401 381.5 413 Q349 425 304 425 Q261 425 235 408 Q209 391 209 362 Q209 328 240.5 312.5 Q272 297 345 287 Q375 283 403 274.5 Q431 266 453 250.5 Q475 235 488 209.5 Q501 184 501 147 Z M307 -269 L256 -269 L294 -163 L263 -163 L263 -52 L366 -52 L366 -161 L307 -269 Z " />
<glyph glyph-name="primemod" unicode="&#x2b9;" horiz-adv-x="600" d="M397 670 L259 404 L202 422 L301 694 L397 670 Z " />
<glyph glyph-name="schwa" unicode="&#x259;" horiz-adv-x="600" d="M416 276 L416 284 Q416 313 408 339 Q400 365 384 384.5 Q368 404 344 415 Q320 426 288 426 Q264 426 232.5 414 Q201 402 176 379 L123 438 Q158 472 202 487 Q246 502 292 502 Q330 502 367.5 491.5 Q405 481 435 453 Q465 425 483.5 376 Q502 327 502 250 Q502 176 483 127 Q464 78 434 48.5 Q404 19 367 6.5 Q330 -6 295 -6 Q254 -6 218 8.5 Q182 23 155 51 Q128 79 112.5 119.5 Q97 160 97 212 L97 276 L416 276 Z M299 72 Q350 72 381 107 Q412 142 416 207 L183 207 Q186 140 217 106 Q248 72 299 72 Z " />
<glyph glyph-name="perthousand" unicode="&#x2030;" horiz-adv-x="600" d="M575 495 L25 249 L25 306 L575 552 L575 495 Z M298 104 Q298 53 267 23.5 Q236 -6 186 -6 Q137 -6 106 23.5 Q75 53 75 104 L75 166 Q75 216 105 245.5 Q135 275 186 275 Q238 275 268 245.5 Q298 216 298 166 L298 104 Z M232 163 Q232 184 220.5 199 Q209 214 186 214 Q165 214 153 199 Q141 184 141 163 L141 107 Q141 84 153 69.5 Q165 55 186 55 Q209 55 220.5 69.5 Q232 84 232 107 L232 163 Z M549 104 Q549 53 518 23.5 Q487 -6 437 -6 Q388 -6 357 23.5 Q326 53 326 104 L326 166 Q326 216 356 245.5 Q386 275 437 275 Q489 275 519 245.5 Q549 216 549 166 L549 104 Z M483 163 Q483 184 471.5 199 Q460 214 437 214 Q416 214 404 199 Q392 184 392 163 L392 107 Q392 84 404 69.5 Q416 55 437 55 Q460 55 471.5 69.5 Q483 84 483 107 L483 163 Z M298 533 Q298 482 267 452.5 Q236 423 186 423 Q137 423 106 452.5 Q75 482 75 533 L75 595 Q75 645 105 674.5 Q135 704 186 704 Q238 704 268 674.5 Q298 645 298 595 L298 533 Z M232 592 Q232 613 220.5 628 Q209 643 186 643 Q165 643 153 628 Q141 613 141 592 L141 536 Q141 513 153 498.5 Q165 484 186 484 Q209 484 220.5 498.5 Q232 513 232 536 L232 592 Z " />
<glyph glyph-name="percent" unicode="&#x25;" horiz-adv-x="600" d="M296 508 Q296 480 286 457.5 Q276 435 259.5 419.5 Q243 404 220.5 395.5 Q198 387 173 387 Q148 387 126 395.5 Q104 404 87.5 419.5 Q71 435 61 457.5 Q51 480 51 508 L51 579 Q51 606 61 628.5 Q71 651 87.5 666.5 Q104 682 126 690.5 Q148 699 173 699 Q198 699 220.5 690.5 Q243 682 259.5 666.5 Q276 651 286 628.5 Q296 606 296 579 L296 508 Z M233 576 Q233 604 217.5 622 Q202 640 173 640 Q145 640 129.5 622 Q114 604 114 576 L114 511 Q114 482 129.5 464 Q145 446 173 446 Q202 446 217.5 464 Q233 482 233 511 L233 576 Z M96 -17 L35 -17 L500 713 L562 713 L96 -17 Z M541 115 Q541 87 531 64.5 Q521 42 504.5 26.5 Q488 11 465.5 2.5 Q443 -6 418 -6 Q393 -6 371 2.5 Q349 11 332.5 26.5 Q316 42 306 64.5 Q296 87 296 115 L296 186 Q296 213 306 235.5 Q316 258 332.5 273.5 Q349 289 371 297.5 Q393 306 418 306 Q443 306 465.5 297.5 Q488 289 504.5 273.5 Q521 258 531 235.5 Q541 213 541 186 L541 115 Z M478 183 Q478 211 462.5 229 Q447 247 418 247 Q390 247 374.5 229 Q359 211 359 183 L359 118 Q359 89 374.5 71 Q390 53 418 53 Q447 53 462.5 71 Q478 89 478 118 L478 183 Z " />
<glyph glyph-name="onequarter" unicode="&#xbc;" horiz-adv-x="600" d="M519 50 L519 0 L460 0 L460 50 L303 50 L303 98 L430 344 L495 344 L371 103 L460 103 L460 199 L519 199 L519 103 L547 103 L547 50 L519 50 Z M147 633 L77 597 L77 657 L151 696 L207 696 L207 353 L147 353 L147 633 Z M117 -17 L56 -17 L481 713 L543 713 L117 -17 Z " />
<glyph glyph-name="onehalf" unicode="&#xbd;" horiz-adv-x="600" d="M325 0 L325 51 L469 216 Q489 239 489 258 Q489 274 476.5 286.5 Q464 299 440 299 Q419 299 404.5 284 Q390 269 386 245 L328 253 Q335 298 366.5 324.5 Q398 351 440 351 Q487 351 518 327.5 Q549 304 549 259 Q549 242 541.5 223.5 Q534 205 520 188 L403 55 L545 55 L545 0 L325 0 Z M158 633 L88 597 L88 657 L162 696 L218 696 L218 353 L158 353 L158 633 Z M106 -17 L45 -17 L470 713 L532 713 L106 -17 Z " />
<glyph glyph-name="threequarters" unicode="&#xbe;" horiz-adv-x="600" d="M519 50 L519 0 L460 0 L460 50 L303 50 L303 98 L430 344 L495 344 L371 103 L460 103 L460 199 L519 199 L519 103 L547 103 L547 50 L519 50 Z M135 -17 L74 -17 L499 713 L561 713 L135 -17 Z M161 699 Q220 699 246 671.5 Q272 644 272 606 Q272 588 259.5 566.5 Q247 545 217 534 L217 531 Q234 526 245.5 517 Q257 508 264 496.5 Q271 485 274 473.5 Q277 462 277 453 Q277 432 268.5 412.5 Q260 393 244.5 378 Q229 363 207 354.5 Q185 346 159 346 Q125 346 93 366 Q61 386 50 434 L108 441 Q113 420 127 409.5 Q141 399 160 399 Q186 399 201 415.5 Q216 432 216 456 Q216 482 201 494.5 Q186 507 162 507 L129 507 L129 556 L157 556 Q182 556 197 568.5 Q212 581 212 601 Q212 622 199 635 Q186 648 161 648 Q146 648 131.5 636.5 Q117 625 110 603 L52 610 Q62 648 92.5 673.5 Q123 699 161 699 Z " />
<glyph glyph-name="onesuperior" unicode="&#xb9;" horiz-adv-x="600" d="M189 431 L296 431 L296 716 L196 664 L189 668 L189 727 L299 786 L362 786 L362 431 L458 431 L458 369 L189 369 L189 431 Z " />
<glyph glyph-name="threesuperior" unicode="&#xb3;" horiz-adv-x="600" d="M368 588 Q403 580 418.5 552 Q434 524 434 493 Q434 466 423.5 442.5 Q413 419 395 402 Q377 385 352.5 375 Q328 365 299 365 Q278 365 256.5 370 Q235 375 216.5 387 Q198 399 184 418 Q170 437 165 466 L230 475 Q236 449 254 436 Q272 423 295 423 Q332 423 349.5 444 Q367 465 367 495 Q367 527 347.5 543.5 Q328 560 298 560 L260 560 L260 615 L292 615 Q323 615 342.5 631 Q362 647 362 673 Q362 698 345.5 714 Q329 730 297 730 Q278 730 257.5 717 Q237 704 226 673 L171 691 Q185 735 219.5 762 Q254 789 301 789 Q334 789 357.5 779.5 Q381 770 397 754 Q413 738 420.5 718.5 Q428 699 428 679 Q428 653 412.5 629.5 Q397 606 368 592 L368 588 Z " />
<glyph glyph-name="twosuperior" unicode="&#xb2;" horiz-adv-x="600" d="M167 369 L167 426 L340 626 Q364 653 364 678 Q364 698 348.5 713.5 Q333 729 303 729 Q277 729 259 711.5 Q241 694 236 665 L170 674 Q178 727 216 757.5 Q254 788 304 788 Q358 788 395.5 760.5 Q433 733 433 679 Q433 659 424.5 636.5 Q416 614 399 595 L254 430 L428 430 L428 369 L167 369 Z " />
<glyph glyph-name="ordfeminine" unicode="&#xaa;" horiz-adv-x="600" d="M299 610 Q327 610 353 605 Q379 600 398 588 Q417 576 428.5 555.5 Q440 535 440 503 L440 279 L374 279 L374 321 Q359 301 335.5 288 Q312 275 280 275 Q220 275 190 302.5 Q160 330 160 375 Q160 414 187.5 443.5 Q215 473 272 473 L374 473 L374 504 Q374 527 356.5 539 Q339 551 301 551 Q270 551 251.5 543 Q233 535 221 522 L179 563 Q199 586 231.5 598 Q264 610 299 610 Z M223 378 Q223 357 239.5 345 Q256 333 291 333 Q307 333 322 335.5 Q337 338 348.5 344 Q360 350 367 360.5 Q374 371 374 387 L374 419 L286 419 Q256 419 239.5 408.5 Q223 398 223 378 Z " />
<glyph glyph-name="ordmasculine" unicode="&#xba;" horiz-adv-x="600" d="M300 552 Q258 552 239.5 522.5 Q221 493 221 445 Q221 391 238 362 Q255 333 298 333 Q336 333 356.5 359.5 Q377 386 377 447 Q377 552 300 552 Z M300 609 Q366 609 403.5 565 Q441 521 441 441 Q441 408 433.5 378 Q426 348 409 325 Q392 302 365 288.5 Q338 275 298 275 Q155 275 155 442 Q155 516 191.5 562.5 Q228 609 300 609 Z " />
<glyph glyph-name="uni021A" unicode="&#x21a;" horiz-adv-x="600" d="M346 616 L346 0 L258 0 L258 616 L60 616 L60 696 L544 696 L544 616 L346 616 Z M297 -267 L246 -267 L284 -161 L253 -161 L253 -50 L356 -50 L356 -159 L297 -267 Z " />
<glyph glyph-name="uni021B" unicode="&#x21b;" horiz-adv-x="600" d="M93 424 L93 496 L228 496 L228 636 L309 636 L309 496 L535 496 L535 424 L309 424 L309 170 Q309 150 312.5 131.5 Q316 113 325.5 99 Q335 85 352.5 76.5 Q370 68 399 68 Q428 68 457.5 77.5 Q487 87 512 109 L553 44 Q510 12 467 2.5 Q424 -7 394 -7 Q358 -7 327 1.5 Q296 10 273.5 29.5 Q251 49 238.5 81 Q226 113 226 161 L226 424 L93 424 Z M277 -269 L226 -269 L264 -163 L233 -163 L233 -52 L336 -52 L336 -161 L277 -269 Z " />
<glyph glyph-name="Circumflex" unicode="&#xf6c0;" horiz-adv-x="600" d="M300 826 L156 739 L127 777 L277 905 L330 905 L473 779 L443 740 L300 826 Z " />
<glyph glyph-name="commaaccent" unicode="&#xf6c3;" horiz-adv-x="600" d="M294 -275 L243 -275 L281 -169 L250 -169 L250 -58 L353 -58 L353 -167 L294 -275 Z " />
<glyph glyph-name="Acute" unicode="&#xf6c9;" horiz-adv-x="600" d="M196 780 L344 902 L403 841 L233 738 L196 780 Z " />
<glyph glyph-name="Caron" unicode="&#xf6ca;" horiz-adv-x="600" d="M443 908 L473 869 L330 742 L277 742 L127 871 L156 909 L300 822 L443 908 Z " />
<glyph glyph-name="Dieresis" unicode="&#xf6cb;" horiz-adv-x="600" d="M346 770 L346 858 L434 858 L434 770 L346 770 Z M166 770 L166 858 L254 858 L254 770 L166 770 Z " />
<glyph glyph-name="Grave" unicode="&#xf6ce;" horiz-adv-x="600" d="M366 738 L196 841 L255 902 L403 780 L366 738 Z " />
<glyph glyph-name="Hungarumlaut" unicode="&#xf6cf;" horiz-adv-x="600" d="M273 780 L421 902 L480 841 L310 738 L273 780 Z M120 780 L268 902 L327 841 L157 738 L120 780 Z " />
<glyph glyph-name="Macron" unicode="&#xf6d0;" horiz-adv-x="600" d="M166 780 L166 855 L434 855 L434 780 L166 780 Z " />
<glyph glyph-name="cyrBreve" unicode="&#xf6d1;" horiz-adv-x="600" d="M229 860 Q230 850 235 839 Q240 828 249 818.5 Q258 809 271 803 Q284 797 300 797 Q318 797 331.5 803 Q345 809 354 818.5 Q363 828 367.5 839 Q372 850 372 860 L443 860 Q441 840 434 817.5 Q427 795 410.5 776 Q394 757 367.5 744 Q341 731 300 731 Q259 731 231.5 744 Q204 757 187.5 776 Q171 795 163.5 817.5 Q156 840 156 860 L229 860 Z " />
<glyph glyph-name="minus" unicode="&#x2212;" horiz-adv-x="600" d="M79 262 L79 326 L520 326 L520 262 L79 262 Z " />
<glyph glyph-name="gradient" unicode="&#x2207;" horiz-adv-x="600" d="M573 696 L338 0 L262 0 L27 696 L573 696 Z M453 619 L146 619 L298 107 L301 107 L453 619 Z " />
<glyph glyph-name="Agrave" unicode="&#xc0;" horiz-adv-x="600" d="M421 171 L175 171 L121 0 L29 0 L252 696 L348 696 L568 0 L475 0 L421 171 Z M297 583 Q287 549 276 506.5 Q265 464 249 413 L199 246 L398 246 L352 402 Q336 451 324 497.5 Q312 544 301 583 L297 583 Z M313 738 L143 841 L202 902 L350 780 L313 738 Z " />
<glyph glyph-name="Aacute" unicode="&#xc1;" horiz-adv-x="600" d="M421 171 L175 171 L121 0 L29 0 L252 696 L348 696 L568 0 L475 0 L421 171 Z M297 583 Q287 549 276 506.5 Q265 464 249 413 L199 246 L398 246 L352 402 Q336 451 324 497.5 Q312 544 301 583 L297 583 Z M252 780 L400 902 L459 841 L289 738 L252 780 Z " />
<glyph glyph-name="Acircumflex" unicode="&#xc2;" horiz-adv-x="600" d="M421 171 L175 171 L121 0 L29 0 L252 696 L348 696 L568 0 L475 0 L421 171 Z M297 583 Q287 549 276 506.5 Q265 464 249 413 L199 246 L398 246 L352 402 Q336 451 324 497.5 Q312 544 301 583 L297 583 Z M300 826 L156 739 L127 777 L277 905 L330 905 L473 779 L443 740 L300 826 Z " />
<glyph glyph-name="Adieresis" unicode="&#xc4;" horiz-adv-x="600" d="M421 171 L175 171 L121 0 L29 0 L252 696 L348 696 L568 0 L475 0 L421 171 Z M297 583 Q287 549 276 506.5 Q265 464 249 413 L199 246 L398 246 L352 402 Q336 451 324 497.5 Q312 544 301 583 L297 583 Z M344 770 L344 858 L432 858 L432 770 L344 770 Z M164 770 L164 858 L252 858 L252 770 L164 770 Z " />
<glyph glyph-name="Egrave" unicode="&#xc8;" horiz-adv-x="600" d="M90 0 L90 696 L516 696 L516 615 L178 615 L178 400 L480 400 L480 323 L178 323 L178 81 L536 81 L536 0 L90 0 Z M370 738 L200 841 L259 902 L407 780 L370 738 Z " />
<glyph glyph-name="Eacute" unicode="&#xc9;" horiz-adv-x="600" d="M218 780 L366 902 L425 841 L255 738 L218 780 Z M90 0 L90 696 L516 696 L516 615 L178 615 L178 400 L480 400 L480 323 L178 323 L178 81 L536 81 L536 0 L90 0 Z " />
<glyph glyph-name="Ecircumflex" unicode="&#xca;" horiz-adv-x="600" d="M90 0 L90 696 L516 696 L516 615 L178 615 L178 400 L480 400 L480 323 L178 323 L178 81 L536 81 L536 0 L90 0 Z M299 826 L155 739 L126 777 L276 905 L329 905 L472 779 L442 740 L299 826 Z " />
<glyph glyph-name="Edieresis" unicode="&#xcb;" horiz-adv-x="600" d="M90 0 L90 696 L516 696 L516 615 L178 615 L178 400 L480 400 L480 323 L178 323 L178 81 L536 81 L536 0 L90 0 Z M346 770 L346 858 L434 858 L434 770 L346 770 Z M166 770 L166 858 L254 858 L254 770 L166 770 Z " />
<glyph glyph-name="Igrave" unicode="&#xcc;" horiz-adv-x="600" d="M122 696 L482 696 L482 616 L341 616 L341 81 L482 81 L482 0 L122 0 L122 81 L253 81 L253 616 L122 616 L122 696 Z M328 738 L158 841 L217 902 L365 780 L328 738 Z " />
<glyph glyph-name="Iacute" unicode="&#xcd;" horiz-adv-x="600" d="M122 696 L482 696 L482 616 L341 616 L341 81 L482 81 L482 0 L122 0 L122 81 L253 81 L253 616 L122 616 L122 696 Z M243 780 L391 902 L450 841 L280 738 L243 780 Z " />
<glyph glyph-name="Icircumflex" unicode="&#xce;" horiz-adv-x="600" d="M122 696 L482 696 L482 616 L341 616 L341 81 L482 81 L482 0 L122 0 L122 81 L253 81 L253 616 L122 616 L122 696 Z M299 826 L155 739 L126 777 L276 905 L329 905 L472 779 L442 740 L299 826 Z " />
<glyph glyph-name="Idieresis" unicode="&#xcf;" horiz-adv-x="600" d="M122 696 L482 696 L482 616 L341 616 L341 81 L482 81 L482 0 L122 0 L122 81 L253 81 L253 616 L122 616 L122 696 Z M346 770 L346 858 L434 858 L434 770 L346 770 Z M166 770 L166 858 L254 858 L254 770 L166 770 Z " />
<glyph glyph-name="Ograve" unicode="&#xd2;" horiz-adv-x="600" d="M299 701 Q357 701 403 681.5 Q449 662 481 628 Q513 594 530 546.5 Q547 499 547 444 L547 252 Q547 193 529.5 145 Q512 97 479.5 63.5 Q447 30 401.5 12 Q356 -6 299 -6 Q236 -6 189.5 15 Q143 36 112.5 71 Q82 106 67 153 Q52 200 52 252 L52 444 Q52 495 67 541.5 Q82 588 113 623.5 Q144 659 190.5 680 Q237 701 299 701 Z M300 618 Q255 618 224.5 603 Q194 588 175 563.5 Q156 539 147.5 507 Q139 475 139 442 L139 257 Q139 222 147.5 189.5 Q156 157 175 132 Q194 107 225 91.5 Q256 76 300 76 Q341 76 371 90 Q401 104 420.5 128 Q440 152 449.5 185 Q459 218 459 257 L459 442 Q459 478 448.5 510 Q438 542 417.5 566 Q397 590 367.5 604 Q338 618 300 618 Z M315 738 L145 841 L204 902 L352 780 L315 738 Z " />
<glyph glyph-name="Oacute" unicode="&#xd3;" horiz-adv-x="600" d="M299 701 Q357 701 403 681.5 Q449 662 481 628 Q513 594 530 546.5 Q547 499 547 444 L547 252 Q547 193 529.5 145 Q512 97 479.5 63.5 Q447 30 401.5 12 Q356 -6 299 -6 Q236 -6 189.5 15 Q143 36 112.5 71 Q82 106 67 153 Q52 200 52 252 L52 444 Q52 495 67 541.5 Q82 588 113 623.5 Q144 659 190.5 680 Q237 701 299 701 Z M300 618 Q255 618 224.5 603 Q194 588 175 563.5 Q156 539 147.5 507 Q139 475 139 442 L139 257 Q139 222 147.5 189.5 Q156 157 175 132 Q194 107 225 91.5 Q256 76 300 76 Q341 76 371 90 Q401 104 420.5 128 Q440 152 449.5 185 Q459 218 459 257 L459 442 Q459 478 448.5 510 Q438 542 417.5 566 Q397 590 367.5 604 Q338 618 300 618 Z M249 780 L397 902 L456 841 L286 738 L249 780 Z " />
<glyph glyph-name="Ocircumflex" unicode="&#xd4;" horiz-adv-x="600" d="M299 701 Q357 701 403 681.5 Q449 662 481 628 Q513 594 530 546.5 Q547 499 547 444 L547 252 Q547 193 529.5 145 Q512 97 479.5 63.5 Q447 30 401.5 12 Q356 -6 299 -6 Q236 -6 189.5 15 Q143 36 112.5 71 Q82 106 67 153 Q52 200 52 252 L52 444 Q52 495 67 541.5 Q82 588 113 623.5 Q144 659 190.5 680 Q237 701 299 701 Z M300 618 Q255 618 224.5 603 Q194 588 175 563.5 Q156 539 147.5 507 Q139 475 139 442 L139 257 Q139 222 147.5 189.5 Q156 157 175 132 Q194 107 225 91.5 Q256 76 300 76 Q341 76 371 90 Q401 104 420.5 128 Q440 152 449.5 185 Q459 218 459 257 L459 442 Q459 478 448.5 510 Q438 542 417.5 566 Q397 590 367.5 604 Q338 618 300 618 Z M296 826 L152 739 L123 777 L273 905 L326 905 L469 779 L439 740 L296 826 Z " />
<glyph glyph-name="Odieresis" unicode="&#xd6;" horiz-adv-x="600" d="M299 701 Q357 701 403 681.5 Q449 662 481 628 Q513 594 530 546.5 Q547 499 547 444 L547 252 Q547 193 529.5 145 Q512 97 479.5 63.5 Q447 30 401.5 12 Q356 -6 299 -6 Q236 -6 189.5 15 Q143 36 112.5 71 Q82 106 67 153 Q52 200 52 252 L52 444 Q52 495 67 541.5 Q82 588 113 623.5 Q144 659 190.5 680 Q237 701 299 701 Z M300 618 Q255 618 224.5 603 Q194 588 175 563.5 Q156 539 147.5 507 Q139 475 139 442 L139 257 Q139 222 147.5 189.5 Q156 157 175 132 Q194 107 225 91.5 Q256 76 300 76 Q341 76 371 90 Q401 104 420.5 128 Q440 152 449.5 185 Q459 218 459 257 L459 442 Q459 478 448.5 510 Q438 542 417.5 566 Q397 590 367.5 604 Q338 618 300 618 Z M339 770 L339 858 L427 858 L427 770 L339 770 Z M159 770 L159 858 L247 858 L247 770 L159 770 Z " />
<glyph glyph-name="Ugrave" unicode="&#xd9;" horiz-adv-x="600" d="M538 696 L538 254 Q538 198 524 150 Q510 102 480.5 67.5 Q451 33 406 13.5 Q361 -6 300 -6 Q234 -6 188.5 15 Q143 36 115 72 Q87 108 75 155 Q63 202 63 254 L63 696 L150 696 L150 261 Q150 226 157 193.5 Q164 161 181.5 135 Q199 109 228 93.5 Q257 78 301 78 Q382 78 416 126.5 Q450 175 450 261 L450 696 L538 696 Z M345 738 L175 841 L234 902 L382 780 L345 738 Z " />
<glyph glyph-name="Uacute" unicode="&#xda;" horiz-adv-x="600" d="M538 696 L538 254 Q538 198 524 150 Q510 102 480.5 67.5 Q451 33 406 13.5 Q361 -6 300 -6 Q234 -6 188.5 15 Q143 36 115 72 Q87 108 75 155 Q63 202 63 254 L63 696 L150 696 L150 261 Q150 226 157 193.5 Q164 161 181.5 135 Q199 109 228 93.5 Q257 78 301 78 Q382 78 416 126.5 Q450 175 450 261 L450 696 L538 696 Z M228 780 L376 902 L435 841 L265 738 L228 780 Z " />
<glyph glyph-name="Ucircumflex" unicode="&#xdb;" horiz-adv-x="600" d="M538 696 L538 254 Q538 198 524 150 Q510 102 480.5 67.5 Q451 33 406 13.5 Q361 -6 300 -6 Q234 -6 188.5 15 Q143 36 115 72 Q87 108 75 155 Q63 202 63 254 L63 696 L150 696 L150 261 Q150 226 157 193.5 Q164 161 181.5 135 Q199 109 228 93.5 Q257 78 301 78 Q382 78 416 126.5 Q450 175 450 261 L450 696 L538 696 Z M298 826 L154 739 L125 777 L275 905 L328 905 L471 779 L441 740 L298 826 Z " />
<glyph glyph-name="Udieresis" unicode="&#xdc;" horiz-adv-x="600" d="M538 696 L538 254 Q538 198 524 150 Q510 102 480.5 67.5 Q451 33 406 13.5 Q361 -6 300 -6 Q234 -6 188.5 15 Q143 36 115 72 Q87 108 75 155 Q63 202 63 254 L63 696 L150 696 L150 261 Q150 226 157 193.5 Q164 161 181.5 135 Q199 109 228 93.5 Q257 78 301 78 Q382 78 416 126.5 Q450 175 450 261 L450 696 L538 696 Z M344 770 L344 858 L432 858 L432 770 L344 770 Z M164 770 L164 858 L252 858 L252 770 L164 770 Z " />
<glyph glyph-name="Yacute" unicode="&#xdd;" horiz-adv-x="600" d="M342 276 L342 0 L258 0 L258 276 L49 696 L142 696 L239 503 L301 370 L366 509 L460 696 L551 696 L342 276 Z M232 780 L380 902 L439 841 L269 738 L232 780 Z " />
<glyph glyph-name="Amacron" unicode="&#x100;" horiz-adv-x="600" d="M421 171 L175 171 L121 0 L29 0 L252 696 L348 696 L568 0 L475 0 L421 171 Z M297 583 Q287 549 276 506.5 Q265 464 249 413 L199 246 L398 246 L352 402 Q336 451 324 497.5 Q312 544 301 583 L297 583 Z M164 780 L164 855 L432 855 L432 780 L164 780 Z " />
<glyph glyph-name="Abreve" unicode="&#x102;" horiz-adv-x="600" d="M421 171 L175 171 L121 0 L29 0 L252 696 L348 696 L568 0 L475 0 L421 171 Z M297 583 Q287 549 276 506.5 Q265 464 249 413 L199 246 L398 246 L352 402 Q336 451 324 497.5 Q312 544 301 583 L297 583 Z M230 860 Q231 850 236 839 Q241 828 250 818.5 Q259 809 272 803 Q285 797 301 797 Q319 797 332.5 803 Q346 809 355 818.5 Q364 828 368.5 839 Q373 850 373 860 L444 860 Q442 840 435 817.5 Q428 795 411.5 776 Q395 757 368.5 744 Q342 731 301 731 Q260 731 232.5 744 Q205 757 188.5 776 Q172 795 164.5 817.5 Q157 840 157 860 L230 860 Z " />
<glyph glyph-name="Cacute" unicode="&#x106;" horiz-adv-x="600" d="M553 142 Q527 72 467 33 Q407 -6 322 -6 Q260 -6 213.5 15 Q167 36 136 71 Q105 106 90 153 Q75 200 75 252 L75 444 Q75 495 90 541.5 Q105 588 135 623.5 Q165 659 211 680 Q257 701 319 701 Q404 701 460.5 661 Q517 621 544 554 L462 517 Q445 562 409.5 589 Q374 616 320 616 Q279 616 249.5 601 Q220 586 200.5 561.5 Q181 537 171.5 505 Q162 473 162 440 L162 259 Q162 224 172 191.5 Q182 159 202 134 Q222 109 252 93.5 Q282 78 323 78 Q377 78 415.5 106.5 Q454 135 471 182 L553 142 Z M251 780 L399 902 L458 841 L288 738 L251 780 Z " />
<glyph glyph-name="Ccircumflex" unicode="&#x108;" horiz-adv-x="600" d="M553 142 Q527 72 467 33 Q407 -6 322 -6 Q260 -6 213.5 15 Q167 36 136 71 Q105 106 90 153 Q75 200 75 252 L75 444 Q75 495 90 541.5 Q105 588 135 623.5 Q165 659 211 680 Q257 701 319 701 Q404 701 460.5 661 Q517 621 544 554 L462 517 Q445 562 409.5 589 Q374 616 320 616 Q279 616 249.5 601 Q220 586 200.5 561.5 Q181 537 171.5 505 Q162 473 162 440 L162 259 Q162 224 172 191.5 Q182 159 202 134 Q222 109 252 93.5 Q282 78 323 78 Q377 78 415.5 106.5 Q454 135 471 182 L553 142 Z M320 826 L176 739 L147 777 L297 905 L350 905 L493 779 L463 740 L320 826 Z " />
<glyph glyph-name="Ccaron" unicode="&#x10c;" horiz-adv-x="600" d="M553 142 Q527 72 467 33 Q407 -6 322 -6 Q260 -6 213.5 15 Q167 36 136 71 Q105 106 90 153 Q75 200 75 252 L75 444 Q75 495 90 541.5 Q105 588 135 623.5 Q165 659 211 680 Q257 701 319 701 Q404 701 460.5 661 Q517 621 544 554 L462 517 Q445 562 409.5 589 Q374 616 320 616 Q279 616 249.5 601 Q220 586 200.5 561.5 Q181 537 171.5 505 Q162 473 162 440 L162 259 Q162 224 172 191.5 Q182 159 202 134 Q222 109 252 93.5 Q282 78 323 78 Q377 78 415.5 106.5 Q454 135 471 182 L553 142 Z M459 908 L489 869 L346 742 L293 742 L143 871 L172 909 L316 822 L459 908 Z " />
<glyph glyph-name="Dcaron" unicode="&#x10e;" horiz-adv-x="600" d="M292 696 Q370 696 433 666 Q496 636 529 567 Q548 529 552 477 Q556 425 556 360 Q556 287 552 233 Q548 179 531 138 Q514 99 487.5 72.5 Q461 46 428 30 Q395 14 356 7 Q317 0 275 0 L64 0 L64 696 L292 696 Z M468 412 Q468 469 455 508 Q442 547 418 571 Q394 595 361 605 Q328 615 288 615 L152 615 L152 81 L288 81 Q337 81 371.5 95 Q406 109 427.5 135 Q449 161 458.5 197.5 Q468 234 468 279 L468 412 Z M415 908 L445 869 L302 742 L249 742 L99 871 L128 909 L272 822 L415 908 Z " />
<glyph glyph-name="Emacron" unicode="&#x112;" horiz-adv-x="600" d="M90 0 L90 696 L516 696 L516 615 L178 615 L178 400 L480 400 L480 323 L178 323 L178 81 L536 81 L536 0 L90 0 Z M174 791 L174 866 L442 866 L442 791 L174 791 Z " />
<glyph glyph-name="Ebreve" unicode="&#x114;" horiz-adv-x="600" d="M90 0 L90 696 L516 696 L516 615 L178 615 L178 400 L480 400 L480 323 L178 323 L178 81 L536 81 L536 0 L90 0 Z M237 871 Q238 861 243 850 Q248 839 257 829.5 Q266 820 279 814 Q292 808 308 808 Q326 808 339.5 814 Q353 820 362 829.5 Q371 839 375.5 850 Q380 861 380 871 L451 871 Q449 851 442 828.5 Q435 806 418.5 787 Q402 768 375.5 755 Q349 742 308 742 Q267 742 239.5 755 Q212 768 195.5 787 Q179 806 171.5 828.5 Q164 851 164 871 L237 871 Z " />
<glyph glyph-name="Ecaron" unicode="&#x11a;" horiz-adv-x="600" d="M90 0 L90 696 L516 696 L516 615 L178 615 L178 400 L480 400 L480 323 L178 323 L178 81 L536 81 L536 0 L90 0 Z M441 908 L471 869 L328 742 L275 742 L125 871 L154 909 L298 822 L441 908 Z " />
<glyph glyph-name="Gcircumflex" unicode="&#x11c;" horiz-adv-x="600" d="M300 75 Q342 75 372 88.5 Q402 102 421.5 125 Q441 148 450 177.5 Q459 207 459 240 L459 293 L312 293 L312 373 L547 373 L547 241 Q547 188 530.5 142.5 Q514 97 482.5 64 Q451 31 404.5 12 Q358 -7 299 -7 Q236 -7 189.5 12.5 Q143 32 112.5 66 Q82 100 67 145.5 Q52 191 52 243 L52 454 Q52 503 67 548 Q82 593 113 627 Q144 661 190.5 681 Q237 701 299 701 Q384 701 446 662 Q508 623 535 556 L457 516 Q448 538 432.5 557 Q417 576 396 589.5 Q375 603 350.5 610.5 Q326 618 299 618 Q254 618 223 602.5 Q192 587 173.5 562 Q155 537 147 505 Q139 473 139 440 L139 253 Q139 218 147.5 186 Q156 154 175.5 129.5 Q195 105 225.5 90 Q256 75 300 75 Z M297 826 L153 739 L124 777 L274 905 L327 905 L470 779 L440 740 L297 826 Z " />
<glyph glyph-name="Gbreve" unicode="&#x11e;" horiz-adv-x="600" d="M300 75 Q342 75 372 88.5 Q402 102 421.5 125 Q441 148 450 177.5 Q459 207 459 240 L459 293 L312 293 L312 373 L547 373 L547 241 Q547 188 530.5 142.5 Q514 97 482.5 64 Q451 31 404.5 12 Q358 -7 299 -7 Q236 -7 189.5 12.5 Q143 32 112.5 66 Q82 100 67 145.5 Q52 191 52 243 L52 454 Q52 503 67 548 Q82 593 113 627 Q144 661 190.5 681 Q237 701 299 701 Q384 701 446 662 Q508 623 535 556 L457 516 Q448 538 432.5 557 Q417 576 396 589.5 Q375 603 350.5 610.5 Q326 618 299 618 Q254 618 223 602.5 Q192 587 173.5 562 Q155 537 147 505 Q139 473 139 440 L139 253 Q139 218 147.5 186 Q156 154 175.5 129.5 Q195 105 225.5 90 Q256 75 300 75 Z M221 875 Q222 865 227 854 Q232 843 241 833.5 Q250 824 263 818 Q276 812 292 812 Q310 812 323.5 818 Q337 824 346 833.5 Q355 843 359.5 854 Q364 865 364 875 L435 875 Q433 855 426 832.5 Q419 810 402.5 791 Q386 772 359.5 759 Q333 746 292 746 Q251 746 223.5 759 Q196 772 179.5 791 Q163 810 155.5 832.5 Q148 855 148 875 L221 875 Z " />
<glyph glyph-name="Hcircumflex" unicode="&#x124;" horiz-adv-x="600" d="M454 0 L454 324 L146 324 L146 0 L58 0 L58 696 L146 696 L146 401 L454 401 L454 696 L542 696 L542 0 L454 0 Z M298 826 L154 739 L125 777 L275 905 L328 905 L471 779 L441 740 L298 826 Z " />
<glyph glyph-name="Imacron" unicode="&#x12a;" horiz-adv-x="600" d="M122 696 L482 696 L482 616 L341 616 L341 81 L482 81 L482 0 L122 0 L122 81 L253 81 L253 616 L122 616 L122 696 Z M164 780 L164 855 L432 855 L432 780 L164 780 Z " />
<glyph glyph-name="Ibreve" unicode="&#x12c;" horiz-adv-x="600" d="M221 880 Q222 870 227 859 Q232 848 241 838.5 Q250 829 263 823 Q276 817 292 817 Q310 817 323.5 823 Q337 829 346 838.5 Q355 848 359.5 859 Q364 870 364 880 L435 880 Q433 860 426 837.5 Q419 815 402.5 796 Q386 777 359.5 764 Q333 751 292 751 Q251 751 223.5 764 Q196 777 179.5 796 Q163 815 155.5 837.5 Q148 860 148 880 L221 880 Z M122 696 L482 696 L482 616 L341 616 L341 81 L482 81 L482 0 L122 0 L122 81 L253 81 L253 616 L122 616 L122 696 Z " />
<glyph glyph-name="Jcircumflex" unicode="&#x134;" horiz-adv-x="600" d="M304 834 L160 747 L131 785 L281 913 L334 913 L477 787 L447 748 L304 834 Z M465 222 Q465 158 448.5 114.5 Q432 71 403 44 Q374 17 335 5.5 Q296 -6 252 -6 Q199 -6 154 14 Q109 34 80 66 L138 131 Q147 122 160 112.5 Q173 103 188 95 Q203 87 219 82 Q235 77 249 77 Q274 77 297 83 Q320 89 338 105 Q356 121 366.5 149.5 Q377 178 377 223 L377 616 L118 616 L118 696 L465 696 L465 222 Z " />
<glyph glyph-name="Nacute" unicode="&#x143;" horiz-adv-x="600" d="M433 0 L170 514 L167 513 L167 0 L79 0 L79 696 L169 696 L432 178 L435 180 L435 696 L522 696 L522 0 L433 0 Z M240 780 L388 902 L447 841 L277 738 L240 780 Z " />
<glyph glyph-name="Ncaron" unicode="&#x147;" horiz-adv-x="600" d="M433 0 L170 514 L167 513 L167 0 L79 0 L79 696 L169 696 L432 178 L435 180 L435 696 L522 696 L522 0 L433 0 Z M447 908 L477 869 L334 742 L281 742 L131 871 L160 909 L304 822 L447 908 Z " />
<glyph glyph-name="Omacron" unicode="&#x14c;" horiz-adv-x="600" d="M299 701 Q357 701 403 681.5 Q449 662 481 628 Q513 594 530 546.5 Q547 499 547 444 L547 252 Q547 193 529.5 145 Q512 97 479.5 63.5 Q447 30 401.5 12 Q356 -6 299 -6 Q236 -6 189.5 15 Q143 36 112.5 71 Q82 106 67 153 Q52 200 52 252 L52 444 Q52 495 67 541.5 Q82 588 113 623.5 Q144 659 190.5 680 Q237 701 299 701 Z M300 618 Q255 618 224.5 603 Q194 588 175 563.5 Q156 539 147.5 507 Q139 475 139 442 L139 257 Q139 222 147.5 189.5 Q156 157 175 132 Q194 107 225 91.5 Q256 76 300 76 Q341 76 371 90 Q401 104 420.5 128 Q440 152 449.5 185 Q459 218 459 257 L459 442 Q459 478 448.5 510 Q438 542 417.5 566 Q397 590 367.5 604 Q338 618 300 618 Z M163 794 L163 869 L431 869 L431 794 L163 794 Z " />
<glyph glyph-name="Obreve" unicode="&#x14e;" horiz-adv-x="600" d="M299 701 Q357 701 403 681.5 Q449 662 481 628 Q513 594 530 546.5 Q547 499 547 444 L547 252 Q547 193 529.5 145 Q512 97 479.5 63.5 Q447 30 401.5 12 Q356 -6 299 -6 Q236 -6 189.5 15 Q143 36 112.5 71 Q82 106 67 153 Q52 200 52 252 L52 444 Q52 495 67 541.5 Q82 588 113 623.5 Q144 659 190.5 680 Q237 701 299 701 Z M300 618 Q255 618 224.5 603 Q194 588 175 563.5 Q156 539 147.5 507 Q139 475 139 442 L139 257 Q139 222 147.5 189.5 Q156 157 175 132 Q194 107 225 91.5 Q256 76 300 76 Q341 76 371 90 Q401 104 420.5 128 Q440 152 449.5 185 Q459 218 459 257 L459 442 Q459 478 448.5 510 Q438 542 417.5 566 Q397 590 367.5 604 Q338 618 300 618 Z M224 877 Q225 867 230 856 Q235 845 244 835.5 Q253 826 266 820 Q279 814 295 814 Q313 814 326.5 820 Q340 826 349 835.5 Q358 845 362.5 856 Q367 867 367 877 L438 877 Q436 857 429 834.5 Q422 812 405.5 793 Q389 774 362.5 761 Q336 748 295 748 Q254 748 226.5 761 Q199 774 182.5 793 Q166 812 158.5 834.5 Q151 857 151 877 L224 877 Z " />
<glyph glyph-name="Ohungarumlaut" unicode="&#x150;" horiz-adv-x="600" d="M299 701 Q357 701 403 681.5 Q449 662 481 628 Q513 594 530 546.5 Q547 499 547 444 L547 252 Q547 193 529.5 145 Q512 97 479.5 63.5 Q447 30 401.5 12 Q356 -6 299 -6 Q236 -6 189.5 15 Q143 36 112.5 71 Q82 106 67 153 Q52 200 52 252 L52 444 Q52 495 67 541.5 Q82 588 113 623.5 Q144 659 190.5 680 Q237 701 299 701 Z M300 618 Q255 618 224.5 603 Q194 588 175 563.5 Q156 539 147.5 507 Q139 475 139 442 L139 257 Q139 222 147.5 189.5 Q156 157 175 132 Q194 107 225 91.5 Q256 76 300 76 Q341 76 371 90 Q401 104 420.5 128 Q440 152 449.5 185 Q459 218 459 257 L459 442 Q459 478 448.5 510 Q438 542 417.5 566 Q397 590 367.5 604 Q338 618 300 618 Z M303 780 L451 902 L510 841 L340 738 L303 780 Z M150 780 L298 902 L357 841 L187 738 L150 780 Z " />
<glyph glyph-name="Racute" unicode="&#x154;" horiz-adv-x="600" d="M451 0 L309 295 L171 295 L171 0 L83 0 L83 696 L347 696 Q392 696 429 681.5 Q466 667 492.5 640.5 Q519 614 533.5 578 Q548 542 548 500 Q548 428 507.5 374.5 Q467 321 398 304 L547 0 L451 0 Z M460 500 Q460 559 424 588 Q388 617 331 617 L171 617 L171 374 L327 374 Q392 374 426 407 Q460 440 460 500 Z M206 780 L354 902 L413 841 L243 738 L206 780 Z " />
<glyph glyph-name="Rcaron" unicode="&#x158;" horiz-adv-x="600" d="M451 0 L309 295 L171 295 L171 0 L83 0 L83 696 L347 696 Q392 696 429 681.5 Q466 667 492.5 640.5 Q519 614 533.5 578 Q548 542 548 500 Q548 428 507.5 374.5 Q467 321 398 304 L547 0 L451 0 Z M460 500 Q460 559 424 588 Q388 617 331 617 L171 617 L171 374 L327 374 Q392 374 426 407 Q460 440 460 500 Z M407 908 L437 869 L294 742 L241 742 L91 871 L120 909 L264 822 L407 908 Z " />
<glyph glyph-name="Sacute" unicode="&#x15a;" horiz-adv-x="600" d="M548 198 Q548 151 530.5 113.5 Q513 76 481 50 Q449 24 404.5 10.5 Q360 -3 306 -3 Q274 -3 239.5 3 Q205 9 171.5 21 Q138 33 106 50.5 Q74 68 48 92 L101 159 Q141 120 194.5 98 Q248 76 309 76 Q340 76 367.5 83 Q395 90 415.5 105 Q436 120 447.5 143.5 Q459 167 459 199 Q459 229 446.5 250.5 Q434 272 413 287 Q392 302 363.5 312 Q335 322 304 329 Q265 338 225.5 349 Q186 360 155 380 Q124 400 104.5 432.5 Q85 465 85 516 Q85 562 103.5 597.5 Q122 633 152.5 656 Q183 679 223 691 Q263 703 307 703 Q375 703 428.5 687 Q482 671 524 636 L480 566 Q443 591 402 606 Q361 621 313 621 Q245 621 208 595 Q171 569 171 521 Q171 494 182 475.5 Q193 457 215.5 444 Q238 431 273.5 420.5 Q309 410 358 398 Q390 390 423.5 377.5 Q457 365 484.5 342.5 Q512 320 530 285 Q548 250 548 198 Z M232 789 L380 911 L439 850 L269 747 L232 789 Z " />
<glyph glyph-name="Scircumflex" unicode="&#x15c;" horiz-adv-x="600" d="M548 198 Q548 151 530.5 113.5 Q513 76 481 50 Q449 24 404.5 10.5 Q360 -3 306 -3 Q274 -3 239.5 3 Q205 9 171.5 21 Q138 33 106 50.5 Q74 68 48 92 L101 159 Q141 120 194.5 98 Q248 76 309 76 Q340 76 367.5 83 Q395 90 415.5 105 Q436 120 447.5 143.5 Q459 167 459 199 Q459 229 446.5 250.5 Q434 272 413 287 Q392 302 363.5 312 Q335 322 304 329 Q265 338 225.5 349 Q186 360 155 380 Q124 400 104.5 432.5 Q85 465 85 516 Q85 562 103.5 597.5 Q122 633 152.5 656 Q183 679 223 691 Q263 703 307 703 Q375 703 428.5 687 Q482 671 524 636 L480 566 Q443 591 402 606 Q361 621 313 621 Q245 621 208 595 Q171 569 171 521 Q171 494 182 475.5 Q193 457 215.5 444 Q238 431 273.5 420.5 Q309 410 358 398 Q390 390 423.5 377.5 Q457 365 484.5 342.5 Q512 320 530 285 Q548 250 548 198 Z M305 826 L161 739 L132 777 L282 905 L335 905 L478 779 L448 740 L305 826 Z " />
<glyph glyph-name="Tcaron" unicode="&#x164;" horiz-adv-x="600" d="M346 616 L346 0 L258 0 L258 616 L60 616 L60 696 L544 696 L544 616 L346 616 Z M444 908 L474 869 L331 742 L278 742 L128 871 L157 909 L301 822 L444 908 Z " />
<glyph glyph-name="Umacron" unicode="&#x16a;" horiz-adv-x="600" d="M538 696 L538 254 Q538 198 524 150 Q510 102 480.5 67.5 Q451 33 406 13.5 Q361 -6 300 -6 Q234 -6 188.5 15 Q143 36 115 72 Q87 108 75 155 Q63 202 63 254 L63 696 L150 696 L150 261 Q150 226 157 193.5 Q164 161 181.5 135 Q199 109 228 93.5 Q257 78 301 78 Q382 78 416 126.5 Q450 175 450 261 L450 696 L538 696 Z M167 780 L167 855 L435 855 L435 780 L167 780 Z " />
<glyph glyph-name="Ubreve" unicode="&#x16c;" horiz-adv-x="600" d="M538 696 L538 254 Q538 198 524 150 Q510 102 480.5 67.5 Q451 33 406 13.5 Q361 -6 300 -6 Q234 -6 188.5 15 Q143 36 115 72 Q87 108 75 155 Q63 202 63 254 L63 696 L150 696 L150 261 Q150 226 157 193.5 Q164 161 181.5 135 Q199 109 228 93.5 Q257 78 301 78 Q382 78 416 126.5 Q450 175 450 261 L450 696 L538 696 Z M234 866 Q235 856 240 845 Q245 834 254 824.5 Q263 815 276 809 Q289 803 305 803 Q323 803 336.5 809 Q350 815 359 824.5 Q368 834 372.5 845 Q377 856 377 866 L448 866 Q446 846 439 823.5 Q432 801 415.5 782 Q399 763 372.5 750 Q346 737 305 737 Q264 737 236.5 750 Q209 763 192.5 782 Q176 801 168.5 823.5 Q161 846 161 866 L234 866 Z " />
<glyph glyph-name="Uhungarumlaut" unicode="&#x170;" horiz-adv-x="600" d="M538 696 L538 254 Q538 198 524 150 Q510 102 480.5 67.5 Q451 33 406 13.5 Q361 -6 300 -6 Q234 -6 188.5 15 Q143 36 115 72 Q87 108 75 155 Q63 202 63 254 L63 696 L150 696 L150 261 Q150 226 157 193.5 Q164 161 181.5 135 Q199 109 228 93.5 Q257 78 301 78 Q382 78 416 126.5 Q450 175 450 261 L450 696 L538 696 Z M318 780 L466 902 L525 841 L355 738 L318 780 Z M165 780 L313 902 L372 841 L202 738 L165 780 Z " />
<glyph glyph-name="Wcircumflex" unicode="&#x174;" horiz-adv-x="600" d="M296 361 L197 0 L113 0 L43 696 L131 696 L175 188 L179 188 L260 483 L339 483 L418 195 L422 195 L474 696 L557 696 L477 0 L396 0 L300 361 L296 361 Z M298 827 L154 740 L125 778 L275 906 L328 906 L471 780 L441 741 L298 827 Z " />
<glyph glyph-name="Ycircumflex" unicode="&#x176;" horiz-adv-x="600" d="M342 276 L342 0 L258 0 L258 276 L49 696 L142 696 L239 503 L301 370 L366 509 L460 696 L551 696 L342 276 Z M302 826 L158 739 L129 777 L279 905 L332 905 L475 779 L445 740 L302 826 Z " />
<glyph glyph-name="Zacute" unicode="&#x179;" horiz-adv-x="600" d="M78 0 L78 77 L420 616 L98 616 L98 696 L520 696 L520 626 L179 81 L530 81 L530 0 L78 0 Z M239 780 L387 902 L446 841 L276 738 L239 780 Z " />
<glyph glyph-name="i.2" unicode="&#xe04c;" horiz-adv-x="600" d="M141 496 L363 496 L363 0 L281 0 L281 424 L141 424 L141 496 Z M263 596 L263 696 L363 696 L363 596 L263 596 Z " />
<glyph glyph-name="l.2" unicode="&#xe04d;" horiz-adv-x="600" d="M160 726 L362 726 L362 161 Q362 134 368 117.5 Q374 101 385 91.5 Q396 82 410 79 Q424 76 441 76 L496 76 L496 0 L430 0 Q385 0 356 11.5 Q327 23 310 43 Q293 63 286.5 91.5 Q280 120 280 153 L280 654 L160 654 L160 726 Z " />
<glyph glyph-name="tonos" unicode="&#x384;" horiz-adv-x="600" d="M223 571 L295 748 L376 723 L276 551 L223 571 Z " />
<glyph glyph-name="dieresistonos" unicode="&#x385;" horiz-adv-x="600" d="M399 589 L399 678 L486 678 L486 589 L399 589 Z M114 589 L114 678 L201 678 L201 589 L114 589 Z M234 571 L306 748 L387 723 L287 551 L234 571 Z " />
<glyph glyph-name="Alphatonos" unicode="&#x386;" horiz-adv-x="600" d="M421 171 L175 171 L121 0 L29 0 L252 696 L348 696 L568 0 L475 0 L421 171 Z M297 583 Q287 549 276 506.5 Q265 464 249 413 L199 246 L398 246 L352 402 Q336 451 324 497.5 Q312 544 301 583 L297 583 Z M-12 551 L60 728 L141 703 L41 531 L-12 551 Z " />
<glyph glyph-name="anoteleia" unicode="&#x387;" horiz-adv-x="600" d="M248 285 L248 396 L351 396 L351 285 L248 285 Z " />
<glyph glyph-name="Epsilontonos" unicode="&#x388;" horiz-adv-x="600" d="M90 0 L90 696 L516 696 L516 615 L178 615 L178 400 L480 400 L480 323 L178 323 L178 81 L536 81 L536 0 L90 0 Z M-112 551 L-40 728 L41 703 L-59 531 L-112 551 Z " />
<glyph glyph-name="Etatonos" unicode="&#x389;" horiz-adv-x="600" d="M454 0 L454 324 L146 324 L146 0 L58 0 L58 696 L146 696 L146 401 L454 401 L454 696 L542 696 L542 0 L454 0 Z M-138 551 L-66 728 L15 703 L-85 531 L-138 551 Z " />
<glyph glyph-name="Iotatonos" unicode="&#x38a;" horiz-adv-x="600" d="M122 696 L482 696 L482 616 L341 616 L341 81 L482 81 L482 0 L122 0 L122 81 L253 81 L253 616 L122 616 L122 696 Z M-80 551 L-8 728 L73 703 L-27 531 L-80 551 Z " />
<glyph glyph-name="Omicrontonos" unicode="&#x38c;" horiz-adv-x="600" d="M299 701 Q357 701 403 681.5 Q449 662 481 628 Q513 594 530 546.5 Q547 499 547 444 L547 252 Q547 193 529.5 145 Q512 97 479.5 63.5 Q447 30 401.5 12 Q356 -6 299 -6 Q236 -6 189.5 15 Q143 36 112.5 71 Q82 106 67 153 Q52 200 52 252 L52 444 Q52 495 67 541.5 Q82 588 113 623.5 Q144 659 190.5 680 Q237 701 299 701 Z M300 618 Q255 618 224.5 603 Q194 588 175 563.5 Q156 539 147.5 507 Q139 475 139 442 L139 257 Q139 222 147.5 189.5 Q156 157 175 132 Q194 107 225 91.5 Q256 76 300 76 Q341 76 371 90 Q401 104 420.5 128 Q440 152 449.5 185 Q459 218 459 257 L459 442 Q459 478 448.5 510 Q438 542 417.5 566 Q397 590 367.5 604 Q338 618 300 618 Z M-83 551 L-11 728 L70 703 L-30 531 L-83 551 Z " />
<glyph glyph-name="Upsilontonos" unicode="&#x38e;" horiz-adv-x="600" d="M342 276 L342 0 L258 0 L258 276 L49 696 L142 696 L239 503 L301 370 L366 509 L460 696 L551 696 L342 276 Z M-154 551 L-82 728 L-1 703 L-101 531 L-154 551 Z " />
<glyph glyph-name="Omegatonos" unicode="&#x38f;" horiz-adv-x="600" d="M-83 551 L-11 728 L70 703 L-30 531 L-83 551 Z M357 95 Q407 112 433 159.5 Q459 207 459 270 L459 443 Q459 479 449 511.5 Q439 544 419 568.5 Q399 593 369 607 Q339 621 300 621 Q257 621 226.5 605.5 Q196 590 176.5 565 Q157 540 148 508 Q139 476 139 443 L139 270 Q139 242 145.5 215 Q152 188 165 165 Q178 142 197.5 123.5 Q217 105 244 95 L244 0 L38 0 L38 81 L126 81 Q105 94 90.5 115.5 Q76 137 67.5 163 Q59 189 55.5 217.5 Q52 246 52 275 L52 445 Q52 496 67 542.5 Q82 589 113 624.5 Q144 660 190.5 681 Q237 702 299 702 Q356 702 402 682.5 Q448 663 480.5 629 Q513 595 530 547.5 Q547 500 547 445 L547 275 Q547 213 531 163 Q515 113 473 81 L562 81 L562 0 L357 0 L357 95 Z " />
<glyph glyph-name="iotadieresistonos" unicode="&#x390;" horiz-adv-x="600" d="M512 76 L512 0 L452 0 Q402 0 368 10 Q334 20 312 42 Q290 64 280.5 100 Q271 136 271 188 L271 424 L131 424 L131 496 L353 496 L353 207 Q353 172 355.5 147.5 Q358 123 368.5 107 Q379 91 400 83.5 Q421 76 459 76 L512 76 Z M390 589 L390 678 L477 678 L477 589 L390 589 Z M105 589 L105 678 L192 678 L192 589 L105 589 Z M225 571 L297 748 L378 723 L278 551 L225 571 Z " />
<glyph glyph-name="Alpha" unicode="&#x391;" horiz-adv-x="600" d="M421 171 L175 171 L121 0 L29 0 L252 696 L348 696 L568 0 L475 0 L421 171 Z M297 583 Q287 549 276 506.5 Q265 464 249 413 L199 246 L398 246 L352 402 Q336 451 324 497.5 Q312 544 301 583 L297 583 Z " />
<glyph glyph-name="Beta" unicode="&#x392;" horiz-adv-x="600" d="M546 196 Q546 152 530.5 115.5 Q515 79 488.5 53.5 Q462 28 427.5 14 Q393 0 354 0 L68 0 L68 696 L325 696 Q427 696 478.5 648 Q530 600 530 519 Q530 498 524.5 475.5 Q519 453 506 432.5 Q493 412 473 394.5 Q453 377 425 367 L425 364 Q455 357 478 339.5 Q501 322 516 298.5 Q531 275 538.5 248.5 Q546 222 546 196 Z M156 619 L156 399 L314 399 Q378 399 410 431.5 Q442 464 442 512 Q442 559 410 589 Q378 619 314 619 L156 619 Z M156 323 L156 81 L329 81 Q362 81 386.5 91.5 Q411 102 426.5 119 Q442 136 450 158 Q458 180 458 203 Q458 226 450 248 Q442 270 426.5 286.5 Q411 303 386.5 313 Q362 323 329 323 L156 323 Z " />
<glyph glyph-name="Gamma" unicode="&#x393;" horiz-adv-x="600" d="M141 696 L570 696 L570 615 L229 615 L229 0 L141 0 L141 696 Z " />
<glyph glyph-name="Epsilon" unicode="&#x395;" horiz-adv-x="600" d="M90 0 L90 696 L516 696 L516 615 L178 615 L178 400 L480 400 L480 323 L178 323 L178 81 L536 81 L536 0 L90 0 Z " />
<glyph glyph-name="Zeta" unicode="&#x396;" horiz-adv-x="600" d="M78 0 L78 77 L420 616 L98 616 L98 696 L520 696 L520 626 L179 81 L530 81 L530 0 L78 0 Z " />
<glyph glyph-name="Eta" unicode="&#x397;" horiz-adv-x="600" d="M454 0 L454 324 L146 324 L146 0 L58 0 L58 696 L146 696 L146 401 L454 401 L454 696 L542 696 L542 0 L454 0 Z " />
<glyph glyph-name="Theta" unicode="&#x398;" horiz-adv-x="600" d="M172 393 L428 393 L428 318 L172 318 L172 393 Z M299 701 Q357 701 403 681.5 Q449 662 481 628 Q513 594 530 546.5 Q547 499 547 444 L547 252 Q547 193 529.5 145 Q512 97 479.5 63.5 Q447 30 401.5 12 Q356 -6 299 -6 Q236 -6 189.5 15 Q143 36 112.5 71 Q82 106 67 153 Q52 200 52 252 L52 444 Q52 495 67 541.5 Q82 588 113 623.5 Q144 659 190.5 680 Q237 701 299 701 Z M300 618 Q255 618 224.5 603 Q194 588 175 563.5 Q156 539 147.5 507 Q139 475 139 442 L139 257 Q139 222 147.5 189.5 Q156 157 175 132 Q194 107 225 91.5 Q256 76 300 76 Q341 76 371 90 Q401 104 420.5 128 Q440 152 449.5 185 Q459 218 459 257 L459 442 Q459 478 448.5 510 Q438 542 417.5 566 Q397 590 367.5 604 Q338 618 300 618 Z " />
<glyph glyph-name="Iota" unicode="&#x399;" horiz-adv-x="600" d="M122 696 L482 696 L482 616 L341 616 L341 81 L482 81 L482 0 L122 0 L122 81 L253 81 L253 616 L122 616 L122 696 Z " />
<glyph glyph-name="Kappa" unicode="&#x39a;" horiz-adv-x="600" d="M338 431 L573 0 L475 0 L283 359 L153 190 L153 0 L65 0 L65 696 L154 696 L154 322 L157 323 L445 696 L541 696 L338 431 Z " />
<glyph glyph-name="Lambda" unicode="&#x39b;" horiz-adv-x="600" d="M29 0 L253 696 L347 696 L568 0 L475 0 L301 583 L298 583 L121 0 L29 0 Z " />
<glyph glyph-name="Mu" unicode="&#x39c;" horiz-adv-x="600" d="M451 0 L451 505 L448 503 L339 226 L262 226 L153 505 L150 503 L150 0 L62 0 L62 696 L155 696 L301 326 L304 326 L448 696 L539 696 L539 0 L451 0 Z " />
<glyph glyph-name="Nu" unicode="&#x39d;" horiz-adv-x="600" d="M433 0 L170 514 L167 513 L167 0 L79 0 L79 696 L169 696 L432 178 L435 180 L435 696 L522 696 L522 0 L433 0 Z " />
<glyph glyph-name="Xi" unicode="&#x39e;" horiz-adv-x="600" d="M75 614 L75 696 L525 696 L525 614 L75 614 Z M129 313 L129 394 L471 394 L471 313 L129 313 Z M72 0 L72 83 L529 83 L529 0 L72 0 Z " />
<glyph glyph-name="Omicron" unicode="&#x39f;" horiz-adv-x="600" d="M299 701 Q357 701 403 681.5 Q449 662 481 628 Q513 594 530 546.5 Q547 499 547 444 L547 252 Q547 193 529.5 145 Q512 97 479.5 63.5 Q447 30 401.5 12 Q356 -6 299 -6 Q236 -6 189.5 15 Q143 36 112.5 71 Q82 106 67 153 Q52 200 52 252 L52 444 Q52 495 67 541.5 Q82 588 113 623.5 Q144 659 190.5 680 Q237 701 299 701 Z M300 618 Q255 618 224.5 603 Q194 588 175 563.5 Q156 539 147.5 507 Q139 475 139 442 L139 257 Q139 222 147.5 189.5 Q156 157 175 132 Q194 107 225 91.5 Q256 76 300 76 Q341 76 371 90 Q401 104 420.5 128 Q440 152 449.5 185 Q459 218 459 257 L459 442 Q459 478 448.5 510 Q438 542 417.5 566 Q397 590 367.5 604 Q338 618 300 618 Z " />
<glyph glyph-name="Pi" unicode="&#x3a0;" horiz-adv-x="600" d="M542 0 L454 0 L454 616 L146 616 L146 0 L58 0 L58 696 L542 696 L542 0 Z " />
<glyph glyph-name="Rho" unicode="&#x3a1;" horiz-adv-x="600" d="M547 485 Q547 449 534.5 412 Q522 375 496 346 Q470 317 428.5 298.5 Q387 280 329 280 L175 280 L175 0 L87 0 L87 696 L317 696 Q363 696 405 684 Q447 672 478.5 646.5 Q510 621 528.5 581 Q547 541 547 485 Z M455 488 Q455 552 419.5 583.5 Q384 615 319 615 L175 615 L175 361 L323 361 Q360 361 385.5 372.5 Q411 384 426.5 402 Q442 420 448.5 442.5 Q455 465 455 488 Z " />
<glyph glyph-name="Sigma" unicode="&#x3a3;" horiz-adv-x="600" d="M85 0 L85 77 L253 358 L86 626 L86 696 L513 696 L513 615 L192 615 L356 358 L188 81 L525 81 L525 0 L85 0 Z " />
<glyph glyph-name="Tau" unicode="&#x3a4;" horiz-adv-x="600" d="M346 616 L346 0 L258 0 L258 616 L60 616 L60 696 L544 696 L544 616 L346 616 Z " />
<glyph glyph-name="Upsilon" unicode="&#x3a5;" horiz-adv-x="600" d="M342 276 L342 0 L258 0 L258 276 L49 696 L142 696 L239 503 L301 370 L366 509 L460 696 L551 696 L342 276 Z " />
<glyph glyph-name="Phi" unicode="&#x3a6;" horiz-adv-x="600" d="M342 664 Q443 653 495.5 590.5 Q548 528 548 429 L548 290 Q548 188 497 126.5 Q446 65 342 54 L342 0 L257 0 L257 54 Q201 60 162.5 80.5 Q124 101 99.5 132.5 Q75 164 64 204.5 Q53 245 53 290 L53 429 Q53 473 64.5 513 Q76 553 101 584.5 Q126 616 164.5 636.5 Q203 657 257 663 L257 696 L342 696 L342 664 Z M462 427 Q462 490 432.5 529.5 Q403 569 342 579 L342 136 Q408 146 435 186.5 Q462 227 462 295 L462 427 Z M138 295 Q138 265 144 238.5 Q150 212 163.5 191.5 Q177 171 200 157 Q223 143 257 137 L257 580 Q222 574 199.5 560.5 Q177 547 163 527 Q149 507 143.5 481.5 Q138 456 138 427 L138 295 Z " />
<glyph glyph-name="Chi" unicode="&#x3a7;" horiz-adv-x="600" d="M464 0 L299 284 L135 0 L37 0 L251 357 L51 696 L149 696 L299 430 L450 696 L548 696 L348 357 L562 0 L464 0 Z " />
<glyph glyph-name="Psi" unicode="&#x3a8;" horiz-adv-x="600" d="M546 378 Q546 331 535 290 Q524 249 499.5 218 Q475 187 436.5 167.5 Q398 148 343 142 L343 0 L257 0 L257 142 Q202 148 163.5 167.5 Q125 187 100.5 218 Q76 249 65 289.5 Q54 330 54 378 L54 696 L140 696 L140 383 Q140 353 145.5 326.5 Q151 300 164.5 279.5 Q178 259 200.5 245 Q223 231 257 225 L257 696 L343 696 L343 225 Q378 230 401 244 Q424 258 437 279 Q450 300 455 326.5 Q460 353 460 383 L460 696 L546 696 L546 378 Z " />
<glyph glyph-name="Iotadieresis" unicode="&#x3aa;" horiz-adv-x="600" d="M122 696 L482 696 L482 616 L341 616 L341 81 L482 81 L482 0 L122 0 L122 81 L253 81 L253 616 L122 616 L122 696 Z M341 770 L341 858 L429 858 L429 770 L341 770 Z M161 770 L161 858 L249 858 L249 770 L161 770 Z " />
<glyph glyph-name="Upsilondieresis" unicode="&#x3ab;" horiz-adv-x="600" d="M342 276 L342 0 L258 0 L258 276 L49 696 L142 696 L239 503 L301 370 L366 509 L460 696 L551 696 L342 276 Z M346 770 L346 858 L434 858 L434 770 L346 770 Z M166 770 L166 858 L254 858 L254 770 L166 770 Z " />
<glyph glyph-name="alphatonos" unicode="&#x3ac;" horiz-adv-x="600" d="M102 244 Q102 294 110.5 340 Q119 386 140.5 421.5 Q162 457 198 478.5 Q234 500 290 500 Q326 500 358.5 487 Q391 474 414 440 L416 441 L416 496 L498 496 L498 0 L416 0 L416 55 L414 56 Q382 21 348.5 7.5 Q315 -6 279 -6 Q226 -6 192 14.5 Q158 35 138 69.5 Q118 104 110 149 Q102 194 102 244 Z M187 247 Q187 217 190.5 186.5 Q194 156 206 131.5 Q218 107 241 91.5 Q264 76 302 76 Q339 76 361.5 93 Q384 110 396 136 Q408 162 412 191.5 Q416 221 416 247 Q416 274 412.5 304.5 Q409 335 397 360.5 Q385 386 362.5 403 Q340 420 302 420 Q263 420 240 404 Q217 388 205.5 362.5 Q194 337 190.5 306.5 Q187 276 187 247 Z M257 571 L329 748 L410 723 L310 551 L257 571 Z " />
<glyph glyph-name="epsilontonos" unicode="&#x3ad;" horiz-adv-x="600" d="M267 571 L339 748 L420 723 L320 551 L267 571 Z M200 261 Q162 275 146 301 Q130 327 130 359 Q130 386 141 412 Q152 438 174.5 457.5 Q197 477 231 489 Q265 501 310 501 Q361 501 406.5 485 Q452 469 484 438 L435 378 Q406 403 375 413.5 Q344 424 312 424 Q270 424 241 406 Q212 388 212 353 Q212 330 230 313 Q248 296 291 296 L375 296 L375 223 L294 223 Q252 223 227.5 201.5 Q203 180 203 148 Q203 128 212 113.5 Q221 99 236.5 90 Q252 81 272 76.5 Q292 72 314 72 Q352 72 384 83.5 Q416 95 445 122 L496 64 Q462 32 412 14 Q362 -4 311 -4 Q225 -4 173.5 34.5 Q122 73 122 142 Q122 154 125.5 170.5 Q129 187 138 203.5 Q147 220 162 235 Q177 250 200 259 L200 261 Z " />
<glyph glyph-name="etatonos" unicode="&#x3ae;" horiz-adv-x="600" d="M414 0 L414 297 Q414 354 390 387 Q366 420 301 420 Q251 420 218 387 Q185 354 185 297 L185 0 L103 0 L103 496 L185 496 L185 434 L188 434 Q214 466 250 483.5 Q286 501 326 501 Q362 501 393 490.5 Q424 480 447 458.5 Q470 437 483 404.5 Q496 372 496 329 L496 0 L414 0 Z M233 571 L305 748 L386 723 L286 551 L233 571 Z " />
<glyph glyph-name="iotatonos" unicode="&#x3af;" horiz-adv-x="600" d="M501 76 L501 0 L441 0 Q391 0 357 10 Q323 20 301 42 Q279 64 269.5 100 Q260 136 260 188 L260 424 L120 424 L120 496 L342 496 L342 207 Q342 172 344.5 147.5 Q347 123 357.5 107 Q368 91 389 83.5 Q410 76 448 76 L501 76 Z M256 571 L328 748 L409 723 L309 551 L256 571 Z " />
<glyph glyph-name="upsilondieresistonos" unicode="&#x3b0;" horiz-adv-x="600" d="M497 173 Q497 133 482.5 100 Q468 67 441.5 43.5 Q415 20 378.5 7 Q342 -6 299 -6 Q255 -6 219 7 Q183 20 157 44 Q131 68 117 101 Q103 134 103 173 L103 496 L185 496 L185 198 Q185 141 217.5 107 Q250 73 300 73 Q350 73 382.5 107 Q415 141 415 198 L415 496 L497 496 L497 173 Z M399 589 L399 678 L486 678 L486 589 L399 589 Z M114 589 L114 678 L201 678 L201 589 L114 589 Z M234 571 L306 748 L387 723 L287 551 L234 571 Z " />
<glyph glyph-name="alpha" unicode="&#x3b1;" horiz-adv-x="600" d="M102 244 Q102 294 110.5 340 Q119 386 140.5 421.5 Q162 457 198 478.5 Q234 500 290 500 Q326 500 358.5 487 Q391 474 414 440 L416 441 L416 496 L498 496 L498 0 L416 0 L416 55 L414 56 Q382 21 348.5 7.5 Q315 -6 279 -6 Q226 -6 192 14.5 Q158 35 138 69.5 Q118 104 110 149 Q102 194 102 244 Z M187 247 Q187 217 190.5 186.5 Q194 156 206 131.5 Q218 107 241 91.5 Q264 76 302 76 Q339 76 361.5 93 Q384 110 396 136 Q408 162 412 191.5 Q416 221 416 247 Q416 274 412.5 304.5 Q409 335 397 360.5 Q385 386 362.5 403 Q340 420 302 420 Q263 420 240 404 Q217 388 205.5 362.5 Q194 337 190.5 306.5 Q187 276 187 247 Z " />
<glyph glyph-name="beta" unicode="&#x3b2;" horiz-adv-x="600" d="M503 233 Q503 188 494.5 145 Q486 102 465.5 68.5 Q445 35 410 14.5 Q375 -6 321 -6 Q286 -6 251 7 Q216 20 187 54 L185 53 L185 -145 L103 -145 L103 533 Q103 623 151.5 675.5 Q200 728 292 728 Q343 728 378 710.5 Q413 693 434 666.5 Q455 640 464 610 Q473 580 473 556 Q473 515 459 478 Q445 441 405 415 Q436 409 455.5 390.5 Q475 372 485.5 346.5 Q496 321 499.5 291 Q503 261 503 233 Z M416 238 Q416 262 412 287 Q408 312 397.5 332 Q387 352 368 365 Q349 378 319 378 L239 378 L239 449 L305 449 Q330 449 346.5 458.5 Q363 468 372.5 483 Q382 498 386 515.5 Q390 533 390 548 Q390 564 385 583.5 Q380 603 368 619 Q356 635 337 646 Q318 657 290 657 Q258 657 237.5 645.5 Q217 634 205.5 616.5 Q194 599 189.5 578 Q185 557 185 537 L185 245 Q185 217 189 186 Q193 155 205.5 129 Q218 103 240.5 86 Q263 69 301 69 Q338 69 360.5 85 Q383 101 395.5 125.5 Q408 150 412 180 Q416 210 416 238 Z " />
<glyph glyph-name="gamma" unicode="&#x3b3;" horiz-adv-x="600" d="M306 150 Q335 238 364.5 325.5 Q394 413 428 496 L516 496 Q469 379 427 265.5 Q385 152 342 24 L342 -200 L260 -200 L260 9 Q231 109 201.5 197 Q172 285 138 375 Q131 392 127 401.5 Q123 411 118 415.5 Q113 420 106 421 Q99 422 87 422 L83 422 L76 491 Q104 500 126 500 Q160 500 178.5 481 Q197 462 209 430 Q220 400 232 365 Q244 330 256 293 Q268 256 279 219.5 Q290 183 300 150 L306 150 Z " />
<glyph glyph-name="delta" unicode="&#x3b4;" horiz-adv-x="600" d="M303 435 Q262 431 237.5 413.5 Q213 396 199.5 369.5 Q186 343 181.5 310 Q177 277 177 242 Q177 152 206 110.5 Q235 69 300 69 Q359 69 390.5 108.5 Q422 148 422 243 Q422 290 414.5 323 Q407 356 392 378 Q377 400 354.5 413.5 Q332 427 303 435 Z M315 729 Q361 729 398 719 Q435 709 473 689 L437 618 Q405 636 375.5 644.5 Q346 653 314 653 Q276 653 252.5 638.5 Q229 624 229 597 Q229 570 259.5 547.5 Q290 525 341 502 Q375 486 410.5 464 Q446 442 466 412 Q487 380 496 336.5 Q505 293 505 241 Q505 175 489 128 Q473 81 445 51 Q417 21 379 7.5 Q341 -6 298 -6 Q95 -6 95 243 Q95 283 101 320 Q107 357 122 388.5 Q137 420 161 443.5 Q185 467 221 479 Q187 497 166.5 525.5 Q146 554 146 591 Q146 624 159.5 650 Q173 676 196 693.5 Q219 711 249.5 720 Q280 729 315 729 Z " />
<glyph glyph-name="epsilon" unicode="&#x3b5;" horiz-adv-x="600" d="M207 261 Q169 275 153 301 Q137 327 137 359 Q137 386 148 412 Q159 438 181.5 457.5 Q204 477 238 489 Q272 501 317 501 Q368 501 413.5 485 Q459 469 491 438 L442 378 Q413 403 382 413.5 Q351 424 319 424 Q277 424 248 406 Q219 388 219 353 Q219 330 237 313 Q255 296 298 296 L382 296 L382 223 L301 223 Q259 223 234.5 201.5 Q210 180 210 148 Q210 128 219 113.5 Q228 99 243.5 90 Q259 81 279 76.5 Q299 72 321 72 Q359 72 391 83.5 Q423 95 452 122 L503 64 Q469 32 419 14 Q369 -4 318 -4 Q232 -4 180.5 34.5 Q129 73 129 142 Q129 154 132.5 170.5 Q136 187 145 203.5 Q154 220 169 235 Q184 250 207 259 L207 261 Z " />
<glyph glyph-name="zeta" unicode="&#x3b6;" horiz-adv-x="600" d="M203 215 Q203 163 230 134.5 Q257 106 298 89 L417 40 Q468 20 482.5 -2 Q497 -24 497 -51 Q497 -69 488 -88.5 Q479 -108 466 -127.5 Q453 -147 438.5 -164.5 Q424 -182 413 -197 L354 -162 L395 -93 Q400 -85 403 -75.5 Q406 -66 406 -59 Q406 -37 361 -20 L263 17 Q200 41 160.5 89.5 Q121 138 121 213 Q121 255 140.5 306.5 Q160 358 197.5 414.5 Q235 471 290 528.5 Q345 586 415 639 L158 639 L158 711 L523 711 L523 643 Q454 591 395.5 535 Q337 479 294.5 423 Q252 367 227.5 314 Q203 261 203 215 Z " />
<glyph glyph-name="eta" unicode="&#x3b7;" horiz-adv-x="600" d="M414 0 L414 297 Q414 354 390 387 Q366 420 301 420 Q251 420 218 387 Q185 354 185 297 L185 0 L103 0 L103 496 L185 496 L185 434 L188 434 Q214 466 250 483.5 Q286 501 326 501 Q362 501 393 490.5 Q424 480 447 458.5 Q470 437 483 404.5 Q496 372 496 329 L496 0 L414 0 Z " />
<glyph glyph-name="theta" unicode="&#x3b8;" horiz-adv-x="600" d="M310 731 Q364 731 403.5 708.5 Q443 686 466 646 Q474 633 481.5 612.5 Q489 592 495 561 Q501 530 504.5 486.5 Q508 443 508 383 Q508 261 496 192 Q484 123 466 89 Q445 47 401.5 20.5 Q358 -6 299 -6 Q245 -6 205 14 Q165 34 139 72 Q129 87 121 111 Q113 135 107.5 170 Q102 205 99 254.5 Q96 304 96 370 Q96 467 108.5 531 Q121 595 132 617 Q157 671 201 701 Q245 731 310 731 Z M413 160 Q417 177 425 222 Q433 267 431 350 L174 350 Q173 298 174.5 263 Q176 228 179 204 Q182 180 185.5 165 Q189 150 193 140 Q204 106 230.5 87.5 Q257 69 302 69 Q389 69 413 160 Z M306 657 Q269 657 242 638.5 Q215 620 200 587 Q195 577 191 565 Q187 553 183.5 534.5 Q180 516 177.5 489 Q175 462 174 422 L431 422 Q431 440 430.5 463.5 Q430 487 427 511 Q424 535 418 558.5 Q412 582 402 602 Q389 627 365 642 Q341 657 306 657 Z " />
<glyph glyph-name="iota" unicode="&#x3b9;" horiz-adv-x="600" d="M501 76 L501 0 L441 0 Q391 0 357 10 Q323 20 301 42 Q279 64 269.5 100 Q260 136 260 188 L260 424 L120 424 L120 496 L342 496 L342 207 Q342 172 344.5 147.5 Q347 123 357.5 107 Q368 91 389 83.5 Q410 76 448 76 L501 76 Z " />
<glyph glyph-name="kappa" unicode="&#x3ba;" horiz-adv-x="600" d="M453 0 L289 249 L199 150 L199 0 L117 0 L117 496 L199 496 L199 257 L202 257 L416 496 L513 496 L344 309 L548 0 L453 0 Z " />
<glyph glyph-name="lambda" unicode="&#x3bb;" horiz-adv-x="600" d="M522 -1 Q509 -4 498 -5 Q487 -6 477 -6 Q447 -6 428.5 7.5 Q410 21 399 53 L337 235 L293 374 L290 374 L235 209 L158 0 L67 0 L251 492 L219 599 Q211 625 199.5 638 Q188 651 156 651 Q151 651 145.5 651 Q140 651 134 650 L129 724 Q157 730 180 730 Q228 730 253.5 705 Q279 680 295 632 L464 120 Q469 104 473 94 Q477 84 482.5 78 Q488 72 496.5 70 Q505 68 519 68 L522 -1 Z " />
<glyph glyph-name="nu" unicode="&#x3bd;" horiz-adv-x="600" d="M304 115 Q315 152 329.5 197 Q344 242 356 279 L428 496 L519 496 L336 0 L264 0 L80 496 L170 496 L242 280 Q253 248 268 205.5 Q283 163 300 115 L304 115 Z " />
<glyph glyph-name="xi" unicode="&#x3be;" horiz-adv-x="600" d="M472 614 Q434 637 404.5 643.5 Q375 650 348 650 Q318 650 295 641 Q272 632 256.5 617 Q241 602 232.5 582.5 Q224 563 224 541 Q224 515 234.5 494.5 Q245 474 263 460 Q281 446 304.5 438.5 Q328 431 353 431 L448 431 L448 360 L334 360 Q304 360 280 347 Q256 334 239.5 313.5 Q223 293 214.5 267 Q206 241 206 215 Q206 164 234 133 Q262 102 303 88 Q357 69 394 55.5 Q431 42 453.5 28 Q476 14 486 -3 Q496 -20 496 -45 Q496 -79 473 -120 Q450 -161 422 -197 L357 -164 Q370 -140 379 -123.5 Q388 -107 393.5 -96 Q399 -85 401 -79 Q403 -73 403 -68 Q403 -55 392 -45 Q381 -35 361 -28 L259 10 Q229 21 203 37 Q177 53 157.5 76.5 Q138 100 127 132.5 Q116 165 116 210 Q116 228 121.5 252.5 Q127 277 140.5 303 Q154 329 175.5 353.5 Q197 378 230 395 Q203 406 185 424.5 Q167 443 156.5 464.5 Q146 486 141.5 507 Q137 528 137 543 Q137 584 152.5 618.5 Q168 653 195 677.5 Q222 702 260 716 Q298 730 343 730 Q356 730 375.5 728.5 Q395 727 417 722.5 Q439 718 463 709.5 Q487 701 511 686 L472 614 L472 614 Z " />
<glyph glyph-name="omicron" unicode="&#x3bf;" horiz-adv-x="600" d="M303 500 Q359 500 402 478.5 Q445 457 471 417 Q488 390 496.5 351.5 Q505 313 505 265 Q505 201 498 157.5 Q491 114 474 85 Q448 41 404 17.5 Q360 -6 296 -6 Q242 -6 200 12.5 Q158 31 132 69 Q112 100 103.5 143 Q95 186 95 246 Q95 288 100.5 324.5 Q106 361 120 390 Q145 444 193 472 Q241 500 303 500 Z M301 426 Q225 426 195 359 Q184 336 181 307 Q178 278 177 245 Q177 212 179 184.5 Q181 157 191 135 Q205 103 232.5 86 Q260 69 297 69 Q340 69 370 90 Q400 111 414 157 Q419 175 420.5 198.5 Q422 222 422 262 Q422 291 419.5 314 Q417 337 409 355 Q395 392 365.5 409 Q336 426 301 426 Z " />
<glyph glyph-name="rho" unicode="&#x3c1;" horiz-adv-x="600" d="M302 500 Q399 500 451 438.5 Q503 377 503 259 Q503 121 450 57.5 Q397 -6 299 -6 Q260 -6 233 8.5 Q206 23 183 50 L181 47 L181 -197 L99 -197 L99 246 Q99 376 151.5 438 Q204 500 302 500 Z M300 426 Q237 426 208 378.5 Q179 331 179 245 Q179 161 205.5 115 Q232 69 295 69 Q356 69 388 111.5 Q420 154 420 258 Q420 346 387.5 386 Q355 426 300 426 Z " />
<glyph glyph-name="sigma1" unicode="&#x3c2;" horiz-adv-x="600" d="M459 372 Q433 398 406 408.5 Q379 419 351 419 Q282 419 242.5 376 Q203 333 203 243 Q203 189 222.5 152.5 Q242 116 293 95 L407 48 Q448 31 465 8.5 Q482 -14 482 -43 Q482 -77 460.5 -112 Q439 -147 410 -180 L347 -144 Q356 -130 363 -118.5 Q370 -107 375 -97 Q380 -86 383.5 -77 Q387 -68 387 -60 Q387 -46 376 -36.5 Q365 -27 342 -18 Q288 3 246.5 21 Q205 39 176 65.5 Q147 92 132 132 Q117 172 117 237 Q117 307 136 357 Q155 407 186.5 439 Q218 471 258.5 486 Q299 501 341 501 Q383 501 427.5 487.5 Q472 474 512 436 L459 372 L459 372 Z " />
<glyph glyph-name="sigma" unicode="&#x3c3;" horiz-adv-x="600" d="M440 422 Q468 402 482.5 361 Q497 320 497 244 Q497 118 442.5 56 Q388 -6 293 -6 Q239 -6 201 11.5 Q163 29 138.5 62 Q114 95 103 141 Q92 187 92 244 Q92 301 104.5 347.5 Q117 394 142.5 427 Q168 460 206.5 478 Q245 496 296 496 L548 496 L548 424 L440 424 L440 422 Z M295 420 Q233 420 203.5 372 Q174 324 174 247 Q174 166 203.5 118.5 Q233 71 295 71 Q351 71 382.5 114.5 Q414 158 414 244 Q414 332 382.5 376 Q351 420 295 420 Z " />
<glyph glyph-name="tau" unicode="&#x3c4;" horiz-adv-x="600" d="M66 424 L66 496 L508 496 L508 424 L292 424 L292 170 Q292 150 295.5 131.5 Q299 113 308.5 99 Q318 85 335.5 76.5 Q353 68 382 68 Q411 68 440.5 77.5 Q470 87 495 109 L536 44 Q493 12 450 2.5 Q407 -7 377 -7 Q341 -7 310 1.5 Q279 10 256.5 29.5 Q234 49 221.5 81 Q209 113 209 161 L209 424 L66 424 Z " />
<glyph glyph-name="upsilon" unicode="&#x3c5;" horiz-adv-x="600" d="M497 173 Q497 133 482.5 100 Q468 67 441.5 43.5 Q415 20 378.5 7 Q342 -6 299 -6 Q255 -6 219 7 Q183 20 157 44 Q131 68 117 101 Q103 134 103 173 L103 496 L185 496 L185 198 Q185 141 217.5 107 Q250 73 300 73 Q350 73 382.5 107 Q415 141 415 198 L415 496 L497 496 L497 173 Z " />
<glyph glyph-name="phi" unicode="&#x3c6;" horiz-adv-x="600" d="M337 69 Q373 70 397.5 84 Q422 98 436.5 122 Q451 146 457.5 178.5 Q464 211 464 249 Q464 281 459.5 312.5 Q455 344 441 368.5 Q427 393 402 409 Q377 425 337 426 L337 69 Z M256 -6 Q200 -4 161.5 16 Q123 36 99 69 Q75 102 64.5 147.5 Q54 193 54 246 Q54 360 86 416.5 Q118 473 181 491 L204 420 Q189 414 176 404.5 Q163 395 154 375.5 Q145 356 140 324.5 Q135 293 135 245 Q135 214 139.5 183 Q144 152 157 127 Q170 102 193.5 85.5 Q217 69 256 68 L256 501 L342 501 Q399 501 438 480.5 Q477 460 501 425.5 Q525 391 535.5 345 Q546 299 546 247 Q546 195 535.5 151 Q525 107 500 74 Q475 41 435 20 Q395 -1 337 -6 L337 -197 L256 -197 L256 -6 Z " />
<glyph glyph-name="chi" unicode="&#x3c7;" horiz-adv-x="600" d="M417 0 L300 189 L183 0 L84 0 L253 254 L92 496 L190 496 L300 313 L410 496 L509 496 L347 253 L516 0 L417 0 Z " />
<glyph glyph-name="psi" unicode="&#x3c8;" horiz-adv-x="600" d="M535 172 Q535 128 520.5 95.5 Q506 63 480 41.5 Q454 20 418 8 Q382 -4 339 -6 L339 -197 L259 -197 L259 -6 Q216 -4 180.5 8 Q145 20 120 42 Q95 64 81 95.5 Q67 127 67 168 L67 496 L148 496 L148 190 Q148 129 174 101.5 Q200 74 259 72 L259 515 L339 515 L339 72 Q399 74 426.5 100 Q454 126 454 190 L454 496 L535 496 L535 172 Z " />
<glyph glyph-name="omega" unicode="&#x3c9;" horiz-adv-x="600" d="M299 64 Q285 22 257.5 8 Q230 -6 198 -6 Q150 -6 123.5 19 Q97 44 84.5 81.5 Q72 119 69.5 163.5 Q67 208 67 246 Q67 312 72.5 359 Q78 406 93 436.5 Q108 467 133.5 482 Q159 497 200 500 L206 423 Q189 421 178.5 416 Q168 411 161 393.5 Q154 376 151.5 341 Q149 306 149 245 Q149 193 152 159 Q155 125 162 105 Q169 85 179.5 77 Q190 69 204 69 Q238 69 248.5 100 Q259 131 259 195 L259 355 L337 355 L337 195 Q337 131 347 100.5 Q357 70 392 70 Q408 70 419.5 78.5 Q431 87 438.5 107.5 Q446 128 449.5 161.5 Q453 195 453 246 Q453 302 451 335.5 Q449 369 443 388 Q437 407 426.5 414 Q416 421 398 423 L408 500 Q444 498 468.5 486 Q493 474 508 445.5 Q523 417 529.5 369 Q536 321 536 247 Q536 211 533 167 Q530 123 517 85 Q504 47 478.5 21 Q453 -5 407 -5 Q372 -5 345.5 8.5 Q319 22 303 64 L299 64 Z " />
<glyph glyph-name="iotadieresis" unicode="&#x3ca;" horiz-adv-x="600" d="M501 76 L501 0 L441 0 Q391 0 357 10 Q323 20 301 42 Q279 64 269.5 100 Q260 136 260 188 L260 424 L120 424 L120 496 L342 496 L342 207 Q342 172 344.5 147.5 Q347 123 357.5 107 Q368 91 389 83.5 Q410 76 448 76 L501 76 Z M325 597 L325 685 L413 685 L413 597 L325 597 Z M145 597 L145 685 L233 685 L233 597 L145 597 Z " />
<glyph glyph-name="upsilondieresis" unicode="&#x3cb;" horiz-adv-x="600" d="M497 173 Q497 133 482.5 100 Q468 67 441.5 43.5 Q415 20 378.5 7 Q342 -6 299 -6 Q255 -6 219 7 Q183 20 157 44 Q131 68 117 101 Q103 134 103 173 L103 496 L185 496 L185 198 Q185 141 217.5 107 Q250 73 300 73 Q350 73 382.5 107 Q415 141 415 198 L415 496 L497 496 L497 173 Z M349 597 L349 685 L437 685 L437 597 L349 597 Z M169 597 L169 685 L257 685 L257 597 L169 597 Z " />
<glyph glyph-name="omicrontonos" unicode="&#x3cc;" horiz-adv-x="600" d="M303 500 Q359 500 402 478.5 Q445 457 471 417 Q488 390 496.5 351.5 Q505 313 505 265 Q505 201 498 157.5 Q491 114 474 85 Q448 41 404 17.5 Q360 -6 296 -6 Q242 -6 200 12.5 Q158 31 132 69 Q112 100 103.5 143 Q95 186 95 246 Q95 288 100.5 324.5 Q106 361 120 390 Q145 444 193 472 Q241 500 303 500 Z M301 426 Q225 426 195 359 Q184 336 181 307 Q178 278 177 245 Q177 212 179 184.5 Q181 157 191 135 Q205 103 232.5 86 Q260 69 297 69 Q340 69 370 90 Q400 111 414 157 Q419 175 420.5 198.5 Q422 222 422 262 Q422 291 419.5 314 Q417 337 409 355 Q395 392 365.5 409 Q336 426 301 426 Z M254 571 L326 748 L407 723 L307 551 L254 571 Z " />
<glyph glyph-name="upsilontonos" unicode="&#x3cd;" horiz-adv-x="600" d="M247 571 L319 748 L400 723 L300 551 L247 571 Z M497 173 Q497 133 482.5 100 Q468 67 441.5 43.5 Q415 20 378.5 7 Q342 -6 299 -6 Q255 -6 219 7 Q183 20 157 44 Q131 68 117 101 Q103 134 103 173 L103 496 L185 496 L185 198 Q185 141 217.5 107 Q250 73 300 73 Q350 73 382.5 107 Q415 141 415 198 L415 496 L497 496 L497 173 Z " />
<glyph glyph-name="omegatonos" unicode="&#x3ce;" horiz-adv-x="600" d="M299 64 Q285 22 257.5 8 Q230 -6 198 -6 Q150 -6 123.5 19 Q97 44 84.5 81.5 Q72 119 69.5 163.5 Q67 208 67 246 Q67 312 72.5 359 Q78 406 93 436.5 Q108 467 133.5 482 Q159 497 200 500 L206 423 Q189 421 178.5 416 Q168 411 161 393.5 Q154 376 151.5 341 Q149 306 149 245 Q149 193 152 159 Q155 125 162 105 Q169 85 179.5 77 Q190 69 204 69 Q238 69 248.5 100 Q259 131 259 195 L259 355 L337 355 L337 195 Q337 131 347 100.5 Q357 70 392 70 Q408 70 419.5 78.5 Q431 87 438.5 107.5 Q446 128 449.5 161.5 Q453 195 453 246 Q453 302 451 335.5 Q449 369 443 388 Q437 407 426.5 414 Q416 421 398 423 L408 500 Q444 498 468.5 486 Q493 474 508 445.5 Q523 417 529.5 369 Q536 321 536 247 Q536 211 533 167 Q530 123 517 85 Q504 47 478.5 21 Q453 -5 407 -5 Q372 -5 345.5 8.5 Q319 22 303 64 L299 64 Z M251 571 L323 748 L404 723 L304 551 L251 571 Z " />
<glyph glyph-name="afii10023" unicode="&#x401;" horiz-adv-x="600" d="M90 0 L90 696 L516 696 L516 615 L178 615 L178 400 L480 400 L480 323 L178 323 L178 81 L536 81 L536 0 L90 0 Z M356 770 L356 858 L444 858 L444 770 L356 770 Z M176 770 L176 858 L264 858 L264 770 L176 770 Z " />
<glyph glyph-name="afii10051" unicode="&#x402;" horiz-adv-x="600" d="M395 469 Q480 469 531 402.5 Q582 336 582 211 Q582 164 573.5 120.5 Q565 77 543.5 43.5 Q522 10 486 -10 Q450 -30 396 -30 Q389 -30 380 -29.5 Q371 -29 362 -28 L362 42 L380 42 Q440 42 467 82 Q494 122 494 212 Q494 307 464.5 347 Q435 387 384 387 Q347 387 317 373.5 Q287 360 261 340 L261 0 L174 0 L174 616 L17 616 L17 696 L493 696 L493 616 L261 616 L261 418 L262 417 Q294 442 325.5 455.5 Q357 469 395 469 Z " />
<glyph glyph-name="afii10052" unicode="&#x403;" horiz-adv-x="600" d="M277 780 L425 902 L484 841 L314 738 L277 780 Z M141 696 L570 696 L570 615 L229 615 L229 0 L141 0 L141 696 Z " />
<glyph glyph-name="afii10053" unicode="&#x404;" horiz-adv-x="600" d="M548 142 Q522 72 463 33 Q404 -6 319 -6 Q257 -6 210.5 15 Q164 36 133 71 Q102 106 87 153 Q72 200 72 252 L72 444 Q72 495 87 541.5 Q102 588 133 623.5 Q164 659 210.5 680 Q257 701 319 701 Q404 701 462 661 Q520 621 547 554 L465 517 Q448 562 411 589 Q374 616 320 616 Q279 616 249 601 Q219 586 199 561.5 Q179 537 169 505 Q159 473 159 440 L159 390 L399 390 L399 313 L159 313 L159 259 Q159 224 169 191.5 Q179 159 199 134 Q219 109 249 93.5 Q279 78 320 78 Q374 78 411.5 106.5 Q449 135 466 182 L548 142 Z " />
<glyph glyph-name="afii10054" unicode="&#x405;" horiz-adv-x="600" d="M548 198 Q548 151 530.5 113.5 Q513 76 481 50 Q449 24 404.5 10.5 Q360 -3 306 -3 Q274 -3 239.5 3 Q205 9 171.5 21 Q138 33 106 50.5 Q74 68 48 92 L101 159 Q141 120 194.5 98 Q248 76 309 76 Q340 76 367.5 83 Q395 90 415.5 105 Q436 120 447.5 143.5 Q459 167 459 199 Q459 229 446.5 250.5 Q434 272 413 287 Q392 302 363.5 312 Q335 322 304 329 Q265 338 225.5 349 Q186 360 155 380 Q124 400 104.5 432.5 Q85 465 85 516 Q85 562 103.5 597.5 Q122 633 152.5 656 Q183 679 223 691 Q263 703 307 703 Q375 703 428.5 687 Q482 671 524 636 L480 566 Q443 591 402 606 Q361 621 313 621 Q245 621 208 595 Q171 569 171 521 Q171 494 182 475.5 Q193 457 215.5 444 Q238 431 273.5 420.5 Q309 410 358 398 Q390 390 423.5 377.5 Q457 365 484.5 342.5 Q512 320 530 285 Q548 250 548 198 Z " />
<glyph glyph-name="afii10055" unicode="&#x406;" horiz-adv-x="600" d="M122 696 L482 696 L482 616 L341 616 L341 81 L482 81 L482 0 L122 0 L122 81 L253 81 L253 616 L122 616 L122 696 Z " />
</font>
</svg>
